<svg id="Layer_1" data-name="Layer 1" xmlns="http://www.w3.org/2000/svg" viewBox="0 0 637.28 763.91"><defs><style>.cls-1{fill:#ef5c3f;}.cls-2{fill:#ffc022;}.cls-3{fill:#564336;}.cls-4{fill:#ffa21a;}.cls-5{fill:#d6cfc1;}.cls-6{fill:#ede6d9;}.cls-7{fill:#e8b618;}.cls-8{fill:#ed7454;}.cls-9{fill:#f2ead7;}</style></defs><polygon class="cls-1" points="514 699.82 515.83 731.96 517.66 732.22 518.7 699.56 514 699.82"/><polygon class="cls-1" points="586.05 696.77 587.88 728.91 589.71 729.17 590.75 696.51 586.05 696.77"/><path class="cls-2" d="M601.08,619.52c-6.85-14.46-21.14-22.83-21.14-22.83s-5.11-22.22-20-29.11c-25.54-11.86-49.09,4.25-50.88,30.59-12.67,7.4-21.94,17.56-25.06,33.7-3.4,17.58-3.75,40.24,7.42,55.37,17.61,23.82,51.72,27.59,78.62,21.33C622.39,696.39,609.68,637.68,601.08,619.52Z"/><polygon class="cls-2" points="536.5 565.28 538.53 553.1 541.24 556.48 550.03 545.66 550.37 556.48 556.8 556.82 551.05 566.97 536.5 565.28"/><path class="cls-3" d="M564.65,580.16a2.95,2.95,0,1,1-2.95-2.95A2.95,2.95,0,0,1,564.65,580.16Z"/><circle class="cls-3" cx="527.71" cy="579.49" r="2.95"/><path class="cls-1" d="M541.29,585.42c.74,4.2,3.63,9.63,5.35,8.93s5.71-8.56,4.56-9.89C549.1,582,540.59,581.49,541.29,585.42Z"/><polygon class="cls-1" points="501.95 733.31 502.44 734.68 514.76 730.57 514.76 738.79 516.69 738.51 517.66 732.22 522.49 736.87 523.94 735.78 517.42 727.29 501.95 733.31"/><polygon class="cls-1" points="587.92 725.95 575.4 730.35 575.74 732.72 586.23 729.67 586.57 737.45 588.93 737.45 589.71 729.17 598.07 733.73 599.08 732.38 590.29 725.95 587.92 725.95"/><polygon class="cls-4" points="504.03 620.75 511.13 634.28 519.25 622.11 513.5 622.11 510.8 626.84 509.78 621.09 504.03 620.75"/><polygon class="cls-4" points="525.68 622.11 532.78 635.64 540.9 623.46 535.15 623.46 532.44 628.2 531.43 622.44 525.68 622.11"/><polygon class="cls-4" points="546.53 623.47 555.3 635.98 561.8 622.87 556.09 623.6 554.01 628.65 552.27 623.07 546.53 623.47"/><polygon class="cls-4" points="567.99 621.38 577.17 633.6 583.24 620.28 577.56 621.2 575.64 626.31 573.72 620.8 567.99 621.38"/><polygon class="cls-4" points="560.55 637.96 569.73 650.18 575.79 636.86 570.12 637.78 568.2 642.88 566.28 637.37 560.55 637.96"/><polygon class="cls-4" points="538.2 639.07 545.98 652.23 553.47 639.66 547.73 639.95 545.26 644.81 543.96 639.12 538.2 639.07"/><polygon class="cls-4" points="515.88 638.4 523.65 651.55 531.15 638.98 525.4 639.27 522.94 644.14 521.64 638.45 515.88 638.4"/><polygon class="cls-4" points="527.38 655.99 535.15 669.14 542.65 656.57 536.9 656.86 534.44 661.73 533.14 656.03 527.38 655.99"/><polygon class="cls-4" points="552.1 655.27 559.88 668.42 567.37 655.85 561.63 656.14 559.17 661.01 557.86 655.31 552.1 655.27"/><polygon class="cls-4" points="541.96 671.5 549.73 684.66 557.23 672.09 551.48 672.38 549.02 677.24 547.72 671.55 541.96 671.5"/><path class="cls-4" d="M165,569.05c4.81-2.35,8.55-7,13.53-9.45,5.46-2.66,14.66-6.17,20.68-5.76a29.89,29.89,0,0,1-3.3,6.47c3.41.24,6.91-.06,10.33.12-.42,2.89-3,5.93-4.69,8.3,2.89.09,5.54-.82,8.51-.65-2,3.48-5.75,9.34-5.46,13.41,2.47-.5,4.48-2.82,6.83-3.37.7,5.84-3.12,13.56-5.71,18.53-3.81,7.32-10.05,13.34-16.42,18.44-1.39,1.12-6.08,3.57-5.22,5.3Z"/><path class="cls-4" d="M84.85,585s-4.86-3.82-18.73-2.08c-7.92,1-22.2,8.67-22.2,8.67l8.67,1.73C55.71,593,45,604.78,45,604.78l9.71,2.08-4.51,6.24L60.22,619l-4.85,5.2s27.75,12.49,37.8,4.86C102.1,622.28,84.85,585,84.85,585Z"/><polygon class="cls-1" points="114.52 660.57 116.19 690.06 117.87 690.3 118.83 660.33 114.52 660.57"/><polygon class="cls-1" points="179.44 647 206.21 659.48 207.22 658.12 181.27 643.09 179.44 647"/><path class="cls-2" d="M180.6,576.36c-8.34-12.08-22.52-17.55-22.52-17.55s-7.93-19.36-22.39-23.4c-24.89-7-43.82,11.11-41.54,35.24-10.38,8.58-17.27,19.15-17.7,34.23-.48,16.42,2.56,37,14.92,49,19.47,19,50.92,17.32,74.36,7.67C211.29,642.81,191.08,591.53,180.6,576.36Z"/><polygon class="cls-2" points="106.07 546.8 99.3 537.72 103.26 538.08 101.69 525.37 109.07 532.03 113.38 527.99 116.44 538.25 106.07 546.8"/><path class="cls-3" d="M144.62,539.22a2.71,2.71,0,1,1-3.11-2.24A2.71,2.71,0,0,1,144.62,539.22Z"/><path class="cls-3" d="M118.91,554a2.71,2.71,0,1,1-3.11-2.24A2.71,2.71,0,0,1,118.91,554Z"/><path class="cls-1" d="M133.25,554.24c3.11,2.36,8.45,4.23,9.17,2.69s-1.48-9.33-3.08-9.52C136.4,547.07,130.34,552,133.25,554.24Z"/><polygon class="cls-1" points="103.46 691.3 103.9 692.56 115.21 688.79 115.21 696.33 116.98 696.08 117.87 690.3 122.31 694.57 123.64 693.57 117.65 685.78 103.46 691.3"/><polygon class="cls-1" points="203.84 658.16 201.96 670.19 204.02 670.95 206.11 661.15 212.55 664.25 213.57 662.34 207.22 658.12 214.53 653.34 213.88 651.93 204.87 656.25 203.84 658.16"/><polygon class="cls-4" points="92.89 591.85 101.33 603.05 106.88 590.82 101.67 591.67 99.92 596.36 98.15 591.3 92.89 591.85"/><polygon class="cls-4" points="112.7 589.87 121.14 601.07 126.69 588.84 121.48 589.69 119.73 594.38 117.96 589.32 112.7 589.87"/><polygon class="cls-4" points="131.78 588.01 141.58 598.05 145.52 585.21 140.47 586.72 139.33 591.59 136.93 586.8 131.78 588.01"/><polygon class="cls-4" points="150.91 582.94 161.03 592.65 164.55 579.69 159.55 581.36 158.57 586.27 156.01 581.56 150.91 582.94"/><polygon class="cls-4" points="146.63 599.05 156.75 608.76 160.27 595.8 155.27 597.48 154.29 602.38 151.73 597.68 146.63 599.05"/><polygon class="cls-4" points="126.56 603.38 135.55 614.14 140.47 601.64 135.31 602.76 133.8 607.53 131.78 602.57 126.56 603.38"/><polygon class="cls-4" points="106.24 606.07 115.23 616.84 120.15 604.34 114.99 605.45 113.48 610.22 111.46 605.26 106.24 606.07"/><polygon class="cls-4" points="119.26 620.3 128.25 631.06 133.17 618.57 128.02 619.68 126.5 624.45 124.48 619.49 119.26 620.3"/><polygon class="cls-4" points="141.54 615.98 150.53 626.75 155.46 614.25 150.3 615.36 148.79 620.13 146.77 615.17 141.54 615.98"/><polygon class="cls-4" points="134.76 632.19 143.75 642.95 148.68 630.46 143.52 631.57 142.01 636.34 139.98 631.38 134.76 632.19"/><polygon class="cls-1" points="397.65 697.65 361.08 722.12 364.48 725.43 395.94 708.89 388.29 733.37 395.1 733.37 404.45 711.54 424.01 730.72 429.11 728.74 407 698.97 397.65 697.65 397.65 697.65"/><polygon class="cls-1" points="268.38 695.1 261.58 696.8 219.06 710.4 221.61 715.51 258.18 707.85 242.87 728.26 250.52 728.26 263.28 710.4 276.88 728.26 280.29 726.56 268.38 695.1"/><polygon class="cls-1" points="389.99 596.16 400.2 711.82 407.85 712.67 407.85 591.91 389.99 596.16"/><polygon class="cls-1" points="252.22 597.86 262.43 705.87 269.23 706.72 267.53 595.31 252.22 597.86"/><path class="cls-5" d="M178.24,326.86c-11.91,1.7-42.53,8.51-68,18.71s-55.28,35.72-55.28,35.72l13.61,4.25-34,28.06,32.32,4.26L45.57,438.27l30.61,2.55L55.77,462.08s26.37,9.35,66.34,4.25,79.94-23,79.94-23Z"/><path class="cls-6" d="M206.3,544.57c-34.23-20.66-60.38-91.85-63.78-144.57s4.25-126.72,2.55-155.63-39.12-97-23.81-136.07S201.2,53.87,241.17,81.09c74.38,50.64,81.64,126.71,97,170.93,0,0,103.75,10.21,153.92,27.22,35.41,12,71.44,25.51,71.44,25.51l-16.16,14.46L573.68,332s-26.36,28.07-23,27.22,28.92-11.06,28.07-8.51-22.11,42.52-22.11,42.52,23.81-10.2,22.11-7.65S526.06,538.62,442.72,554.78,251.37,571.78,206.3,544.57Z"/><path class="cls-5" d="M241.17,81.09c-40-27.22-104.61-11.91-119.91,27.21s22.11,107.15,23.81,136.07c.45,7.74.24,18.71-.25,31.63l18.11-7,17,14.46L199.5,252l29.76,22.11,11.91-25.51,23.81,17L281.14,241l27.21,17s5.1-24.67,6.8-22.11c1,1.43,10.81,3.14,19.23,4.35C321.11,195.18,309.3,127.47,241.17,81.09Z"/><path class="cls-7" d="M166,176.59s3.74-10.46-6.46-22.37c-9.86-11.49-23.06-5-23.06-5s-23.28,44.24-18.54,48.8S166,176.59,166,176.59Z"/><circle class="cls-3" cx="210.55" cy="133.81" r="7.5"/><path class="cls-3" d="M130.46,137.22a7.51,7.51,0,1,1-7.5-7.51A7.5,7.5,0,0,1,130.46,137.22Z"/><path class="cls-1" d="M133.16,96.4s-15.31-31.47-6-45.08,23-5.1,23-5.1,10.21-17.86,28.07-19.56,23,10.21,23,10.21,3.4-7.66,17.86-2.56A22.47,22.47,0,0,1,234.36,53l2.56,25.52s-24.67-9.36-56.13-4.26S133.16,96.4,133.16,96.4Z"/><path class="cls-5" d="M380.19,311.07c-38.34,19-60.68,70.95-4.4,119.25C448.43,492.67,546,483.78,546,483.78l-5.57-16,51.15,1.83L567.21,433.4l45.8-5.12-26.21-24,18.63-8.85s-29.77-50.79-79.8-77.06C477.51,293.14,435,283.86,380.19,311.07Z"/><path class="cls-6" d="M259.85,618.58c25.92-.6,23.19-52.33,23.82-73.16l-55.26-9.35C228.41,554.68,232.36,619.21,259.85,618.58Z"/><path class="cls-6" d="M283.88,541.24c-.1,1.19-.17,2.6-.21,4.18h0C284,543.46,285.35,542.61,283.88,541.24Z"/><path class="cls-6" d="M420.8,543.79c-.1,1.19-.17,2.6-.22,4.18h0C420.87,546,422.27,545.16,420.8,543.79Z"/><path class="cls-6" d="M396.77,621.13c25.92-.6,23.19-52.32,23.81-73.16l-55.25-9.35C365.33,557.23,369.28,621.76,396.77,621.13Z"/><path class="cls-8" d="M152.74,52.15c-3.68-11-20.51-5.5-20.79,4.57-4.49,7.62-3.67,18.29,5.34,20.85,1.14-7.42,1.54-9,7.14-13.28C148.73,61,155.25,59.66,152.74,52.15Z"/><path class="cls-8" d="M178.14,34.46c-6.56-1-17.54,1.58-19.27,8.55-3.21,12.93,14.46,8.47,20.24,5.1C198.76,36.66,189.13,32.73,178.14,34.46Z"/><polygon class="cls-5" points="154.42 326.01 173.77 363.43 187.59 324.31 177.23 326.01 172.39 341.32 164.1 325.16 154.42 326.01"/><polygon class="cls-5" points="197.79 326.01 219.91 363.43 241.17 317.51 223.31 323.46 215.65 343.02 208.85 326.86 197.79 326.01"/><polygon class="cls-5" points="257.32 319.21 276.04 354.93 287.94 311.55 276.04 314.1 271.78 332.81 264.98 314.95 257.32 319.21"/><polygon class="cls-5" points="178.24 375.34 191.84 410.2 210.55 375.34 197.79 375.34 192.69 386.39 190.14 374.49 178.24 375.34"/><polygon class="cls-5" points="231.81 371.93 249.67 411.05 266.68 365.98 253.07 369.38 248.82 389.79 244.57 369.38 231.81 371.93"/><polygon class="cls-5" points="207.15 427.21 225.86 463.78 236.06 423.81 225.01 423.81 220.76 437.42 216.5 423.81 207.15 427.21"/><path class="cls-9" d="M366.81,392.66A155.54,155.54,0,0,0,381,401.74c4.49,2.51,9.39,5,14.51,5.81,1.79.29,2.56-2.44.76-2.74-4.94-.79-9.5-3.14-13.84-5.52a150,150,0,0,1-14.17-9.07c-1.5-1.07-2.91,1.39-1.43,2.44Z"/><path class="cls-9" d="M367.15,363.32c9.41,2.48,17.8,7.74,27.21,10.21a1.42,1.42,0,0,0,.75-2.73c-9.41-2.48-17.8-7.74-27.21-10.21a1.42,1.42,0,0,0-.75,2.73Z"/><path class="cls-9" d="M385.67,335c9.62,1.27,18.91,4.5,28,7.88,1.71.64,2.45-2.1.75-2.73-9.32-3.48-18.82-6.67-28.72-8-1.81-.24-1.79,2.6,0,2.84Z"/><path class="cls-9" d="M429.51,315.7c14.75,2.44,30.5,4.05,43.89,11.19,1.61.86,3-1.58,1.43-2.44-13.64-7.29-29.54-9-44.56-11.49-1.79-.29-2.56,2.44-.76,2.74Z"/><path class="cls-9" d="M444.26,344.05c9.31,2.32,18.86,4.5,26.87,10.06,1.51,1.05,2.92-1.41,1.43-2.45-8.2-5.7-18-8-27.55-10.35a1.42,1.42,0,0,0-.75,2.74Z"/><path class="cls-9" d="M426.11,374.66c9.08,2.37,17.35,6.88,26.08,10.21,1.71.65,2.45-2.09.76-2.73-8.73-3.33-17-7.85-26.08-10.21a1.42,1.42,0,0,0-.76,2.73Z"/><path class="cls-9" d="M423.09,405.33a1.42,1.42,0,0,0,0-2.83,1.42,1.42,0,0,0,0,2.83Z"/><path class="cls-9" d="M422.71,405.28c7.83,2.34,14.84,6.73,22.68,9.07,1.75.53,2.5-2.21.75-2.73-7.83-2.34-14.84-6.73-22.68-9.07-1.75-.53-2.5,2.21-.75,2.73Z"/><path class="cls-9" d="M419.68,445c14,1.38,25.54,11.08,39.32,13.56,1.78.32,2.55-2.41.75-2.74-14.05-2.52-25.71-12.25-40.07-13.66-1.81-.17-1.8,2.66,0,2.84Z"/><path class="cls-9" d="M482.05,454.09a1.42,1.42,0,0,0,0-2.83,1.42,1.42,0,0,0,0,2.83Z"/><path class="cls-9" d="M482.05,454.09a229.68,229.68,0,0,0,27.22,2.27,1.42,1.42,0,0,0,0-2.84,227.58,227.58,0,0,1-27.22-2.26c-1.81-.23-1.79,2.61,0,2.83Z"/><path class="cls-9" d="M474.12,430.28a1.42,1.42,0,0,0,0-2.84,1.42,1.42,0,0,0,0,2.84Z"/><path class="cls-9" d="M474.12,430.28c5.46-.58,10.94.74,16.2,2.07,5.84,1.48,11.57,3.35,17.44,4.68,1.78.41,2.53-2.33.75-2.73-5.87-1.34-11.61-3.17-17.43-4.68-5.46-1.41-11.3-2.78-17-2.18-1.8.19-1.82,3,0,2.84Z"/><path class="cls-9" d="M484.32,395.12c10.48,1.27,20.52,5.36,29.9,10,1.63.81,3.07-1.64,1.43-2.45-9.87-4.9-20.32-9.07-31.33-10.4-1.81-.22-1.79,2.62,0,2.83Z"/><path class="cls-9" d="M493,354.25c9.37,3.6,17.93,9,26.87,13.47,1.63.82,3.07-1.63,1.43-2.45-9.16-4.62-17.94-10.07-27.55-13.75-1.71-.66-2.44,2.08-.75,2.73Z"/><path class="cls-9" d="M502.88,324.63c10.51,5.81,21.25,11.19,31.75,17,1.6.88,3-1.57,1.43-2.45-10.5-5.82-21.24-11.2-31.75-17-1.6-.89-3,1.56-1.43,2.45Z"/><path class="cls-9" d="M547.82,365.64a1.42,1.42,0,0,0,0-2.83,1.42,1.42,0,0,0,0,2.83Z"/><path class="cls-9" d="M547.11,365.45c7.71,3.86,15.46,7.72,22.68,12.47,1.53,1,3-1.44,1.43-2.45-7.22-4.75-15-8.61-22.68-12.47-1.63-.81-3.07,1.63-1.43,2.45Z"/><path class="cls-9" d="M542.57,391.53a191.18,191.18,0,0,0,24.95,14.74c1.63.82,3.06-1.63,1.43-2.45a190.06,190.06,0,0,1-25-14.74c-1.49-1.06-2.91,1.4-1.43,2.45Z"/><path class="cls-9" d="M534.63,433.49A248.44,248.44,0,0,0,558.45,446c1.66.72,3.1-1.72,1.43-2.45A244,244,0,0,1,536.06,431a1.42,1.42,0,0,0-1.43,2.45Z"/><path class="cls-9" d="M65.47,401.74a237.45,237.45,0,0,1,30.28-12.33c1.72-.58,1-3.32-.76-2.74A244.54,244.54,0,0,0,64,399.29c-1.64.81-.2,3.26,1.43,2.45Z"/><path class="cls-9" d="M78.74,415.49a81,81,0,0,0,21.88-10.35c1.52-1,.1-3.46-1.43-2.45A78.3,78.3,0,0,1,78,412.75a1.42,1.42,0,0,0,.75,2.74Z"/><path class="cls-9" d="M84.41,447.24c6.28-2.52,12.26-5.25,17.63-9.44,1.44-1.12-.58-3.11-2-2-5,3.87-10.58,6.38-16.38,8.7-1.68.67-1,3.42.75,2.74Z"/><path class="cls-9" d="M117.29,451.77c6.34-1.37,12.18-4.38,18.15-6.8,1.67-.68.94-3.42-.76-2.73-6,2.42-11.8,5.43-18.14,6.8-1.79.39-1,3.12.75,2.73Z"/><path class="cls-9" d="M120.7,425.69c9.06-1.22,17.37-4.74,25.28-9.21a1.42,1.42,0,0,0-1.43-2.45c-7.71,4.37-15.77,7.74-24.61,8.93-1.8.24-1,3,.76,2.73Z"/><path class="cls-9" d="M117.29,392.81a189.16,189.16,0,0,0,23.82-5.67,1.42,1.42,0,0,0-.76-2.74,185.61,185.61,0,0,1-23.81,5.67c-1.8.27-1,3,.75,2.74Z"/><path class="cls-9" d="M106.58,372c2.86-2.67,7.07-4.07,10.71-5.3,1.73-.59,1-3.33-.75-2.74-4.12,1.4-8.73,3-12,6-1.34,1.25.67,3.25,2,2Z"/><path class="cls-9" d="M84,372.45a1.42,1.42,0,0,0,0-2.84,1.42,1.42,0,0,0,0,2.84Z"/><path class="cls-9" d="M85,370.9c2.24-2.29,4.2-5.3,7.32-6.44,1.7-.63,1-3.37-.76-2.74-3.7,1.36-5.9,4.46-8.56,7.17-1.28,1.31.72,3.31,2,2Z"/><path class="cls-9" d="M126.7,355.24c5-2.39,10.78-3.15,16.3-3.21a1.42,1.42,0,0,0,0-2.83,42.32,42.32,0,0,0-17.73,3.6c-1.65.78-.21,3.22,1.43,2.44Z"/></svg>