<svg id="Layer_2" data-name="Layer 2" xmlns="http://www.w3.org/2000/svg" viewBox="0 0 780.26 735.32"><defs><style>.cls-1{fill:#4d6d3c;}.cls-2{fill:#ff8c03;}.cls-3{fill:#ffe299;}.cls-4{fill:#ff960b;}.cls-5{fill:#ed870c;}.cls-6{fill:#ffaf10;}.cls-12,.cls-7{fill:#fff;}.cls-7{opacity:0.29;}.cls-8{fill:#e26e17;}.cls-9{fill:#cc6017;}.cls-10{fill:#659350;}.cls-11{fill:#78aa5e;}.cls-12{opacity:0.27;}</style></defs><path class="cls-1" d="M419.42,143.28a9.17,9.17,0,0,1,4.43,2.3,9.29,9.29,0,0,1,1.78,4.72,123.31,123.31,0,0,1,1.7,21.45c-1.94-8-8.76-14.18-16.45-17.12s-16.18-3-24.38-2.32a125.87,125.87,0,0,0-67.14,27.05c-2.07,1.66-4.19,3.44-6.78,4s-5.77-.57-6.5-3.12c-.51-1.82.33-3.72,1.27-5.35,9.07-15.79,32.44-26,49.09-31.08A110.93,110.93,0,0,1,419.42,143.28Z"/><path class="cls-1" d="M412,213.12A270.72,270.72,0,0,1,459.93,46.25c1.48-2.12,3.26-4.4,5.82-4.81,4.43-.7,7.55,5,6.47,9.35s-4.61,7.59-7.45,11.06c-5.75,7-9,15.68-12.22,24.17-10.38,27.64-20.83,55.54-25.06,84.75A163.13,163.13,0,0,0,427,217c2,13.75,9.33,26.49,11.32,39.54C417.41,259.69,412.7,226.9,412,213.12Z"/><path class="cls-2" d="M180.72,421.54c-16,72,7.89,150.66,57.92,204.91s124.16,84.11,198,84.49c25.62.13,51.16-3.07,76.41-7.43,46.21-8,92.3-20,133.37-42.65s77-56.7,95.42-99.84c9.32-21.86,13.94-45.43,16.77-69,7.11-59.22,3-120.78-20-175.83-10.17-24.39-24.34-47.74-44.9-64.33-16.49-13.29-36.39-21.7-56.64-27.88a314.9,314.9,0,0,0-179.25-1c-26.29,7.7-51.36,18.84-77.19,27.85-20.7,7.23-42.48,11.07-63,18.65C275.6,285,238.43,312.16,212.8,349A205.57,205.57,0,0,0,180.72,421.54Z"/><path class="cls-3" d="M322.25,312.68c-18.58,19.9-28.65,46.71-31.78,73.75s.23,54.47,5.79,81.12c8.35,40,21.88,79.36,44.89,113.07s56.17,61.46,95.34,72.94c16.25,4.76,33.2,6.68,50.1,7.61,38.39,2.12,77.44-.86,113.89-13.07s84.4-34.94,106.47-66.42c42.72-61,39.75-130.13,41.22-152.6,3.41-52.15-18.86-102.88-50.71-144.32-12.28-16-26.84-30.69-44.71-40-16.61-8.68-35.3-12.36-53.73-15.78-30.37-5.64-62.43-10.73-91.54-.38-31.82,11.33-63.46,22.76-95,35C380.61,275.94,346.26,287,322.25,312.68Z"/><path class="cls-4" d="M379.1,304.3c-20.24,13.77-33.87,35.94-40.32,59.56s-6.18,48.65-2.68,72.88c7.84,54.3,32.65,106.93,73.48,143.57s98.21,55.83,152.16,45.85c15.06-2.79,29.67-7.72,43.79-13.65,42.7-17.93,83.13-47.3,101.49-89.82,7.58-17.55,11.08-36.57,14-55.47,2.56-16.73,4.69-33.58,4.53-50.5-.47-48.76-21.23-97.48-57.75-129.78s-88.62-47-136.16-36.1c-26.22,6-52.91,15.51-78.49,23.91C428.61,282.8,400.6,289.67,379.1,304.3Z"/><path class="cls-5" d="M707.05,521.78c7.58-17.56,11.08-36.58,14-55.48,2.55-16.73,4.68-33.58,4.52-50.5C725.09,367,704.33,318.33,667.8,286l-.75-.64c3.57,5.49,7.43,10.84,8.13,18.29,1.52,16.07-10,32.37-25.73,36.23,9.95,1.06,19.39-6,29.35-5.13,8.35.76,15.33,7.18,19.05,14.68s4.75,16,5.61,24.36c1,10.09,1.88,20.42-.51,30.27s-8.6,19.33-18,23.08c3.37-.07,6.85-.12,10,1.17s5.78,4.29,5.58,7.65c-.33,5.48-7.05,7.76-12.46,8.67l-75.36,12.71c19.09,18,54.14,3.21,74.55,19.73,2.58,2.09,5,5.45,3.66,8.49-1.17,2.7-4.52,3.52-7.42,4l-11.09,1.84a12.85,12.85,0,0,1,10.34,10.29c1,7.24-3.93,14.33-10.37,17.79s-14.05,4-21.36,3.82-14.69-.84-21.88.49c-3.45.63-7,1.82-9.39,4.35s-3.44,6.68-1.54,9.63c1.24,1.92,3.4,3,5.23,4.37a17.88,17.88,0,0,1,7,14.86c-5.11-2.33-11.32,1.67-13.38,6.91s-1.1,11.11,0,16.62c1.52,7.7,4.14,17.37,9.46,22.83C661.2,585.21,691.66,557.42,707.05,521.78Z"/><path class="cls-5" d="M666.52,492.39l5.83-1A9,9,0,0,0,666.52,492.39Z"/><path class="cls-5" d="M579.46,549.75c-1.06-3.18-5-6.87-6.87-4.09,0,6.5,0,13.29-3,19.06s-9.91,10.08-16,7.87c-7.38-2.67-9.07-12.24-9-20.08s.22-17-6-21.82q-3,18.13-6,36.27c-1.65,9.86-3.6,20.36-10.52,27.57s-20.63,8.67-26.07.29c-3.54-5.45-2.35-12.59-1-19q2.46-11.85,4.93-23.72c-6.17.48-11.11,5.23-14.92,10.11s-7.24,10.35-12.6,13.45-13.45,2.62-16.38-2.82c-2.64-4.91.05-10.87,2.72-15.75a98.27,98.27,0,0,1-31,2.27c-3.07-.26-6.66-1.06-7.85-3.9-.8-1.92-.17-4.11.53-6.07,8.65-24.05,27.61-42.71,46-60.49A156.52,156.52,0,0,1,387,511.34c-5.83,0-13.46-1.91-13.71-7.74-.18-4.22,4.05-7.64,4-11.87.06,3.74-11.91,2.5-24,1.41C366,525.76,385.47,555.6,411.49,579c40.84,36.65,98.21,55.83,152.16,45.85a190.45,190.45,0,0,0,27.82-7.5c1.83-8.29.59-17.49-1.09-26A342.17,342.17,0,0,0,579.46,549.75Z"/><path class="cls-3" d="M484.12,300.45c7.39,13.32,9.71,28.91,14.32,43.52,3.73,11.84,9,23.08,14.22,34.31,30.68,66.17,59.75,134.14,72.11,206.48,1.45,8.47,2.65,17.29.4,25.59s-8.85,15.92-17.13,16.49a80.61,80.61,0,0,0,59.4-10c8.28-5.1,33.18-24.35,33.13-34.32-16.6,9.35-36.48,13.44-45.52,10-8.77-3.38-12.79-13.62-15.84-22.79q-25.73-77.46-51.46-154.9c-4.81-14.48-9.65-29-16.65-42.52-3.84-7.39-8.32-14.45-11.25-22.27-6.34-16.93-5.23-36.84-15-51.89-3.75-5.77-8.94-10.51-12-16.71s-3.17-14.9,2.22-19.05c3-2.34,8-5.76,5.35-8.51a4.65,4.65,0,0,0-3.23-1c-17.16-.84-57.57,9.64-64.19,28.31,11.56-3.19,25.11-2.37,32.45,1.11C473.32,285.92,479.84,292.75,484.12,300.45Z"/><path class="cls-6" d="M376.79,441c-2.43,1.48-4.87,3.72-4.76,6.56.17,4.42,6.05,6,10.42,5.32,7.75-1.28,14.56-5.8,22-8.26,9.63-3.19,21.24-2.63,29.74-8.59C416.88,435.09,392.23,431.67,376.79,441Z"/><path class="cls-6" d="M348.69,397.77c-2.69.92-5.56,2.59-6.06,5.38-.77,4.36,4.62,7.2,9,7.43,7.85.42,15.47-2.54,23.29-3.35,10.08-1.05,21.3,2,30.88-2C389.12,400.55,365.78,391.92,348.69,397.77Z"/><path class="cls-6" d="M404.25,356.71c-2.68.92-5.56,2.59-6.05,5.38-.78,4.36,4.61,7.2,9,7.43,7.85.42,15.47-2.54,23.29-3.35,10.09-1.05,21.3,2,30.88-2C444.69,359.48,421.34,350.86,404.25,356.71Z"/><path class="cls-6" d="M409.4,305.17c-2.83.14-6,.95-7.31,3.5-1.95,4,2.45,8.19,6.63,9.64,7.43,2.57,15.57,1.84,23.31,3.23,10,1.78,19.91,7.8,30.23,6.61C447.49,319,427.44,304.28,409.4,305.17Z"/><path class="cls-6" d="M433.53,408.42c-2.72.82-5.65,2.39-6.24,5.17-.92,4.33,4.37,7.35,8.78,7.73,7.83.68,15.54-2,23.39-2.56,10.12-.7,21.22,2.71,30.93-1C473.85,412.57,450.8,403.15,433.53,408.42Z"/><path class="cls-6" d="M604.67,389.75c2.12-.46,4.83-.42,5.86,1.49.92,1.69-.14,3.8-1.49,5.17-2.58,2.61-6.13,4-9.53,5.31-9.86,3.92-19.34,10.43-29.28,13.67,1.65-4.27,7.33-8.31,10.77-11.41C587.84,397.78,595.42,391.72,604.67,389.75Z"/><path class="cls-6" d="M622.92,322.12a22.87,22.87,0,0,1,5.79-5,7.77,7.77,0,0,1,7.35-.29c3.42,2,3.83,7,1.93,10.5s-5.39,5.68-8.72,7.79c-11.94,7.56-23.2,16.26-35.14,23.75C600.15,344.54,612.55,333.27,622.92,322.12Z"/><path class="cls-6" d="M569.41,310.1a12.58,12.58,0,0,1,5-2.94c1.91-.45,4.2.13,5.18,1.83,1.54,2.65-.81,5.86-3.21,7.78-2.62,2.11-5.5,3.88-8.28,5.79-10.12,7-18.86,15.74-27.52,24.46,4.59-4.62,8.21-12.85,12-18.42A89.41,89.41,0,0,1,569.41,310.1Z"/><path class="cls-6" d="M655.26,423.71c4.69.2,10,.3,13.24-3.11a4.62,4.62,0,0,0,1.42-3.08,4.41,4.41,0,0,0-3.16-3.81,12.72,12.72,0,0,0-5.22-.28c-16.83,1.5-34.86,3.25-51.06,8.17C624.45,427.31,640.59,423.11,655.26,423.71Z"/><path class="cls-7" d="M396,332.18c-1.61,4.67-2.21,9.75-4.74,14-2.3,3.84-6,6.63-9.35,9.56-21.06,18.31-33.19,49.88-21,75,7.83,16.06,23.71,26.47,34.78,40.49,8.34,10.56,16.43,24.69,29.88,24.78,2.9,0,6-.84,7.78-3.14,2.05-2.67,1.72-6.42,1.05-9.71-3.13-15.53-11.28-29.48-18.17-43.73-6.25-12.94-11.61-26.67-12.08-41s4.7-29.53,16.18-38.17,29.64-8.6,39.1,2.21c3.78,4.32,5.92,9.82,9.34,14.43s9,8.49,14.57,7.17,8.31-10.18,3.27-12.91c13.24,10.3,5.53,36,20,44.47,4.28-6.51,1.83-15.14-.75-22.49l-24.65-70.2c-6.73-19.18-17.2-35.61-39.1-28.13C424.83,300.67,402.32,313.89,396,332.18Z"/><path class="cls-7" d="M590.4,282.19c14.57,1.8,29,8.56,37.75,20.32,13.35,17.85,11.41,42.66,6.6,64.43-.68,3.07-1.39,6.35-.32,9.32,2.08,5.8,9.75,7.59,13,12.85,3,5,1.27,11.3,1.5,17.1s5.27,12.68,10.55,10.26a8.7,8.7,0,0,0,3.24-2.91c9.16-12.35,3.25-29.53,1.54-44.81-1.59-14.2.84-28.81-2.5-42.7-5-20.79-22.24-36.62-41-46.94-19.81-10.91-75.46-33-93.08-8.92-8.09,11.06-2.88,20.48,10.36,19.72C556.12,288.87,571.31,279.82,590.4,282.19Z"/><path class="cls-8" d="M741.8,561.23c.88-2.08,1.71-4.18,2.52-6.29q-4.8,7.47-10,14.69c-58.8,81.11-163.71,126.17-263,113-36.73-4.88-73-17.45-102.33-40.08-33.66-25.95-56.32-63.34-77.19-100.36-12.64-22.41-25-45.24-32.22-69.94a180.44,180.44,0,0,1,73.75-201.34c8.76-5.83,18.21-9.67,27.53-13.83-14.51,4-29.17,7.42-43.26,12.61-42,15.5-79.16,42.7-104.78,79.52a205.56,205.56,0,0,0-32.09,72.57c-16,72.05,7.89,150.65,57.93,204.9s124.15,84.11,198,84.49c25.62.13,51.16-3.07,76.41-7.42,46.21-8,92.3-20,133.37-42.66S723.41,604.37,741.8,561.23Z"/><path class="cls-9" d="M471,682.6c-36.73-4.89-73-17.45-102.33-40.08a198.54,198.54,0,0,1-28.9-27.66c-31.23,5.77-64,3.56-93.33-8.4a141.77,141.77,0,0,1-41.24-25.91,236.88,236.88,0,0,0,33.14,46.1c50,54.24,124.16,84.11,198,84.49,25.63.13,51.16-3.07,76.41-7.43,46.22-8,92.31-20,133.38-42.65s77-56.7,95.42-99.85c.89-2.08,1.72-4.18,2.52-6.29q-4.78,7.49-10,14.7C675.22,650.73,570.31,695.79,471,682.6Z"/><path class="cls-2" d="M192.61,404.73c-2.36,6.87-2.85,14.25-2.76,21.52,0,2,.18,4.16,1.58,5.55,1.82,1.8,4.93,1.38,7.11.05,4.59-2.8,6.48-8.5,7.21-13.83s.68-10.9,2.86-15.82c3.37-7.61,11.86-13.38,11.44-21.69a2.24,2.24,0,0,0-.3-1.17,2.32,2.32,0,0,0-1.68-.79C207.13,377,195.63,395.9,192.61,404.73Z"/><path class="cls-2" d="M210.8,440.44c-.62,4-2.41,8.3-6.1,10-1.43.67-3,.91-4.44,1.64-4.24,2.2-4.94,8.74-1.77,12.32s9,4.05,13.16,1.74,6.78-6.89,7.62-11.59c.69-3.86.6-8.4,3.65-10.86,1.42-1.14,3.27-1.57,5-2.25,5.11-2.05,9.2-7.51,8-12.89s-10.41-9.4-15.7-8.19C211.24,422.45,211.89,433.42,210.8,440.44Z"/><path class="cls-2" d="M233.4,494.73c2.11,2.57,5.3,5.07,8.45,4s4.16-5,4.15-8.34c0-5.14-1.35-10.2-2.88-15.11-2.07-6.64-10-19.17-17.1-9.47C220.43,473.48,228.42,488.65,233.4,494.73Z"/><path class="cls-2" d="M226.19,391.79c-.79-1.44-2.89.12-3.64,1.58-1.19,2.31-2.41,4.77-2.19,7.36s2.51,5.18,5.06,4.7c1.67-.31,2.86-1.75,3.9-3.1,5.42-7.05,11.14-15.1,10.08-23.93A18.65,18.65,0,0,0,224.09,393Z"/><path class="cls-2" d="M242.88,327.52a20,20,0,0,0-16.77,17.38c-.08.88,0,2,.81,2.35a2.21,2.21,0,0,0,1.46,0c7.6-1.7,13.62-7.4,18.8-13.21,2.21-2.47,4.49-5.53,3.79-8.77a11.46,11.46,0,0,0-10.09,5.11Z"/><path class="cls-2" d="M192.41,505.6A18.88,18.88,0,0,0,200,528.5a5.52,5.52,0,0,0,3.14,1c2.43-.18,3.82-2.89,4.22-5.3a18,18,0,0,0-9.57-18.57c-2-1-5.34-1-5.74,1.22Z"/><path class="cls-2" d="M221,525.82a18.28,18.28,0,0,0-2.24,13.45,3,3,0,0,0,1,1.87,2.69,2.69,0,0,0,1.49.42c3.42.14,6.55-2.26,8.27-5.22s2.32-6.42,2.89-9.8c.27-1.61.51-3.39-.33-4.79-1.15-1.89-3.95-2.22-5.91-1.19a10,10,0,0,0-4.11,5Z"/><path class="cls-10" d="M234.44,101c-39.91,2.49-77,23.73-105.08,52.18S81.15,216.9,63.61,252.85C47.49,285.88,33,321.36,35,358.06c7.77-15.56,23-26.33,39.29-32.46s33.75-8.18,51-10.42q82.93-10.74,164.74-28.48c25.74-5.58,52.48-12.23,72.31-29.56s30-48.67,15.52-70.68c-9.7-14.79-26.52-18.72-38.6-30.31-9.59-9.19-15.18-21.7-26-30.57C291.56,107.75,262.39,99.2,234.44,101Z"/><path class="cls-11" d="M34.81,357.83c7.77-15.56,23-26.33,39.29-32.46s33.76-8.19,51-10.42Q208,304.19,289.84,286.47c25.74-5.58,52.48-12.24,72.31-29.56s30-48.67,15.53-70.69c-9.71-14.78-26.52-18.72-38.61-30.3-.63-.6-1.24-1.22-1.83-1.85-38.71,1.55-80.64,15.69-116.39,29.3a506.15,506.15,0,0,0-60.79,27.88c-23.64,12.81-46.38,27.59-66,46a227.18,227.18,0,0,0-27.13,30.5c-15.16,20.49-26.89,44-32.19,68.82C34.77,357,34.78,357.4,34.81,357.83Z"/><path class="cls-11" d="M281.44,143.45c-11.22-9.11-20.12-20.76-27.84-33a43.59,43.59,0,0,0,5.9,14.87c4.2,6.66,10.1,12,16,17.22,4.93,4.33,9.92,8.6,15.09,12.64,5.47,4.26,11.2,8.31,17.66,10.83s13.75,3.41,20.34,1.3c.55-.18-7.37-7.05-8.71-7.47-4.36-1.37-9.27-1.33-13.73-2.75A76.45,76.45,0,0,1,281.44,143.45Z"/><path class="cls-11" d="M214.64,158.32c-11.22-9.11-20.12-20.76-27.84-33a43.59,43.59,0,0,0,5.9,14.87c4.2,6.66,10.1,12,16,17.22,4.93,4.33,9.92,8.6,15.09,12.64,5.47,4.26,11.2,8.31,17.66,10.82s13.74,3.42,20.34,1.3c.55-.17-7.37-7-8.71-7.46-4.37-1.37-9.27-1.33-13.73-2.75A76.45,76.45,0,0,1,214.64,158.32Z"/><path class="cls-11" d="M178,191.31c-12.73-6.82-23.67-16.58-33.56-27.11A43.41,43.41,0,0,0,153,177.69c5.37,5.74,12.18,9.9,19,13.88,5.65,3.33,11.36,6.57,17.2,9.56,6.17,3.16,12.57,6.05,19.39,7.3s14.14.76,20.22-2.57c.51-.27-8.57-5.52-10-5.68-4.55-.52-9.35.45-14-.11A76.45,76.45,0,0,1,178,191.31Z"/><path class="cls-11" d="M116.47,230.65C106.29,227.53,97,222,88.32,215.82a32.16,32.16,0,0,0,8.15,8.54c4.71,3.38,10.23,5.42,15.71,7.34,4.56,1.59,9.16,3.13,13.81,4.46a52.8,52.8,0,0,0,15.07,2.51c5.11-.06,10.34-1.46,14.27-4.74.32-.27-7-2.77-8-2.69-3.36.27-6.7,1.66-10.15,1.92A56.21,56.21,0,0,1,116.47,230.65Z"/><path class="cls-1" d="M265.23,243c-1.1,1.65-1.94,3.8-1,5.55a6,6,0,0,0,3.43,2.46c11.26,4.23,23.78,2.31,35.65.33s24.23-4.07,35.15-9.48c1.67-.83,3.46-1.93,3.91-3.75a5.44,5.44,0,0,0-1.32-4.44c-3.63-4.76-10.07-6.31-16-6.82-11.88-1-23.8.82-35.3,3.72C280.7,232.78,270.78,234.69,265.23,243Z"/><path class="cls-7" d="M283.45,207.44c-6.54,3.06-12.49,8-15.23,14.71s-1.59,15.2,3.86,19.94c3.67,3.18,8.73,4.34,13.58,4.27s9.61-1.25,14.37-2.2c8.11-1.64,16.56-2.74,23.72-6.88s12.77-12.38,10.89-20.44a18.62,18.62,0,0,0-6.46-9.73C315.68,196.69,296.83,201.19,283.45,207.44Z"/><path class="cls-12" d="M276.61,222.86c-1.48,2.66-2.54,5.95-1.19,8.68a8,8,0,0,0,4.54,3.67,6.65,6.65,0,0,0,4.28.33c2.13-.68,3.42-2.88,3.95-5s.52-4.45,1.08-6.62a12.78,12.78,0,0,1,4-6.43c2.13-1.83,4.8-2.91,7.06-4.57,1.26-.93,2.49-2.58,1.7-3.94s-2.56-1.16-4-.89C289,209.76,281.22,214.64,276.61,222.86Z"/><path class="cls-1" d="M108.25,274.57a3.23,3.23,0,0,0-.18,3.2,3.42,3.42,0,0,0,2.1,1.14c6.65,1.58,13.56-.39,20.1-2.35s13.35-4,19.11-7.83a3.76,3.76,0,0,0,1.94-2.39,3.08,3.08,0,0,0-1.06-2.4c-2.38-2.43-6.12-2.84-9.51-2.71a61,61,0,0,0-19.61,4.61C116.23,267.75,110.79,269.53,108.25,274.57Z"/><path class="cls-7" d="M116,253.29c-3.46,2.18-6.46,5.4-7.52,9.36s.18,8.67,3.59,11A11.45,11.45,0,0,0,120,275a45.16,45.16,0,0,0,7.94-2.26c4.44-1.5,9.12-2.72,12.86-5.56s6.31-7.87,4.68-12.28a10.62,10.62,0,0,0-4.33-5C133.36,244.94,123.07,248.82,116,253.29Z"/><path class="cls-12" d="M113.23,262.45c-.65,1.6-1,3.54-.06,5a4.59,4.59,0,0,0,2.82,1.74,3.24,3.24,0,0,0,4.3-3.25c.14-1.25,0-2.54.14-3.79a7.17,7.17,0,0,1,1.8-3.91c1.06-1.18,2.49-2,3.64-3.08.65-.61,1.23-1.63.68-2.33s-1.52-.47-2.31-.22A17.11,17.11,0,0,0,113.23,262.45Z"/></svg>