<svg id="Layer_2" data-name="Layer 2" xmlns="http://www.w3.org/2000/svg" viewBox="0 0 929.87 481.02"><defs><style>.cls-1{fill:#dae5ea;}.cls-2{fill:#bac3c6;}.cls-3{fill:#c18e63;}.cls-4{fill:#ad7e5a;}.cls-5{fill:#ffddd7;}.cls-6{fill:#e28681;}.cls-7{fill:#c97775;}.cls-8{fill:#a35d58;}.cls-9{fill:#efce84;}.cls-10{fill:#fff;opacity:0.62;}.cls-11{fill:#ce956b;}.cls-12{fill:#d89c73;}</style></defs><path class="cls-1" d="M34.41,259.27c-4.32-1.75-8.58-4.21-11.15-8.09s-3-9.49,0-13.05c2.72-3.21,7.84-4.53,9-8.6a11.81,11.81,0,0,0,0-4.55,64.82,64.82,0,0,1,2.45-27.29c2.49-8,7-15.86,14.43-19.62s18.17-1.59,21.51,6.05c1.82,4.17,1.33,9.32,4.14,12.9,2,2.5,5.15,3.68,8.24,4.4,11.51,2.66,23.5.43,35.3-.16s24.76,1,33.09,9.33c8.85,8.9,9.78,23.89,3.87,35C145,264.71,126.3,269,107,266.22,83.19,262.79,57.19,268.51,34.41,259.27Z"/><path class="cls-2" d="M126.72,253.4c-23.81-3.42-49.81,2.29-72.59-7-4.32-1.75-8.58-4.2-11.16-8.09s-3-9.49,0-13.05c2.73-3.21,7.85-4.53,9-8.6a11.81,11.81,0,0,0,0-4.55,64.76,64.76,0,0,1,2.45-27.28A46.07,46.07,0,0,1,58,176.3a17.81,17.81,0,0,0-8.91,1.77c-7.45,3.76-11.94,11.66-14.43,19.62A64.82,64.82,0,0,0,32.18,225a11.81,11.81,0,0,1,0,4.55c-1.11,4.06-6.23,5.39-8.95,8.6-3,3.56-2.58,9.16,0,13s6.83,6.34,11.15,8.1c22.78,9.24,48.78,3.52,72.59,7,16.73,2.41,33-.5,43.69-13.79C143.23,254.48,135,254.6,126.72,253.4Z"/><path class="cls-3" d="M127.83,286.25c25.2,16.62,29.34,20.36,58.61,27.71A334.74,334.74,0,0,1,318,380.64c13.25,11,25.75,23.07,40.46,32,16.42,10,35.05,15.7,53.71,20.28,99.27,24.33,207.92,17.56,298.52-29.73,37.33-19.49,72-46.39,93.34-82.67,29.69-50.41,30-115.87,4.3-168.42s-37.44-76.58-93.63-92.86-6.26-21.1-76.36-31C547.74,15.36,413,56.93,387.71,68.19c-97.27,43.27-106.92,80.39-238.47,106.87-22.48,4.52-46.43,22.08-52.06,46.17C91.33,246.21,107.44,272.8,127.83,286.25Z"/><path class="cls-4" d="M461.89,396.28c-14-9.89-28.23-19.87-44.11-26.43-11-4.56-22.77-7.41-33.44-12.77-30-15.08-47.15-47.29-73.22-68.47a119.43,119.43,0,0,0-65.37-26.15c-20.36-1.62-40.71,2-61,4.26-23.34,2.55-47.29,2.79-68.72-8a196.53,196.53,0,0,1-17.44-10.41c4.92,15.48,16.19,29.45,29.22,38,25.2,16.62,29.34,20.36,58.62,27.71A334.7,334.7,0,0,1,318,380.7c13.26,11,25.75,23.07,40.46,32,16.42,10,35.05,15.7,53.71,20.28a473.8,473.8,0,0,0,121.22,13.67l-2.74-1.94Z"/><path class="cls-5" d="M414.35,135.73c-34.54,54.49-47.17,120.62-46.26,185.13.21,15.11,1.17,30.44,6.08,44.74C389.33,409.78,438,433.37,484,441.32c65.83,11.38,133.54.42,198.17-16.49S897.2,365,902.25,298.38c3.23-42.63-44.25-124.83-87.44-182.69-27-36.15-68.78-68.38-112.88-77.88C592.81,14.29,479,33.78,414.35,135.73Z"/><path class="cls-6" d="M849.64,168.91c-36.29-17-60.55-50.67-94-71.57C719.92,75,668.08,70.06,627.24,75.47c-46.88,6.21-91.82,29-122.71,64.77-13.4,15.54-24.07,33.28-33,51.77-23.34,48.48-34.65,104.5-21.65,156.72,4.28,17.2,11.58,34.39,25,46,18.86,16.3,45.9,18.52,70.81,17.77,107.94-3.27,210.51-47.38,317.64-60.93l.19,0c22.07-15.86,37.18-34,38.72-54.35,2.28-30.08-20.7-79.88-49.61-126.92C851.64,169.83,850.63,169.38,849.64,168.91Z"/><path class="cls-7" d="M835.62,345.31c5.14-15.72,7.82-33,2.66-48.71-2.61-7.93-7.53-15.53-15-19.23-5-2.45-10.63-3-16.15-3.51l-56.21-5.22c-4.7-.43-9.56-.85-14,.73-7.35,2.61-11.75,9.9-16.84,15.81-7.26,8.44-16.76,14.64-26.47,20.09A257.13,257.13,0,0,1,568.08,338c-13.54,0-27.11-1.1-40.59.07-16.93,1.47-50.35,12.9-69.66,30.52,4.33,9.95,10.22,19.09,18.39,26.15,18.85,16.3,45.89,18.52,70.8,17.77,96.64-2.93,189-38.58,284.13-55.74A95.41,95.41,0,0,0,835.62,345.31Z"/><path class="cls-7" d="M598,112.45c3.62,4.33,10.23,4,15.86,3.59a206.09,206.09,0,0,1,46.89,1.67c7.29,1.1,14.73,2.68,20.86,6.77s10.72,11.25,9.84,18.57c-.54,4.44-3,8.58-2.89,13.06.17,6.63,6.16,12,12.58,13.65s13.2.62,19.76-.36c27.23-4.08,56.22-6.11,81.21,5.45,2.74,1.27,5.75,2.73,8.64,1.87,3.58-1.06,5.31-5.48,4.5-9.13s-3.47-6.59-6.29-9c-11.62-10.08-27-14.68-39.49-23.68-17.29-12.47-29.17-33.43-49.66-39.34-16.46-4.76-34.05,1.69-51.14.45-17.68-1.28-33.33-8.09-51.32-6.17C608.16,90.81,587.28,99.6,598,112.45Z"/><path class="cls-5" d="M536.76,134.34c6.43,8.77,18.25,11.86,29.13,11.68s21.57-3,32.44-3.39a74.15,74.15,0,0,1,62.19,30.94c3.3,4.71,6.08,9.85,10.18,13.87,10.23,10.06,26.06,11,40.41,11.33a71.37,71.37,0,0,1-45.54-24.94c-8.74-10.52-14.76-23.88-26.44-31-10.06-6.11-22.52-6.41-34.29-6.08s-24,1-34.88-3.48-19.87-16.13-17.07-27.57c2-8.21,10.75-19.55-.2-25.2-6.27-3.24-15.36.33-18.52,6.26C528.67,97.13,530.24,125.45,536.76,134.34Z"/><path class="cls-5" d="M488.22,309.81c22.22-3.81,45.25-3,66.94-9.17,20.09-5.72,38-17.15,56.9-26s40.31-15.33,60.55-10.19c-43.18,1.93-80.25,30.8-122.07,41.71-20,5.24-41.27,6.34-60.39,14.33a90.77,90.77,0,0,0-50.78,55.37c-.71,2.21-10.57-3.1-11.53-3.93-4.29-3.73-5.65-8.81-5.63-14.34,0-8.46,3.79-12.45,9.71-17.78C448.85,324.57,465.34,313.74,488.22,309.81Z"/><path class="cls-7" d="M902.25,295.78c2-26.68-15.83-68.86-40-110.88-21.46-2.53-43.47,6.79-49.81,29.62-2.87,10.32-4.45,21.9-12.34,29.14-1.48,1.37-3.31,2.86-3.21,4.87a5.27,5.27,0,0,0,1.57,3.07c8.21,9.32,22.54,9.84,33.07,16.43,11,6.93,16.88,20.05,18.64,33s.11,26-.45,39.06a76.23,76.23,0,0,0,.4,11.93q6.63-1,13.27-1.84l.19,0C885.6,334.27,900.71,316.13,902.25,295.78Z"/><path class="cls-5" d="M767.39,184.29a60.86,60.86,0,0,0-42.72,40c-2.82,8.92-3.48,18.7-.58,27.59s9.65,16.72,18.5,19.73c11.89,4.05,24.7-.86,37.08-3,10.9-1.86,22.11-1.54,32.91-3.88s21.73-8.1,26.27-18.18c3.59-8,2.55-17.45-1.09-25.4C825.48,194.29,797,177.05,767.39,184.29Z"/><path class="cls-8" d="M766.12,208.76c-8,4.49-15.23,11.45-17.18,20.41s3.19,19.69,12.18,21.46c5.92,1.16,11.82-1.54,17.72-2.83,6.83-1.5,14-1.1,20.75-2.91s13.49-6.82,14-13.8c.27-3.8-1.37-7.49-3.43-10.69C799.64,204.11,782.64,199.47,766.12,208.76Z"/><path class="cls-9" d="M540.5,451.25h0a338.54,338.54,0,0,1-57.37-4.74c-25.74-4.45-49.39-13.1-68.4-25C392,407.24,376.64,389,369.19,367.3,364,352.06,363,336,362.83,320.93c-1-72.8,15.26-137.81,47.07-188C455.24,61.39,528.39,23.59,621.44,23.59A388.35,388.35,0,0,1,703,32.67c42.05,9.06,85.41,38.92,116,79.88,43,57.55,91.91,140.85,88.47,186.23-2.33,30.76-32.86,59.78-90.74,86.25-51.32,23.46-113,39.59-133.24,44.89C627.89,444.47,582.45,451.25,540.5,451.25ZM621.44,34.11c-62.25,0-147.94,18.12-202.65,104.44C388.07,187,372.36,250,373.35,320.78c.2,14.21,1,29.26,5.79,43.11,12.34,35.93,51.87,62.94,105.77,72.25a327.73,327.73,0,0,0,55.58,4.59c41,0,85.63-6.67,140.36-21,20-5.24,81-21.19,131.52-44.28C866.51,350.71,895,324.64,897,298c3-39.75-41.23-118.61-86.42-179.14C781.5,79.86,740.46,51.49,700.82,43A378,378,0,0,0,621.44,34.11Z"/><path class="cls-5" d="M677,381.34c5.78-12.37,10.76-26.26,22.2-33.7a251.54,251.54,0,0,0-13.85,38.3c-.65,2.37-1.26,4.88-.69,7.28,1,4.08,5.25,6.7,9.43,7.1s8.31-.94,12.3-2.25c7.29-2.4,14.71-4.88,20.87-9.46s10.92-11.71,10.66-19.38c-.36-10.84-10.18-19.18-12.29-29.82-1.52-7.68,1.25-15.71,5.78-22.1S742.09,305.9,748.19,301c1.27,3.93-1,8.14-3.88,11.11s-6.4,5.36-8.57,8.87c-4.85,7.81-1.29,18.09,3.56,25.91S750.43,362.3,751,371.48c.63,9.49-5.24,18.49-12.95,24.07s-17.06,8.31-26.26,10.73q-23.31,6.15-47.06,10.45c-10.84,2-28-.6-12.53-9.32C664,400.77,671.1,394,677,381.34Z"/><path class="cls-10" d="M421.45,179.59c-4.72,10.95-8.73,23.22-5.2,34.61a13,13,0,0,0,3.47,6c4.31,3.83,11.52,2.13,15.51-2s5.62-10,7.2-15.53c7-24.64,16.11-48.95,30.12-70.41s33.24-40,56.77-50.18c4.59-2,10.28-5.24,9.33-10.14-1.09-5.56-9-5.62-14.44-3.93C475.21,83.3,440.93,134.39,421.45,179.59Z"/><path class="cls-10" d="M400.44,261.17c-2.53,20-5,40.41-1.48,60.27.72,4,2,8.39,5.35,10.65,3.61,2.4,8.72,1.49,12.06-1.26s5.15-7,6.07-11.2c3-13.86-2.22-28.68,1.57-42.35,2.61-9.44,8.78-22.22-1.64-29.74C411.59,239.76,401.74,250.78,400.44,261.17Z"/><path class="cls-11" d="M280.28,147.42c-15.51,5.89-32.89,9.12-44.84,20.63-1.25,1.21-2.49,2.63-2.64,4.36a6.59,6.59,0,0,0,1.78,4.46c8.89,11.1,26.47,8.16,39.5,2.47,21.56-9.4,41.86-23.7,65.31-25.53,13.19-1,27.68,1.72,38.73-5.54,9.66-6.34,13.49-18.33,19.32-28.29A69.79,69.79,0,0,1,421,95.9c5.38-3.31,11.26-5.91,16-10.07,4.54-4,8.5-10.27,6.83-16.31-30.1-.16-56.53,6.86-81.22,24.25C335.89,112.6,311.31,135.64,280.28,147.42Z"/><path class="cls-12" d="M128.13,193.62c-6.67,4.57-12.56,10.82-14.85,18.57s-.28,17.09,6.22,21.9c3.86,2.86,8.77,3.87,13.54,4.46a34,34,0,0,0,12.08-.22c9.12-2.21,15.5-10.29,20.54-18.2s9.85-16.56,17.94-21.32c6.18-3.64,13.84-4.7,19.21-9.45,2.06-1.82,3.76-4.63,2.82-7.21-1.27-3.48-6-3.79-9.71-3.43C175,180.73,146.22,181.24,128.13,193.62Z"/></svg>