<svg xmlns="http://www.w3.org/2000/svg" viewBox="0 0 378.38 363.57"><defs><style>.cls-1{isolation:isolate;}.cls-2{fill:#2b4a20;}.cls-3{fill:#709848;}.cls-4{fill:#b8bb49;}.cls-5{fill:#edead3;}.cls-5,.cls-7{mix-blend-mode:multiply;}.cls-6{fill:#5e270f;}.cls-7{fill:#d1b8a5;}.cls-8{fill:#754c29;opacity:0.4;}.cls-9{fill:#f15a29;}.cls-10{fill:#d55024;}.cls-11{fill:#f37029;}.cls-12{fill:#b94a2d;}.cls-13{fill:#83b93b;}.cls-14{fill:#71a232;}.cls-15{fill:#7baf37;}</style></defs><g class="cls-1"><g id="Capa_1" data-name="Capa 1"><path class="cls-2" d="M7.25,218.35c0,59.22,43.84,107.23,139.34,107.23,59.23,0,75.11-48,75.11-107.23,0-74.15-48.91-89.44-46.83-125.28,4.71-80.77-1.24-87.35-38.7-87.35-36.9,0-85,13.21-83.4,88.87C53.54,131.63,7.25,144.2,7.25,218.35Z"/><path class="cls-3" d="M39.37,218.35a107.23,107.23,0,1,0,214.45,0c0-74.15-48.91-89.44-46.82-125.28,4.7-80.77-23.51-87.74-61-87.74-36.89,0-62.69,13.6-61.13,89.26C85.66,131.63,39.37,144.2,39.37,218.35Z"/><path class="cls-4" d="M47,215a99.57,99.57,0,1,0,199.14,0c0-50.87-46.93-86.21-46.93-124.27,0-52.75-20.64-70.89-52.64-70.89-29,0-50.4,27.73-50.4,76.38C96.19,137.61,47,153.14,47,215Z"/><path class="cls-5" d="M89.63,209.1c-.06,39.81,25.35,66.7,57,66.74s57.49-26.8,57.54-66.6-27.45-90.07-59.06-90.1S89.67,169.29,89.63,209.1Z"/><path class="cls-6" d="M96.19,209.37c0,34.31,22.38,56.89,50.4,56.93s51-22.5,51.06-56.8S170,125.41,146.92,125.41,96.23,175.07,96.19,209.37Z"/><path class="cls-7" d="M98.64,190.05c2.07,15.7,7.34,30.6,16.66,42.32,12.72,16,38.32,26.19,60.85,24.16a48.8,48.8,0,0,1-29.56,9.77c-28,0-50.45-22.62-50.4-56.93A86.07,86.07,0,0,1,98.64,190.05Z"/><path class="cls-8" d="M139.05,177c6.28,17.43,19.75,28.55,30.07,24.84s13.59-20.88,7.31-38.32S156.67,135,146.35,138.71,132.76,159.59,139.05,177Z"/><path class="cls-8" d="M144,168.28c3.88,10.76,12.19,17.62,18.56,15.32s8.38-12.88,4.5-23.63-12.18-17.62-18.55-15.33S140.1,157.52,144,168.28Z"/><path class="cls-9" d="M250,211.67c-11.63,4.77-33.81,18.88-57.48,35.87-1.4,1-2.79,2-4.19,3-7.19,5.23-14.45,10.67-21.57,16.16h0a3.33,3.33,0,0,0-.32.24c-4.66,3.61-9.28,7.23-13.74,10.86l-2.36,1.9c-4.64,3.79-9.12,7.53-13.34,11.17l-1.89,1.62c-3.54,3.09-6.88,6.08-10,8.94l-1,1A189.29,189.29,0,0,0,110.75,316l-2,2.44c-4.59,5.64-6.75,10-5.62,12.3a4,4,0,0,0,.31.52,4.24,4.24,0,0,0,1,.88,1.61,1.61,0,0,0,.31.19c.18.1.39.21.61.31a12.4,12.4,0,0,0,3.71,1,19.45,19.45,0,0,0,2.37.19c.41,0,.85,0,1.31,0,.89,0,1.85,0,2.85-.05,1.17,0,2.4-.14,3.7-.25,0,0,0,0,.06,0,.93-.09,1.89-.21,2.88-.34,1.77-.22,3.63-.49,5.6-.83,1.7-.26,3.45-.56,5.27-.92h0c2.58-.49,5.27-1.07,8.09-1.71l1.65-.39c2.12-.49,4.31-1,6.55-1.57s4.63-1.19,7-1.84q2.79-.75,5.67-1.56h0l3.17-.91,3.19-.93c5.65-1.66,11.5-3.47,17.42-5.4,1.54-.49,3.08-1,4.62-1.5l3.32-1.1,3.45-1.17c4.32-1.47,8.67-3,13-4.54h0l2.23-.8c1.7-.62,3.38-1.23,5.06-1.86h0l3.16-1.17c1.81-.68,3.63-1.37,5.42-2.07,5.41-2.06,10.73-4.17,15.89-6.29,1.73-.7,3.44-1.42,5.11-2.12s3.37-1.42,5-2.13c2.47-1.07,4.9-2.13,7.26-3.19.79-.33,1.58-.69,2.34-1,1-.43,1.94-.88,2.88-1.31,2.86-1.32,5.6-2.61,8.25-3.91.68-.35,1.39-.69,2.08-1,2.73-1.36,5.36-2.71,7.81-4,.32-.25.62-.5.91-.76l.43-.4a16.05,16.05,0,0,0,1.45-1.52l0,0s0,0,0-.06a6.67,6.67,0,0,0,.52-.67,6.5,6.5,0,0,0,.56-.76,1.51,1.51,0,0,0,.18-.26c.17-.26.35-.53.5-.79a18,18,0,0,0,1.48-3.06,17.8,17.8,0,0,0,.79-2.47c.05-.18.09-.37.13-.54a22.54,22.54,0,0,0,.47-2.65c0-.24.06-.5.09-.75.05-.54.09-1.08.1-1.62a1.72,1.72,0,0,0,0-.32c0-.41,0-.82,0-1.24,0-.05,0-.1,0-.15v0c0-.13,0-.26,0-.4,0-.84-.08-1.7-.14-2.58,0-.46-.1-.9-.15-1.35a46.55,46.55,0,0,0-.79-4.59c-.13-.53-.24-1.09-.39-1.66s-.29-1.12-.46-1.69-.3-1.07-.46-1.6c-.07-.21-.13-.43-.2-.66-.13-.42-.28-.85-.42-1.27-.4-1.22-.86-2.44-1.34-3.7-.16-.39-.33-.81-.49-1.23s-.27-.64-.4-1-.4-.95-.61-1.42c-.05-.11-.09-.23-.13-.34-.29-.66-.58-1.32-.88-2-.12-.26-.25-.53-.37-.8a1.31,1.31,0,0,0-.16-.36c-.18-.38-.36-.77-.53-1.15-.38-.82-.77-1.62-1.18-2.4-.14-.3-.29-.57-.45-.87-.34-.67-.69-1.32-1.06-2l-.42-.74c-.88-1.56-1.82-3.07-2.81-4.48q-.5-.73-1-1.41c-.22-.31-.45-.61-.69-.89a7.37,7.37,0,0,0-.5-.61,7.75,7.75,0,0,0-.52-.62c-.43-.5-.87-1-1.33-1.46s-.94-.91-1.4-1.35-.8-.7-1.2-1C264.53,209.91,258.07,208.36,250,211.67Z"/><path class="cls-10" d="M121.81,311.84c12.23-3.65,16.94-3,28.34-8.71,23-11.45,50.89-16.35,75.08-24.95,7.14-2.54,31-4.27,34.06-12.29,2.76-7.25-1-14.65-2-22-1.29-9.31-.65-19.28,7.08-25.82a46.08,46.08,0,0,1,5.47-3.94c6.53,5.21,11.34,14.48,15.26,23.86,8.23,19.67,6.35,32.87-2.44,39.78-49.79,26.77-162.11,64-178,54.51C112.92,328.06,113,314.48,121.81,311.84Z"/><path class="cls-11" d="M258.17,249.09c7.23,17.62,19.13,29.44,26.57,26.38s7.62-19.81.38-37.45S266,208.59,258.55,211.63,250.94,231.46,258.17,249.09Z"/><path class="cls-11" d="M250.65,270.57a68.09,68.09,0,0,0,17,14.68c-2.58,1.21-5.31,2.44-8.16,3.7-5.56-4.54-11.32-12.78-15.52-23a77.66,77.66,0,0,1-3.69-11.48A70.62,70.62,0,0,0,250.65,270.57Z"/><path class="cls-11" d="M217.61,306.3l-7.24,2.8c-3.78-5.74-6.93-14.16-8.54-23.83a76.28,76.28,0,0,1-1.06-12,71.08,71.08,0,0,0,6.54,18A72,72,0,0,0,217.61,306.3Z"/><path class="cls-11" d="M125.1,301.46l-1,1c.16,1.83.4,3.71.71,5.62A72.25,72.25,0,0,0,129.66,325,43.55,43.55,0,0,0,133,331.4v0h0c2.58-.49,5.27-1.07,8.09-1.71h0a66.19,66.19,0,0,1-5.32-6.58,75.35,75.35,0,0,1-5.5-9A72.63,72.63,0,0,1,125.1,301.46Z"/><path class="cls-11" d="M197.17,313.33c-.41-.71-.81-1.43-1.19-2.18a54.46,54.46,0,0,1-4.8-12.93c-.05-.24-.11-.47-.16-.72,0,.25,0,.5,0,.78a56.48,56.48,0,0,0,.79,8.33,58.39,58.39,0,0,0,1.89,7.89Z"/><path class="cls-11" d="M216.66,234.81a53.89,53.89,0,0,0,1.13,14.48c1.82,8.63,9.36,20.49,9.36,20.49s-13.66-11.61-12.16-26A58.35,58.35,0,0,1,216.66,234.81Z"/><path class="cls-11" d="M192.49,247.54c-1.4,1-2.79,2-4.19,3a64.84,64.84,0,0,0,4.57,12.38A108.84,108.84,0,0,1,192.49,247.54Z"/><path class="cls-11" d="M152.67,277.83c.07,5,.46,8.66.46,8.66a57.81,57.81,0,0,1-2.82-6.76Z"/><path class="cls-11" d="M137.39,297.85a57.78,57.78,0,0,1-2.46-5.72l2-1.34C137.08,295,137.39,297.85,137.39,297.85Z"/><path class="cls-11" d="M166.41,267a57.19,57.19,0,0,0-1.28,7.45c-1.51,14.36,12.14,26,12.14,26s-7.53-11.86-9.34-20.49a54,54,0,0,1-1.2-13.17h0Z"/><path class="cls-11" d="M108.7,318.43a37.22,37.22,0,0,0,5.92,10.19,41.81,41.81,0,0,0,4.56,4.87,0,0,0,0,0,0,0l.15.13a.67.67,0,0,0-.09-.14v0c-.33-.53-1.59-2.55-3.06-5.29A74.12,74.12,0,0,1,110.75,316Z"/><path class="cls-11" d="M244.09,224.93a54.36,54.36,0,0,0,1.13,14.48c1.82,8.63,9.36,20.49,9.36,20.49s-13.67-11.62-12.15-26A58.37,58.37,0,0,1,244.09,224.93Z"/><path class="cls-11" d="M168.36,322.5a47.74,47.74,0,0,1-8-9.71c-.89-1.42-1.74-2.9-2.53-4.45a53.64,53.64,0,0,1-5-13.64,58.74,58.74,0,0,0,.81,9.1,57.45,57.45,0,0,0,2.87,10.82,32.09,32.09,0,0,0,5.47,9.72h0Z"/><path class="cls-11" d="M244.53,290.63c1,1.22,2.09,2.35,3.17,3.43l-3.94,1.66a60,60,0,0,1-4.4-8.67,61.34,61.34,0,0,1-2.87-8.89A55.5,55.5,0,0,0,244.53,290.63Z"/><path class="cls-12" d="M270.42,234.14c-.66.3.36,4,2.29,8.25s4,7.48,4.66,7.18-.37-4-2.29-8.25S271.08,233.85,270.42,234.14Z"/><path class="cls-13" d="M274.76,241.36c1.34-.59,24.4-11,42-37,17-25.17,4.62-42.68-2.08-42.1-15.47,1.35-10.53,21.24-10.53,21.24s-2.35-10.84-9.66-8.57c-9.74,3-9.1,33.92-9.1,33.92s-.2-18.84-7.85-16.58c-10.31,3-5.68,42.78-5.68,42.78l1.53,6.95Z"/><path class="cls-14" d="M275.19,242.8c1.46.15,26.67,2.48,54.84-11.48,27.24-13.5,25.07-34.85,19-37.65C334.85,187.21,329.34,207,329.34,207s3.31-10.6-4.18-12.22c-10-2.18-24.63,25-24.63,25s9.11-16.48,1.33-18.3c-10.45-2.44-26,34.43-26,34.43l-2.11,6.8Z"/><path class="cls-15" d="M274.89,241.69c1.3-.7,23.62-12.61,55-10.67,30.34,1.89,36.61,22.41,32.06,27.35-10.52,11.45-23.25-4.61-23.25-4.61s7.15,8.47.88,12.87c-8.33,5.86-32.4-13.5-32.4-13.5s14.78,11.65,8.32,16.35c-8.69,6.3-37.34-21.64-37.34-21.64l-4.57-5.46Z"/><path class="cls-9" d="M272.75,273.46c-12.55.58-38.19,6.41-66.2,14.45-1.64.46-3.3.95-5,1.43-8.53,2.5-17.2,5.19-25.76,8v0a2.72,2.72,0,0,0-.38.11c-5.61,1.84-11.17,3.69-16.59,5.61L156,304c-5.64,2-11.11,4-16.32,6l-2.32.89c-4.36,1.72-8.52,3.4-12.4,5.06-.45.21-.89.39-1.32.58-6.64,2.87-12.43,5.67-17.09,8.28l-2.75,1.6c-6.21,3.77-9.71,7.11-9.43,9.69a4,4,0,0,0,.13.6,4.06,4.06,0,0,0,.59,1.15,1.56,1.56,0,0,0,.23.28c.14.17.3.33.47.5A12.55,12.55,0,0,0,99,340.85a19.9,19.9,0,0,0,2.17,1c.38.16.79.32,1.21.47.84.32,1.75.63,2.71.91,1.11.36,2.31.69,3.57,1,0,0,0,0,.06,0,.91.22,1.85.44,2.82.65,1.75.38,3.59.75,5.56,1.1,1.68.32,3.43.63,5.26.9h0c2.6.4,5.33.76,8.19,1.11l1.7.19c2.15.24,4.39.49,6.69.71s4.76.45,7.22.64c1.91.15,3.87.3,5.86.43h0l3.28.2,3.32.2c5.88.34,12,.61,18.22.78,1.62,0,3.23.11,4.85.14l3.49.08,3.65.06c4.57.06,9.17.11,13.77.09H205c1.8,0,3.6,0,5.39,0h0c1.13,0,2.24,0,3.37-.05,1.94,0,3.87-.07,5.8-.12,5.79-.12,11.5-.32,17.08-.58,1.86-.08,3.71-.19,5.53-.27s3.65-.21,5.43-.33c2.68-.18,5.32-.36,7.91-.56.85-.05,1.72-.12,2.56-.2,1.07-.08,2.12-.18,3.15-.27,3.13-.28,6.15-.58,9.08-.91l2.3-.27c3-.36,6-.75,8.72-1.16q.57-.19,1.11-.42c.19-.08.37-.14.54-.23a17.35,17.35,0,0,0,1.88-.94l0,0s0,0,.07,0c.25-.14.48-.3.72-.46a6.22,6.22,0,0,0,.78-.52l.25-.19c.26-.19.52-.38.74-.57a20.21,20.21,0,0,0,2.43-2.38,20.44,20.44,0,0,0,1.57-2.07c.11-.15.2-.32.31-.47a26.16,26.16,0,0,0,1.33-2.33l.33-.68c.23-.49.45-1,.65-1.49a2.08,2.08,0,0,0,.12-.3c.16-.38.3-.75.43-1.15,0-.05,0-.1.05-.14l0-.05c0-.13.07-.26.11-.39.27-.79.5-1.63.73-2.49.12-.43.22-.87.32-1.31.33-1.44.59-3,.8-4.59.06-.54.13-1.11.19-1.69s.1-1.15.14-1.75.08-1.11.1-1.66q0-.33,0-.69l0-1.33c0-1.29,0-2.59,0-3.94,0-.43,0-.87,0-1.33s0-.68-.06-1c0-.52-.05-1-.09-1.55,0-.12,0-.23,0-.35-.05-.72-.1-1.45-.17-2.14,0-.29,0-.58-.08-.88a1.67,1.67,0,0,0,0-.39c0-.42-.07-.85-.11-1.26-.08-.9-.18-1.78-.3-2.65,0-.33-.08-.65-.13-1-.1-.75-.21-1.48-.34-2.22-.05-.28-.09-.56-.14-.84-.31-1.77-.69-3.5-1.14-5.17-.15-.57-.31-1.13-.5-1.67a10.22,10.22,0,0,0-.34-1.07,5.05,5.05,0,0,0-.27-.74,4.25,4.25,0,0,0-.28-.75c-.23-.63-.49-1.23-.76-1.83s-.57-1.17-.87-1.74-.52-.93-.79-1.37C287.06,276.7,281.49,273.06,272.75,273.46Z"/><path class="cls-10" d="M123.21,339.84c12.74.68,25.38-.55,38-2.07a644.12,644.12,0,0,1,77.19-4.3c7.58,0,19.28.71,24.86-5.81,5-5.91,4-14.13,5.53-21.35,1.91-9.2,5.87-18.38,15.35-21.93a44.63,44.63,0,0,1,6.47-1.88c4.4,7.11,5.81,17.46,6.35,27.61,1.13,21.29-5.08,33.09-15.68,36.64-55.9,8.46-174.19,5.73-186-8.54C104.54,337,114,339.34,123.21,339.84Z"/><path class="cls-11" d="M267.89,311.46c.88,19,8.11,34.15,16.15,33.78s13.84-16.1,13-35.14-8.12-34.15-16.16-33.79S267,292.43,267.89,311.46Z"/><path class="cls-11" d="M253.58,329.16a68.42,68.42,0,0,0,11.06,19.54c-2.83.26-5.82.51-8.93.74-3.7-6.14-6.36-15.84-6.87-26.88a79.11,79.11,0,0,1,.37-12.06A71.29,71.29,0,0,0,253.58,329.16Z"/><path class="cls-11" d="M210.45,351.69l-7.77.21c-1.62-6.68-1.76-15.67,0-25.32a76.31,76.31,0,0,1,3-11.66,74.08,74.08,0,0,0,4.75,36.77Z"/><path class="cls-11" d="M125,316c-.45.21-.89.39-1.32.58-.46,1.78-.86,3.63-1.21,5.53a71.24,71.24,0,0,0-1.09,17.58,43,43,0,0,0,1,7.16v0h0c2.6.4,5.33.76,8.19,1.11,0,0,0,0,0,0a67.07,67.07,0,0,1-2.8-8,74.81,74.81,0,0,1-2.14-10.37A73.09,73.09,0,0,1,125,316Z"/><path class="cls-11" d="M188.83,351.44c-.14-.81-.27-1.62-.38-2.45a53.91,53.91,0,0,1-.17-13.8c0-.25.06-.48.08-.73-.07.24-.15.48-.24.74a57.51,57.51,0,0,0-2.05,8.11,60.3,60.3,0,0,0-.89,8.07Z"/><path class="cls-11" d="M233.6,284.05a53.55,53.55,0,0,0-3.8,14c-1.19,8.74,1.92,22.44,1.92,22.44S222.75,305,229,292A59.43,59.43,0,0,1,233.6,284.05Z"/><path class="cls-11" d="M206.55,287.91c-1.64.46-3.3.95-5,1.43a64.43,64.43,0,0,0,.13,13.19A111,111,0,0,1,206.55,287.91Z"/><path class="cls-11" d="M158.87,303c-1.63,4.76-2.48,8.3-2.48,8.3A58.94,58.94,0,0,1,156,304Z"/><path class="cls-11" d="M137.74,316.76a58.78,58.78,0,0,1-.39-6.22l2.37-.58C138.42,313.93,137.74,316.76,137.74,316.76Z"/><path class="cls-11" d="M175.46,297.43a57.2,57.2,0,0,0-3.71,6.59c-6.26,13,2.7,28.54,2.7,28.54s-3.11-13.7-1.91-22.44a54.32,54.32,0,0,1,3.3-12.8v0Z"/><path class="cls-11" d="M103.8,326.48A37,37,0,0,0,106,338.07a40.89,40.89,0,0,0,2.65,6.12.1.1,0,0,0,0,0l.1.17a1.45,1.45,0,0,0,0-.16v0c-.13-.62-.63-2.94-1.1-6a75.27,75.27,0,0,1-1-13.33Z"/><path class="cls-11" d="M262.75,284a54.63,54.63,0,0,0-3.8,14c-1.18,8.74,1.93,22.44,1.93,22.44s-9-15.54-2.71-28.55A57.24,57.24,0,0,1,262.75,284Z"/><path class="cls-11" d="M158.62,350.38a47.88,47.88,0,0,1-4.28-11.84c-.36-1.63-.66-3.31-.89-5a54.1,54.1,0,0,1-.1-14.53,60.34,60.34,0,0,0-2.3,8.84,58.26,58.26,0,0,0-.93,11.16A32.11,32.11,0,0,0,152,350h0Z"/><path class="cls-11" d="M241.07,346c.57,1.5,1.18,2.91,1.84,4.3l-4.27.24a60.62,60.62,0,0,1-1.24-9.65,61.67,61.67,0,0,1,.29-9.33A55.45,55.45,0,0,0,241.07,346Z"/><path class="cls-12" d="M284.46,301.5c-.73.06-1,3.89-.63,8.54s1.26,8.39,2,8.32,1-3.87.62-8.53S285.17,301.45,284.46,301.5Z"/><path class="cls-13" d="M286.1,309.76c1.47-.11,26.69-2.14,52-20.74,24.51-18,18.71-38.63,12.2-40.34-15-3.94-17.06,16.46-17.06,16.46s1.43-11-6.22-11.32c-10.18-.43-20,28.88-20,28.88s6.14-17.81-1.83-18.25c-10.72-.61-19.73,38.37-19.73,38.37l-.9,7.06Z"/><path class="cls-14" d="M286,311.26c1.33.63,24.28,11.31,55.51,7.63,30.19-3.55,35.33-24.38,30.52-29.08-11.14-10.84-23,5.91-23,5.91s6.67-8.87.17-12.91c-8.65-5.4-31.61,15.26-31.61,15.26s14.12-12.45,7.41-16.78C316,275.48,289,305,289,305l-4.27,5.7Z"/><path class="cls-15" d="M286.13,310.11c1.45-.22,26.48-3.93,55.38,8.46,27.94,12,26.95,33.42,21,36.54C348.75,362.35,342.17,343,342.17,343s3.87,10.38-3.5,12.41c-9.83,2.71-26-23.61-26-23.61s10,15.95,2.34,18.19C304.72,353,287.15,317,287.15,317l-2.47-6.69Z"/></g></g></svg>