<svg id="Layer_1" data-name="Layer 1" xmlns="http://www.w3.org/2000/svg" viewBox="0 0 257.36 228.02"><defs><style>.cls-1{fill:#af9880;}.cls-2{fill:#4c4c3b;}</style></defs><path class="cls-1" d="M251.19,130.09s-30-5.66-75.83-42.44c-32.13-25.78-48.79-64.36-74.69-72.43C22.58-9.11-15.1,90.62,36.73,152.72c65.64,78.66,178.81,59.42,178.81,59.42s-20.94-15.85-18.65-15.85,33.39-8.48,33.39-8.48-23.2-13-20.94-13,41.88-9.05,41.88-9.05L220.63,147C224,146.5,251.19,130.09,251.19,130.09Z"/><path class="cls-2" d="M28.23,102.86c5.63,8.27,13.17,14.91,20.6,21.51,1.35,1.2,3.36-.79,2-2-7.23-6.43-14.67-12.89-20.15-20.94-1-1.5-3.47-.08-2.45,1.43Z"/><path class="cls-2" d="M35.89,68A76.4,76.4,0,0,0,54.79,90.4c1.41,1.11,3.43-.87,2-2A74.2,74.2,0,0,1,38.34,66.61,1.42,1.42,0,0,0,35.89,68Z"/><path class="cls-2" d="M48.26,53.29c5.53,4,11.22,8,14.77,13.92a1.42,1.42,0,0,0,2.45-1.42c-3.81-6.38-9.86-10.7-15.79-14.94-1.49-1.06-2.9,1.39-1.43,2.44Z"/><path class="cls-2" d="M79.67,31.23c9.84,5.45,20,13.74,25,24.1.78,1.65,3.22.21,2.44-1.43-5.09-10.77-15.73-19.44-26-25.12a1.42,1.42,0,0,0-1.42,2.45Z"/><path class="cls-2" d="M124.36,57.32c6.15,6.14,12.34,12.3,17.61,19.23,1.08,1.43,3.54,0,2.44-1.43-5.42-7.13-11.72-13.48-18-19.81a1.42,1.42,0,0,0-2,2Z"/><path class="cls-2" d="M93.81,72.59c5.9,5.06,11.8,10.11,18.11,14.65,1.48,1.07,2.89-1.38,1.43-2.44-6.11-4.41-11.83-9.31-17.54-14.21C94.43,69.41,92.42,71.4,93.81,72.59Z"/><path class="cls-2" d="M84.25,96.92c4.65,6.28,11.2,10.47,17.48,14.94,1.5,1,2.91-1.4,1.43-2.45-5.85-4.15-12.13-8.07-16.47-13.92-1.07-1.45-3.53,0-2.44,1.43Z"/><path class="cls-2" d="M74.57,130.53C80.82,134.11,86.94,138,92.11,143c1.31,1.27,3.31-.72,2-2-5.34-5.23-11.66-9.25-18.11-12.95a1.41,1.41,0,0,0-1.43,2.44Z"/><path class="cls-2" d="M64.39,150.9c6.82,4.17,14.4,6.86,21.22,11,1.56,1,3-1.49,1.43-2.44-6.82-4.17-14.41-6.86-21.22-11-1.56-1-3,1.5-1.43,2.45Z"/><path class="cls-2" d="M52.22,31c4.44,3.52,9.14,6.68,13.58,10.19,1.42,1.12,3.43-.87,2-2C63.36,35.72,58.66,32.55,54.22,29,52.81,27.92,50.79,29.91,52.22,31Z"/><path class="cls-2" d="M123.8,163.63a182.77,182.77,0,0,1,17.82,8.49,1.42,1.42,0,0,0,1.43-2.45,180.41,180.41,0,0,0-17.82-8.48c-1.66-.72-3.1,1.72-1.43,2.44Z"/><path class="cls-2" d="M83.89,180.6a83.42,83.42,0,0,0,19.86,8.63,1.41,1.41,0,1,0,.75-2.72h0a80.72,80.72,0,0,1-19.18-8.35,1.41,1.41,0,0,0-1.43,2.44Z"/><path class="cls-2" d="M138.1,199.47c5.7.09,11.26,1.6,17,1.7a1.41,1.41,0,0,0,1.3-1.53,1.43,1.43,0,0,0-1.3-1.3c-5.71-.1-11.26-1.61-17-1.7a1.42,1.42,0,0,0,0,2.83Z"/><path class="cls-2" d="M176.76,185.84c4.82.8,9.64,1.6,14.43,2.55,1.78.35,2.54-2.38.75-2.73-4.79-.95-9.61-1.75-14.43-2.55C175.73,182.81,175,185.54,176.76,185.84Z"/><path class="cls-2" d="M151.3,152.74A47,47,0,0,1,165.1,160c1.42,1.11,3.44-.88,2-2a51.5,51.5,0,0,0-15-8c-1.73-.59-2.47,2.14-.75,2.73Z"/><path class="cls-2" d="M115.31,127.13a56.49,56.49,0,0,0,10.58,4.39,1.42,1.42,0,0,0,.75-2.73,52.67,52.67,0,0,1-9.85-4.1c-1.63-.81-3.06,1.63-1.43,2.44Z"/><path class="cls-2" d="M139.08,104.22c8.36,5.79,17.39,10.42,26.31,15.27,1.6.88,3-1.57,1.43-2.44-8.92-4.85-18-9.48-26.31-15.28C139,100.77,137.59,103.19,139.08,104.22Z"/><path class="cls-2" d="M171.89,97.21c5.48,5.36,12,9.49,17.83,14.42,1.38,1.17,3.39-.82,2-2-5.84-4.93-12.35-9.06-17.83-14.42C172.59,93.93,170.59,95.93,171.89,97.21Z"/><path class="cls-2" d="M197.51,148.55a1.41,1.41,0,0,0,1.3-1.53,1.31,1.31,0,1,0-2.59.24A1.41,1.41,0,0,0,197.51,148.55Z"/><path class="cls-2" d="M198.49,149.2a145.74,145.74,0,0,0,19.52,11c1.63.82,3.06-1.62,1.43-2.44-6.69-3.35-13.39-6.72-19.52-11C198.42,145.71,197,148.16,198.49,149.2Z"/></svg>