<?xml version="1.0" encoding="utf-8"?>
<!-- Generator: Adobe Illustrator 25.0.1, SVG Export Plug-In . SVG Version: 6.00 Build 0)  -->
<svg version="1.1" id="Layer_1" xmlns="http://www.w3.org/2000/svg" xmlns:xlink="http://www.w3.org/1999/xlink" x="0px" y="0px"
	 viewBox="0 0 592 750" style="enable-background:new 0 0 592 750;" xml:space="preserve">
<style type="text/css">
	.st0{fill:#AF9880;}
	.st1{fill:#4C4C3B;}
	.st2{fill:#EF5C3F;}
	.st3{fill:#E8B618;}
	.st4{fill:#ED7454;}
	.st5{fill:#564336;}
	.st6{display:none;}
	.st7{display:inline;fill:#AF9880;}
	.st8{display:inline;fill:#4C4C3B;}
	.st9{fill:#D1B49B;}
</style>
<path class="st0" d="M94.5,294.5l-39,3.4l27.7,35.6l-37.3-2.3l20.4,38.5l-52.6,1.7l32.8,49.2l62.2-30c0.5-1.7,32.2-61.7,32.2-61.7
	L94.5,294.5z"/>
<path class="st1" d="M359.8,238.9c0,0,11.7-167.8,59.4-179.9c86.6-22.1,125.6,45.8,118.8,235.9c-5.2,145.7-15.3,273.3-266.5,270
	C118.7,562.8,27,407,27,407c5.1,0,37.3-10.2,37.3-10.2s-30.6-37.4-25.5-37.4s42.4-1.7,42.4-1.7S49.1,317,54.2,317
	s47.5,10.2,47.5,10.2l-37.4-45.8L359.8,238.9z"/>
<path class="st0" d="M419.2,57.3c-35.7,9.1-51.2,105.2-56.8,153.1l12.6,9.8l22.1-22.1l13.6,30.6l35.6-27.2l17,28.9l32.3-27.2
	l23.8,39l6.8-32.2l12.1,12.1C533.3,86.2,493.9,38.2,419.2,57.3z"/>
<polygon class="st2" points="397.8,704 447.7,733.9 450.3,728.2 411.1,704.8 457.2,708 456.6,702.3 412.4,699.8 441.4,691.6 
	436.4,687.8 398.5,699.2 397.8,704 "/>
<polygon class="st2" points="239.1,703.1 275.8,744.4 279.6,740 251.8,708.4 294.1,716 294.7,709 253,702.7 288.4,693.9 284,688.8 
	242.9,700.2 239.1,703.1 "/>
<polygon class="st2" points="233.2,599.5 239.1,703.1 245,704 248.3,598.7 "/>
<polygon class="st2" points="391.9,600.4 397.8,704 403.7,704.8 407,599.5 "/>
<path class="st3" d="M480.4,130.4c-1.6,4.4-2.5,9-2.7,13.6c-0.2,4.9,0.8,9.7,3.1,14.1c0,0,24.1-9.6,24.1-14.1
	S480.4,130.4,480.4,130.4z"/>
<path class="st2" d="M430.6,54.5c0,0,15.9,0,32.8,11.3S492.9,84,492.9,84s30.5-29.4,22.6-47.5s-22.6-9.1-22.6-9.1S494,9.3,474.8,8.1
	s-22.6,13.6-22.6,13.6s0-17-17-10.2C422.4,16.6,430.6,54.5,430.6,54.5z"/>
<path class="st4" d="M444.2,16.6c-0.6-0.2-1.2-0.4-1.8-0.5l0.1-0.1c-12.3-5.6-10.4,19.9-6.8,25.3c-1.3-9.7,4.3-11.6,9.6-17.3
	C448,21.1,448.9,18.5,444.2,16.6z"/>
<path class="st4" d="M469.1,15.5c-1.1,0.5-2.2,1.2-3.2,2c-3.6,1.4-6.6,3.8-6.9,7.2c-0.8,10.6,19.3,7.1,23.5,2
	C490.4,17.3,476.6,11.9,469.1,15.5z"/>
<path class="st5" d="M434.3,121.3c0.1-5.3,3.3-9.6,8.8-10.2c5-0.6,9.6,2.8,10.5,7.7c0.4,1.8,3.1,1,2.7-0.8c-1.3-6.2-7-10.4-13.2-9.8
	c-7,0.4-11.5,6.3-11.6,13C431.5,123.1,434.3,123.1,434.3,121.3L434.3,121.3z"/>
<path class="st5" d="M495.4,119.6c0.1-5.3,3.3-9.6,8.8-10.2c5-0.6,9.6,2.8,10.5,7.7c0.4,1.8,3.1,1,2.7-0.8c-1.3-6.2-7-10.4-13.2-9.8
	c-7,0.4-11.5,6.3-11.6,13c0.1,0.8,0.8,1.4,1.5,1.3C494.8,120.8,495.4,120.3,495.4,119.6L495.4,119.6z"/>
<path class="st0" d="M573.8,417.3c-13.1,5.1-26,12.8-40.5,14.1c4.5,2.8,11.9,4.6,15,8.5c-6.9,4-14.7,6.6-21.2,10.8
	c4,0.1,7.8,2.3,11.6,3.5c-0.4,4.5-13.5,11.5-16.9,14.6c-3.6,3.2-7,6.8-10.5,9.8c18.7,7.7,33.5,4.3,47.9-11.4
	c9.9-10.7,23.2-34.2,15.2-49.2c-0.6,0.2-0.5,0.7-1,1.1L573.8,417.3z"/>
<path class="st1" d="M271.5,564.7v-27.6l-76.4-8.5c13.1,24.8,10.4,109.4,47.6,117.1c20.2,4.2,27.2-28.4,28.8-44.5
	C272.7,589.4,271.5,576.7,271.5,564.7z"/>
<path class="st1" d="M422.6,559.7v-27.6l-76.4-8.5c13.1,24.8,10.4,109.4,47.6,117.1c20.2,4.2,27.2-28.4,28.8-44.5
	C423.8,584.3,422.6,571.6,422.6,559.7z"/>
<path class="st1" d="M283.6,391.6c0.8-0.1,1.4-0.8,1.3-1.5c-0.1-0.7-0.6-1.2-1.3-1.3c-0.8,0.1-1.4,0.8-1.3,1.5
	C282.3,391,282.9,391.5,283.6,391.6z"/>
<g class="st6">
	<path class="st7" d="M449.3,424c0,0-30-5.7-75.8-42.4c-32.1-25.8-48.8-64.4-74.7-72.4c-78.1-24.3-115.8,75.4-63.9,137.5
		c65.6,78.7,178.8,59.4,178.8,59.4s-20.9-15.8-18.6-15.8s33.4-8.5,33.4-8.5s-23.2-13-20.9-13s41.9-9,41.9-9L418.7,441
		C422.1,440.5,449.3,424,449.3,424z"/>
	<path class="st8" d="M226.3,396.8c5.6,8.3,13.2,14.9,20.6,21.5c1.4,1.2,3.4-0.8,2-2c-7.2-6.4-14.7-12.9-20.1-20.9
		C227.8,393.9,225.3,395.3,226.3,396.8L226.3,396.8z"/>
	<path class="st8" d="M234,362c4.8,8.6,11.2,16.2,18.9,22.4c1.4,1.1,3.4-0.9,2-2c-7.5-6-13.8-13.4-18.4-21.8c-0.4-0.7-1.3-0.8-2-0.4
		C233.9,360.6,233.7,361.4,234,362z"/>
	<path class="st8" d="M246.4,347.2c5.5,4,11.2,8,14.8,13.9c0.4,0.6,1.3,0.8,2,0.4c0.6-0.4,0.8-1.2,0.5-1.8
		c-3.8-6.4-9.9-10.7-15.8-14.9C246.3,343.8,244.9,346.2,246.4,347.2L246.4,347.2z"/>
	<path class="st8" d="M277.8,325.2c9.8,5.5,20,13.7,25,24.1c0.8,1.6,3.2,0.2,2.4-1.4c-5.1-10.8-15.7-19.4-26-25.1
		C277.6,321.9,276.2,324.3,277.8,325.2L277.8,325.2z"/>
	<path class="st8" d="M322.5,351.3c6.1,6.1,12.3,12.3,17.6,19.2c1.1,1.4,3.5,0,2.4-1.4c-5.4-7.1-11.7-13.5-18-19.8
		c-0.6-0.5-1.5-0.4-2,0.2C322.1,350,322.1,350.7,322.5,351.3L322.5,351.3z"/>
	<path class="st8" d="M291.9,366.5c5.9,5.1,11.8,10.1,18.1,14.6c1.5,1.1,2.9-1.4,1.4-2.4c-6.1-4.4-11.8-9.3-17.5-14.2
		C292.5,363.4,290.5,365.4,291.9,366.5z"/>
	<path class="st8" d="M282.4,390.9c4.6,6.3,11.2,10.5,17.5,14.9c1.5,1,2.9-1.4,1.4-2.5c-5.9-4.1-12.1-8.1-16.5-13.9
		C283.7,388,281.3,389.4,282.4,390.9L282.4,390.9z"/>
	<path class="st8" d="M272.7,424.5c6.2,3.6,12.4,7.5,17.5,12.5c1.3,1.3,3.3-0.7,2-2c-5.3-5.2-11.7-9.2-18.1-13
		c-0.7-0.4-1.5-0.2-1.9,0.5S272,424.1,272.7,424.5z"/>
	<path class="st8" d="M262.5,444.9c6.8,4.2,14.4,6.9,21.2,11c1.6,1,3-1.5,1.4-2.4c-6.8-4.2-14.4-6.9-21.2-11
		C262.4,441.4,260.9,443.9,262.5,444.9L262.5,444.9z"/>
	<path class="st8" d="M250.3,325c4.4,3.5,9.1,6.7,13.6,10.2c1.4,1.1,3.4-0.9,2-2c-4.4-3.5-9.1-6.7-13.6-10.2
		C250.9,321.9,248.9,323.9,250.3,325z"/>
	<path class="st8" d="M321.9,457.6c6.1,2.5,12,5.3,17.8,8.5c0.7,0.4,1.6,0.1,1.9-0.6c0.3-0.6,0.1-1.4-0.5-1.8
		c-5.8-3.2-11.7-6-17.8-8.5C321.7,454.4,320.2,456.9,321.9,457.6L321.9,457.6z"/>
	<path class="st8" d="M282,474.6c6.2,3.7,12.9,6.6,19.9,8.6c0.8,0.2,1.5-0.2,1.7-1c0.2-0.8-0.2-1.5-1-1.7l0,0
		c-6.7-1.9-13.2-4.7-19.2-8.4c-0.7-0.4-1.5-0.2-1.9,0.5S281.3,474.2,282,474.6z"/>
	<path class="st8" d="M336.2,493.4c5.7,0.1,11.3,1.6,17,1.7c0.8-0.1,1.4-0.8,1.3-1.5c-0.1-0.7-0.6-1.2-1.3-1.3
		c-5.7-0.1-11.3-1.6-17-1.7c-0.8,0.1-1.4,0.8-1.3,1.5C335,492.8,335.5,493.4,336.2,493.4z"/>
	<path class="st8" d="M374.9,479.8c4.8,0.8,9.6,1.6,14.4,2.5c1.8,0.4,2.5-2.4,0.8-2.7c-4.8-1-9.6-1.8-14.4-2.5
		C373.8,476.8,373.1,479.5,374.9,479.8z"/>
	<path class="st8" d="M349.4,446.7c5,1.6,9.6,4.1,13.8,7.3c1.4,1.1,3.4-0.9,2-2c-4.5-3.5-9.6-6.2-15-8
		C348.5,443.4,347.7,446.1,349.4,446.7L349.4,446.7z"/>
	<path class="st8" d="M313.4,421.1c3.4,1.8,6.9,3.3,10.6,4.4c0.8,0.1,1.5-0.4,1.7-1.1c0.1-0.7-0.3-1.4-0.9-1.6
		c-3.4-1-6.7-2.4-9.9-4.1C313.3,417.8,311.8,420.3,313.4,421.1L313.4,421.1z"/>
	<path class="st8" d="M337.2,398.2c8.4,5.8,17.4,10.4,26.3,15.3c1.6,0.9,3-1.6,1.4-2.4c-8.9-4.9-18-9.5-26.3-15.3
		C337.1,394.7,335.7,397.1,337.2,398.2z"/>
	<path class="st8" d="M370,391.2c5.5,5.4,12,9.5,17.8,14.4c1.4,1.2,3.4-0.8,2-2c-5.8-4.9-12.4-9.1-17.8-14.4
		C370.7,387.9,368.7,389.9,370,391.2z"/>
	<path class="st8" d="M395.6,442.5c0.8-0.1,1.4-0.8,1.3-1.5c-0.1-0.7-0.6-1.2-1.3-1.3c-0.8,0.1-1.4,0.8-1.3,1.5
		C394.4,441.9,394.9,442.5,395.6,442.5z"/>
	<path class="st8" d="M396.6,443.2c6.1,4.3,12.8,7.7,19.5,11c1.6,0.8,3.1-1.6,1.4-2.4c-6.7-3.4-13.4-6.7-19.5-11
		C396.5,439.7,395.1,442.1,396.6,443.2z"/>
</g>
<path class="st1" d="M555.2,434.9c2.8-0.1,5.6-0.8,8.5-0.9c0.8-0.1,1.4-0.8,1.3-1.5c-0.1-0.7-0.6-1.2-1.3-1.3
	c-2.9,0-5.6,0.8-8.5,0.9c-0.8,0.1-1.4,0.8-1.3,1.5C553.9,434.3,554.5,434.8,555.2,434.9z"/>
<path class="st1" d="M549.1,458.4c2.7-1.7,5.9-2.5,9-3.3c1.8-0.4,1-3.2-0.8-2.7c-3.3,0.8-6.7,1.7-9.7,3.5
	C546.1,457,547.6,459.4,549.1,458.4z"/>
<path class="st1" d="M534.3,476.4c4.1-0.8,8-1.9,11.9-3.4c1.7-0.7,1-3.4-0.8-2.7c-3.9,1.5-7.8,2.6-11.9,3.4
	C531.8,474,532.6,476.7,534.3,476.4L534.3,476.4z"/>
<path class="st1" d="M563.7,442.5c0.8-0.1,1.4-0.8,1.3-1.5c-0.1-0.7-0.6-1.2-1.3-1.3c-0.8,0.1-1.4,0.8-1.3,1.5
	C562.4,441.9,563,442.5,563.7,442.5z"/>
<path class="st1" d="M564.5,441.7c1.5-0.1,2.5-1.1,3.5-2.1c0.6-0.6,0.6-1.4,0-2s-1.4-0.6-2,0c-0.3,0.3-0.6,0.6-1,0.9
	c-0.1,0.1-0.3,0.2-0.4,0.3c-0.2,0.1-0.2,0.1-0.1,0c-0.2,0-0.2,0,0,0c-0.8-0.1-1.5,0.5-1.5,1.3c-0.1,0.8,0.5,1.5,1.3,1.5
	C564.4,441.6,564.5,441.6,564.5,441.7L564.5,441.7z"/>
<path class="st0" d="M336.9,278.5c7.8-4,14.4-10.1,22.1-14.4c0.7-0.4,0.8-1.3,0.4-2c-0.4-0.6-1.2-0.8-1.8-0.5
	c-7.7,4.3-14.2,10.4-22.1,14.4C333.9,276.9,335.3,279.3,336.9,278.5L336.9,278.5z"/>
<path class="st0" d="M366.9,302.9l10.2-10.2c0.6-0.6,0.6-1.4,0-2s-1.4-0.6-2,0l0,0l-10.2,10.2c-0.6,0.6-0.6,1.4,0,2
	S366.4,303.5,366.9,302.9z"/>
<path class="st0" d="M394.9,271.5c3.9-4.9,7-10.4,10.4-15.6c1-1.5-1.5-2.9-2.5-1.4c-3.3,5-6.3,10.3-10,15
	C391.8,270.9,393.8,272.9,394.9,271.5L394.9,271.5z"/>
<path class="st0" d="M379.5,255.8c0.8-0.1,1.4-0.8,1.3-1.5c-0.1-0.7-0.6-1.2-1.3-1.3c-0.8,0.1-1.4,0.8-1.3,1.5
	C378.3,255.2,378.8,255.7,379.5,255.8z"/>
<path class="st0" d="M380.7,254.2l7.6-12.7c0.4-0.7,0.2-1.5-0.5-1.9s-1.5-0.2-1.9,0.5l-7.6,12.7c-0.4,0.7-0.2,1.5,0.5,1.9
	S380.3,254.9,380.7,254.2L380.7,254.2z"/>
<path class="st0" d="M440.6,322c0.8-0.1,1.4-0.8,1.3-1.5c-0.1-0.7-0.6-1.2-1.3-1.3c-0.8,0.1-1.4,0.8-1.3,1.5
	C439.4,321.4,439.9,321.9,440.6,322z"/>
<path class="st0" d="M441.8,321.3c3.5-6.2,5.3-13.2,7.8-19.9c0.6-1.7-2.1-2.4-2.7-0.8c-2.4,6.5-4.1,13.1-7.5,19.2
	C438.5,321.4,440.9,322.8,441.8,321.3L441.8,321.3z"/>
<path class="st0" d="M418.9,320.4c1.9-3.9,3.2-8,5.1-11.9c0.8-1.6-1.6-3.1-2.4-1.4c-1.9,3.9-3.2,8-5.1,11.9
	C415.7,320.6,418.1,322.1,418.9,320.4L418.9,320.4z"/>
<path class="st0" d="M442.9,265.4c0-4.8,1.1-9.4,3.2-13.7c0.8-1.6-1.6-3.1-2.5-1.4c-2.3,4.7-3.6,9.9-3.6,15.1
	c0.1,0.8,0.8,1.4,1.5,1.3C442.2,266.6,442.8,266.1,442.9,265.4L442.9,265.4z"/>
<path class="st0" d="M479.3,337.9c0.9-3.7,1.8-7.3,2.5-11c0.4-1.8-2.4-2.5-2.7-0.8c-0.8,3.7-1.6,7.4-2.5,11
	C476.1,338.9,478.9,339.7,479.3,337.9L479.3,337.9z"/>
<path class="st0" d="M526,307.8c0.7-6.8,1-13.6,0.8-20.4c-0.1-0.8-0.8-1.4-1.5-1.3c-0.7,0.1-1.2,0.6-1.3,1.3
	c0.1,6.8-0.2,13.6-0.8,20.4C523,309.6,525.8,309.6,526,307.8z"/>
<path class="st0" d="M487,275.1c0.8-5.4,0.9-10.8,1.7-16.1c0.3-1.8-2.5-2.5-2.7-0.8c-0.8,5.4-0.9,10.8-1.7,16.1
	C484,276.1,486.7,276.9,487,275.1z"/>
<path class="st0" d="M530.2,263.3c-1.6-5.6,0.8-11.6,1.7-17.1c0.3-1.8-2.5-2.6-2.7-0.8c-0.9,6.1-3.5,12.4-1.7,18.6
	c0.2,0.8,1,1.2,1.7,1S530.4,264.1,530.2,263.3z"/>
<path class="st0" d="M131.7,294.8c7.6,0.1,15.3-0.2,22.9-0.9c1.8-0.2,1.8-3,0-2.8c-7.6,0.7-15.3,1-22.9,0.8
	c-0.8,0.1-1.4,0.8-1.3,1.5C130.4,294.2,131,294.8,131.7,294.8L131.7,294.8z"/>
<path class="st0" d="M138.4,336.4c7.1,0.1,14,1.6,20.8,3.4c1.8,0.4,2.5-2.3,0.8-2.7c-7.1-1.8-14.2-3.4-21.6-3.5
	c-0.8,0.1-1.4,0.8-1.3,1.5C137.2,335.8,137.8,336.4,138.4,336.4L138.4,336.4z"/>
<path class="st0" d="M104.1,361c4.6,1.5,9,3.4,13.2,5.8c0.7,0.4,1.5,0.2,1.9-0.5c0.4-0.7,0.2-1.5-0.5-1.9c-4.4-2.5-9.1-4.5-13.9-6.1
	C103.1,357.7,102.4,360.4,104.1,361z"/>
<path class="st0" d="M114.3,389.8c5.5,2.3,11.3,4,16.6,6.6c1.6,0.8,3.1-1.6,1.4-2.4c-5.6-2.7-11.6-4.5-17.3-6.9
	C113.4,386.4,112.6,389.1,114.3,389.8z"/>
<path class="st0" d="M78.3,426.2c5.7,4,12.1,7,17.8,11c1.5,1,2.9-1.4,1.4-2.4c-5.7-4-12.1-7-17.8-11
	C78.2,422.7,76.8,425.2,78.3,426.2L78.3,426.2z"/>
<path class="st0" d="M117.4,480.5c6.8,4.2,14.2,7.2,21.2,11c1.6,0.9,3-1.6,1.4-2.4c-7-3.8-14.4-6.9-21.2-11
	C117.2,477.1,115.8,479.6,117.4,480.5L117.4,480.5z"/>
<path class="st0" d="M196.6,523.9c7.3,1.7,14.9,1.8,22.4,1.8c0.8-0.1,1.4-0.8,1.3-1.5c-0.1-0.7-0.6-1.2-1.3-1.3
	c-7.2,0-14.6,0-21.7-1.6C195.6,520.8,194.9,523.5,196.6,523.9L196.6,523.9z"/>
<path class="st0" d="M158.8,456.9c6.2,0,12.3,0.9,18.3,2.5c0.8,0.2,1.5-0.3,1.7-1.1c0.1-0.7-0.2-1.4-0.9-1.6
	c-6.2-1.7-12.6-2.6-19.1-2.6c-0.8,0.1-1.4,0.8-1.3,1.5C157.6,456.3,158.1,456.9,158.8,456.9L158.8,456.9z"/>
<path class="st0" d="M180.9,420.4h15.3c0.8-0.1,1.4-0.8,1.3-1.5c-0.1-0.7-0.6-1.2-1.3-1.3h-15.3c-0.8,0.1-1.4,0.8-1.3,1.5
	C179.7,419.8,180.2,420.4,180.9,420.4z"/>
<path class="st0" d="M242,494.3c6.7,0,13.4,0,19.9-1.8c0.7-0.3,1.1-1.1,0.9-1.8c-0.2-0.7-0.9-1-1.6-0.9c-6.2,1.7-12.7,1.6-19.1,1.6
	c-0.8,0.1-1.4,0.8-1.3,1.5C240.8,493.7,241.3,494.2,242,494.3L242,494.3z"/>
<path class="st0" d="M283.6,552.8c0.8-0.1,1.4-0.8,1.3-1.5c-0.1-0.7-0.6-1.2-1.3-1.3c-0.8,0.1-1.4,0.8-1.3,1.5
	C282.3,552.2,282.9,552.8,283.6,552.8z"/>
<path class="st0" d="M283.6,552.8c9.8-0.1,19.1-3.3,28.9-3.4c0.8-0.1,1.4-0.8,1.3-1.5c-0.1-0.7-0.6-1.2-1.3-1.3
	c-9.7,0.1-19.1,3.3-28.9,3.4c-0.8,0.1-1.4,0.8-1.3,1.5C282.3,552.2,282.9,552.8,283.6,552.8L283.6,552.8z"/>
<path class="st0" d="M293.8,521.4c0.8-0.1,1.4-0.8,1.3-1.5c-0.1-0.7-0.6-1.2-1.3-1.3c-0.8,0.1-1.4,0.8-1.3,1.5
	C292.5,520.8,293.1,521.4,293.8,521.4z"/>
<path class="st0" d="M294.6,521.4c6.2,0,12.4-0.2,18.2-2.6c1.7-0.7,0.9-3.4-0.8-2.7c-5.6,2.3-11.5,2.5-17.4,2.5
	c-0.8,0.1-1.4,0.8-1.3,1.5C293.4,520.8,293.9,521.4,294.6,521.4L294.6,521.4z"/>
<path class="st0" d="M368.8,547.7c8.2-1.8,16.8-2.5,24.1-6.9c0.7-0.4,0.9-1.3,0.5-1.9s-1.3-0.9-1.9-0.5c-7.1,4.2-15.5,4.9-23.4,6.7
	C366.3,545.4,367.1,548.1,368.8,547.7L368.8,547.7z"/>
<path class="st0" d="M382.9,521.4c5.3-0.2,10.5-2.1,14.6-5.5c1.4-1.1-0.6-3.1-2-2c-3.6,2.9-8,4.6-12.6,4.7c-0.8,0.1-1.4,0.8-1.3,1.5
	C381.7,520.8,382.2,521.4,382.9,521.4z"/>
<path class="st0" d="M208.9,316c7.1,0,14.1,0.8,21.2,0.9c0.8-0.1,1.4-0.8,1.3-1.5c-0.1-0.7-0.6-1.2-1.3-1.3
	c-7.1,0-14.1-0.8-21.2-0.9c-0.8,0.1-1.4,0.8-1.3,1.5C207.7,315.4,208.2,315.9,208.9,316z"/>
<path class="st0" d="M230.1,277.9c8.5,0,17,0.8,25.5,0.9c0.8-0.1,1.4-0.8,1.3-1.5c-0.1-0.7-0.6-1.2-1.3-1.3c-8.5,0-17-0.8-25.5-0.9
	c-0.8,0.1-1.4,0.8-1.3,1.5C228.9,277.2,229.4,277.8,230.1,277.9L230.1,277.9z"/>
<path class="st0" d="M298,292.3c7.7,0.2,15.3,0.7,22.9,1.7c1.8,0.2,1.8-2.6,0-2.8c-7.6-1-15.3-1.5-22.9-1.7
	c-0.8,0.1-1.4,0.8-1.3,1.5C296.8,291.7,297.3,292.3,298,292.3L298,292.3z"/>
<path class="st9" d="M435.8,65l1.4-0.7c-10.6-8.6-26.4,4.1-32.1,13.6c-7,11.8-8.4,27.5-7.7,40.6c7.4-1.1,11.7-15.1,16.6-20.5
	c6.6-7.2,15.5-8.8,22.5-14.8C444.9,76,441.9,68.5,435.8,65z"/>
</svg>
