<svg id="Layer_1" data-name="Layer 1" xmlns="http://www.w3.org/2000/svg" viewBox="0 0 248 242"><defs><style>.cls-1{fill:#ef5c3f;}.cls-2{fill:#ed7454;}</style></defs><path class="cls-1" d="M130.11,41.1S94.77-6.86,48.37,9.55C-2.58,27.57,2.24,88.19,22.58,140c16.49,42,119.15,94.9,119.15,94.9s79-88.28,94.62-126c14.64-35.43-5.21-83.6-31.06-95.46C170.1-2.79,130.11,41.1,130.11,41.1Z"/><path class="cls-2" d="M106.84,33.39c-13.28-17.26-60.7-12.58-67.44,8C34.81,55.33,53.61,63.14,64,58.92c14.28-5.83,22.73-15.84,38.24-18.46,2.08-.35,4.56,0,6.64-.15C110.38,37.36,109.49,34.59,106.84,33.39Z"/></svg>