<svg xmlns="http://www.w3.org/2000/svg" xmlns:xlink="http://www.w3.org/1999/xlink" viewBox="0 0 515 431"><defs><style>.cls-1{fill:none;}.cls-2{isolation:isolate;}.cls-3{fill:#c5f4ff;}.cls-4{fill:#fff;}.cls-5{clip-path:url(#clip-path);}.cls-6{fill:#c17536;}.cls-7{fill:#af5d20;}.cls-8{fill:#306f54;}.cls-9{fill:#3f8968;}.cls-10{fill:#266046;}.cls-11,.cls-24{fill:#59a780;}.cls-12{fill:#bab4a6;}.cls-13{fill:#a59d88;}.cls-14{fill:#dd890e;}.cls-15{fill:#25596e;}.cls-16,.cls-42{fill:#2f6c7f;}.cls-16,.cls-54,.cls-56{opacity:0.5;}.cls-16,.cls-24,.cls-26,.cls-34,.cls-47,.cls-51,.cls-54,.cls-56{mix-blend-mode:multiply;}.cls-17{fill:#eda024;}.cls-18{fill:#cc4729;}.cls-19{fill:#5d291b;}.cls-20{fill:#441a11;}.cls-21{fill:#c13b25;}.cls-22{fill:#dd613b;}.cls-23{fill:#403a3a;}.cls-25,.cls-26{fill:#ffb850;}.cls-27{fill:#af6800;}.cls-28{fill:#331d00;}.cls-29{fill:#706c6c;}.cls-30{fill:#544d4d;}.cls-31{fill:#c1af91;}.cls-32{fill:#e6d2af;}.cls-33{fill:#eaffca;}.cls-35,.cls-47{fill:#eaeaea;}.cls-36{fill:#ffb78f;}.cls-37{fill:#dd7957;}.cls-38{fill:#fefefe;}.cls-39{fill:#ff6652;}.cls-40{fill:#533e3d;}.cls-41{fill:#4c3434;}.cls-43{fill:#f08d63;}.cls-44{fill:#af2708;}.cls-45{fill:#9e1600;}.cls-46{fill:#380800;}.cls-48,.cls-51{fill:#bdcca2;}.cls-49{fill:#d5e0ba;}.cls-50{fill:#ebefda;}.cls-52{fill:#fc7c5e;}.cls-53{fill:#b7391c;}.cls-55,.cls-56{fill:#db452c;}.cls-57{fill:#701000;}.cls-58{fill:#3d3d3d;}.cls-59{fill:#6c6c6c;}.cls-60{fill:#e2493d;}</style><clipPath id="clip-path"><rect class="cls-1" x="-235.28" y="-17.42" width="750" height="500"/></clipPath></defs><g class="cls-2"><g id="Layer_1" data-name="Layer 1"><path class="cls-3" d="M278.2,11.6C143.46,38.07,207.26,131.08,144,150s-14.09,44.23-14.09,73.57-7-.08-78.41,48,0,122.66,0,122.66H514.72V150.92c0-48-85.62-68.62-85.62-68.62S410.13-13,278.2,11.6Z"/><path class="cls-4" d="M465.69,83.33l-70.37-13s6.53-7.46-1.86-14S367.83,54,367.83,54s8.39-36.35-17.24-29.36-16.77,40.08-16.77,40.08L284.91,76.6Z"/><path class="cls-4" d="M172.71,122.44S165.62,90,202.25,84s30.13,40.77,30.13,40.77,5.32-6.5,23,1.77,4.73,21.27,4.73,21.27l74.43,11.22h-241l41.94-8.27S126,117.72,172.71,122.44Z"/><path class="cls-4" d="M236.14,239.71l-56.3-10.44s5.22-6-1.49-11.18-20.51-1.87-20.51-1.87,6.71-29.08-13.79-23.48-13.43,32.06-13.43,32.06l-39.13,9.53Z"/><g class="cls-5"><path class="cls-6" d="M515.07,375c6,3,10.42,6.29,13.39,9.69,3.77,4.37,5.2,8.91,4.51,13.28-2,12.57-21.5,23.71-53.39,24.28C427.83,423.14,201,438,91.06,425q-6-.71-11.33-1.39c-95.27-12.16-52.47-19.91-52.47-19.91s-46.8-7.41-11.35-26.88,156-25.95,156-25.95,4.94-21.9,118.39-19.45c80.21,1.72,233,9.94,245.51,25.41a2.94,2.94,0,0,1,.51,3.32C528,377.22,515.79,375.1,515.07,375Z"/><path class="cls-7" d="M533,397.94c-2,12.57-21.5,23.71-53.39,24.28C427.83,423.14,201,438,91.06,425q-6-.71-11.33-1.39c19.47-.87,37.58-3.39,49-6.25,22.44-5.61-10.24-38,4.62-33.66s2.64,16.4,28.4,19.43,39.29,2.15,56.45,5.17,44.91,9.93,75.94,6.91a259.52,259.52,0,0,1,31.59-.89c.5-2.06,48.66-7.9,81.33-9.47,35.66-1.72,66.7,1.73,53.16-.87s-27.41-2.15-15.19-3.88,12.88-3,39-2.15C500.68,398.49,521,399.4,533,397.94Z"/><path class="cls-7" d="M536.3,360.14c-8.26,17.08-20.51,15-21.23,14.83,6,3,10.42,6.29,13.39,9.69-4.07-.81-8.83-1.66-14.07-3.12-15.52-4.32-51.84-9.07-39.29-9.92s27.73,0,19.15-1.73-29.06-4.32-19.82-5.62,20.14.43,41.28-2.15c10.51-1.3,18.33-2.69,20.08-5.3A2.94,2.94,0,0,1,536.3,360.14Z"/><path class="cls-7" d="M28.62,373.73c-.63,0-14,4.38-11.72,8.48s13.81,3,13.81,3-12.35,7.11,11.51,7.94,20.3-6,20.3-6,18.63,13.13,37,6.29,6.69-11.76,6.69-11.76,4.82,5.19,20.1,1.09,6.69-18.6-23-18.33S28.62,373.73,28.62,373.73Z"/><path class="cls-7" d="M421.42,393.89s-3.06.72-4,1.64,4.07,4.77,7.15,4,9.4-1.28,10.24-2.75-4.49-3.11-4.49-3.11Z"/><path class="cls-7" d="M416.77,349.63c-.7.06-9.82,4.58-9.82,4.58s1.68,2.94,9,2.94,9.26-.37,10.81-.74,7.43-2.75,7.57-4.4a36.53,36.53,0,0,1,.56-3.66S418.87,349.45,416.77,349.63Z"/><path class="cls-8" d="M115.83,365.06c-.48,14.94-15.71,8.72-15.71,8.72s-5.7,10-19,8.7-16-3.72-16-3.72-15,13.36-31.89.62c0,0-6.9,5.9-9.74-3.74S28,362.9,28,362.9s-5.23-20.22,1.42-29.56A13.78,13.78,0,0,1,33,329.78c5.6-3.68,10.95.76,10.95.76s.24-13.36,5-16.78a6.62,6.62,0,0,1,1.24-.72c4.24-2,7.8,1.64,7.8,1.64s4-20.22,21.18-18.66S98.7,321.84,98.7,321.84a9.14,9.14,0,0,1,7.29.64,12.32,12.32,0,0,1,5.08,5.9,13.18,13.18,0,0,1,.9,2.6c2.06,8.6-5.42,16.06-5.42,16.06S116.3,350.14,115.83,365.06Z"/><path class="cls-9" d="M95.78,324.56c.41,4.58-1.07,6.7-1.07,6.7C92.14,317.7,77.19,320,77.19,320c4.57-7.22,10.1-4.4,10.1-4.4S89.31,299,75.43,301s-17.66,19.38-17.66,19.38c-2.21-4.56-5.16-6.5-7.56-7.3,4.24-2,7.8,1.64,7.8,1.64s4-20.22,21.18-18.66S98.7,321.84,98.7,321.84a9.14,9.14,0,0,1,7.29.64A26.52,26.52,0,0,0,95.78,324.56Z"/><path class="cls-10" d="M115.83,365.06c-.48,14.94-15.71,8.72-15.71,8.72s-5.7,10-19,8.7-16-3.72-16-3.72-15,13.36-31.89.62c0,0-6.9,5.9-9.74-3.74S28,362.9,28,362.9s-5.23-20.22,1.42-29.56A13.78,13.78,0,0,1,33,329.78c-1.92,6.52-3.56,16.54,1,24,7.43,12,16.41-4.1,16.41-4.1s3.52,13.54,13.86,14c8.2.42,12.73-7.52,14.26-10.82-1.3,3.66-3.68,13.42,6.06,17.72,12.11,5.36,15.61-14.8,12.69-24,0,0,15.23-2.54,14.64-15.3,0-.1,0-.22,0-.32,2.06,8.6-5.42,16.06-5.42,16.06S116.3,350.14,115.83,365.06Z"/><path class="cls-11" d="M51.58,352.94c-7.46-1.22-6.66,10.26,1,9.95S55.39,353.56,51.58,352.94Z"/><path class="cls-11" d="M49.91,336.14c-4.74,0-3.09,5.91,1,4.67S51.82,336.14,49.91,336.14Z"/><path class="cls-11" d="M65.86,324.63c-4.72,1.49-5.71,10,1.66,11.51S72.76,322.46,65.86,324.63Z"/><path class="cls-11" d="M70.38,346.72c-4.07,0-4,10.26.71,9.33S75.85,346.72,70.38,346.72Z"/><path class="cls-11" d="M89.18,355.74c-6.81-2.89-11.42,9.95-3.81,12.75S98,359.47,89.18,355.74Z"/><path class="cls-11" d="M86.08,318.41c-4.73-.72-3.33,7.78,1.91,7.16S90.13,319,86.08,318.41Z"/><path class="cls-7" d="M314.81,337.51s-15.54,1.49-17.92,7.16,18,6.64,18,6.64-14.08,16.48,18.15,14.89,24.16-5.09,24.16-5.09,17.38,5.72,33.89-.18,6.18-7.72,6.18-7.72,26-4.56.79-10.2S330.79,332.25,314.81,337.51Z"/><path class="cls-8" d="M402.29,343.62c-.85,14.32-15.31,7.66-15.31,7.66s-5.75,9.3-18.51,7.49-15.21-4.3-15.21-4.3-14.74,12.15-30.64-.86c0,0-6.78,5.37-9.26-4s4.68-12,4.68-12-4.49-19.65,2.15-28.31c3-3.86,6.07-4.68,8.6-4.4a10.61,10.61,0,0,1,5.41,2.37s.59-12.82,5.25-15.89a6.06,6.06,0,0,1,3.55-1.09,7.46,7.46,0,0,1,4.38,1.74,6.3,6.3,0,0,1,.73.66s.21-.91.7-2.31c1.79-5,7.29-16.43,20.13-14.66,9.49,1.31,14,9.71,16.2,16.54a45.34,45.34,0,0,1,1.85,9.14,8.93,8.93,0,0,1,6.11.46,9.65,9.65,0,0,1,1.46.85,12.71,12.71,0,0,1,4.14,5.52c2.17,5,.67,9.71-1.23,13a21,21,0,0,1-3.61,4.72S403.15,329.31,402.29,343.62Z"/><path class="cls-9" d="M343,290.23a7.46,7.46,0,0,1,4.38,1.74,30.08,30.08,0,0,0-3.67,5.66Q343.23,293.76,343,290.23Z"/><path class="cls-9" d="M385.14,292.2a41.89,41.89,0,0,0-14-7.82c-10.47-3.49-17.86,1.21-22.31,5.94,1.79-5,7.29-16.43,20.13-14.66C378.43,277,383,285.37,385.14,292.2Z"/><path class="cls-9" d="M394.56,302.65c-.05,1.32-.09,2.07-.09,2.07a20.6,20.6,0,0,0-1.37-2.92A9.65,9.65,0,0,1,394.56,302.65Z"/><path class="cls-10" d="M402.29,343.62c-.85,14.32-15.31,7.66-15.31,7.66s-5.75,9.3-18.51,7.49-15.21-4.3-15.21-4.3-14.74,12.15-30.64-.86c0,0-6.78,5.37-9.26-4s4.68-12,4.68-12-4.49-19.65,2.15-28.31c3-3.86,6.07-4.68,8.6-4.4a47.21,47.21,0,0,0,1,16c4.3,17.77,23.51-1.32,23.51-1.32s-1,10.84,12,11.45,17.23-24.27,17.23-24.27,5.28,11.71,14.92,14.44a21,21,0,0,1-3.61,4.72S403.15,329.31,402.29,343.62Z"/><path class="cls-11" d="M340.92,329.06c-7.12-1.51-6.67,9.55.65,9.6S344.56,329.83,340.92,329.06Z"/><path class="cls-11" d="M339.77,312.86c-4.55-.22-3.13,5.53.79,4.52S341.6,312.94,339.77,312.86Z"/><path class="cls-11" d="M355.39,302.53c-4.57,1.22-5.75,9.3,1.29,11.13S362.07,300.76,355.39,302.53Z"/><path class="cls-11" d="M359.14,323.94c-3.91-.18-4.16,9.67.44,9S364.4,324.19,359.14,323.94Z"/><path class="cls-11" d="M377,333.46c-6.46-3.08-11.23,9-4,12.07S385.31,337.44,377,333.46Z"/><path class="cls-11" d="M375,297.48c-4.52-.91-3.4,7.31,1.64,6.95S378.84,298.26,375,297.48Z"/><path class="cls-7" d="M81.37,395.55c-.55,0-8.84,2.85-6.67,3.2s7.21,3.56,13.87,2.31,12-1.95,12-3.73-10.74-1.78-12-1.95S81.37,395.55,81.37,395.55Z"/><path class="cls-12" d="M94,398.87c-2.12-.11-4.69-.46-8.33-.46s-5.09.92-5.9-.12a10,10,0,0,1-1.14-3.79c-.17-1.23-.15-2.33.23-2.64.86-.69,6.21-1.84,8.18-1.95s3.27-1.84,5.65-2.18c1.85-.28,3.54,3.31,4.22,5.06a6.59,6.59,0,0,1,.31.91C97.65,395.54,96.13,399,94,398.87Z"/><path class="cls-13" d="M94,398.87c-2.12-.11-4.69-.46-8.33-.46s-5.09.92-5.9-.12a10,10,0,0,1-1.14-3.79,5.76,5.76,0,0,0,3.77.7c3-.47,5.74-1.16,6-1.16a26.1,26.1,0,0,1-2.37,2.3s2.92,1.27,4.08.12.81-3.79,1.46-4,1.82,1.73,3,1.39a17.15,17.15,0,0,0,2.36-1,6.59,6.59,0,0,1,.31.91C97.65,395.54,96.13,399,94,398.87Z"/><path class="cls-12" d="M434.62,392.87c-.1,1-.55,2.7-3.88,3.23s-4.79.72-5.8.46-2.52-2.57-2.72-2.77.79-1.39,1.08-1.74l.08-.1a6.83,6.83,0,0,1,4.12-2.24,11.35,11.35,0,0,1,4.8.79,3.53,3.53,0,0,1,1.94,1.21A1.64,1.64,0,0,1,434.62,392.87Z"/><path class="cls-13" d="M434.62,392.87c-.1,1-.55,2.7-3.88,3.23s-4.79.72-5.8.46-2.52-2.57-2.72-2.77.79-1.39,1.08-1.74l1.19.75c.8.53,4.64-.13,4.64-.13l-.41,1.06a13.08,13.08,0,0,0,3.13-.47c.51-.33.86-1.18,1.06-1.25s.69-.17,1.33-.3A1.64,1.64,0,0,1,434.62,392.87Z"/><path class="cls-7" d="M476.58,350c-.56,0-8.13.73-8.55,1.1s8.55,4.4,10.24,3.85S484,356,484,356s-5.19,1.65-1.26,1.83,10.8.37,13.74.37,6.88,1.28,9.82.18,8.28-4.4,9-4.58l.17-.07a1.77,1.77,0,0,0-.24-3.21c-3.78-1.45-10.4-3.87-12.56-3.87C499.59,346.66,476.58,350,476.58,350Z"/><path class="cls-12" d="M507,336.4s-2.18,10-2.59,11.7-10.55,3.61-10.55,3.61l-17.48-3.83s-.83-6.12-.94-8.9a5.73,5.73,0,0,1,0-1.16,5.52,5.52,0,0,1,1.59-2.63,2.85,2.85,0,0,1,.28-3.43,1.1,1.1,0,0,1,.14-.18c1.67-1.86,7.44-5,11.88-7.1s6.27-2,7.61-1.32a53.75,53.75,0,0,1,5,4,17.44,17.44,0,0,0,2.53,1.84C505.88,329.62,507,336.4,507,336.4Z"/><path class="cls-13" d="M488,329s-4.07,2.52-5.7,2.13c-1.14-.27-3.5.59-5,.61a2.86,2.86,0,0,0-.27,3.43s5-1.62,6.61-2.39S488,329,488,329Z"/><path class="cls-13" d="M504.46,329a17,17,0,0,1-2.52-1.84c-1.21,2.09-3,5.57-3.19,7-.22,2.13-3.41,3.49-3.93,4s-1.63,3.3-1.93,3.59-3.78,1.93-5.56,3.39a23.73,23.73,0,0,0-3.26,3.39s-3.48-4.94-5-6.1c-1-.82-2.7-2.45-3.7-3.41.11,2.78.94,8.9.94,8.9l17.48,3.82s10.13-1.85,10.55-3.6S507,336.4,507,336.4,505.88,329.62,504.46,329Z"/><path class="cls-12" d="M485.88,352.53c-2.12-.06-4.69-.26-8.33-.26s-5.09.52-5.9-.07a4.39,4.39,0,0,1-1.14-2.18c-.17-.7-.14-1.33.24-1.51a46,46,0,0,1,8.17-1.12c2-.07,3.28-1.05,5.65-1.25,1.85-.16,3.54,1.9,4.22,2.9a5.7,5.7,0,0,1,.32.52C489.51,350.62,488,352.6,485.88,352.53Z"/><path class="cls-13" d="M485.88,352.53c-2.12-.06-4.69-.26-8.33-.26s-5.09.52-5.9-.07a4.39,4.39,0,0,1-1.14-2.18,9.28,9.28,0,0,0,3.77.4c3-.26,5.75-.66,6-.66a25.17,25.17,0,0,1-2.37,1.32s2.93.72,4.08.07.81-2.18,1.47-2.31,1.81,1,3,.79a21.93,21.93,0,0,0,2.36-.59,5.7,5.7,0,0,1,.32.52C489.51,350.62,488,352.6,485.88,352.53Z"/><path class="cls-12" d="M495.73,352.2c-.1,1-.55,2.7-3.88,3.23s-4.79.72-5.8.46-2.52-2.57-2.73-2.77.8-1.39,1.09-1.74l.08-.1a6.83,6.83,0,0,1,4.12-2.24,11.51,11.51,0,0,1,4.8.79,3.56,3.56,0,0,1,1.94,1.21A1.66,1.66,0,0,1,495.73,352.2Z"/><path class="cls-13" d="M495.73,352.2c-.1,1-.55,2.7-3.88,3.23s-4.79.72-5.8.46-2.52-2.57-2.73-2.77.8-1.39,1.09-1.74l1.19.76c.8.52,4.64-.14,4.64-.14l-.41,1.06a13.5,13.5,0,0,0,3.13-.46c.5-.33.86-1.19,1.06-1.26l1.33-.3A1.66,1.66,0,0,1,495.73,352.2Z"/><path class="cls-12" d="M511.17,346a12,12,0,0,1-1.49,5.9c-.74,1.17-5.7,3.49-9,3.59a10.76,10.76,0,0,1-5.92-1.75s-3.12-5.32-3.12-6.19a1.47,1.47,0,0,1,0-.27,6.67,6.67,0,0,1,3.37-3.9c2-.87,5-4.87,5.19-4.94,1.56-.48,7,.68,8.82,2.62a10.41,10.41,0,0,1,1.84,2.13A5.59,5.59,0,0,1,511.17,346Z"/><path class="cls-13" d="M503.54,345.4c-2.75-.09-5.12-.19-5.12-.19l2.82,2.71s-5.19,1.65-7,.87a13.3,13.3,0,0,1-2.56-1.52,1.51,1.51,0,0,0,0,.26c0,.88,3.12,6.2,3.12,6.2a10.76,10.76,0,0,0,5.92,1.75c3.34-.1,8.3-2.42,9.05-3.59a12.15,12.15,0,0,0,1.48-5.91,5.5,5.5,0,0,0-.31-2.79l-.21.18C510.43,343.56,506.28,345.5,503.54,345.4Z"/><path class="cls-7" d="M103.94,389.16c-.43.07-4.49,2.84-4.49,2.84s7.75,2.49,11.28,1.6,9.11-3.91,9.11-5.15S113.05,387.56,103.94,389.16Z"/><path class="cls-12" d="M117,383.07a12,12,0,0,1-1.49,5.91c-.74,1.16-5.7,3.48-9,3.58a10.71,10.71,0,0,1-5.92-1.74s-3.12-5.33-3.12-6.2a1.47,1.47,0,0,1,0-.27,6.69,6.69,0,0,1,3.37-3.9c2-.87,5-4.86,5.19-4.94,1.56-.48,7,.68,8.82,2.62a10.68,10.68,0,0,1,1.84,2.14A5.55,5.55,0,0,1,117,383.07Z"/><path class="cls-13" d="M109.36,382.49l-5.11-.19,2.82,2.71s-5.19,1.64-7,.87a13.34,13.34,0,0,1-2.56-1.53,1.47,1.47,0,0,0,0,.27c0,.87,3.12,6.2,3.12,6.2a10.71,10.71,0,0,0,5.92,1.74c3.34-.09,8.3-2.42,9-3.58a12.15,12.15,0,0,0,1.48-5.91,5.53,5.53,0,0,0-.31-2.8l-.21.18C116.26,380.65,112.11,382.59,109.36,382.49Z"/><path class="cls-12" d="M434.84,343.7a12.12,12.12,0,0,1-1.49,5.9c-.74,1.17-5.7,3.49-9,3.59a10.81,10.81,0,0,1-5.93-1.75s-3.11-5.32-3.11-6.2a1.38,1.38,0,0,1,0-.26,6.65,6.65,0,0,1,3.38-3.9c2-.87,5-4.87,5.19-4.94,1.55-.48,7,.68,8.82,2.62a10.29,10.29,0,0,1,1.83,2.13A5.45,5.45,0,0,1,434.84,343.7Z"/><path class="cls-13" d="M427.2,343.11c-2.74-.09-5.11-.19-5.11-.19l2.81,2.71s-5.18,1.65-7,.87a13.22,13.22,0,0,1-2.55-1.52.92.92,0,0,0,0,.26c0,.88,3.11,6.2,3.11,6.2a10.81,10.81,0,0,0,5.93,1.75c3.34-.1,8.3-2.43,9-3.59a12,12,0,0,0,1.48-5.91,5.42,5.42,0,0,0-.3-2.79l-.21.18C434.09,341.27,429.94,343.21,427.2,343.11Z"/><path class="cls-7" d="M381.69,378.41c-2.06,0-28.29,5.3-16.06,7.07s35.22.88,54.22-.88,55.84-.3,56.87-5.31-8.1-6.48-24-4.57a455.73,455.73,0,0,1-47.3,3.1C393.77,377.82,381.69,378.41,381.69,378.41Z"/><path class="cls-14" d="M391.9,316.63s5.52-2.62,15.87-1.79,12.3,4.14,12.3,4.14S399.63,326.7,391.9,316.63Z"/><path class="cls-15" d="M433.6,251.91S420,303.35,418.05,310.77s-3.11,12.93-3.11,12.93-20.11,7.18-19.86-4.55c0-1.79.25-4.7.62-8.32,1.79-17.64,6.78-52.55,8.12-61.39.19-1.27.32-2,.34-2.08Z"/><path class="cls-16" d="M433.6,251.91S420,303.35,418.05,310.77s-3.11,12.93-3.11,12.93-20.11,7.18-19.86-4.55c0-1.79.25-4.7.62-8.32a22.65,22.65,0,0,0,9.7,1.6c6.82-.53,1.91,2.8.87,3.86s4.37,1.91,8.94-13.32,2.09-12.26-5.44-9.82,3.86-5.95,9.28-16.11-9.45-6.66-14.89-26.27l-.34-1.33c.19-1.27.32-2,.34-2.08Z"/><path class="cls-17" d="M411.35,366.7c0,1.44,1.91,8.69.47,16.59H371.76a9.94,9.94,0,0,1,.13-3.29,3.82,3.82,0,0,1,1.8-2.68c2.11-1.11,13.94-7.66,18.49-10.19l1.79-1-.09-2.31-2-47.2a99.52,99.52,0,0,0,18.3,2.73,55.81,55.81,0,0,0,9.86-.37S411.35,365.26,411.35,366.7Z"/><path class="cls-14" d="M411.35,366.7c0,1.44,1.91,8.69.47,16.59H371.76a9.94,9.94,0,0,1,.13-3.29c5.95-1.55,25-4.31,24.54-7.57-.31-2.33-2.59-4.06-4.25-5.3l1.79-1-.09-2.31c3.87-1.76,10.08-5.61,13.46-15.42,3.72-10.8,3.24-23.06,2.87-29.05a55.81,55.81,0,0,0,9.86-.37S411.35,365.26,411.35,366.7Z"/><path class="cls-14" d="M446.11,320.36l-7.45-3.73s4.42-2.9,14.35-3.72,15.17,2.34,15.17,2.34S458.8,325.6,446.11,320.36Z"/><path class="cls-15" d="M464,318.68c-5.73,2.86-19.14,3.58-21.06.72a77.11,77.11,0,0,1-3.09-8.26c-4.43-12.92-12.34-37.67-16.64-51.22-1.82-5.73-3-9.45-3-9.45,4.78-7.17,34-7.42,34.69-3.36s.72,20.35,1.2,23.94c.2,1.45,1.53,9.59,3,18.73.4,2.35.79,4.77,1.2,7.15C462.21,308.12,464,318.68,464,318.68Z"/><path class="cls-16" d="M441.48,259.18a43.54,43.54,0,0,1-18.28.74c-1.82-5.73-3-9.45-3-9.45,4.78-7.17,34-7.42,34.69-3.36s.72,20.35,1.2,23.94c.2,1.45,1.53,9.59,3,18.73a3.6,3.6,0,0,0-3.66-.47c-8.93,2.8-15.23,1.75-6.13-10.34S457.77,255.32,441.48,259.18Z"/><path class="cls-18" d="M464,318.68c-5.73,2.86-19.14,3.58-21.06.72a77.11,77.11,0,0,1-3.09-8.26,11.54,11.54,0,0,0,9.52.23c6.15-2.53,10-9.09,11-14.44C462.21,308.12,464,318.68,464,318.68Z"/><path class="cls-17" d="M472.05,378.83H431.9a8.91,8.91,0,0,1,0-2.85A4.42,4.42,0,0,1,433,373.6c1.38-1.37,13.75-6.14,19.47-8.3l2.88-1.09-16.67-47.57c.59.23,15.57,6.18,29.49-1.39l1.25,48.42A48.4,48.4,0,0,1,472.05,378.83Z"/><path class="cls-14" d="M472.05,378.83H431.9a8.91,8.91,0,0,1,0-2.85c2.56-.76,5.62-1.59,9-2.53,12.43-3.41,11.93-5.45,11.59-8a1,1,0,0,0,0-.15l2.88-1.09-16.67-47.57c.59.23,15.57,6.18,29.49-1.39l1.25,48.42A48.4,48.4,0,0,1,472.05,378.83Z"/><path class="cls-19" d="M456.49,177.86c-10.28.81-13.64-4.51-13.64-4.51a27.58,27.58,0,0,1-12.59,2.54c-6.94-.34-13.76-6.47-13.76-6.47s-7.51,2.9-18.61-.35-.11-15.83-.11-15.83-2.2-3.12-.23-5.89a6.71,6.71,0,0,1,1.4-1.42,21.86,21.86,0,0,1,6.22-3s-1.62-6.24,2.2-8.9a59.31,59.31,0,0,0,7.51-6.47c12.95-30.28,31.79-12.48,31.79-12.48,3.69,6.23.11,13.75,3.59,18.15,8.55,10.85.8,10.74,8.66,14s5.44,8.32,5.44,8.32C475.1,164.1,466.78,177,456.49,177.86Z"/><path class="cls-20" d="M443.91,118.55a17,17,0,0,1,.53,11c-1.8,5.92.38,5.27,1.67,8s-2.35,8.37-2.35,8.37,1.71-3.74-.74-5.93-2.7-3.86-2.7-6.95-1.93,2.58-.51,6.44.9,4.08-.52,6.93a5.7,5.7,0,0,0,.39,5.45s-2.7.1-2.57-3.38.56-5.94-.24-7.23-2.32,5.16-1,8.65c1.62,4.36-1.71,9.28-1.71,9.28s-13.82-.46-14.3-2.68.72-6.47-.78-8.14-1.25-13.24-1.25-13.24-2.61,4.24-3,7.84a5.05,5.05,0,0,1-3.53,4.37,8.16,8.16,0,0,0,2.38-7.13c-.78-4.32-.57-8.06,4.45-12.3S440.16,108.17,443.91,118.55Z"/><path class="cls-20" d="M456.49,177.86c-10.28.81-13.64-4.51-13.64-4.51a27.58,27.58,0,0,1-12.59,2.54c-6.94-.34-13.76-6.47-13.76-6.47s-7.51,2.9-18.61-.35-.11-15.83-.11-15.83-2.2-3.12-.23-5.89a6.71,6.71,0,0,1,1.4-1.42s-1.46,2.84,2.08,7,11-4.35,11.41-4.78a6.81,6.81,0,0,0,.81,7.55c3,3.91,16.13-2.77,16.13-2.77s6,5.09,12.63,2.87,6.4-5.41,6.4-5.41,2.34,1.51,4.92,6.53,11.34,6.8,11-1.37C475.1,164.1,466.78,177,456.49,177.86Z"/><path class="cls-18" d="M409.58,162.05l-2.45-1.14s-6.86.81-10,11.6-15.6,39.88-11.84,48.38,12.45,5.46,17.35-13.66S409.58,162.05,409.58,162.05Z"/><path class="cls-21" d="M399.88,191.18s.81-11.06,4.5-13.37-1.16,10.37-1.16,11.41,2.31,1.49,2,6.91-5.53,21.19-6.68,23.72-.92,1.5-1.73-5.06S399.88,191.18,399.88,191.18Z"/><path class="cls-22" d="M459.28,185.75c-.82,13.08-2.3,62.94-2.3,62.94a27.43,27.43,0,0,1-7.44,3.52,69.38,69.38,0,0,1-22.13,3.18c-20.94,0-25.18-6.54-25.18-6.54l6.7-42.5s-5.23-9.16-5.88-14.55,4.07-30.89,4.07-30.89l17.34-8c7.39-3.75,22.22,3.74,29.4,7.85,2.51,1.46,4.08,2.49,4.08,2.49A87.42,87.42,0,0,1,459.28,185.75Z"/><path class="cls-18" d="M459.28,185.75c-.82,13.08-2.3,62.94-2.3,62.94a27.43,27.43,0,0,1-7.44,3.52c.47-5.07.44-9.29-.74-9.78-2.32-1-10.81,1.53-8.69-1.55s1.15-12.74-4.63-13.12-11.78-4.45-18-3.1a105.8,105.8,0,0,0-12,3.48l3.37-21.79s6.09-2.15,12.27-3.69,12.54,5.6,20.65.78,10.42-34,10.42-34c.25-1.15,3.11-3.56,3.45-4.56,2.52,1.45,2.22-1.61,2.22-1.61A87.42,87.42,0,0,1,459.28,185.75Z"/><path class="cls-23" d="M438.55,294c2.72-7.39,50.81-9.64,50.18,1.3s-30.31,9.18-36.82,7.78S438.55,294,438.55,294Z"/><path class="cls-8" d="M479.75,278.82c-.37,4.28-2.66,10.82-.73,18.32,0,.14.08.28.11.43l-.33-.4c-1.93-2.3-11.76-14.06-13.72-18.14a8.82,8.82,0,0,1-.87-4.49c.11-2.28.82-4.31-.08-6.87a20.06,20.06,0,0,1,2.3-18.51c4.82-7,6.8-4.55,8.7,2.93.07.27.14.54.21.83,2,8.08-.42,11.91-.15,15.24S480.14,274.46,479.75,278.82Z"/><path class="cls-11" d="M469.17,252.31s-3.07,23.46,8.6,42.05c0,0-10.08-19.33-7.44-40.81,0,0,.29-2.3.49-3.07S469.61,249.28,469.17,252.31Z"/><path class="cls-24" d="M479.75,278.82c-.37,4.28-2.66,10.82-.73,18.32a.83.83,0,0,1-.22,0c-1.93-2.3-11.76-14.06-13.72-18.14a8.82,8.82,0,0,1-.87-4.49c.8.54,2.32,1.62,3.11,1.52,1.09-.15.3-3.37,2.94-6.67s-.26-5.54,2-10.76c1.15-2.67,2-4.86,2.86-6.54.07.27.14.54.21.83,2,8.08-.42,11.91-.15,15.24S480.14,274.46,479.75,278.82Z"/><path class="cls-8" d="M489.84,253.12c-.63,9.26-4.46,12.5-5.3,16.14a4.06,4.06,0,0,0-.11,1.26c.07,3.42,3,7.59,1.37,11.59-1.88,4.51-6.64,10.83-7,19.7,0,0-5.54-13.23-7.8-20.79a27.14,27.14,0,0,1-.87-3.63c-.79-5.54,2.95-7.56,2.8-12.37a22.4,22.4,0,0,1,8.67-18.89C489.41,240.06,490.47,243.84,489.84,253.12Z"/><path class="cls-24" d="M485.8,282.11c-1.88,4.51-6.64,10.83-7,19.7,0,0-5.54-13.23-7.8-20.79,1.56.22,3.66.55,5.23.75,2.57.3,1-3.73,5.1-7.73a25.48,25.48,0,0,0,3.07-3.52C484.5,273.94,487.46,278.11,485.8,282.11Z"/><path class="cls-11" d="M483.48,250.39s-11.15,23.89-5,47.56c0,0-4.19-23.92,5.84-45.84,0,0,1.08-2.35,1.56-3.1S485,247.33,483.48,250.39Z"/><path class="cls-8" d="M506.05,265.21a27.35,27.35,0,0,1-6.39,9c-1.78,1.64-3.33,2.79-4.3,4.22-2.07,3.1,0,8.93-3.37,12.47s-10.06,7.76-13.5,16c0,0-.56-16.31.22-23.69a16.27,16.27,0,0,1,.33-2.23c1.23-5.46,5.45-6,7-10.58a22.37,22.37,0,0,1,14.83-14.57C510.28,252.85,509.92,256.77,506.05,265.21Z"/><path class="cls-24" d="M499.66,274.21c-1.78,1.64-3.33,2.79-4.3,4.22-2.07,3.1,0,8.93-3.37,12.47s-10.06,7.76-13.5,16c0,0-.56-16.31.22-23.69.58.63,1.42,1.46,2.48,2.41,2.25,2,4.53-4.4,10.2-7.94A31.6,31.6,0,0,1,499.66,274.21Z"/><path class="cls-11" d="M501.07,260.42s-18.9,18.38-21.56,42.69c0,0,4.56-23.85,21.72-40.8,0,0,1.84-1.8,2.55-2.34S503.55,258.08,501.07,260.42Z"/><path class="cls-8" d="M523.21,285.8c-.87.44-1.69.81-2.48,1.13-6.79,2.76-10.93,1.55-14.11,2.56-3.56,1.13-5.57,7-10.41,7.66s-12.71-.19-20.5,4.08c0,0,5.48-7.39,10.42-13.3a55.3,55.3,0,0,1,6.15-6.65c4.36-3.48,8-1.32,12.07-3.9A22.33,22.33,0,0,1,525,275.19C534.2,278.76,531.49,281.62,523.21,285.8Z"/><path class="cls-24" d="M520.73,286.93c-6.79,2.76-10.93,1.55-14.11,2.56-3.56,1.13-5.57,7-10.41,7.66s-12.71-.19-20.5,4.08c0,0,5.48-7.39,10.42-13.3a7.81,7.81,0,0,0-1.21,3.77c.21,2.36,8.86.77,14.9-2.19s8.65-1.41,16.41-1.87A25.25,25.25,0,0,0,520.73,286.93Z"/><path class="cls-11" d="M522.29,279s-26.23,2.62-43.44,20c0,0,18.42-15.83,42.39-18.41,0,0,2.57-.26,3.45-.24S525.69,278.67,522.29,279Z"/><path class="cls-17" d="M472.43,288A11.13,11.13,0,0,1,451,282a4.78,4.78,0,0,1,.23-.7c1.87-5.32,7.21-6.4,12.89-4.81,4.87,1.37,8.49,4.27,8.66,8.57A8.4,8.4,0,0,1,472.43,288Z"/><path class="cls-25" d="M466.63,278.53c-1.38.17.63,3.23-3.52,3s1.71,4.45,6.88,3S468.4,278.32,466.63,278.53Z"/><path class="cls-26" d="M472.43,288a11.16,11.16,0,0,1-21.81-3.72A10.38,10.38,0,0,1,451,282a4.78,4.78,0,0,1,.23-.7c.91,1.06,2.86,2.76,6.8,4.14,6.18,2.13,8.58-.77,14.75-.38a3.38,3.38,0,0,1,0,.45A8.42,8.42,0,0,1,472.43,288Z"/><path class="cls-26" d="M472.43,288a11.16,11.16,0,0,1-21.81-3.72,2.44,2.44,0,0,0,1.71.9c2.82.37,4.62.07,7.06,1.87s2.49,2.14,5.51.47c2.66-1.46,5.22-2.72,7.89-2A8.42,8.42,0,0,1,472.43,288Z"/><path class="cls-27" d="M463.21,279.64a18.74,18.74,0,0,0-1.93-1.33c-.88-.5,2.3-.83,3.94.36S465.1,278.93,463.21,279.64Z"/><path class="cls-28" d="M463.89,279c0,.12-.27.16-.53.09s-.45-.23-.42-.35.28-.16.54-.08S463.93,278.91,463.89,279Z"/><path class="cls-17" d="M462.48,299.85a11.13,11.13,0,0,1-21.43-6,9.32,9.32,0,0,1,1-2.26c2.29-4,7.09-4.66,12.15-3.24,4.33,1.22,7.66,3.63,8.49,7.17A8.56,8.56,0,0,1,462.48,299.85Z"/><path class="cls-25" d="M455.53,289.53c-1.39.16.63,3.23-3.53,3s1.71,4.44,6.88,3S457.29,289.31,455.53,289.53Z"/><path class="cls-26" d="M462.48,299.85a11.13,11.13,0,0,1-21.43-6,9.32,9.32,0,0,1,1-2.26c1,.8,3.2,1.88,7.92,3.19,7.18,2,11.19,1.25,12.72.74A8.56,8.56,0,0,1,462.48,299.85Z"/><path class="cls-27" d="M453.26,291.5a18.12,18.12,0,0,0-1.93-1.34c-.88-.5,2.3-.82,3.94.37S455.15,290.78,453.26,291.5Z"/><path class="cls-28" d="M453.94,290.89c0,.12-.27.16-.53.08s-.45-.23-.42-.35.27-.15.54-.08S454,290.77,453.94,290.89Z"/><path class="cls-17" d="M472,307.67A10.87,10.87,0,0,1,462,295.84a8.76,8.76,0,0,1,.72-2.9c1.73-3.92,6.17-5.33,11.2-4.86,6.11.57,10.8,3.71,10.22,9.82a1.22,1.22,0,0,1,0,.26A10.87,10.87,0,0,1,472,307.67Z"/><path class="cls-25" d="M477.93,289.43c-1.38.17.63,3.23-3.52,3s1.71,4.45,6.88,3S479.7,289.22,477.93,289.43Z"/><path class="cls-26" d="M472,307.67A10.87,10.87,0,0,1,462,295.84a8.76,8.76,0,0,1,.72-2.9c1,1.29,3.34,3.33,9.34,5.25,7,2.23,10.56.91,12.05,0A10.87,10.87,0,0,1,472,307.67Z"/><path class="cls-27" d="M473.53,291.33a19.43,19.43,0,0,0-2.13-1c-1-.33,2.11-1.22,3.94-.34S475.26,290.29,473.53,291.33Z"/><path class="cls-28" d="M474.1,290.61c0,.12-.24.2-.52.18s-.48-.15-.47-.27.25-.2.52-.18S474.11,290.49,474.1,290.61Z"/><path class="cls-29" d="M485.41,300.58s2.38-15.14-6.4-24.08c-4-4.06-10.28-6.84-20.15-6.32a17.74,17.74,0,0,0-8.82,2.28c-5.39,3.06-10.9,10.23-8.65,26.93l-1.92-.25s-4.36-21.79,8.82-28.88a20.19,20.19,0,0,1,9.85-2.23c8.09,0,14.06,1.05,18.42,3.2h0c9.06,4.47,11.25,13.76,11.25,28.62Z"/><path class="cls-30" d="M439.1,285.85a46.87,46.87,0,0,0,.27,12.75l1.24.69.78.1a49.56,49.56,0,0,1-.43-9.61A23.18,23.18,0,0,1,439.1,285.85Z"/><path class="cls-30" d="M479,276.5c-4-4.06-10.28-6.84-20.15-6.32a17.74,17.74,0,0,0-8.82,2.28,4.68,4.68,0,0,0-1.75-2.2,20.19,20.19,0,0,1,9.85-2.23c8.09,0,14.06,1.05,18.42,3.2h0C478.31,273.43,479.1,275.45,479,276.5Z"/><path class="cls-29" d="M488.73,295.33l-.18,3.05-2.42,42.16s-.95,1.92-19.38,3.11-25.36-4.3-26.08-4.3c-.15,0-.33-1.88-.51-4.88-.73-11.71-1.61-40.44-1.61-40.44s8,8,25.17,8.16S488.73,295.33,488.73,295.33Z"/><path class="cls-30" d="M488.55,298.38l-2.42,42.16s-.95,1.92-19.38,3.11-25.36-4.3-26.08-4.3c-.15,0-.33-1.88-.51-4.88,26.76,5.6,40.59-6,26.7-5.13-14.72.93-26.17-6.78-10.29-6.78s26.4-7.94,12.15-5.6-38.53-5.84-8.17-4.21C477.26,313.65,485,305.7,488.55,298.38Z"/><path class="cls-31" d="M454.12,238.71s1.14-3.48,9.71-4.72,7.36,2.6,7.36,2.6S466.07,247.7,454.12,238.71Z"/><path class="cls-22" d="M470.59,229.78c-.2,8.78-.7,15.15-.7,15.15l-13.34,1.46s-.18-3.12-.44-7.5c-.4-6.86-1-16.79-1.56-22.57-.86-9.48-3.45-22.39-2.59-34.66s.72-17.81,5.31-18.64c5-.88,10.91,22.89,12.62,41.53A228.46,228.46,0,0,1,470.59,229.78Z"/><path class="cls-18" d="M470.59,229.78c-.2,8.78-.7,15.15-.7,15.15l-13.34,1.46s-.18-3.12-.44-7.5A16.6,16.6,0,0,0,470.59,229.78Z"/><path class="cls-32" d="M471.52,269.22a8.61,8.61,0,0,1-.18,1.37c-.87,3.6-3.34,3.45-3.34,3.45s-1.07,2.35-2.86,2.95a2.18,2.18,0,0,1-2.59-.67s-1.09,2.51-2.86,2.36a4,4,0,0,1-2.72-1.1s-1.36,3-3.42,1.62l-.16-.11a2.1,2.1,0,0,1-.52-1.07,21.35,21.35,0,0,1-.51-3.78c-.28-4.11-.08-9.62.46-11.67a11,11,0,0,1,3.88-5.39l-2.58-18.46a23.77,23.77,0,0,0,9.75,1.47,11.09,11.09,0,0,0,7.32-3.6l-1,19.94S471.79,264.87,471.52,269.22Z"/><path class="cls-31" d="M471.52,269.22a8.61,8.61,0,0,1-.18,1.37c-.87,3.6-3.34,3.45-3.34,3.45s-1.07,2.35-2.86,2.95a2.18,2.18,0,0,1-2.59-.67s-1.09,2.51-2.86,2.36a4,4,0,0,1-2.72-1.1s-1.36,3-3.42,1.62a1.61,1.61,0,0,1-.68-1.18,21.35,21.35,0,0,1-.51-3.78,3.64,3.64,0,0,0,2.4,1,2.5,2.5,0,0,0,2.53-2.08s1.36,1.71,3.11,1a3.79,3.79,0,0,0,2.15-2.44,2.35,2.35,0,0,0,2.85.89,2.61,2.61,0,0,0,1.68-2.15S470,271.31,471.52,269.22Z"/><path class="cls-22" d="M417.87,217.11s-17,10.65-27.76,8.36a6,6,0,0,1-3.64-2c-3.78-4.77,4.6-15.31,10.51-15l2.58.15,18.34,1.09C424.57,217.92,417.87,217.11,417.87,217.11Z"/><path class="cls-18" d="M417.87,217.11s-17,10.65-27.76,8.36a6,6,0,0,1-3.64-2c1.41-.09,2.5-.76,2.47-2.14-.07-2.69.78-5.1,1.42-2.83s2.62,6.09,3.19-.5c.4-4.79,4-8,6-9.35l18.34,1.09C424.57,217.92,417.87,217.11,417.87,217.11Z"/><path class="cls-33" d="M420,203.07c-.13,1.51-.23,3.28-.26,5.35-.15,12.23,2.15,21.43,2.47,21.43s6.26-14.56,7.66-24.5C423.4,206,420.74,203.89,420,203.07Z"/><g class="cls-34"><path class="cls-35" d="M426.93,205.47c-1.79,6.86-3.06,14-5,10.69-.79-1.35-1.52-2.45-2.17-3.37.33,10,2.14,17.06,2.42,17.06s6.26-14.56,7.66-24.5A21.44,21.44,0,0,1,426.93,205.47Z"/></g><path class="cls-32" d="M430.09,209a12.44,12.44,0,0,1,.35,3.35c0,.1-.05.2-.08.27a16.56,16.56,0,0,1-1.26,2.12,11.21,11.21,0,0,1,0,2.53.79.79,0,0,1-.12.33,7.74,7.74,0,0,1-1.74,1.25s.13,1.62-1,2.11a12.51,12.51,0,0,1-3.62.46,25.67,25.67,0,0,1-4-.19,22.83,22.83,0,0,1-5.6-1.39l-12.56,6.93a10.76,10.76,0,0,1-5.27-6.45,14.51,14.51,0,0,1-.71-4c-.4-8,7-8.14,7-8.14l8.65-.47,5-1.25a31.72,31.72,0,0,1,3.3-5c1.49-1.61,6.3-.35,6.91-.1s.88,3,.88,3a10,10,0,0,1,4,1.36,1.45,1.45,0,0,1,.68,1.15A3.59,3.59,0,0,1,430.09,209Z"/><path class="cls-8" d="M427.52,192.65c-.48-4.89,2.29-21-2.23-13.05s-.51,20.53-.51,20.53A8.75,8.75,0,0,0,427.52,192.65Z"/><path class="cls-11" d="M426.09,182c-2.1,5.58-1.07,16.85-1.06,16.5C425.14,190.77,426.09,182,426.09,182Z"/><path class="cls-8" d="M429.16,194.76c.47-4,5.45-15.87.51-10.94s-4,16-4,16A6,6,0,0,0,429.16,194.76Z"/><path class="cls-11" d="M426.19,198.57c1.42-6,3.7-12.66,3.7-12.66C427.27,189.67,426.13,198.84,426.19,198.57Z"/><path class="cls-33" d="M429.89,206a28.59,28.59,0,0,0,.3-3.61,6.15,6.15,0,0,0-.89-3.26l0,0c-1.77-2.65-5.22-4-8.17.4a6.07,6.07,0,0,0-.9,2.57c-.06.51-.12,1.07-.17,1.65C420.79,204.56,423.45,206.7,429.89,206Z"/><path class="cls-35" d="M429.89,206a28.59,28.59,0,0,0,.3-3.61,6,6,0,0,0-.91-3.28v0a45.73,45.73,0,0,0-2.29,7A23.2,23.2,0,0,0,429.89,206Z"/><path class="cls-31" d="M415.89,219.49c.93.58,1.89,1.2,2.74,1.72a22.83,22.83,0,0,1-5.6-1.39l-12.56,6.93a10.76,10.76,0,0,1-5.27-6.45c5.82,1.34,10.67.6,12.11-1.59,1.64-2.48.28-3.44,1.47-3.5s1.86,2.7,2.48,1.69,0-2.31.68-1.69S413.63,218.09,415.89,219.49Z"/><path class="cls-31" d="M428.73,217.41a1.3,1.3,0,0,0,.37-.16.79.79,0,0,1-.12.33,7.74,7.74,0,0,1-1.74,1.25s.13,1.62-1,2.11a12.51,12.51,0,0,1-3.62.46,3.89,3.89,0,0,0,1.66-2c.29-1.47-.16-1.63-.16-1.63A27.27,27.27,0,0,0,428.73,217.41Z"/><path class="cls-31" d="M429.92,212.62l.52-.29c0,.1-.05.2-.08.27a16.56,16.56,0,0,1-1.26,2.12,9.47,9.47,0,0,1-4.31-.58A19.42,19.42,0,0,0,429.92,212.62Z"/><path class="cls-31" d="M424.84,209.74a19.78,19.78,0,0,0,4.29-1.46,4.41,4.41,0,0,0,1.77-1.39,3.59,3.59,0,0,1-.81,2.09A14.89,14.89,0,0,1,424.84,209.74Z"/><path class="cls-36" d="M435.84,155.82s-4.18,10.64-11.95,11.61-3.85-11.7-3.85-11.7c.07-.68.11-1.35.15-2,.26-4.81-.12-8.45,0-8.83l14.22-8.81a68.33,68.33,0,0,0,.08,8.07C434.92,150.28,435.84,155.82,435.84,155.82Z"/><path class="cls-37" d="M434.52,144.16c-1.6,4.14-5.4,8.74-14.33,9.57.26-4.81-.12-8.45,0-8.83l14.22-8.81A68.33,68.33,0,0,0,434.52,144.16Z"/><path class="cls-36" d="M424.94,104.12c-9.94,0-12.48,7-12.48,21.15s.69,21.15,9.47,21.15S435,140,436.15,134.17,443.55,104.12,424.94,104.12Z"/><path class="cls-19" d="M427.79,137.43s-.32.35-.83.86a14,14,0,0,1-3.21,2.35c-1.61.83-3.46,1.18-5.08,0a6.27,6.27,0,0,1-1.79-2.21c-.15-.29-.3-.59-.44-.91A20,20,0,0,0,427.79,137.43Z"/><path class="cls-38" d="M427.79,137.43s-.32.35-.83.86a13.18,13.18,0,0,1-5.38,1.11,10.27,10.27,0,0,1-4.7-1c-.15-.29-.3-.59-.44-.91A20,20,0,0,0,427.79,137.43Z"/><path class="cls-39" d="M423.75,140.64c-1.61.83-3.46,1.18-5.08,0A4.68,4.68,0,0,1,423.75,140.64Z"/><path class="cls-19" d="M427,126.39c0,1.38-.83,2.5-1.86,2.5s-1.86-1.12-1.86-2.5.84-2.51,1.86-2.51S427,125,427,126.39Z"/><path class="cls-38" d="M426,125.53a.62.62,0,1,1-.61-.75A.68.68,0,0,1,426,125.53Z"/><ellipse class="cls-19" cx="415.93" cy="126.39" rx="1.86" ry="2.51"/><path class="cls-38" d="M416.87,125.53a.69.69,0,0,1-.62.74.76.76,0,0,1,0-1.49A.69.69,0,0,1,416.87,125.53Z"/><path class="cls-19" d="M418.28,126.18a6.5,6.5,0,0,1,0,4.71c-1,2.54-2.51,4.37-.33,4.82a5.17,5.17,0,0,0,2.5-.07s-2.56.07-2.8-1.13S420.6,130.12,418.28,126.18Z"/><path class="cls-19" d="M413.2,122s2.31-1.42,4.5,1.48C417.7,123.45,417.05,117.88,413.2,122Z"/><path class="cls-19" d="M430.67,122a11,11,0,0,0-8.83,1.48S423.12,117.88,430.67,122Z"/><path class="cls-19" d="M448.38,114a17.7,17.7,0,0,1-2.86,8.13c-6,9.48-8.79,8.2-8.79,8.2L435,125a34.45,34.45,0,0,1-9-3.94,22.68,22.68,0,0,1-4.83-3.95L421,117a15.19,15.19,0,0,1-4-8.64c-4.09,1.34-6.37,0-6.37,0a14.08,14.08,0,0,0,1,6.5c-.08,2.86-2,1.84-2,1.84-3.75-2.11-3.76-6.8-3.76-6.8a12.56,12.56,0,0,0,3.49,11.63,11.59,11.59,0,0,1-5.3-10.49c.36-9.47,7.41-8.08,7.41-8.08a60.19,60.19,0,0,1,7.43-2.77,12.5,12.5,0,0,1,7.47.21,16.16,16.16,0,0,1,11.56-.11C444.88,102.75,448.79,107.88,448.38,114Z"/><path class="cls-20" d="M448.38,114a17.7,17.7,0,0,1-2.86,8.13c-6,9.48-8.79,8.2-8.79,8.2L435,125a34.45,34.45,0,0,1-9-3.94,22.68,22.68,0,0,1-4.83-3.95c.65.57,3.61,2.85,9.72,3.3a27.79,27.79,0,0,1-3.91-6.18c.33.35,5.65,5.94,11.15,6.53,5.68.61-3.92-8.38-3.92-8.38a13.35,13.35,0,0,1,7.85,4.89c3.23,4.19,5.24-3,1.51-8.92A9.84,9.84,0,0,1,448.38,114Z"/><path class="cls-19" d="M417,108.39s-4.4,3.83-4.52,14.7a13.11,13.11,0,0,1-3.13-1.55,12.56,12.56,0,0,1-3.49-11.63s0,4.69,3.76,6.8c0,0,1.88,1,2-1.84a14.08,14.08,0,0,1-1-6.5S412.87,109.73,417,108.39Z"/><path class="cls-20" d="M417,108.39s-4.4,3.83-4.52,14.7a13.11,13.11,0,0,1-3.13-1.55,12.56,12.56,0,0,1-3.49-11.63s0,4.69,3.76,6.8c0,0,1.88,1,2-1.84a14.08,14.08,0,0,1-1-6.5S412.87,109.73,417,108.39Z"/><path class="cls-36" d="M436.45,127.27c-.08-.26,1.57-2.27,4.19-1.74s1.84,11.7-5.5,10.65Z"/><path class="cls-37" d="M436.55,131.77s.7-3.8,2.68-4.22,2.33,1.87,2.33,1.87-1.83,5.94-4.62,5.65c0,0,1.27-1.4.82-2.43S436.55,131.77,436.55,131.77Z"/><path class="cls-19" d="M436.94,135.07s1.17-1.22.93-2.11-1.53-.91-1.53-.91.19-4.27,2.74-4.89,2.48,2.26,2.48,2.26-.45-2.1-2.22-1.73-2,3.8-2,3.8S440.34,132.58,436.94,135.07Z"/><path class="cls-7" d="M284.58,387.35c-.59-.15-38.3,2.21-33.74,5.74s26.52,2.66,47,2.66h39.79c20.77,0,40.81-6,40.66-6.63s-3-2.36-24.75-2.21-23.13.59-35.07.59S284.58,387.35,284.58,387.35Z"/><path class="cls-40" d="M311.8,158.8c-.2,5.6-9.75,54.39-12.45,64.57s-9.35,17.85-11.41,20.34-6,16.19-16,15c-6.86-.85-9-6.64-8.66-11.45a10.09,10.09,0,0,1,1.81-5.36c3.11-3.94,12-18.9,12-18.9A9.64,9.64,0,0,0,279,219c.22-1.88,3.53-4.36,3.53-4.36s5.81-24.29,11-39c3.26-9.28,7.86-13.79,10.8-15.85a11.6,11.6,0,0,1,2.91-1.59Z"/><path class="cls-41" d="M311.8,158.8c-.2,5.6-9.75,54.39-12.45,64.57s-9.35,17.85-11.41,20.34-6,16.19-16,15c-6.86-.85-9-6.64-8.66-11.45,11.75-9.7,16.07,2.39,17.94-4.25s-1.49-16.32,1.06-18.44,5.29,2.54,4.65-2.55-3.81-4.24-2.32-5.5,4,1.7,6.56-8.27S303.48,165,303.48,165a48.08,48.08,0,0,1,.85-5.19,11.6,11.6,0,0,1,2.91-1.59Z"/><path class="cls-37" d="M273.32,249c-4.1-2.16-9.7,2.15-14.45,7.76s1.08,10.79,3.45,12.94,8,.87,9.28-2.15,7.6-6.23,6.47-13.81A5.55,5.55,0,0,0,273.32,249Z"/><path class="cls-14" d="M311.6,330.49s-2.49-4.56-15.78-4.56-16.4,1.86-16.4,1.86-.21,8.93,14.53,9.55S311.6,330.49,311.6,330.49Z"/><path class="cls-15" d="M307.87,305.37c-1.05,9.76.62,35.09.62,35.09H285.23s-.59-2.14-1.38-5.67c-1.69-7.5-4.23-21.34-3.81-34.61.63-19.51,13.71-55.22,13.71-55.22l2.49-2.08,28.44,2.7s-.66,2.13-1.75,5.61C318.79,264.53,308.68,297.62,307.87,305.37Z"/><path class="cls-15" d="M297.07,247a76,76,0,0,0,9.34,24.09s18.48,4.15,31.35,2.49c0,0,9.76-14.12,11.62-28.44S295.2,232.09,297.07,247Z"/><path class="cls-16" d="M308.49,340.46H285.23s-.59-2.14-1.38-5.67c12.55-.66,18-4.33,16.53-15.57-1.62-12.6-13-10.62-7.2-19.8S313,270.24,303.8,265.37s-10.8-9,2.16-9.9a50.2,50.2,0,0,0,17-4.28c-4.14,13.34-14.25,46.43-15.06,54.18C306.82,315.13,308.49,340.46,308.49,340.46Z"/><path class="cls-14" d="M339.63,325.93s11.41-.63,17.64,2.28c0,0-14.74,13.7-33,2.08C324.26,330.29,329,326.55,339.63,325.93Z"/><path class="cls-15" d="M356,340.05c0,.83-21.79,0-21.79,0s-3.09-6.93-6.41-15.71A180.43,180.43,0,0,1,321.56,305c-3.74-15.16-7.19-53.36-7.05-54.39,1.42-10.79,31-20.79,36.24-7.08a6.47,6.47,0,0,1,.3.84c4.35,15,.61,26.17.61,26.17s-4.77,21.58-3.73,33.63S356,339.21,356,340.05Z"/><path class="cls-16" d="M356,340.05c0,.83-21.79,0-21.79,0s-3.09-6.93-6.41-15.71c5.91-3.42,4.29-6.15,13.86-26.47,11.57-24.58,7.7-52.71,7.7-52.71.46-.6.92-1.15,1.37-1.67a6.47,6.47,0,0,1,.3.84c4.35,15,.61,26.17.61,26.17s-4.77,21.58-3.73,33.63S356,339.21,356,340.05Z"/><path class="cls-17" d="M365.37,387.8s-22.63,4.35-29.28,4.56-16.39.21-16.39.21a4.74,4.74,0,0,1,.49-4.34c.88-1.34,2.67-2.69,6.15-3.56,6-1.5,11.21-7.3,14.07-11.11,1.47-2,2.33-3.41,2.33-3.41l-.21-.45-18.25-39.41c.53.15,11.41,3.41,22.8,1.4a32.87,32.87,0,0,0,10.19-3.49s6,45.47,6.24,46.92S365.37,387.8,365.37,387.8Z"/><path class="cls-14" d="M365.37,387.8s-22.63,4.35-29.28,4.56-16.39.21-16.39.21a4.74,4.74,0,0,1,.49-4.34c8.28-2.32,29.88-3.57,30.92-8.12,1-4.39-8.81-6.24-10.7-6.55,1.47-2,2.33-3.41,2.33-3.41l-.21-.45c3-.72,10.15-3,11.89-8.53,1.58-5.06-4-20.77-7.34-29.48a32.87,32.87,0,0,0,10.19-3.49s6,45.47,6.24,46.92S365.37,387.8,365.37,387.8Z"/><path class="cls-17" d="M308.69,392.57c-.2.62-48.17,0-48.17,0a5.74,5.74,0,0,1-.2-3.55c.49-1.66,2-3.46,6-4.35,5.36-1.16,11.8-5.65,15.82-8.8,2.22-1.72,3.71-3.06,3.89-3.22h0l-6.64-44.84s3.8,4.93,13.75,6.08c.46.06.92.1,1.41.14,11,.83,17-3.52,17-3.52s-3.33,38.81-3.53,41.93S308.9,391.94,308.69,392.57Z"/><path class="cls-14" d="M308.69,392.57c-.2.62-48.17,0-48.17,0a5.74,5.74,0,0,1-.2-3.55c10.73-.32,32.9-1.53,31.56-6-1.2-4.05-6.47-6.16-9.72-7.11,2.22-1.72,3.71-3.06,3.89-3.22h0s11.1,6.59,10.88-10.58a132.29,132.29,0,0,0-3.77-28.18c.46.06.92.1,1.41.14,11,.83,17-3.52,17-3.52s-3.33,38.81-3.53,41.93S308.9,391.94,308.69,392.57Z"/><path class="cls-40" d="M324.1,150.94s-8.58,1.16-18.79,9.05-8.87,70-9.07,83.93c0,0,28.44,8.51,54.8.42,0,0,9.42-70,5.89-79.12S336,150.56,324.1,150.94Z"/><path class="cls-41" d="M312.55,155.63s-4.16,15-3.62,24.94c0,0,19.16-1.45,26.39.36,0,0,5.42-17.53,11.38-21.87s4.7,1.27,4.7,1.27-6.87,15.54-6.32,27.65-2.71,11.2-11.21,12.83-34.34-10.66-34.34-10.66l8.68-32.53Z"/><path class="cls-15" d="M349,156.52s-9,2.18-11.94,27.92c0,0-15.76-4.48-30.5-1.58,0,0,2-18.13,6.15-28.1L307,157.11s-4.83,10.32-6.9,26.93l-3.19,1.54A397.68,397.68,0,0,0,293.74,245s7.27,5.6,32.81,4.15,26.57-3.94,26.57-3.94,2.49-32.6,2.91-50.66a21.54,21.54,0,0,1-13.29-6.64s.19-23.35,10.36-29.16Z"/><path class="cls-42" d="M305.52,188.85a2.33,2.33,0,1,1-2.33-2.33A2.33,2.33,0,0,1,305.52,188.85Z"/><path class="cls-42" d="M340.71,191.11a2.33,2.33,0,1,1-2.33-2.33A2.33,2.33,0,0,1,340.71,191.11Z"/><path class="cls-42" d="M301.81,206.93s18.27,4.86,33.24,1.36l-1,30.32s-5.64,5.06-17.69,4.67-13.8-7-13.8-7Z"/><path class="cls-16" d="M353.06,258.2,350.89,260a124.92,124.92,0,0,0-15.72,9.4c-8.86,6.14-23.68,6.33-17.17.54s17.52-18.62,2.89-17.54-18.8-4.7-6-6.86,18.79-8.68,24.4-20.78,5.54-34.34,5.17-35.06a17.67,17.67,0,0,1,3.49,2.17c1.39,10.88-.43,42.17-.43,42.17C353.66,245.45,353.06,258.2,353.06,258.2Z"/><path class="cls-40" d="M370.76,231.05c-2.06,5.18-23.66,23-29.06,28.85s-12.25,9.35-18.47,5.61c-5.72-3.42-4.44-12.25-2.76-15.46a3.69,3.69,0,0,1,.48-.73c1.86-2.29,21.16-21.59,21.16-21.59s3.74-2.91,2.91-5,1.45-4.79,1.45-4.79a189.8,189.8,0,0,0-1-27.6c-1.66-13.08-1.28-27.06,7.47-27.4,7.7-.31,12.66,15.06,15.45,31.33C371.22,210.9,371.81,228.42,370.76,231.05Z"/><path class="cls-41" d="M370.76,231.05c-2.06,5.18-23.66,23-29.06,28.85s-12.25,9.35-18.47,5.61c-5.72-3.42-4.44-12.25-2.76-15.46,13.4-6.7,17,4.35,17,4.35s16.9-9.28,17.28-17.28-11-11-4.28-10.58,13.19,7.24,11.71.92-15.8-10.41-5.59-7.8,8.93,13.38,12.27,3.53c1.69-5,.78-17.53-.54-28.9C371.22,210.9,371.81,228.42,370.76,231.05Z"/><path class="cls-43" d="M334.59,258.23A24.24,24.24,0,0,1,334,262s0,0,0,.07c-.06.23-.12.46-.19.7a16.73,16.73,0,0,1-3,6.1c-1.14,1.39-2.22,1.71-3.14,1.55a8.49,8.49,0,0,1-3,1.63c-2,.42-2.16,0-2.16,0a9.65,9.65,0,0,1-3.6,2.55,3.82,3.82,0,0,1-3.36-.39s-3.4,1.93-5.54.86-4.54-9.06-4.76-10.57a5.78,5.78,0,0,1,.29-1.76c.88-3.15,3.52-9.08,5.76-10.1,2.8-1.31,13.8-3,13.8-3C330.92,248.3,334.37,251.75,334.59,258.23Z"/><path class="cls-37" d="M333.8,262.75a16.73,16.73,0,0,1-3,6.1c-1.14,1.39-2.22,1.71-3.14,1.55a8.49,8.49,0,0,1-3,1.63c-2,.42-2.16,0-2.16,0a9.65,9.65,0,0,1-3.6,2.55,3.82,3.82,0,0,1-3.36-.39s-3.4,1.93-5.54.86-4.54-9.06-4.76-10.57a5.78,5.78,0,0,1,.29-1.76,3,3,0,0,0,.85,1c2.71,2.13,1.35-2.46,4.84-3.57s5.23,4.36,4.59,6.65-4.36,4.12-3.72,5.4,3.49,0,4.05-.8,1.68-5.67,1.87-6.4c-.08.74-.62,5.74.26,6.48s3.64-.31,4.84-4.76,1-1.65,1,1.43,2.62,2.3,4-2.13,1.19-1.91.87,1.5C328.77,270.52,331.88,266.87,333.8,262.75Z"/><path class="cls-43" d="M334.59,258.23A10.35,10.35,0,0,1,334,262,24.24,24.24,0,0,0,334.59,258.23Z"/><path class="cls-44" d="M267.1,259.52l-7.84,2.73L237,314.57l-8.38,2.37s-.55,7.47.18,7.29,12-3.65,12-3.65l22.31-52.72,7.59-3.06S271.66,261,267.1,259.52Z"/><path class="cls-44" d="M315.38,267.49l-9,3.63L280,333.5s-13.36,4.1-14.23,4.32-.21-8.64-.21-8.64l9.92-2.8,5-11.65,21.35-50.25,8.7-3,.58-.21C316.46,263,315.38,267.49,315.38,267.49Z"/><path class="cls-45" d="M315.38,267.49l-9,3.63L280,333.5s-13.36,4.1-14.23,4.32-.21-8.64-.21-8.64l9.92-2.8,5-11.65c2.31-.75,5.68-2,6.76-3.25,1.73-2,16.2-41.68,16.93-42.41s6.13-2,7.1-3.93c.62-1.22-.1-2.73-.74-3.69l.58-.21C316.46,263,315.38,267.49,315.38,267.49Z"/><polygon class="cls-46" points="134.36 303.07 229.77 269.15 230.66 324.67 161.34 344.06 134.36 303.07"/><polygon class="cls-46" points="288.17 281.7 229.77 269.15 230.66 324.67 270.3 337.41 288.17 281.7"/><path class="cls-8" d="M264.46,273.45s3.58-18.08,16.28-22.56-3.59,10.91-6.57,16.88S264.46,273.45,264.46,273.45Z"/><path class="cls-11" d="M266.1,271.8c-.27.39,6.72-13.29,14-17.47A217.53,217.53,0,0,0,266.1,271.8Z"/><path class="cls-33" d="M271.23,275.85a6.61,6.61,0,0,1-.36,2.67c-1.49,4-10.14,13-26.73,17a93.4,93.4,0,0,1,8.31-17.51c2.43-3.72,5.21-6.85,8.13-7.89C267.65,267.64,271,272,271.23,275.85Z"/><g class="cls-34"><path class="cls-35" d="M252.85,284.07a44.22,44.22,0,0,0-.39-6,92.74,92.74,0,0,0-8.32,17.51c16.58-4,25.25-13,26.74-17a6.53,6.53,0,0,0,.34-2.68C263.58,278.87,252.85,289.82,252.85,284.07Z"/></g><path class="cls-8" d="M271,282.26s6.12-15.39,18.67-16.58,5.38,4.48-2.69,9.11S276.71,282.26,271,282.26Z"/><path class="cls-11" d="M273,280.92s9.86-11.51,17.63-12.55A95.55,95.55,0,0,0,273,280.92Z"/><path class="cls-33" d="M280.7,291.88c-1.05,3.69-36.95,5.77-36.95,5.77a89.11,89.11,0,0,1,6.23-6.49c4.42-4.08,10.76-8.82,17.7-10.22,3.71-.75,6.44-.41,8.45.55C280.83,283.71,281.42,289.28,280.7,291.88Z"/><path class="cls-47" d="M280.7,291.88c-1.05,3.69-36.95,5.77-36.95,5.77a89.11,89.11,0,0,1,6.23-6.49c1.54,2.33,8-1.67,17.09-4.74,5.62-1.91,8-3.67,9.06-4.93C280.83,283.71,281.42,289.28,280.7,291.88Z"/><path class="cls-48" d="M193.24,263.9s-3.24-7.72.09-12.62,6.84-1.12,6.84-1.12l15.39,2a7.54,7.54,0,0,1,5.88-2c3.66.33,6.53,4.09,4.58,11.38S204.5,289.33,193.24,263.9Z"/><path class="cls-49" d="M195.23,265.9c-.44-.46-1.06-6.56,1.42-11.14s6.84-7.83,11.87-7.82,5.81,8.31,5.48,12S203.3,274.48,195.23,265.9Z"/><path class="cls-50" d="M220.41,261.3c-1.47,7.4-7.65,10.74-12.28,9a10.07,10.07,0,0,1-4.58-2.84c-1.41-1.79-1.55-4.48.63-9,0,0,4.61-7.64,9-9.1h0a4.44,4.44,0,0,1,1.41-.24C219.34,249.18,221.86,253.9,220.41,261.3Z"/><path class="cls-48" d="M213.92,263.14c-4.1,4.24-7.92,5.22-10.37,4.33-1.41-1.79-1.55-4.48.63-9,0,0,4.61-7.64,9-9.1h0a4.79,4.79,0,0,1,2.64,1.72C218.55,254.29,219.51,257.35,213.92,263.14Z"/><path class="cls-50" d="M211,270.2c-.4,0-10.63-.91-10.2-10,.26-5.53,1.4-7.59,3-8.44a9.43,9.43,0,0,1,3.43-.78c3.19-.42,3.65,3.16,3.65,3.16a125.82,125.82,0,0,1,.39,14.05A6.21,6.21,0,0,1,211,270.2Z"/><path class="cls-48" d="M211.23,268.22c-3-.77-7.51-2.85-8.27-8.39-.54-3.87,0-6.43.8-8a9.43,9.43,0,0,1,3.43-.78c3.19-.42,3.65,3.16,3.65,3.16A125.82,125.82,0,0,1,211.23,268.22Z"/><path class="cls-50" d="M210.27,251.76s-1.21-.83-3.6,4.41-.62,9.7,3.25,11.27,7.41-7.94,5.91-12A5.64,5.64,0,0,0,210.27,251.76Z"/><path class="cls-48" d="M210.36,252.19a9.49,9.49,0,0,0-.58,8.78S214,258.79,210.36,252.19Z"/><path class="cls-51" d="M226,261.57c-2,7.28-21.52,27.75-32.78,2.32a19.24,19.24,0,0,1-1.29-8.8c.4-.11,2.73-.54,5.28,2.09,2.83,2.9,3.49,9.35,5.12,12s10.53,1.34,13.57-1.56c2.82-2.67,9.09-6.15,10.63-11.8A14.82,14.82,0,0,1,226,261.57Z"/><path class="cls-48" d="M169.32,279.17s-6-5.79-4.94-11.61,5.82-3.75,5.82-3.75l14.92-4.28a7.58,7.58,0,0,1,4.6-4.16c3.49-1.16,7.62,1.15,8.74,8.61S189.77,298,169.32,279.17Z"/><path class="cls-49" d="M171.94,280.22c-.59-.25-3.58-5.6-3.13-10.79s3.16-9.91,7.77-11.9,8.64,5.3,9.79,8.8S182.76,284.87,171.94,280.22Z"/><path class="cls-50" d="M193.21,266c1.6,7.37-2.74,12.89-7.68,13.15a10.06,10.06,0,0,1-5.33-.78c-2-1.08-3.21-3.49-3-8.53,0,0,1.17-8.85,4.61-11.93h0a4.32,4.32,0,0,1,1.19-.77C187.4,255.28,191.59,258.6,193.21,266Z"/><path class="cls-48" d="M188,270.24c-2.06,5.52-5.18,7.94-7.78,8.1-2-1.08-3.21-3.49-3-8.53,0,0,1.17-8.85,4.61-11.93h0a4.86,4.86,0,0,1,3.1.53C188.71,260.27,190.81,262.71,188,270.24Z"/><path class="cls-50" d="M188.12,277.88c-.35.19-10.11,3.4-13.33-5.09-2-5.18-1.74-7.51-.64-8.91A9.16,9.16,0,0,1,177,261.8c2.76-1.66,4.61,1.44,4.61,1.44a125.6,125.6,0,0,1,6,12.73A6.1,6.1,0,0,1,188.12,277.88Z"/><path class="cls-48" d="M187.55,276c-3.05.48-8,.37-10.94-4.4-2-3.34-2.52-5.91-2.46-7.69A9.16,9.16,0,0,1,177,261.8c2.76-1.66,4.61,1.44,4.61,1.44A125.6,125.6,0,0,1,187.55,276Z"/><path class="cls-50" d="M180.11,261.26s-1.45-.28-1.55,5.48,3.3,9.14,7.47,9,3.63-10.23.66-13.33A5.64,5.64,0,0,0,180.11,261.26Z"/><path class="cls-48" d="M180.36,261.61a9.47,9.47,0,0,0,3,8.28S186.32,266.22,180.36,261.61Z"/><path class="cls-51" d="M197.53,271.23c-2.73,9.22-11.11,20.81-25.05,10.55a7.18,7.18,0,0,1,3.79-2.64c3.68-1.05,4.25-3.05,10-4.49C191.87,273.25,196.17,271.41,197.53,271.23Z"/><path class="cls-11" d="M151.55,301.5a9.92,9.92,0,0,1,.81,3.09s-2.43,5.71-8.36,7.06l-.09,0c-6,1.32,4.29-6.18,4.29-6.18s-12-2.33-12-5.05,12.63,2,12.63,2-4.33-6.13-2.55-8.75C147.49,292,150,297.55,151.55,301.5Z"/><path class="cls-24" d="M144,311.66a15,15,0,0,0,8.89-6.59s-.54-1.58-1.32-3.57C151,306,146.74,309.72,144,311.66Z"/><path class="cls-22" d="M187.45,312.67c-.42-.26-.87-.52-1.32-.78-2.19-1.28-4.72-2.63-7.33-4l-1.74-.86c-3.56-1.75-7.19-3.4-10.25-4.64l-1.62-.64c-1.3-.49-2.45-.89-3.4-1.18-9-2.65-14.91,8.13-6.27,13a15.07,15.07,0,0,0,2.65,1.13c.53.19,1.08.36,1.68.53a73.39,73.39,0,0,0,11.1,1.89l2,.19c2.84.25,5.67.43,8.28.55l1.55.06c5.7.22,9.94.18,9.94.18C194.59,317.62,192,315.39,187.45,312.67Z"/><path class="cls-52" d="M152.66,304.45c-1.4,2.24-.35,6.55,3.17,6.75S155,300.71,152.66,304.45Z"/><path class="cls-53" d="M182.74,317.93l-1.55-.06c.31-1.39.82-3.14,1.49-3.73S183.08,315.81,182.74,317.93Z"/><path class="cls-53" d="M172.91,317.32l-2-.19c.43-2.44,1.15-5.91,1.91-6.91S173.25,314.23,172.91,317.32Z"/><path class="cls-53" d="M159.85,315.24c-.6-.17-1.15-.34-1.68-.53.62-2.4,2-7.22,2.89-8.39C162.17,304.94,160.7,311.36,159.85,315.24Z"/><path class="cls-53" d="M186.13,311.89c.45.26.9.52,1.32.78-.84,1.88-1.78,3.67-2,2.89S185.68,313.18,186.13,311.89Z"/><path class="cls-53" d="M177.06,307.07l1.74.86c-1.4,2.79-3.6,6.91-3.71,5.57C175,312.32,176.13,309.32,177.06,307.07Z"/><path class="cls-53" d="M163.05,310.36c-.14-1.48,1.35-6.21,2.14-8.57l1.62.64C165.41,306.16,163.23,312.1,163.05,310.36Z"/><g class="cls-54"><path class="cls-55" d="M187.46,312.67c-.42-.26-.87-.52-1.33-.79-2.18-1.27-4.72-2.62-7.33-3.95l-1.75-.86c-2.88-1.43-5.81-2.77-8.45-3.89l-1.8-.75c-.08,0-.17-.06-.26-.11l-1.35-.54c-1.29-.48-2.45-.87-3.4-1.16a9.08,9.08,0,0,0-5.08-.08,8,8,0,0,0-2.9,1.52c5.16,5.77,14.24,8.3,11.19,9.81a34.85,34.85,0,0,1-8.11,2.36c.41.17.83.34,1.29.48s1.07.37,1.67.53c.83.22,1.71.43,2.65.63,2.57.53,5.47.94,8.44,1.25l2,.2c2.85.26,5.69.43,8.29.54l1.55.08c5.7.21,9.94.17,9.94.17C194.58,317.62,192,315.38,187.46,312.67Z"/></g><path class="cls-56" d="M192.68,318.11s-4.24,0-9.94-.17l-1.55-.08c-2.6-.11-5.44-.28-8.29-.54l-2-.2c-3-.31-5.87-.72-8.44-1.25a11,11,0,0,0,4.8-2c2.52-2.19-4.17-8.9-4.17-8.9s1.3-1.13,3.41-2.62c.09.05.18.07.26.11l1.8.75c2.64,1.12,5.57,2.46,8.45,3.89l1.75.86c2.61,1.33,5.15,2.68,7.33,3.95.46.27.91.53,1.33.79C192,315.38,194.58,317.62,192.68,318.11Z"/><path class="cls-11" d="M153.8,281.2a33.51,33.51,0,0,1-.39,5.37s-5.79,5.32-13.48,4a4.73,4.73,0,0,1-1.82-.56c-2.32-1.6,9.82-4.72,9.82-4.72s-13-8.41-11.74-11.62,14,8.39,14,8.39-2.22-9.3,1.14-11.56C153.38,269.13,153.78,275.89,153.8,281.2Z"/><path class="cls-24" d="M138.12,290.05a4.93,4.93,0,0,0,1.82.57c7.68,1.26,13.72-3.56,13.72-3.56s.14-2.66.13-5.86a17.19,17.19,0,0,1-5.87,5.61A25.89,25.89,0,0,1,138.12,290.05Z"/><path class="cls-22" d="M169.75,289c.51.48,1.06,1,1.6,1.53,3,2.92,6.53,6.59,9.91,10.35l1.64,1.84c2.46,2.8,4.8,5.6,6.79,8.15.4.52.81,1.05,1.18,1.55,4,5.35,6.08,9.23,3.59,8.91,0,0-5-2-11.66-4.93l-1.79-.81c-3-1.38-6.29-2.93-9.52-4.58-.75-.38-1.48-.77-2.22-1.16a92.2,92.2,0,0,1-12.21-7.49c-.63-.49-1.2-1-1.73-1.42a18.76,18.76,0,0,1-2.6-2.61c-7.91-9.81,4.15-19.75,13.56-12.33C167.28,286.82,168.45,287.84,169.75,289Z"/><path class="cls-52" d="M154.8,286.07c-3.12,2.46-.72,6.05,3.74,4.61s6.4-3.22,5.14-4.37S157.68,283.79,154.8,286.07Z"/><path class="cls-53" d="M182.8,316.43l-1.79-.81c1-1.49,2.46-3.32,3.53-3.7S184.22,314.08,182.8,316.43Z"/><path class="cls-53" d="M171.49,311c-.75-.38-1.48-.77-2.22-1.16,1.66-2.67,4.16-6.43,5.54-7.24C176.36,301.73,173.36,307.56,171.49,311Z"/><path class="cls-53" d="M157.06,302.39c-.63-.49-1.2-1-1.73-1.42,1.87-2.55,5.73-7.61,7.39-8.54C164.68,291.33,159.91,298.2,157.06,302.39Z"/><path class="cls-53" d="M189.69,310.9c.4.52.81,1.05,1.18,1.55-1.89,1.83-3.84,3.49-3.73,2.47S188.53,312.22,189.69,310.9Z"/><path class="cls-53" d="M181.26,300.91l1.64,1.84c-3,2.63-7.53,6.46-7,4.81C176.33,306.12,179.09,303.12,181.26,300.91Z"/><path class="cls-53" d="M163.16,298.14c.52-1.81,4.54-6.68,6.59-9.11.51.48,1.06,1,1.6,1.53C167.94,294.31,162.55,300.28,163.16,298.14Z"/><path class="cls-56" d="M194.47,321.36s-5-1.95-11.67-4.93c-.57-.25-1.18-.53-1.79-.82-3-1.37-6.29-2.92-9.52-4.57-.31-.16-.62-.33-.94-.48s-.85-.45-1.28-.67a93.93,93.93,0,0,1-12.21-7.5c-.63-.49-1.21-1-1.73-1.42a21.21,21.21,0,0,1-2.6-2.6,13.7,13.7,0,0,1-1.18-1.74A24.67,24.67,0,0,0,162.62,303c9.95,2.86,6.32-2.86,4.4-11-.56-2.43-.93-4.5-1.15-6.24.13.11.28.18.43.29.76.61,1.64,1.38,2.61,2.24.28.25.56.49.83.76.52.49,1.07,1,1.62,1.54,2.72,2.61,5.81,5.85,8.86,9.21l1,1.14c.56.59,1.1,1.22,1.65,1.83l1.78,2.05c1.81,2.11,3.5,4.17,5,6.11.42.51.82,1,1.18,1.54C194.9,317.8,197,321.69,194.47,321.36Z"/><path class="cls-56" d="M194.47,321.36s-5-1.95-11.67-4.93c-.57-.25-1.18-.53-1.79-.82-3-1.37-6.29-2.92-9.52-4.57-.31-.16-.62-.33-.94-.48a6.58,6.58,0,0,0,3.5-.44c2.8-1.21-2.76-12.47-2.76-12.47s4.27,1,8.93,2.13l1,1.14c.56.59,1.1,1.22,1.65,1.83l1.78,2.05c1.81,2.11,3.5,4.17,5,6.11.42.51.82,1,1.18,1.54C194.9,317.8,197,321.69,194.47,321.36Z"/><path class="cls-11" d="M175.56,270.82a19.68,19.68,0,0,1-3.08,3.73s-7.2,1.36-12.53-3.59c-.24-.23-.44-.43-.61-.62-3.41-3.88,9.54.63,9.54.63s-5.77-13.25-3.11-15.09,6.52,13.72,6.52,13.72,3.07-8.37,6.85-8.4C181.49,261.18,178.3,266.69,175.56,270.82Z"/><path class="cls-24" d="M170.9,272.76c-4.26.77-9.16-1.29-11.55-2.43a6.7,6.7,0,0,0,.6.62c5.32,4.95,12.5,4.32,12.5,4.32s1.47-2,3.1-4.45A12.59,12.59,0,0,1,170.9,272.76Z"/><path class="cls-22" d="M188.39,318.55c0,.24,0,.47,0,.71l0,.69c0,.42-.06.81-.11,1.18s-.12.74-.19,1c0,.11-.07.22-.11.31s-.06.21-.1.29l-.08.14,0,0a.64.64,0,0,1-.13.18.47.47,0,0,1-.18.14c-.24.16-.56.08-.94-.24h0a.1.1,0,0,1,0,0l0,0c0-.05-.12-.16-.23-.33l0,0c-.19-.26-.45-.64-.76-1.13s-.54-.77-.85-1.23c-.73-1.07-1.62-2.42-2.62-4-.63-1-1.3-2-2-3.12q-.33-.51-.66-1.05l-.31-.49c-.41-.67-.82-1.34-1.25-2-1.26-2.07-2.53-4.25-3.79-6.46-.37-.69-.74-1.37-1.13-2.05-.81-1.48-1.56-2.95-2.28-4.41v0h0a73.21,73.21,0,0,1-3.33-7.7c-.25-.7-.44-1.36-.62-2a17.62,17.62,0,0,1-.67-3.36c-1.08-11.71,13.41-13.22,16.9-2.59.36,1.12.75,2.52,1.14,4.11.15.65.32,1.32.46,2,.62,2.8,1.24,6,1.78,9.41.2,1.23.4,2.48.58,3.74.11.76.22,1.52.32,2.28s.23,1.73.34,2.57.2,1.7.29,2.52c.18,1.65.34,3.25.44,4.76,0,.59.09,1.21.12,1.76v0C188.36,315.82,188.41,317.29,188.39,318.55Z"/><path class="cls-52" d="M171.47,275c-3.49.77-4.74,4.36-2.92,6.06s6.79-1.48,10.77,1.18S180.49,273,171.47,275Z"/><path class="cls-53" d="M180,313.14l-1-1.55c1.56-.63,3.62-1.31,4.65-1.06S182.27,312.05,180,313.14Z"/><path class="cls-53" d="M173.94,303.11c-.38-.68-.76-1.36-1.13-2.05,2.67-1.22,6.55-2.84,8-2.77C182.53,298.39,177.2,301.37,173.94,303.11Z"/><path class="cls-53" d="M167.19,288.94c-.24-.7-.44-1.36-.62-2,2.77-1,8.38-3,10.16-2.82C178.82,284.28,171.56,287.16,167.19,288.94Z"/><path class="cls-53" d="M188.16,312.4c.05.61.09,1.23.12,1.81-2.41.45-4.79.73-4.17,0S186.58,312.82,188.16,312.4Z"/><path class="cls-53" d="M186.76,300.28c.12.76.22,1.52.33,2.28-3.67.51-9.18,1.13-7.94.12C180.24,301.79,183.93,300.88,186.76,300.28Z"/><path class="cls-53" d="M174.12,288.79c1.34-1.14,7-2.86,9.82-3.69.15.65.31,1.32.46,2C179.81,288.27,172.54,290.13,174.12,288.79Z"/><path class="cls-56" d="M188.39,318.55c0,.24,0,.47,0,.71l0,.69c0,.42-.06.81-.11,1.18s-.12.74-.19,1c0,.11-.07.22-.11.31s-.06.21-.1.29l-.08.14,0,0a.64.64,0,0,1-.13.18.47.47,0,0,1-.18.14c-.24.16-.56.08-.94-.24l0,0,0,0-.23-.33,0,0c0-.08-.11-.16-.18-.27s-.37-.52-.58-.86-.54-.77-.85-1.23c-.56-.85-1.25-1.88-2-3-.21-.3-.41-.61-.62-.93-.63-1-1.3-2-2-3.12q-.33-.51-.66-1.05l-.3-.49c-.41-.67-.83-1.34-1.26-2-1.26-2.07-2.53-4.25-3.79-6.46-.37-.69-.74-1.37-1.13-2.05-.79-1.47-1.56-3-2.29-4.43,1.85,2.39,4.2,5,6.14,5.85a2.38,2.38,0,0,0,1.76.2,12.38,12.38,0,0,0,5.69-4.77,9.86,9.86,0,0,1,2.07-1.38c.2,1.23.4,2.48.58,3.74.11.76.22,1.52.32,2.28s.23,1.73.34,2.57.2,1.7.29,2.52c.18,1.65.34,3.25.44,4.76,0,.59.09,1.21.12,1.76v0C188.36,315.82,188.41,317.29,188.39,318.55Z"/><path class="cls-8" d="M272.9,254.83s-4.45,5.14-7.41,5.73-3.77.79-3.77.79a5.85,5.85,0,0,1-1.48,3.19,9.36,9.36,0,0,1-4.36,2.75,11.61,11.61,0,0,1-9.59-.69s-.69-8.41,6.33-9.89a6.18,6.18,0,0,1,4.19-2.95,9.74,9.74,0,0,1,3.83,0A79,79,0,0,0,272.9,254.83Z"/><path class="cls-11" d="M237.64,275.29s8.5-11.6,18.15-15.69c0,0-11.28,7.85-16.51,16.67Z"/><path class="cls-24" d="M260.24,264.54a9.36,9.36,0,0,1-4.36,2.75,11.61,11.61,0,0,1-9.59-.69s-.69-8.41,6.33-9.89a6.18,6.18,0,0,1,4.19-2.95c-.07,2.24-.87,7-6.09,8.68C244.59,264.37,254.31,267.59,260.24,264.54Z"/><path class="cls-8" d="M242.55,263s-11.12-9.15,2.94-17.65c0,0-.33-5.56,7.84-9.16a100.15,100.15,0,0,0,12.76-6.54s-4.91,6.54-5.07,11.12-5.23,8-5.23,8S258.08,261.89,242.55,263Z"/><path class="cls-11" d="M239,272s9.15-28.93,23.38-39.23c0,0-16.19,18.64-22.24,39.56Z"/><path class="cls-17" d="M249,294.2c-2.13,6.22-5.26,10.75-7,10.68a5.64,5.64,0,0,1-6,1.21s-4.71,3-8,.73c0,0-5.7,2.54-8.35-2.3a9.77,9.77,0,0,1-3.81-1c-2.35-1.13-5.06-3.55-5.84-8.74-.06-.38-.1-.76-.14-1.17-.48-5.27-.73-11.73.3-16.92,1.09-5.53,3.65-9.61,9-9.23a6.09,6.09,0,0,1,5.13-3.84,7,7,0,0,1,5.76,2.24,8.72,8.72,0,0,1,6.81-1.6,5.61,5.61,0,0,1,4.64,3.91,1.15,1.15,0,0,1,.07.26s8.78-1.54,9.62,10.78A38.88,38.88,0,0,1,249,294.2Z"/><path class="cls-26" d="M249,294.2c-2.13,6.22-5.26,10.75-6.95,10.68a5.65,5.65,0,0,1-6.05,1.21s-4.71,3-8,.73c0,0-5.7,2.54-8.34-2.29a9.75,9.75,0,0,1-3.82-1,9.49,9.49,0,0,1-3.17-2.43l-.34-.41a2.19,2.19,0,0,1-.25-.37c-.11-.15-.21-.3-.3-.44a9.76,9.76,0,0,1-.74-1.4,2.86,2.86,0,0,1-.2-.48,7.63,7.63,0,0,1-.26-.72c-.09-.26-.16-.53-.23-.8a13.62,13.62,0,0,1-.35-1.69c-.06-.38-.1-.76-.14-1.16-.47-5.27-.73-11.74.3-16.93a6.9,6.9,0,0,0,1.94,3.37c2.16,1.71,3.55,1.21,3.55,1.21a6.76,6.76,0,0,0,2.62,6.79,11,11,0,0,0,.91-3c-.08,1.14-.45,6.08-.61,9.47,0,.21,0,.43,0,.65,0,.47,0,.92,0,1.29,0,.57,2.47,5.72,6,4.54S231,283.89,231,283.89s-.39,11.67.26,14.9,5.38,1.5,6.41-1.68,2-14,2-14a27.5,27.5,0,0,1,.51,9.39c-.64,4.86,3.11,5.63,4.68,2.59s1.54-13.67,1.54-13.67,1.36,6.16.66,10.69C246.65,294.33,247.73,294.77,249,294.2Z"/><path class="cls-25" d="M237.16,273.46a15.86,15.86,0,0,1,2.13,7.64c-.38-5.17-5.12-7.83-6.6-6.92s-1.43,5.42-1.43,6.18c0-.94-.13-7.19-2.72-6.77-2.79.45-7.59,6-7.59,6,.65-2.44,1.4-5.06,2.32-6.18-1.29-.39-4.1-.86-6.73,3.34.28-.68,1.6-8.47,10.37-4.74a8,8,0,0,0-6.08-3.58c6.67-.19,7.65,3.32,8.35,1.57a17,17,0,0,0,.94-4.08c-.16,2.68,2.24,7.7,5.28,4.59s6.09-2.27,6.09-2.27h.08a1.15,1.15,0,0,1,.07.26,3.27,3.27,0,0,0-2,1.7,6.48,6.48,0,0,1,5,5.7C242.4,270.88,235,270.22,237.16,273.46Z"/><path class="cls-17" d="M217.8,301.43a13.18,13.18,0,0,1-.19,2.27,8.86,8.86,0,0,1-2,4.48,8,8,0,0,1-3.91,2.53s-.83,3-2.87,3.82a4.35,4.35,0,0,1-3.83-.41,7.41,7.41,0,0,1-4.77,1.64,10.74,10.74,0,0,1-3.53-.72,20.55,20.55,0,0,1-3.3-1.47s-1,1.36-5.87-1.08-13.37-10.25-13.37-20.22a20.14,20.14,0,0,1,.32-5.44c.61-2.61,2.09-4.24,5.14-5.19a8.67,8.67,0,0,1,8.87-5.6c2.9-3.19,6.76-4,11.33-3,0,0,5.47-3,9.83,1.08S217.8,293.51,217.8,301.43Z"/><path class="cls-25" d="M179.41,283.12c-.07.28,5.38,12.28,11.86,18.76s-11.79-3.52-14.28-10.83S179.41,283.12,179.41,283.12Z"/><path class="cls-26" d="M215.57,308.18a8,8,0,0,1-3.91,2.53s-.83,3-2.87,3.82a4.35,4.35,0,0,1-3.83-.41,7.41,7.41,0,0,1-4.77,1.64,10.74,10.74,0,0,1-3.53-.72,20.55,20.55,0,0,1-3.3-1.47s-1,1.36-5.87-1.08-13.37-10.25-13.37-20.22a20.14,20.14,0,0,1,.32-5.44c.46,3.91,2.69,9.15,9.63,14.59,14.08,11,20.56,8.85,29.08,6.14A2,2,0,0,1,215.57,308.18Z"/><path class="cls-25" d="M192.62,274.79c.2-.19,1.92-2,6.72-.53s10.82,15.37,10.3,21.56-6.46-6-10.74-11.26S190.52,276.71,192.62,274.79Z"/><path class="cls-25" d="M182.27,279.89a6,6,0,0,1,7.69-1.65c3.57,1.65,9.25,12.91,9.68,17.71s-5.41-.69-10.21-7.41S180,282.51,182.27,279.89Z"/><path class="cls-25" d="M204.4,273.57c3.41.09,6.37,2.18,9.51,10.73s2.19,12.92.62,13.44-.62-7.94-4.8-14.31S201.17,273.48,204.4,273.57Z"/><path class="cls-26" d="M217.61,302.67a8.4,8.4,0,0,1-6,7s-.83,3-2.86,3.82a4.31,4.31,0,0,1-3.83-.41,7.41,7.41,0,0,1-4.77,1.64,10.64,10.64,0,0,1-3.53-.72,2.11,2.11,0,0,0-1.19-1.11c-2.16-.88-1.52-1.85-1.52-1.85,2.16.17,5.37-1.19,3.21-2.4a4.17,4.17,0,0,1-2.32-3c.63.72,6.08,2.48,7.11-.08.79-1.93-.06-5.15-.54-6.62,1.16,3.12,3.51,6.15,6.47,5.34s3.12-6.54,3.12-7.08a23.56,23.56,0,0,1-.16,7.49s.64,2.39,3.92.55A9,9,0,0,0,217.61,302.67Z"/><path class="cls-25" d="M204.45,309.75c.88-.73,2.8,1.05,1.44,1.85S202.61,311.28,204.45,309.75Z"/><path class="cls-57" d="M247.46,326.73s-10.32,43.47-15.36,43.69-20-36.65-20-36.65l3.56-1.54s11.75,30.07,16.24,30.07c3.07,0,10.53-33.15,10.53-33.15Z"/><path class="cls-44" d="M269.07,335s-10.32,43.47-15.36,43.69-20-36.65-20-36.65l3.56-1.54s11.76,30.07,16.24,30.07c3.07,0,10.53-33.15,10.53-33.15Z"/><path class="cls-57" d="M190,337.14l-17.25,45.79a2.86,2.86,0,0,0,1.55,3.64h0a2.86,2.86,0,0,0,3.63-1.26l25-46.07Z"/><circle class="cls-58" cx="176.02" cy="382.69" r="18.22" transform="translate(-219.05 236.55) rotate(-45)"/><circle class="cls-59" cx="182.03" cy="384.49" r="18.22" transform="translate(-234 473.32) rotate(-76.72)"/><circle class="cls-58" cx="182.03" cy="384.49" r="7.31"/><path class="cls-44" d="M209,341.05l-8.45,15.53L184,387.11a2.81,2.81,0,0,1-2.5,1.49,2.74,2.74,0,0,1-1.12-.23,2.83,2.83,0,0,1-1.55-3.63l9.44-25.06L196.05,339Z"/><polygon class="cls-57" points="209.01 341.05 200.56 356.58 188.24 359.68 196.05 338.95 209.01 341.05"/><polygon class="cls-57" points="134.36 303.07 179.21 316.74 196.38 355.27 161.34 344.06 134.36 303.07"/><polygon class="cls-44" points="288.17 281.7 287.54 283.63 270.3 337.41 215.09 350.75 196.38 355.28 179.21 316.74 288.17 281.7"/><path class="cls-45" d="M287.54,283.63,270.3,337.41l-55.2,13.34C258.36,326.72,280.1,296,287.54,283.63Z"/><path class="cls-43" d="M334.78,154.66s-8.13,10.66-14.85,9.74-2.66-7-2.66-7-.51-2.69-1-5.54c-.59-3.18-1.2-6.56-1.2-6.75l18.1-12.3.38,5.07Z"/><path class="cls-37" d="M333.53,137.91c-1.91,4.26-6.95,12.75-17.28,14-.59-3.18-1.2-6.56-1.2-6.75l18.1-12.3Z"/><path class="cls-43" d="M309.86,104.55s-4.11,4.59-4.6,14.75-1.45,21,4.11,25.87,17.41-.24,22-8.94c0,0,3.14-13.06,2.9-24.91S313,93.43,309.86,104.55Z"/><path class="cls-19" d="M314.38,119.8a3,3,0,0,1,1.12-2.48c1.3-1.18,7.37-.37,8.42,2.73C323.92,120.05,318.53,118.19,314.38,119.8Z"/><path class="cls-19" d="M309.62,119.8a2.55,2.55,0,0,0-.25-2c-.59-1.18-3.56-.87-4,2.22C305.34,120,307.76,118.19,309.62,119.8Z"/><path class="cls-19" d="M319.28,124.1c0,1.39-.83,2.51-1.86,2.51s-1.86-1.12-1.86-2.51.83-2.51,1.86-2.51S319.28,122.72,319.28,124.1Z"/><path class="cls-38" d="M318.36,123.24a.63.63,0,1,1-1.23,0,.63.63,0,1,1,1.23,0Z"/><path class="cls-19" d="M310.37,124.1c0,1.39-.83,2.51-1.85,2.51s-1.86-1.12-1.86-2.51.83-2.51,1.86-2.51S310.37,122.72,310.37,124.1Z"/><path class="cls-38" d="M309.46,123.24a.7.7,0,0,1-.62.75.69.69,0,0,1-.61-.75.68.68,0,0,1,.61-.74A.69.69,0,0,1,309.46,123.24Z"/><path class="cls-19" d="M311.61,127a22.62,22.62,0,0,0-3.69,5.81c-1.2,3,3.64,3.23,5.67,1.53,0,0-4.3,1-4.61-1.16C308.75,131.6,311.61,127,311.61,127Z"/><path class="cls-19" d="M320.85,136.65a7.29,7.29,0,0,1-1.56,3.35c-1.36,1.6-3.8,2.85-8.16,2.43l-.32-1.18-.74-2.85-.45-1.74s4,1.51,11.4-1.66A6.74,6.74,0,0,1,320.85,136.65Z"/><path class="cls-38" d="M320.85,136.65a18.52,18.52,0,0,1-10.78,1.75l-.45-1.74s4,1.51,11.4-1.66A6.74,6.74,0,0,1,320.85,136.65Z"/><path class="cls-39" d="M319.29,140c-1.36,1.6-3.8,2.85-8.16,2.43l-.32-1.18a6.66,6.66,0,0,1,.7-.52,8,8,0,0,1,6.73-1A8.39,8.39,0,0,1,319.29,140Z"/><path class="cls-60" d="M319.29,140c-1.36,1.6-3.8,2.85-8.16,2.43l-.32-1.18a6.66,6.66,0,0,1,.7-.52,1.83,1.83,0,0,0,.68,1c1.29,1.05,5.31-.22,6.05-2A8.39,8.39,0,0,1,319.29,140Z"/><path class="cls-19" d="M344.23,117.31a30.28,30.28,0,0,1-1.13,5.4c-3.09,10.25-9.76,12.66-9.76,12.66l-.11-9.18-3.87,1.94-.21-8.33a5.55,5.55,0,0,1-2.62-2.64c-1.59-3.12-1.06-7.44-1.06-7.44h0c-.95.34-19.18,6.73-21.45-2.52a12.92,12.92,0,0,1-.38-2.65c-.37-7.68,6.57-11.3,6.57-11.3.59,3.09,3.1,2.32,14.53,2.52s12.59,7,12.59,7C342.36,103.54,345.1,109.53,344.23,117.31Z"/><path class="cls-20" d="M333.65,104.94a37,37,0,0,1-8.18,4.78h0c-.95.34-19.18,6.73-21.45-2.52a12.92,12.92,0,0,1-.38-2.65,6.83,6.83,0,0,0,3.25,3.49c5.81,3.25,20.13-2.58,20.13-2.58s-2.85.47-8.4-.57-7.44-3.25-7.44-3.25a29,29,0,0,0,11.08,1c5.91-.67,8.73,1.15,8.73,1.15s-1.05-3.37-6-3.94-7.37-2.85-7.37-2.85A26.18,26.18,0,0,0,327,98.68c5.65,0,8.95,1.83,10.31,4.07,0,0-2.07,1.66-7,2.24A30.53,30.53,0,0,0,333.65,104.94Z"/><path class="cls-20" d="M344.23,117.31a30.28,30.28,0,0,1-1.13,5.4c-3.09,10.25-9.76,12.66-9.76,12.66l-.11-9.18-3.87,1.94-.21-8.33a5.55,5.55,0,0,1-2.62-2.64,17.68,17.68,0,0,0,9.55,2.45s-1.71-.43-3.93-3.87a11.9,11.9,0,0,0,6.21,2.44,29.84,29.84,0,0,1-2.58-2.93,10.08,10.08,0,0,0,5.25,2.38A5.88,5.88,0,0,0,344.23,117.31Z"/><path class="cls-43" d="M330.25,129.14l1.27-4.53s3.48-3.24,6.62-.69S336.63,134.7,330.6,136Z"/><path class="cls-37" d="M332.61,128.51s1.58-3.52,3.61-3.47,1.82,2.37,1.82,2.37-3.19,5.34-5.83,4.39c0,0,1.57-1.05,1.37-2.16S332.61,128.51,332.61,128.51Z"/><path class="cls-19" d="M332.21,131.8s1.43-.9,1.4-1.82-1.27-1.25-1.27-1.25,1.19-4.11,3.82-4.11,1.88,2.79,1.88,2.79,0-2.15-1.75-2.2-2.89,3.21-2.89,3.21S336.1,130.19,332.21,131.8Z"/></g></g></g></svg>