<svg xmlns="http://www.w3.org/2000/svg" viewBox="0 0 167.68 233.97"><defs><style>.cls-1,.cls-3{opacity:0.2;}.cls-2,.cls-3{fill:#888cf0;}.cls-4{fill:#efd7bc;}.cls-5{fill:#e5ba9c;}.cls-6{fill:#414074;}.cls-7{fill:#fff;}.cls-8{fill:none;stroke:#fff;stroke-linecap:round;stroke-miterlimit:10;stroke-width:0.68px;}.cls-9{fill:#00344e;}.cls-10{fill:#ffc979;}.cls-11{fill:#1b242d;opacity:0.1;}.cls-12{fill:#001228;}.cls-13{fill:#ccab8b;}</style></defs><g id="OBJECTS"><g class="cls-1"><path class="cls-2" d="M150,129q-14.21,20.31-48.43,27.6-19.78,4.23-35.56,1a65.42,65.42,0,0,1-27.11-11.87,70.49,70.49,0,0,1-18.56-21.27A92.22,92.22,0,0,1,10.12,97.75q-3.61-16.9-1.21-29.9a52.68,52.68,0,0,1,9.61-22.6,58.54,58.54,0,0,1,18.81-15.9,96.72,96.72,0,0,1,26.83-9.64q19-4,33.24-1.77A71.65,71.65,0,0,1,122,26.22a61.68,61.68,0,0,1,17.06,14.24,92.74,92.74,0,0,1,10.74,16,75.42,75.42,0,0,1,5.78,13.95c1.16,4.1,1.87,6.73,2.09,7.77Q164.23,108.75,150,129Z"/></g><ellipse class="cls-3" cx="79.99" cy="221.5" rx="49.9" ry="7.71"/><polygon class="cls-4" points="65.81 207.21 67.26 220.18 75.41 217.66 74.66 214.87 73.54 201.44 65.81 207.21"/><path class="cls-5" d="M74.33,210.47l-.79-9-7.73,5.77.43,3.51C68.86,210.23,71.67,210.76,74.33,210.47Z"/><path class="cls-6" d="M66.66,215.42l2,1.39,7.12-1,0,7-21.6.54s-.51-1,.7-2.59C56.42,218.7,66.66,215.42,66.66,215.42Z"/><path class="cls-7" d="M59.61,218c-2.16.92-4.15,1.93-4.78,2.76-1.21,1.59-.7,2.59-.7,2.59l8-.2C61.4,221.42,60.55,219.71,59.61,218Z"/><polygon class="cls-7" points="55.08 222.05 54.13 223.37 75.73 222.83 75.72 221.18 55.08 222.05"/><polygon class="cls-6" points="65.14 216.2 64.46 212.75 69.16 213.37 67.83 218.14 65.14 216.2"/><line class="cls-8" x1="61.38" y1="217.24" x2="62.69" y2="218.95"/><line class="cls-8" x1="63" y1="216.56" x2="64.32" y2="218.27"/><line class="cls-8" x1="64.71" y1="215.93" x2="66.02" y2="217.65"/><polygon class="cls-9" points="75.72 221.51 54.03 222.47 54.02 222.8 75.77 222.03 75.72 221.51"/><polygon class="cls-4" points="95.47 208 96.91 220.97 105.06 218.45 104.31 215.66 103.19 202.23 95.47 208"/><path class="cls-5" d="M104,211.56l-.8-9.33L95.47,208l.44,3.55A35,35,0,0,0,104,211.56Z"/><path class="cls-6" d="M96.32,216.22l2,1.38,7.13-1,0,7-21.59.53s-.52-1,.7-2.59C86.07,219.49,96.32,216.22,96.32,216.22Z"/><path class="cls-7" d="M89.27,218.82c-2.17.92-4.15,1.93-4.78,2.75-1.22,1.59-.7,2.59-.7,2.59l8-.2C91.05,222.22,90.2,220.5,89.27,218.82Z"/><polygon class="cls-7" points="84.73 222.84 83.79 224.16 105.38 223.63 105.38 221.98 84.73 222.84"/><polygon class="cls-6" points="94.8 216.99 94.11 213.54 98.81 214.16 97.49 218.93 94.8 216.99"/><line class="cls-8" x1="91.03" y1="218.03" x2="92.35" y2="219.75"/><line class="cls-8" x1="92.65" y1="217.35" x2="93.97" y2="219.07"/><line class="cls-8" x1="94.36" y1="216.73" x2="95.68" y2="218.44"/><polygon class="cls-9" points="105.37 222.31 83.68 223.27 83.68 223.6 105.43 222.83 105.37 222.31"/><path class="cls-10" d="M57.24,114.39s-4.16,46.17,7.17,94.33l11.17.34s-1.72-44.17-.67-78.34l4.33.34s9.58,56,14.84,79.16l10.66.5s-6.13-75.82-8.23-97.37S57.24,114.39,57.24,114.39Z"/><path class="cls-11" d="M74.91,130.72l.3,0c-6-.89-15.29-3.31-18.59-4.2-.47,16.87,0,49.05,7.79,82.17l11.17.34S73.86,164.89,74.91,130.72Z"/><path class="cls-11" d="M97.12,119.9c-.23-2.52-.44-4.73-.61-6.55-2.11-21.55-39.27,1-39.27,1s-.24,2.74-.45,7.56C76.33,124.05,91,121.37,97.12,119.9Z"/><path class="cls-4" d="M44.45,115.39l-9.15,6.06-.4,1.43c-.63.32-4.25,2.2-3.47,2.72.48.34,1.79.05,2.81-.26-1.24,4.76-2.72,11.27.88,3.17,0,0-2.88,15.69,1.75.32,0,0-2.38,15.43,1.81.37,0,0-2.13,11.81,1.5.56C44.8,115.42,44.45,115.39,44.45,115.39Z"/><path class="cls-5" d="M44.45,115.39l-9.15,6.06-.4,1.43L41.37,126C44.74,115.41,44.45,115.39,44.45,115.39Z"/><path class="cls-2" d="M97.76,64.53s25.1-39.24,21.51-45.78-36.37-3-36.37-3v7l21.34,3.62-14.5,22.5s-22.2,0-30.4,3.57-25.1,69.43-25.1,69.43L43,125.41s6.15-16.57,12-32.53c-.52,8.84-.63,18.17.32,25.49,0,0,21.52,6,44.05-.51C99.29,117.86,94.68,83.15,97.76,64.53Z"/><path class="cls-11" d="M54.71,112.34c.11,2.11.29,4.14.53,6,0,0,21.52,6,44.05-.51,0,0-1.22-9.27-2-20.79C84.78,105.33,69.88,109.72,54.71,112.34Z"/><path class="cls-11" d="M91,15.09c-4.68.28-8,.64-8,.64v7L90,24C90.24,21,90.62,18.05,91,15.09Z"/><path class="cls-11" d="M43,125.41s6.15-16.57,12-32.53c-.35,5.94,1.37-22.2,2.82-39.09-8.6,10-23.5,68.1-23.5,68.1Z"/><path class="cls-4" d="M82.55,34.38l.92,14.33,4.68.18s-11.09,9.17-20,1.42l4.89-.65L72.4,42Z"/><path class="cls-5" d="M82.85,39.59l-.3-5.21L72.4,42l.5,5.73C76,47,81.18,45,82.85,39.59Z"/><path class="cls-6" d="M84.56,31.58s-.92,5-1.87,5.32-.29-4.76-.29-4.76Z"/><path class="cls-4" d="M61.5,19.66s0,10.89.63,17.24,5.17,8.73,9.06,8.5C75.78,45.12,83,41,82.78,35.72l-.21-9.67s.84-8-4.55-10.55S62.52,14.13,61.5,19.66Z"/><path class="cls-4" d="M82,28.61s.74-4.12,2.66-3.3,1.85,8.56-2,8.16S82,28.61,82,28.61Z"/><path class="cls-6" d="M82.58,26.72v2.84l-1.67-.34-.17-3.16a9.13,9.13,0,0,1-4.66-7.17s-3,3.67-7.5,3.67l2.33-2.17a24.56,24.56,0,0,1-10.67,2.67l-.16-2.67-3.67,2s2.5-12.67,12.67-12.5,7.5,6.17,7.5,6.17,1-4.67,6.66-3.34,1.84,13.17,1.84,13.17S83.08,23.72,82.58,26.72Z"/><path class="cls-6" d="M64.58,10.56s12.5-4,15.5,3.66-9.84,1.17-9.84,1.17Z"/><path class="cls-12" d="M71.47,29.4s.22.33.57.79a5.73,5.73,0,0,0,.63.73,2,2,0,0,0,.39.32.49.49,0,0,0,.22.1.32.32,0,0,0,.21,0,.67.67,0,0,0,.41-.09,1.42,1.42,0,0,0,.36-.33,3.79,3.79,0,0,0,.3-.4l.24-.39c.27-.51.47-.85.47-.85a2.46,2.46,0,0,1,0,.26,5.27,5.27,0,0,1-.17.7,3.25,3.25,0,0,1-.46.94,1.87,1.87,0,0,1-.44.45,1.19,1.19,0,0,1-.69.2.7.7,0,0,1-.35-.09.87.87,0,0,1-.3-.16,2.22,2.22,0,0,1-.45-.41,4.21,4.21,0,0,1-.56-.87A4.91,4.91,0,0,1,71.47,29.4Z"/><path class="cls-12" d="M62.79,29.91s.22.33.57.79a5.73,5.73,0,0,0,.63.73,2,2,0,0,0,.39.32.72.72,0,0,0,.22.1.39.39,0,0,0,.21,0,.61.61,0,0,0,.41-.1,1.26,1.26,0,0,0,.36-.33,2.88,2.88,0,0,0,.3-.39l.24-.39c.27-.51.47-.85.47-.85s0,.09,0,.26-.08.42-.17.7a3.59,3.59,0,0,1-.47.94,1.7,1.7,0,0,1-.44.45,1.15,1.15,0,0,1-.69.2.82.82,0,0,1-.35-.09.9.9,0,0,1-.29-.16,2.31,2.31,0,0,1-.46-.41,3.94,3.94,0,0,1-.55-.88A4.44,4.44,0,0,1,62.79,29.91Z"/><path class="cls-13" d="M67.87,26.89a35.56,35.56,0,0,1-.25,3.86c-.07.64-.14,1.28-.24,1.92s-.18,1.27-.31,1.91L67,34.43c.72.6,1.42,1.23,2.11,1.87q-1.17-.78-2.31-1.62l-.07,0v-.09c0-.65.1-1.29.17-1.93s.15-1.28.25-1.92A38.41,38.41,0,0,1,67.87,26.89Z"/><path class="cls-6" d="M69.74,25.22a1.85,1.85,0,0,0,1.84,1.67c1.66,0,4.16-.33,5.33,1.5a2,2,0,0,0-1.5-2.83A27.44,27.44,0,0,0,69.74,25.22Z"/><path class="cls-6" d="M67.75,25.06s-.13,1.66-1.51,1.66-3.43-.33-4.39,1.5c0,0-.82-2.33,1.23-2.83A18.43,18.43,0,0,1,67.75,25.06Z"/><path class="cls-13" d="M67.41,39.39a2.9,2.9,0,0,1,.76-1.11,4,4,0,0,1,.54-.4,3,3,0,0,1,.67-.32,4.28,4.28,0,0,1,.79-.17,3.82,3.82,0,0,1,.83,0,4.28,4.28,0,0,1,.81.13,4.63,4.63,0,0,1,.75.22,7.7,7.7,0,0,1,1.25.59,9.36,9.36,0,0,1,.81.54l.29.22-.34-.14-.88-.38c-.37-.13-.79-.3-1.26-.42a3.45,3.45,0,0,0-.72-.18,3.65,3.65,0,0,0-.74-.09,3.77,3.77,0,0,0-.75,0,4,4,0,0,0-.71.12,5.16,5.16,0,0,0-.63.23,3.45,3.45,0,0,0-.54.3A3.73,3.73,0,0,0,67.41,39.39Z"/><path class="cls-7" d="M75.62,31.39s-.88,3.5.62,3.5S75.62,31.39,75.62,31.39Z"/></g></svg>