<?xml version="1.0" encoding="iso-8859-1"?>
<!-- Generator: Adobe Illustrator 19.0.0, SVG Export Plug-In . SVG Version: 6.00 Build 0)  -->
<svg version="1.1" id="Capa_1" xmlns="http://www.w3.org/2000/svg" xmlns:xlink="http://www.w3.org/1999/xlink" x="0px" y="0px"
	 viewBox="0 0 512 512" style="enable-background:new 0 0 512 512;" xml:space="preserve">
<g>
	<rect x="355.68" y="170.77" style="fill:#BA6645;" width="25.549" height="45.46"/>
	<rect x="130.78" y="170.77" style="fill:#BA6645;" width="25.549" height="45.46"/>
</g>
<path style="fill:#54D195;" d="M386.03,442.49v62.01c0,4.14-3.36,7.5-7.5,7.5H133.47c-4.14,0-7.5-3.36-7.5-7.5v-62.01
	c0-55.2,44.92-100.11,100.12-100.11h59.82C341.11,342.38,386.03,387.29,386.03,442.49z"/>
<path style="fill:#39B375;" d="M285.911,342.375h-7.598c41.181,0,74.684,44.911,74.684,100.115v62.01c0,4.142-2.505,7.5-5.595,7.5
	h31.123c4.142,0,7.5-3.358,7.5-7.5v-62.01C386.025,387.286,341.114,342.375,285.911,342.375z"/>
<path style="fill:#FFD2C0;" d="M128.553,216.227h254.893c12.287,0,22.247,9.96,22.247,22.247l0,0
	c0,12.286-9.96,22.247-22.247,22.247H128.553c-12.287,0-22.247-9.96-22.247-22.247l0,0
	C106.307,226.187,116.267,216.227,128.553,216.227z"/>
<path style="fill:#F4AE98;" d="M222.805,307v48.634c0,18.33,14.865,33.195,33.195,33.195c9.165,0,17.467-3.713,23.469-9.726
	c6.013-6.002,9.727-14.304,9.727-23.469V307H222.805z"/>
<path style="fill:#BA6645;" d="M360.66,459.54V512H151.34v-52.46c0-2.6,1.35-5.02,3.57-6.39l13.98-8.6v-20.09
	c0-4.15,3.36-7.5,7.5-7.5h159.22c4.14,0,7.5,3.35,7.5,7.5v20.09l13.98,8.6C359.31,454.52,360.66,456.94,360.66,459.54z"/>
<g>
	<path style="fill:#434259;" d="M312.135,446.527c-4.142,0-7.5-3.358-7.5-7.5v-94.998c0-4.142,3.358-7.5,7.5-7.5s7.5,3.358,7.5,7.5
		v94.998C319.635,443.169,316.277,446.527,312.135,446.527z"/>
	<path style="fill:#434259;" d="M199.865,446.527c-4.142,0-7.5-3.358-7.5-7.5v-94.998c0-4.142,3.358-7.5,7.5-7.5s7.5,3.358,7.5,7.5
		v94.998C207.365,443.169,204.007,446.527,199.865,446.527z"/>
</g>
<path style="fill:#FFD2C0;" d="M355.676,163.267H156.324c-4.142,0-7.5,3.358-7.5,7.5v56.943
	c0,59.097,48.079,107.176,107.176,107.176s107.176-48.079,107.176-107.176v-56.943C363.176,166.625,359.818,163.267,355.676,163.267
	z"/>
<path style="fill:#F4AE98;" d="M355.676,163.267h-24.964c3.105,0,5.622,3.358,5.622,7.5v56.943
	c0,59.097-36.038,107.176-80.333,107.176c59.097,0,107.176-48.079,107.176-107.176v-56.943
	C363.176,166.625,359.818,163.267,355.676,163.267z"/>
<g>
	<path style="fill:#434259;" d="M304.94,221.33c-0.49,0-0.99-0.05-1.47-0.15c-0.48-0.09-0.95-0.24-1.4-0.42
		c-0.46-0.19-0.89-0.42-1.3-0.69c-0.41-0.28-0.79-0.59-1.14-0.94c-1.39-1.39-2.19-3.32-2.19-5.3c0-0.49,0.04-0.98,0.14-1.46
		c0.1-0.48,0.24-0.96,0.43-1.41s0.42-0.89,0.69-1.29c0.27-0.41,0.59-0.8,0.93-1.14c0.35-0.35,0.73-0.66,1.14-0.94
		c0.41-0.27,0.84-0.5,1.3-0.69c0.45-0.18,0.92-0.33,1.4-0.42c2.43-0.5,5.03,0.31,6.77,2.05c1.4,1.39,2.2,3.33,2.2,5.3
		s-0.8,3.91-2.2,5.3C308.84,220.53,306.91,221.33,304.94,221.33z"/>
	<path style="fill:#434259;" d="M207.06,221.33c-0.48,0-0.98-0.05-1.46-0.15c-0.48-0.09-0.95-0.24-1.4-0.42
		c-0.46-0.19-0.89-0.42-1.3-0.69c-0.41-0.28-0.79-0.59-1.14-0.94c-1.4-1.39-2.2-3.33-2.2-5.3c0-0.49,0.05-0.98,0.15-1.47
		c0.1-0.47,0.24-0.95,0.43-1.4c0.19-0.45,0.42-0.89,0.69-1.29c0.27-0.41,0.59-0.8,0.93-1.14c0.35-0.35,0.73-0.66,1.14-0.94
		c0.41-0.27,0.84-0.5,1.3-0.69c0.45-0.18,0.92-0.33,1.4-0.42c2.44-0.5,5.03,0.3,6.77,2.05c0.34,0.34,0.66,0.73,0.93,1.14
		c0.27,0.4,0.5,0.84,0.69,1.29s0.33,0.93,0.43,1.4c0.1,0.49,0.14,0.98,0.14,1.47s-0.04,0.98-0.14,1.47c-0.1,0.47-0.24,0.95-0.43,1.4
		c-0.19,0.45-0.42,0.89-0.69,1.29c-0.27,0.41-0.59,0.8-0.93,1.14c-0.35,0.35-0.73,0.66-1.14,0.94c-0.41,0.27-0.84,0.5-1.3,0.69
		c-0.45,0.18-0.92,0.33-1.4,0.42C208.05,221.28,207.55,221.33,207.06,221.33z"/>
	<path style="fill:#434259;" d="M286,467.167h-60c-4.142,0-7.5-3.358-7.5-7.5s3.358-7.5,7.5-7.5h60c4.142,0,7.5,3.358,7.5,7.5
		S290.142,467.167,286,467.167z"/>
</g>
<path style="fill:#E1EEF7;" d="M256,283.528L256,283.528c-12.343,0-22.35-10.006-22.35-22.35v-13.979h44.699v13.979
	C278.35,273.522,268.343,283.528,256,283.528z"/>
<path style="fill:#F4BD7A;" d="M440.862,164.829l-59.099-45.609L353.629,5.696C352.8,2.35,349.797,0,346.35,0h-56.105
	c-1.111,0-2.208,0.247-3.211,0.722L256,15.426L224.967,0.722C223.963,0.247,222.866,0,221.755,0H165.65
	c-3.447,0-6.451,2.35-7.28,5.696L130.237,119.22l-59.099,45.609c-2.541,1.961-3.552,5.321-2.517,8.358
	c1.036,3.038,3.89,5.08,7.099,5.08h360.56c3.209,0,6.063-2.042,7.099-5.08C444.414,170.15,443.403,166.79,440.862,164.829z"/>
<path style="fill:#E09B68;" d="M440.862,164.829l-59.099-45.609L353.629,5.696C352.8,2.35,349.797,0,346.35,0h-27.786
	c2.387,0,4.467,2.35,5.041,5.696l19.482,113.524l40.923,45.609c1.76,1.961,2.46,5.321,1.743,8.358
	c-0.717,3.038-2.693,5.08-4.915,5.08h55.443c3.209,0,6.063-2.042,7.099-5.08C444.414,170.15,443.403,166.79,440.862,164.829z"/>
<polygon style="fill:#FF5F5F;" points="130.237,119.22 381.763,119.22 378.046,104.22 133.954,104.22 "/>
<polygon style="fill:#E24B4B;" points="378.046,104.22 340.512,104.22 343.086,119.22 381.763,119.22 "/>
<g>
</g>
<g>
</g>
<g>
</g>
<g>
</g>
<g>
</g>
<g>
</g>
<g>
</g>
<g>
</g>
<g>
</g>
<g>
</g>
<g>
</g>
<g>
</g>
<g>
</g>
<g>
</g>
<g>
</g>
</svg>
