<?xml version="1.0" encoding="utf-8"?>
<!-- Generator: Adobe Illustrator 25.0.1, SVG Export Plug-In . SVG Version: 6.00 Build 0)  -->
<svg version="1.1" id="Capa_1" xmlns="http://www.w3.org/2000/svg" xmlns:xlink="http://www.w3.org/1999/xlink" x="0px" y="0px"
	 viewBox="0 0 512 512" style="enable-background:new 0 0 512 512;" xml:space="preserve">
<g>
	<g>
		<path d="M398.7,236H16.2c-9,0-16.2,9-16.2,20c0,11,7.3,20,16.2,20h382.5c9,0,16.2-9,16.2-20S407.7,236,398.7,236z"/>
	</g>
</g>
<g>
	<g>
		<path d="M492,76H20C9,76,0,85,0,96s9,20,20,20h472c11,0,20-9,20-20S503,76,492,76z"/>
	</g>
</g>
<g>
	<g>
		<path d="M314.1,396H12.8C5.7,396,0,405,0,416s5.7,20,12.8,20h301.3c7.1,0,18.1-8.3,18.1-20C332.2,405,321.2,396,314.1,396z"/>
	</g>
</g>
</svg>
