<?xml version="1.0" encoding="utf-8"?>
<!-- Generator: Adobe Illustrator 25.0.1, SVG Export Plug-In . SVG Version: 6.00 Build 0)  -->
<svg version="1.1" id="Capa_1" xmlns="http://www.w3.org/2000/svg" xmlns:xlink="http://www.w3.org/1999/xlink" x="0px" y="0px"
	 viewBox="0 0 413.1 413.1" style="enable-background:new 0 0 413.1 413.1;" xml:space="preserve">
<style type="text/css">
	.st0{fill:#DC8744;}
	.st1{fill:#F6C358;}
	.st2{fill:#FCD462;}
</style>
<g>
	<path class="st0" d="M127.6,406.7c-0.2,0-0.5,0-0.7-0.1c-1.9-0.4-3.1-2.3-2.7-4.1c28.6-136.8,57-217,75.7-260.3
		c20.5-47.3,34.2-61.9,34.7-62.5c1.3-1.4,3.6-1.4,4.9-0.1c1.4,1.3,1.4,3.5,0.1,4.9c-0.2,0.2-13.8,15-33.8,61.4
		c-18.5,42.9-46.5,122.5-74.9,258C130.7,405.6,129.2,406.7,127.6,406.7z"/>
	<path class="st1" d="M255.1,82.7c21-22,31.2-76.3,31.2-76.3s-42,11.3-60.4,53.8c-2,4.6-5.1,10.2-2,19.5
		C226.4,87.3,237.2,101.7,255.1,82.7z"/>
	<path class="st2" d="M286.3,6.4c0,0-10.2,54.3-31.2,76.3c-12.3,12.8-21,10.8-26.1,5.6L286.3,6.4z"/>
	<path class="st1" d="M222.3,98.1c0-28.7-28.7-72.2-28.7-72.2s-21.5,35.3-6.1,76.3c1.5,4.6,3.6,10.2,11.3,14.8
		C205.9,120.6,222.3,123.2,222.3,98.1z"/>
	<path class="st2" d="M193.7,25.4c0,0,28.7,44,28.7,72.2c0,16.4-7.2,21-13.8,21L193.7,25.4z"/>
	<path class="st1" d="M240.8,138.5c26.6-10.8,56.8-53.2,56.8-53.2s-41-6.7-73.2,22.5c-3.6,3.1-8.2,7.2-9.7,15.9
		C214.1,131.4,217.7,147.8,240.8,138.5z"/>
	<path class="st2" d="M297.6,85.3c0,0-30.2,42.5-56.8,53.2c-15.4,6.1-22,1-24.6-5.1L297.6,85.3z"/>
	<path class="st1" d="M195.7,165.2C195.7,136.5,167,93,167,93s-21.5,35.3-6.1,76.3c1.5,4.6,3.6,10.2,11.3,14.8
		C179.3,187.7,195.7,190.2,195.7,165.2z"/>
	<path class="st2" d="M167,93c0,0,28.7,44,28.7,72.2c0,16.4-7.2,21-13.8,21L167,93z"/>
	<path class="st1" d="M219.8,191.8c26.6-9.7,58.9-51.2,58.9-51.2s-40.4-8.2-73.7,20c-3.6,3.1-8.7,6.7-10.2,15.9
		C193.1,183.6,196.2,200.5,219.8,191.8z"/>
	<path class="st2" d="M278.7,140.6c0,0-31.7,41.5-58.9,51.2c-15.4,5.6-22,0.5-24.6-6.1L278.7,140.6z"/>
	<path class="st1" d="M174.7,221.5c0-28.7-28.7-72.2-28.7-72.2s-21.5,35.3-6.1,76.3c1.5,4.6,3.6,10.2,11.3,14.8
		C158.3,244,174.7,246.6,174.7,221.5z"/>
	<path class="st2" d="M146,149.3c0,0,28.7,44,28.7,72.2c0,16.4-7.2,21-13.8,21L146,149.3z"/>
	<path class="st1" d="M198.8,249.6c27.6-6.7,63.5-45.1,63.5-45.1s-39.4-12.3-75.3,12.3c-4.1,2.6-9.2,5.6-11.8,14.3
		C173.2,238.9,174.2,255.8,198.8,249.6z"/>
	<path class="st2" d="M262.3,204.6c0,0-35.8,37.9-63.5,45.1c-15.9,4.1-22-2-23.6-8.7L262.3,204.6z"/>
	<path class="st1" d="M155.8,288c0-28.7-28.7-72.2-28.7-72.2s-21.5,35.3-6.1,76.3c1.5,4.6,3.6,10.2,11.3,14.8
		C139.4,310.6,155.8,313.1,155.8,288z"/>
	<path class="st2" d="M127.1,215.8c0,0,28.7,44,28.7,72.2c0,16.4-7.2,21-13.8,21L127.1,215.8z"/>
	<path class="st1" d="M180.9,313.1c27.1-9.2,59.4-50.2,59.4-50.2s-40.4-8.7-74.2,18.9c-3.6,3.1-8.7,6.7-10.2,15.4
		C154.2,304.4,157.3,321.3,180.9,313.1z"/>
	<path class="st2" d="M240.3,262.4c0,0-32.3,41-59.4,50.2c-15.9,5.6-22,0-24.6-6.7L240.3,262.4z"/>
</g>
</svg>
