<svg xmlns="http://www.w3.org/2000/svg" viewBox="0 0 621.96 709.28"><defs><style>.cls-1{isolation:isolate;}.cls-2{fill:#f28f7c;}.cls-3{fill:#f2be3d;}.cls-4{opacity:0.3;}.cls-4,.cls-47{mix-blend-mode:overlay;}.cls-5,.cls-77,.cls-79{fill:#fff;}.cls-6{fill:#ffe536;}.cls-39,.cls-7{fill:#472736;}.cls-13,.cls-51,.cls-67,.cls-70,.cls-71,.cls-8,.cls-89,.cls-9,.cls-90,.cls-91{fill:none;}.cls-8,.cls-9{stroke:#aeb0af;}.cls-13,.cls-36,.cls-39,.cls-51,.cls-67,.cls-70,.cls-71,.cls-8,.cls-89,.cls-9,.cls-90,.cls-91{stroke-linecap:round;}.cls-13,.cls-51,.cls-67,.cls-8,.cls-90{stroke-linejoin:round;}.cls-8{stroke-width:8px;}.cls-36,.cls-39,.cls-60,.cls-61,.cls-70,.cls-71,.cls-89,.cls-9,.cls-91{stroke-miterlimit:10;}.cls-89,.cls-9{stroke-width:4px;}.cls-10{fill:#c67560;}.cls-10,.cls-24,.cls-29,.cls-77,.cls-86{opacity:0.6;}.cls-10,.cls-15,.cls-24,.cls-45,.cls-81,.cls-86{mix-blend-mode:multiply;}.cls-11{fill:#7f2e28;}.cls-12{fill:#1b3b52;}.cls-13,.cls-67{stroke:#f28f7c;}.cls-13,.cls-51{stroke-width:21.8px;}.cls-14{fill:#ff5c68;}.cls-15{opacity:0.7;}.cls-16{fill:#8271a8;}.cls-17{fill:#ad5945;}.cls-18{fill:#ea9939;}.cls-19{fill:#4f3a2a;}.cls-20{fill:#173649;}.cls-21{fill:#703e28;}.cls-22{fill:#25455c;}.cls-23{fill:#c9393d;}.cls-24{fill:#a55e50;}.cls-25{fill:#602c34;}.cls-26{fill:#102530;}.cls-27{fill:#177fbf;}.cls-28{fill:#c47f2c;mix-blend-mode:darken;}.cls-29{fill:#9b5334;}.cls-30{fill:#a96303;}.cls-31{fill:#d3e9ef;}.cls-32{fill:#ffb287;}.cls-33{fill:#f58d6c;}.cls-34{fill:#301b24;}.cls-35{fill:#8e2b30;}.cls-36{fill:#bcb2af;stroke-width:3.17px;}.cls-36,.cls-39{stroke:#472736;}.cls-37{fill:#d85365;}.cls-38{fill:#422b27;}.cls-39{stroke-width:2.38px;}.cls-40{fill:#d82d16;}.cls-41{fill:#f46025;}.cls-42{fill:#e6fff4;}.cls-43{fill:#c2b9bc;}.cls-44{fill:#e8dfe2;}.cls-46{fill:#f74123;}.cls-47,.cls-79{opacity:0.5;}.cls-48{fill:#663b39;}.cls-49{fill:#7c919b;}.cls-50{fill:#ff5f5f;}.cls-51,.cls-90{stroke:#ffb287;}.cls-52{fill:#e29f56;}.cls-53{fill:#c17134;}.cls-54{fill:#e5d6ae;}.cls-55{fill:#aeccd6;}.cls-56{fill:#e1fbff;}.cls-57{fill:#bca773;}.cls-58{fill:#f8eed3;}.cls-59{fill:#5dd1ce;}.cls-60{fill:#ffe552;stroke:#ffe552;stroke-width:0.44px;}.cls-61{fill:#ffab2e;stroke:#ffab2e;stroke-width:0.65px;}.cls-62{fill:#211d1e;}.cls-63{fill:#ea8b24;}.cls-64{fill:#cc741d;}.cls-65{fill:#d69238;}.cls-66{fill:#16569b;}.cls-67,.cls-90{stroke-width:22.43px;}.cls-68{fill:#8e3925;}.cls-69{fill:#e5785c;}.cls-70{stroke:#8e3925;stroke-width:4.16px;}.cls-71{stroke:#e5785c;stroke-width:4.54px;}.cls-72{fill:#1da2d6;}.cls-73{fill:#473f3c;}.cls-74{fill:#fff1aa;}.cls-75{fill:#603a4b;}.cls-76{fill:#ffdc2b;}.cls-78{fill:#e8a81a;}.cls-80{fill:#8faebc;}.cls-81{fill:#5b363d;opacity:0.2;}.cls-82{fill:#bad4dd;}.cls-83{fill:#7c4a45;}.cls-84{fill:#f4b321;}.cls-85{fill:#ffd55f;}.cls-86{fill:#ab794c;}.cls-87{fill:#808c8c;}.cls-88{fill:#ffbd39;}.cls-89{stroke:#663b39;}.cls-91{stroke:#2f9387;stroke-width:10px;}</style></defs><g class="cls-1"><g id="Layer_1" data-name="Layer 1"><path class="cls-2" d="M246.82,164.11c5.6-5.63,15.24-8.31,32.39,5.17,18.05,14.18.28,14.49.28,14.49L263,182.61Z"/><path class="cls-2" d="M60,326.77c1-4,14.67-11.33,21.67.34l1.33,6-9.67,6.66Z"/><path class="cls-3" d="M124.08,111.46a17.14,17.14,0,1,1-34.27,0,16.87,16.87,0,0,1,.33-3.36A17.16,17.16,0,0,1,112.9,95.39,16.84,16.84,0,0,1,117.56,98a17.08,17.08,0,0,1,6.19,10.08A16.87,16.87,0,0,1,124.08,111.46Z"/><rect class="cls-3" x="29.22" y="94.33" width="83.68" height="34.27" rx="6.19"/><g class="cls-4"><path class="cls-5" d="M123.75,108.1H36.06a2.49,2.49,0,0,1-2.46-2.47v-5.15A2.48,2.48,0,0,1,36.06,98h81.5A17.08,17.08,0,0,1,123.75,108.1Z"/></g><circle class="cls-6" cx="32.29" cy="111.47" r="17.14"/><path class="cls-7" d="M24.85,111.47A6.44,6.44,0,1,0,31.29,105,6.43,6.43,0,0,0,24.85,111.47Z"/><path class="cls-8" d="M70.66,227.11v-76a2.91,2.91,0,0,0-1.91-2.6L18.9,132.87a2.91,2.91,0,0,1-1.91-2.6v-17a2,2,0,0,1,2-2H30"/><path class="cls-9" d="M560.85,629.44c8.74,10.63,13,20.27,12.83,27.41"/><path class="cls-7" d="M515.41,105.36c0,29.94-24.5,45.5-24.5,71.5,0,0-9.47-6.62-13.94-20.47-2.56-7.93-3.48-18.24-.06-31,11.5-43-2.84-48.67-17.84-39.92l-.71.4c-9.92,5.51,5.55-10,5.55-10C478.57,71.19,515.41,64.86,515.41,105.36Z"/><path class="cls-10" d="M496.32,123.11c-9.66,15.77-16.8,24.93-19.35,33.28-2.56-7.93-3.48-18.24-.06-31,11.5-43-2.84-48.67-17.84-39.92l-.71.4c8.1-7.79,16.26-12.83,23-11.73C503.65,77.78,509,102.44,496.32,123.11Z"/><path class="cls-11" d="M388.26,76.49c4.27.2,9-.23,14-.08a48.93,48.93,0,0,0-1.85,16.15h0C368.77,94.14,362.15,75.22,388.26,76.49Z"/><path class="cls-12" d="M497.57,368.36c.5,6,4,12,5.5,25,1.74,15-.5,42.5-12,52.5s-6.5-30-6.5-30l.5-48.5Z"/><path class="cls-13" d="M389.82,204.86l-38.18,27.72a9.17,9.17,0,0,1-10.46-.23l-67.86-53.91"/><path class="cls-14" d="M352.1,217.35l14.23,18.85,6.28,8.32L386.48,234c13.43-10.25,28.82-21,37.93-27.06l14.49-9.69a17.33,17.33,0,0,0,6.66-1.71c2.58-1.54,3.68-4.41-2.26-9.78l-.33-.28a31,31,0,0,0-16.87-7.78H426c-.47-.08-1-.12-1.45-.17h-.09c-9.61-.73-19.61,2.74-28.44,8.4-14.7,9.42-23.66,16-30.09,20.91Z"/><polygon class="cls-10" points="361.82 230.1 401.14 198.12 402.19 222.04 372.75 244.71 361.82 230.1"/><g class="cls-15"><path class="cls-16" d="M485.35,683c0-2.42-2.7-4.41-6-4.41H77.06c-3.3,0-6,2-6,4.41s2.7,4.41,6,4.41H479.35C482.65,687.43,485.35,685.45,485.35,683Z"/></g><g class="cls-15"><path class="cls-16" d="M601.07,695c0-2.42-2.7-4.41-6-4.41H464.57c-3.3,0-6,2-6,4.41s2.7,4.41,6,4.41h130.5C598.37,699.43,601.07,697.45,601.07,695Z"/></g><path class="cls-17" d="M379.14,365.4v46.74a4.55,4.55,0,0,0,4.54,4.54h39a4.56,4.56,0,0,0,4.54-4.54V365.4a4.56,4.56,0,0,0-4.54-4.54h-39a4.52,4.52,0,0,0-3.23,1.37A4.44,4.44,0,0,0,379.14,365.4Z"/><path class="cls-18" d="M389.06,640.93c.24,3,.53,6.19.82,9.11,0,.16,0,.31.05.46.57,5.46,1.18,9.91,1.66,10.31.72.61,11,1.57,19.92.17.65-.1,1.3-.22,1.93-.35,5.69-1.15,10.46-3.41,11.31-7.52.11-.52,1.37-1.72.94-4a5.69,5.69,0,0,0-.18-.71c-.07-.22-.17-.57-.29-1-1.31-4.88-5.32-21.86-5.48-24.56,0-.2,0-.32,0-.35.43-.32,0-.09-.95.35-1.91.94-5.77,2.88-7.65,3.07-2.13.21-14,1.1-19.67,2.14-1.76.33-2.92.66-3,1A115.19,115.19,0,0,0,389.06,640.93Z"/><path class="cls-19" d="M426,652.91s1.15,6.08-9.76,5.77c-10.4-.3-16.1-12.46-16.1-12.46l-16.84-1s-1.17,7.65-2.5,9.48c-3.64,5-13.05,14.7-13.05,14.7l-19.38.34s-1.52,15.54,4.43,15.71,17.71.41,22.66.55,31.11-5.87,31.11-5.87,22.29.91,22.29.62C428.89,659.71,426,652.91,426,652.91Z"/><polygon class="cls-19" points="429.23 684.89 395.43 684.92 395.27 679.8 410.27 676.5 429.64 676.68 429.23 684.89"/><path class="cls-18" d="M346.18,672.83v0a18.3,18.3,0,0,0,.3,2.58c.11.43.21.81.32,1.2a1.66,1.66,0,0,1,.06.16l.14.39c0,.08.06.17.06.21a2,2,0,0,1,.2.38c0,.08,0,.13,0,.17a4.28,4.28,0,0,0,.34.63c0,.09.09.17.14.26l.15.25a1.34,1.34,0,0,0,.23.29l.14.2a2.37,2.37,0,0,0,.37.42l.13.12a2.62,2.62,0,0,0,.27.29l.19.12a2.24,2.24,0,0,0,.36.24s0,0,.09,0a1,1,0,0,0,.48.23c0,.05.09,0,.14.09l.39.11a1.09,1.09,0,0,0,.17,0,2.38,2.38,0,0,0,.53.05l10.17.3,10.26.29,1.73,0a2.35,2.35,0,0,0,.53,0l.6,0a1.4,1.4,0,0,0,.39-.07l.81,0a.67.67,0,0,1,.3-.06c.22,0,.39-.07.61-.08l.3,0c.21,0,.43,0,.69-.11H378a4.82,4.82,0,0,1,.82-.14.24.24,0,0,0,.16,0c.3,0,.61-.08.95-.13,4.93-.78,11.52-2.07,16.88-3.17s9.49-2,9.49-2,23.18.82,23.21.56c0-2.94-.08-5.62-.21-8l-.05-.94a81.39,81.39,0,0,0-1.75-13.26,23.22,23.22,0,0,0-1.77-5.54s-.67,5-6.87,6.35a17.83,17.83,0,0,1-6.07.12A12.78,12.78,0,0,1,404,650a20.54,20.54,0,0,1-3.33-7.07,9.24,9.24,0,0,1-.32-1.32l-4-.14-3.08-.09-6.62-.18-3.59-.12s-.17,1.09-.43,2.53v.05c0,.21-.12.39-.15.61a.3.3,0,0,1,0,.17,3.88,3.88,0,0,1-.14.66.13.13,0,0,1,0,.13,3.61,3.61,0,0,1-.15.65.51.51,0,0,1,0,.09,4.05,4.05,0,0,0-.17.75.13.13,0,0,0,0,.12c-.08.27-.15.49-.19.7,0,0,0,0,0,0A6.39,6.39,0,0,1,381,650a13.33,13.33,0,0,1-1.56,2.4c-3.77,4.72-10.57,11.53-11.78,12.72l-.18.19a70.87,70.87,0,0,1-10.9.69c-5.24-.12-10.29,1.79-10.4,6.3A1.76,1.76,0,0,1,346.18,672.83Z"/><path class="cls-18" d="M381.64,648.59s2.61.55,6.41,1.45l1.88.46c3.76.92,8.32,2.11,12.57,3.41,3.81,1.17,6.79,4,9,7.07.65.9,1.23,1.8,1.76,2.69a38.19,38.19,0,0,1,3.22,7l12.79-3.05c-.85-14-3.52-18.8-3.52-18.8s0,.09-.07.27c-.35,1.13-2.29,5.32-11.85,4.35l-.92-.1a11.47,11.47,0,0,1-6.86-3.33c-2.85-2.85-3.9-6.77-4.41-8.8l-12.59-.31-6.15-.16Z"/><path class="cls-20" d="M387.52,646.26H402c12.66,0,8.41-17.6,8.41-17.6s21.82,1.92,23.06-22.36c3.27-64.29,12.66-185.91,15.67-239.07.3-5.17,4.85-10,3.34-8.67l-2.82-19.46-51.35,4s-1.74,16.41-2.48,41.05C393.36,467.23,386.29,646.26,387.52,646.26Z"/><path class="cls-18" d="M495.11,651c.83,2.76-1.8,1.53-1.92,2.1-2.25,10.88-31.92,8.75-33.17,7.7s-3.52-30.37-3.11-31.79,19.9-2.86,22.7-3.14,9.9-4.4,8.6-3.41C487.66,622.88,492.8,643.36,495.11,651Z"/><path class="cls-21" d="M494.43,652.91s1.14,6.08-9.76,5.77c-10.41-.3-16.1-12.46-16.1-12.46l-16.84-1s-1.18,7.65-2.51,9.48c-3.64,5-13.05,14.7-13.05,14.7l-19.38.34s-1.52,15.54,4.43,15.71,17.71.41,22.67.55S475,680.13,475,680.13s22.28.91,22.29.62C497.32,659.71,494.43,652.91,494.43,652.91Z"/><polygon class="cls-21" points="497.67 684.89 463.87 684.92 463.71 679.8 478.71 676.5 498.07 676.68 497.67 684.89"/><path class="cls-18" d="M414.61,672.83v0a17.3,17.3,0,0,0,.31,2.58c.1.43.21.81.32,1.2,0,0,.05.13.05.17l.15.38a.76.76,0,0,0,.06.21,1.46,1.46,0,0,1,.18.38c0,.08.06.13.06.17a5.41,5.41,0,0,0,.33.63l.15.26a2,2,0,0,1,.14.25,1.83,1.83,0,0,0,.23.29l.14.2a3.59,3.59,0,0,0,.37.42l.14.12a1.54,1.54,0,0,0,.27.29c.05,0,.14.08.18.12a3.53,3.53,0,0,0,.35.24c.05,0,.05,0,.09,0a1,1,0,0,0,.5.23c0,.05.09,0,.12.09l.4.11s.09,0,.18,0a2.29,2.29,0,0,0,.52.05l10.18.3,10.26.29,1.73,0a2.26,2.26,0,0,0,.52,0l.61,0a1.27,1.27,0,0,0,.38-.07l.82,0a.65.65,0,0,1,.3-.06c.22,0,.39-.07.6-.08l.31,0c.21,0,.42,0,.68-.11h.22a4.54,4.54,0,0,1,.81-.14.3.3,0,0,0,.17,0c.3,0,.6-.08.94-.13,4.94-.78,11.53-2.07,16.87-3.17s9.51-2,9.51-2,9.25.33,16.07.5c4,.11,7.12.16,7.13.06,0-2.94-.08-5.62-.2-8l0-.94a94.54,94.54,0,0,0-1.23-10.74c-1.06-5.86-2.3-8.06-2.3-8.06s-1.06,8-12.94,6.47a12.77,12.77,0,0,1-8.78-5.28,20.67,20.67,0,0,1-3.32-7.07,10.49,10.49,0,0,1-.33-1.32l-4-.14-1.88,0-7.82-.22-3.6-.12-.05.29c-.06.43-.2,1.25-.38,2.24v.05c0,.21-.12.39-.15.61a.25.25,0,0,1,0,.17,3.11,3.11,0,0,1-.14.66.17.17,0,0,1,0,.13,2.9,2.9,0,0,1-.14.65.41.41,0,0,0,0,.09,4.13,4.13,0,0,0-.19.75.14.14,0,0,0,0,.12,5.37,5.37,0,0,0-.19.7.05.05,0,0,0,0,0c-.09,2.26-2.26,4.79-2.26,4.79-4.14,5.19-11.95,12.91-11.95,12.91A70.93,70.93,0,0,1,425,666c-5.24-.12-10.28,1.79-10.4,6.3A1.76,1.76,0,0,1,414.61,672.83Z"/><path class="cls-22" d="M448.87,621c-6.95-2.69-9.59-277.21-9.59-277.21l50.6-4.67,3.93,19.46c1.43-1.3,4.61,8.66,4.61,8.66l.4,227.64s0,7-.29,11-1.46,5.74-1.46,5.74C489.07,624.36,458.91,624.87,448.87,621Z"/><path class="cls-22" d="M395.54,338.65,494,384.34l3.57,42c-.5,11.58-9.25,4-20.72,2.27L416.26,410c-11.46-1.72-22.12-3.36-22.1-15Z"/><path class="cls-6" d="M398.31,361.17s-.23-.4-.48-.94A1.11,1.11,0,0,0,398.31,361.17Z"/><path class="cls-14" d="M393.77,208.2s-2,30.88-1.36,62.16c.85,39.44,3,81.53,3.24,87.41,0,.62,1.83,1.74,2.18,2.46.17-1.45,4.55-4,33.73-3.77,47.58.38,66.6,36.09,66.6,36.09V207.34c0-16.49-15.07-29.93-30.53-29.81H419.9c-.7,0-1.39.05-2.06.12a23.6,23.6,0,0,0-11,3.82C398.77,186.78,393.77,196.92,393.77,208.2Z"/><path class="cls-23" d="M421.79,183.41c-3,7.33-6,40.33-2.66,52s-14.34,1.67-14.34,1.67,1-33.67,2-34.67,10-19.33,10-19.33Z"/><polygon class="cls-24" points="477.07 225.35 481.4 225.02 477.25 197.4 499.82 242.1 491.59 292.37 491.46 340.29 454.43 303.57 467.34 310.19 477.07 225.35"/><path class="cls-22" d="M498.51,312.73c-.3-32.88-.78-62.63-.78-62.63l-9.67-2.72.9,55.22.08,5.12v.61h-.17c-1.78.08-12.65,1.18-18.12.77h-.21l-2.64-.22h-.35a1,1,0,0,1-.55-.16h0c-5.2-3.18-6.82-49.57-7.31-69.94,0-1.45-.06-2.77-.09-3.93-.17-8.58-.08-4.81-.08-8.84H447.07a1,1,0,0,1-.1.31h0c-.47,1.16-3.14,5.06-17.9,5.06-11.26,0-14.91-1.89-16-3.43a2,2,0,0,1-.32-2h-3.83L405.07,217a22.53,22.53,0,0,0-4.25,6.29c-4.24,8.36-6.68,23.35-4.5,39.79q.39,2.94.7,5.76c2.73,24.79,3,39.67,2,44.9-6,30-7.23,49.69-3.95,51.67,0,0,2.47-1.29,8,1.6,25,13,93.92,47.15,95.12,28.53.09-1.26.13-2.69.21-4.33.05-.78.05-1.55.05-2.29C498.91,373.47,498.78,341.87,498.51,312.73Z"/><path class="cls-14" d="M470.76,309.11s-5.37.12-8.21-2.53c-3.62-3.38,1.54-8.89-.23-17.14-.58-2.75-6.76-6.63-7-9.75a190,190,0,0,1,4-52.83c.14-.64-1.76-.56-1.61-1.18,2.34-9.47,5.2-17,8.11-20.66l4,9.34.44,72.57.11,4.4.07,3,.26,11.07Z"/><path class="cls-25" d="M417,416.72c0-.05,0-.11,0-.16S417,416.67,417,416.72Z"/><path class="cls-25" d="M417.07,415.08v0Z"/><path class="cls-25" d="M417.05,413.53v0Z"/><path class="cls-25" d="M416.45,421.82l.06-.34Z"/><path class="cls-25" d="M416.74,420a.77.77,0,0,0,0-.15A.77.77,0,0,1,416.74,420Z"/><path class="cls-25" d="M416.91,418.43l0-.24Z"/><path class="cls-23" d="M451.48,227.11l7.73-.18,4.23,2.93c0-22,.55-50,14.22-50a2.11,2.11,0,0,1,2.12-1.17c.73.13,1.46.27,2.15.45h.56s-4.3-.8-7.29-1.21a67.4,67.4,0,0,0-7.57-.43C450.7,177.54,449.63,209.29,451.48,227.11Z"/><path class="cls-22" d="M429.19,177.55a13.25,13.25,0,0,0-5.18,2.94c-10.08,9.09-11.1,33.9-10.95,47.44v.34l-7.26-.56-5,.56c0-1.55,0-3.2,0-5,.43-16.72,4.16-41,16.55-45.16a11.69,11.69,0,0,1,3.83-.62,40.31,40.31,0,0,1,7.52,0l.32,0v-.2S429,176.82,429.19,177.55Z"/><path class="cls-12" d="M467.35,624.56c5.39,3.92,15.44,3.56,15.44,3.56l1.84-3.56,10.81-13.08c1.95-.82,1.28-8.56,2.26-16.56,4.09-33.25.85-119,1-202.89,0-19.48.08-38.35.1-55.82.12-56.91.2-99,.2-99l-10.93-3.34,1,61c0,16.28-12.74,14.36-18.49,14.36v48.42l.16,3.27.86,16.44.78,14.71,1.17,22.59s11,116,2,170.77c-1.68,10.12-4,18.05-7.26,22.65C462.05,616.82,463.51,621.77,467.35,624.56Z"/><path class="cls-22" d="M375.08,612.23c.25,1.26.53,2.45.84,3.56,1.64,5.86,3.95,6.41,5.67,7.36l4.6,5.2L402,646.26l8.51-.43L412,625.11l.38-5.52,19.74-204.06-37.54-31.14C392.52,453.73,366.8,571.38,375.08,612.23Z"/><polygon class="cls-26" points="440.57 433.53 423.18 411.22 440.22 417.33 440.57 433.53"/><path class="cls-26" d="M394.34,388.43a2.46,2.46,0,0,0,2.72,2.48l99.06-8.53a3,3,0,0,0,2.71-3V364.57a2.46,2.46,0,0,0-2.71-2.49l-99.06,8.54a3,3,0,0,0-2.72,2.95Z"/><path class="cls-17" d="M391.89,381.16a4.08,4.08,0,0,0,4.52,4.13l100.33-9.18a5.07,5.07,0,0,0,4.52-4.95V359.94a4.07,4.07,0,0,0-4.52-4.12L396.41,365a5.09,5.09,0,0,0-4.52,4.95Z"/><path class="cls-27" d="M477.45,179.89a11.69,11.69,0,0,1,4.33-.72c-.68-.18-1.38-.32-2.11-.45A2.33,2.33,0,0,0,477.45,179.89Z"/><path class="cls-22" d="M444.25,559.34c1.7,22.6-7.61,55.15,5.56,62.72.39.22,1.19.43,1.66.73,5.38,3.43,13.83,15.27,13.83,15.27h19.33l7.56-15.55c5.18-2.27,6.8-9.72,6.48-28.83.17,13.63-2.67,18.49-13.11,18.49-15.8,0-11.18-20.5-9.55-31.25C478.7,563.12,443.3,546.73,444.25,559.34Z"/><path class="cls-12" d="M375.08,612.23c.25,1.26.53,2.45.84,3.56,1.64,5.86,3.95,6.41,5.67,7.36l4.6,5.2A237.59,237.59,0,0,0,412,625.11a87.61,87.61,0,0,0,11.86-2.6,5.91,5.91,0,0,0,3.39-3.64,121.15,121.15,0,0,1-14.87.72C398.67,619.52,378.89,617.17,375.08,612.23Z"/><path class="cls-23" d="M470.76,309.11s-5.37.12-8.21-2.53c-4.83-4.51-6.16-14.16-7.11-26.6-1.27-16.48.13-37.59,3.75-53.12l4.27.26c0,16,6.54,57.65,14.53,57.65l-7.29,20.64Z"/><rect class="cls-18" x="451.45" y="622.81" width="40.64" height="27.23"/><rect class="cls-18" x="381.02" y="622.81" width="44.21" height="27.23"/><path class="cls-28" d="M425.22,640.45V622.81H381v.74A23.12,23.12,0,0,0,391.5,628c7.58,1.45,15.58.45,18.92.64,4.07.24,4.6,2.17,3.61,21.38-.06,1.09-.12,2.23-.19,3.43-.11,2.19-.25,4.57-.4,7.16,0,.27,0,.54-.05.81-5.47.75-11.08,2.43-14.58,6.78a14.72,14.72,0,0,0-1.95,3.11l-.27.32a1.67,1.67,0,0,0-.36,1.23,19.64,19.64,0,0,0-.32,10c.47,2.46,4.22,1.42,3.75-1l-.12-.75a1.94,1.94,0,0,0,1.81-.85c.19.13.36.27.56.39a2,2,0,0,0,2.86-2.19c0-.12,0-.22-.06-.32a5.24,5.24,0,0,0,2.49,2c2,.72,3-.51,3.49-2.31a1.46,1.46,0,0,0-.18-.38.76.76,0,0,1-.06-.21l-.15-.38a1.09,1.09,0,0,1-.05-.17c-.11-.39,5,0,4.86-.48a18.39,18.39,0,0,1-.3-2.59v0a1.83,1.83,0,0,0,0-.52c.12-4.51,4.17-7.4,9.41-7.29a11.48,11.48,0,0,0,2.92,0l.43,0,.17,0,.52-.06.52,0,.35,0C428.17,653.12,425.22,646.64,425.22,640.45Z"/><path class="cls-29" d="M421.88,663.32c0,.94.11,2,.17,3.11,2.83,0,5.53-.32,7.15-.5a83.25,83.25,0,0,0-1.08-8.62C424.75,657.69,421.7,659.16,421.88,663.32Z"/><path class="cls-30" d="M435.94,665.33c26,0,25.81-6.54,26.45-13,.06-.67.11-1.44.15-2.27.13-2.49.18-5.57.38-8.58.38-5.56,1.31-10.88,4.33-11.82,4.55-1.43,19.32-3.35,24.84-4.67v-2.16H451.45v18.6c-.06.43-.2,1.25-.38,2.24v.05c0,.21-.12.39-.15.61a.25.25,0,0,1,0,.17,3.11,3.11,0,0,1-.14.66.17.17,0,0,1,0,.13,2.9,2.9,0,0,1-.14.65.41.41,0,0,0,0,.09,4.13,4.13,0,0,0-.19.75.14.14,0,0,0,0,.12,5.37,5.37,0,0,0-.19.7.05.05,0,0,0,0,0c-.09,2.26-2.26,4.79-2.26,4.79C443.75,657.61,435.94,665.33,435.94,665.33Z"/><path class="cls-20" d="M447.91,618.48c5.56,2.36,35.81,2,47.67.38a5.93,5.93,0,0,1-3.39,3.65c-4.37,1.78-35.56,2.24-40.74.3a9.89,9.89,0,0,1-6.54-6.52A6,6,0,0,0,447.91,618.48Z"/><path class="cls-20" d="M388.64,617.49c11.9,1.94,23.81,3.48,24.37-5.43.52-8.08,11.76,5.19,16.85,3-.81,2.59-2.6,7-4.7,7.94-4.29,2-40.46,4-44.06-.17-4.53-5.27,4.3-2.14,3.08-5.34C384.93,618.6,387.23,617.26,388.64,617.49Z"/><path class="cls-30" d="M367.68,665.14l.71,0c20-1.53,23.43-7.1,24.33-15.07.24-2.17.3-4.54.45-7,0-.55.07-1.07.11-1.58.81-10.22,2.71-11.58,5.72-12.27,12.69-2.93,23.33-5.1,26.22-6.34H381V650a13.33,13.33,0,0,1-1.56,2.4C375.69,657.14,368.89,664,367.68,665.14Z"/><path class="cls-20" d="M427.25,618.87c-1.44,1.53,0,2.47-2,3.94s-40.57,3.71-44.2,0c0,0-1.37-.75-2.14-5A25.83,25.83,0,0,0,385.6,620a36.69,36.69,0,0,0,9.35.16c1.74-.08,16.85-1.86,19-1.66s10.17-.44,10.17-.44,3.52.76,3.36.76"/><path class="cls-29" d="M490.84,676.57c4,.11,7.12.16,7.13.06,0-2.94-.08-5.62-.2-8l0-.94a94.54,94.54,0,0,0-1.23-10.74c-3.38.38-6.43,1.85-6.24,6C490.41,666.76,490.93,672.54,490.84,676.57Z"/><path class="cls-31" d="M466.28,634.49a2,2,0,0,1,1.94,2v1.62a1.95,1.95,0,0,1-3.89,0v-1.62A2,2,0,0,1,466.28,634.49Z"/><path class="cls-31" d="M463.93,644.46a1.94,1.94,0,0,1,2.75,0,3,3,0,0,1,0,4,1.94,1.94,0,0,1-2.75,0,5.07,5.07,0,0,1,0-4Z"/><path class="cls-31" d="M462.14,655.36a1.94,1.94,0,0,1,3.79.82,2.26,2.26,0,0,1-.24,1,2.55,2.55,0,0,1-.84.92,2,2,0,0,1-2.66-.7A2.32,2.32,0,0,1,462.14,655.36Z"/><path class="cls-31" d="M392.93,634.17a2,2,0,0,1,1.94,1.94v1.95a1.94,1.94,0,0,1-3.88,0v-1.95A2,2,0,0,1,392.93,634.17Z"/><path class="cls-31" d="M392.28,644.21a2,2,0,0,1,1.94,1.95v.44a1.94,1.94,0,1,1-3.88,0v-.44A2,2,0,0,1,392.28,644.21Z"/><path class="cls-31" d="M392.61,652.63a2,2,0,0,1,1.94,2v1.62a1.95,1.95,0,0,1-3.89,0v-1.62A2,2,0,0,1,392.61,652.63Z"/><rect class="cls-32" x="429.65" y="136.77" width="29.2" height="46.92"/><path class="cls-33" d="M429.7,167.16c7.68,1.17,15.21-1.22,21.64-4.15,4.67-2.13,7.48,3.06,7.48,3.06l.09,11.07.11-49.77-29.32-.06Z"/><path class="cls-32" d="M428.37,164.56Z"/><path class="cls-32" d="M432,214.61c6.7-.43,27.71-34.92,40.53-36.63a51.89,51.89,0,0,1-9.56-6.41c-2.4-2.13-4-4.26-4-6,0,.13,0,.36-.09.67-.45,2.34-3,9.19-17.23,9.19-11.2,0-11.94-7.13-12-9a14.79,14.79,0,0,1-1.47,6.69,13.36,13.36,0,0,1-4.7,5.09C417.65,190.57,426.65,214.94,432,214.61Z"/><path class="cls-7" d="M483.41,100c-.87-2.32.17-9.34-.09-11.66-2.82-25.24-11.6-42.18-38.58-42.18-29.46,0-19.48,18.47-19.48,47.93s-8.76,48.45,20.29,53.33C476.57,152.66,490.57,119.36,483.41,100Z"/><path class="cls-34" d="M404.32,86.86c2.86,19,6.63,24.3,16.57,25L440,47.16c-19.65-.47-32.09,14.68-37.41,29.2C401,80.65,402.82,76.86,404.32,86.86Z"/><path class="cls-33" d="M402.39,123.27c0,7.3,6.37,24.19,10.32,29.25,1.68,2.16,3.34,4.85,8.69,6.51,4.86,1.52,12.19,2.71,14.13,7.66,1,2.66.31-2.51,2.32-2.86,21.23-3.71,36.32-25.91,36.32-43.75L469.4,95.23c0-19.53-15.43-35.5-34.3-35.5s-34.3,16-34.3,35.5Z"/><path class="cls-32" d="M401.23,122.76c.72,20.5,8.94,38.21,30.17,37.47,24.69-.87,31.52-25.65,30.84-45.17l-1.19-16.92c-.68-19.52-8.86-39.17-27.71-38.51s-33.72,17.17-33,36.68Z"/><path class="cls-7" d="M475.32,93.86c18-3.38-18.24-36.48-23-38.06-3.28-1.08,1.61-9.55-8.88-9.69-10.07-.13-20.88,2.07-27.84,6.71-9.55,6.37-10.3,7.63-7.15,15.79C415.41,86.69,459,96.91,475.32,93.86Z"/><path class="cls-7" d="M459.55,95.26c.3,9.27,1,12.23,1.7,14,1.28,3.16,3.42,1.89,3.78-.19.47-2.74,1.8-6.84,8.16-8.68.72-.21-13.73-8.68-13.73-8.68Z"/><path class="cls-35" d="M437.76,135.14s-3.05,9.42-12.33,9.42c-10.25,0-10.14-9.42-10.14-9.42Z"/><line class="cls-36" x1="446.71" y1="100.93" x2="431.59" y2="99.35"/><line class="cls-36" x1="400.48" y1="100.8" x2="413.27" y2="99.62"/><path class="cls-7" d="M437.93,70.93c6.1,9.73-2.68,19,9.07,21.73,9.86,2.32,11.76,4.18,13.34,12.66,1.1,5.91,12.43-10.65,12.43-10.65s2.81-13.22.69-14.27-18.3-4-19.89-4.74S437.93,70.93,437.93,70.93Z"/><path class="cls-33" d="M425.08,150.17a20.59,20.59,0,0,0,4.76-.53c1.54-.31,2.35,1,1,1.93a8.89,8.89,0,0,1-5.92,1.44,8,8,0,0,1-3.43-1.08c-1.49-.89-1.34-2.66,0-2.31A16.89,16.89,0,0,0,425.08,150.17Z"/><path class="cls-33" d="M420.83,128.06c-3.61,0-6.68-2.55-6.52-5.1.06-.93.81-2,2.23-1.21a10.14,10.14,0,0,0,4.27.83,9.86,9.86,0,0,0,3.93-.83c2.3-.83,3,.28,3.08,1.21C428,125.51,424.45,128,420.83,128.06Z"/><path class="cls-37" d="M420,143.31c2.59-3.16,9.17-3,14.32-2.65a11.92,11.92,0,0,1-8.93,3.9,11.36,11.36,0,0,1-5.42-1.2Z"/><path class="cls-38" d="M441.15,109.5a3.16,3.16,0,1,1-3.16-3.14A3.15,3.15,0,0,1,441.15,109.5Z"/><ellipse class="cls-38" cx="409.33" cy="109.77" rx="3.16" ry="3.13"/><path class="cls-39" d="M404.89,107.64a15.15,15.15,0,0,1,5-1.1,10.11,10.11,0,0,1,5.31,1.3"/><path class="cls-32" d="M414.62,136.26c.7.41,4.73,1.25,9.45,1.25s12.72-.47,14.62-1.18v-2H414.41Z"/><path class="cls-33" d="M464.46,110.53c-.49,6,3,11.13,7.83,11.52s9.12-4.14,9.61-10.11-2.2-10.64-7-11.41S465,104.56,464.46,110.53Z"/><path class="cls-5" d="M474.35,119.49a2.31,2.31,0,1,0,4.5.36c.13-1.54-.57-2.74-1.8-2.94S474.48,118,474.35,119.49Z"/><path class="cls-33" d="M476.82,114.54c-1.52,4.07-5.16,5.66-7.72,4.82-3.31-1.08,1.52-16,5.58-14.73C478.43,105.77,478.37,110.48,476.82,114.54Z"/><path class="cls-39" d="M434,107.25a14.94,14.94,0,0,1,5-1.11,19.12,19.12,0,0,1,6.51,1.31"/><path class="cls-32" d="M419.6,113.76c3-.11,2.5,8.1,2.5,8.1l-1.29.72c-2.52-.07-5.84,0-6.54-3.17S414.87,113.92,419.6,113.76Z"/><path class="cls-7" d="M430.74,83.64l-35.1-3.53c-3.73,3.91-2.88,14-1.9,14.25,4.6,1.07,22,1.83,35.52.64A29,29,0,0,1,430.74,83.64Z"/><path class="cls-10" d="M400.41,97.92l.26,7.72c1.09-5.41,17.93-6.53,36.48-5.82,11.08.46,22.46,1.26,22.84,5.82-.5-25.31-9.92-43.06-28.1-43.06C407.09,62.58,399.74,78.49,400.41,97.92Z"/><path class="cls-22" d="M482.34,179.19a5.19,5.19,0,0,0-.56,0c-.68-.18-1.38-.33-2.11-.46a2.36,2.36,0,0,0-2.22,1.18c-8.69,3.14-13.58,13.39-16.08,24.59A100.2,100.2,0,0,0,459.11,226c0,.38,0,.76,0,1.13l-6.31.31-5.83-.3c0-.27,0-.54,0-.82h0c-.05-9.18,1-21.71,4.26-31.77,3.11-9.62,8.25-17,16.4-17a68,68,0,0,1,7.53.42C478.12,178.39,482.34,179.19,482.34,179.19Z"/><path class="cls-40" d="M402.26,81.14c2.69-2.07,5.49-1,17.93-1a142.83,142.83,0,0,1,40.07,5.58c11.72,3.55,20.54,8.6,23.13,14.39,1.21.9,3.09-10.59,3.27-18.84,0-.46,0-.9,0-1.33a38.22,38.22,0,0,0-1.21-9.6c-3.55-13.48-14.92-25-35.64-28.27a1.65,1.65,0,0,1-.21,0c-2.31-.36-4.74-.61-7.3-.78-.9-.05-1.78-.08-2.66-.08a42.19,42.19,0,0,0-14.29,2.15c-.3.1-.59.2-.87.32A35.54,35.54,0,0,0,404.16,63C400,72.25,400.37,81,402.26,81.14Z"/><path class="cls-41" d="M460.25,85.7c3.82-17.42,11.6-42.84-28-42.58-35.69.24-35.69,37-35.69,37Z"/><path class="cls-40" d="M381,76.73c10.31-.26,13.81,4.68,35.49,11.76,16.45,5.38,32.47-.28,43.8-2.79-3.87-3.54-43.35-9.61-65.13-9.76C389.46,75.9,381.9,76.59,381,76.73Z"/><rect class="cls-42" x="478.07" y="626.62" width="93" height="67.69" rx="6"/><path class="cls-43" d="M571.07,626.92v4.94a3,3,0,0,1-3,3l-87,0a3,3,0,0,1-3-3v-4.93"/><path class="cls-42" d="M568.07,622.42a3,3,0,0,1,3,3v1.89a3,3,0,0,1-3,3h-87a3,3,0,0,1-3-3v-1.93a3,3,0,0,1,3-3Z"/><path class="cls-44" d="M571.07,622.42v4.89a3,3,0,0,1-3,3h-19a3,3,0,0,1-3-3v-4.93"/><g class="cls-45"><path class="cls-46" d="M491.32,622.36v48.71a3,3,0,0,0,3,3h3.42a3,3,0,0,0,3-3v-17a3,3,0,0,1,3-3h7.67a3,3,0,0,1,3,3v6a3,3,0,0,0,3,3h6.66a3,3,0,0,1,3,3V680a3,3,0,0,0,3,3h6.67a3,3,0,0,0,3-3V666.07a3,3,0,0,1,3-3h8.33a3,3,0,0,1,3,3v16.29a3,3,0,0,0,3,3h11a3,3,0,0,0,3-3v-60"/></g><g class="cls-47"><path class="cls-5" d="M513.83,622.39a1.93,1.93,0,0,1,1.91,1.92v1a1.92,1.92,0,0,1-1.91,1.91H485a1.92,1.92,0,0,1-1.91-1.91v-1a1.92,1.92,0,0,1,1.91-1.91Z"/></g><path class="cls-9" d="M573.68,656.85c-.17,7.71-5.47,12.51-15.8,12.51-20.12,0-51.69-18.21-70.51-40.67"/><g class="cls-45"><rect class="cls-44" x="546.12" y="626.62" width="24.95" height="67.69" rx="6"/></g><path class="cls-48" d="M479.59,357.39a5.08,5.08,0,0,0-4.52,4.95v11.22a4.08,4.08,0,0,0,4.52,4.12l17.15-1.57a5.07,5.07,0,0,0,4.52-4.95V359.94a4.07,4.07,0,0,0-4.52-4.12Z"/><rect class="cls-49" x="446.49" y="206.6" width="14.95" height="7.59" rx="2.3"/><rect class="cls-49" x="400.12" y="206.6" width="14.95" height="7.59" rx="2.3"/><path class="cls-50" d="M470.57,201.36c-4,2-4.91-6.63-5.75-.42-1.33,9.83-.86,19.15-2,26.17-1.75,10.75-7,29.5.5,35.5s4.5-3,4.5-3l5-54.75Z"/><path class="cls-23" d="M456.82,255.11c.17,1.83,2.53-4.58,2.7-.49.29,7.31,13.59,7.68,14.3-.18.67-7.48,3.83,3.67,4,5.83s-4.17,26.67-4.17,26.67l-14.16-1.67-2.34-10.83Z"/><path class="cls-51" d="M501.07,220.36l17.64,63.06a33.7,33.7,0,0,1-.4,16.75l-22.66,68.27"/><polygon class="cls-33" points="498.44 251.35 520.69 249.99 517.69 239.32 496.99 246.1 498.44 251.35"/><path class="cls-50" d="M472.49,203.46l9.2,47.39,37.23-10.62s-4.48-15.06-10-33.44c-3.95-13.23-11.68-25.44-27.15-27.68a11.51,11.51,0,0,0-4.25,1.11C472.66,187.94,472.49,203.46,472.49,203.46Z"/><path class="cls-23" d="M463.32,268.44c-1,6-8.36-19.57-8.42-3.07-.06,14.33-3.91,66.4,19.75,66.4,14.34,0,14-12,14-39.33S463.32,268.44,463.32,268.44Z"/><path class="cls-32" d="M487.82,366.11c.5-1.63.25-8.75-1.13-5.38s-7,.54-10,9.46c-.37.5,4.17,4.54,7.92,5.17s5.87-1.38,6-1.75a48.75,48.75,0,0,0-1.38-5.38Z"/><path class="cls-32" d="M481,367.11c-2.42,2.08-3-.67-4.34,3.08s-4.83,9.25,2.42,12.17c6.88,2.76,8.83-6.42,8.83-6.42l-1.75-6.33-1.5-1.67Z"/><path class="cls-52" d="M513.61,378a12.05,12.05,0,0,0-5.8-4.36l-.48-.19a69.44,69.44,0,0,0-12.46-2.8c-4.82-.75-9.54-1.31-12.15-1.74-3-.49-6.81-1-9.13-2.81a5.2,5.2,0,0,1-1.92-3c-.28-1.22-.24-1.4-.84-1.63l-5.28,15.19c.62.2.7,0,1.67-.75a5.25,5.25,0,0,1,3.36-1.15c3,0,6.25,2,8.9,3.45s7.43,4.44,12.25,7.08a59.39,59.39,0,0,0,9.88,4.61,18.22,18.22,0,0,0,2.95.67c4.5.62,7.94-1,9.54-5.57A7.86,7.86,0,0,0,513.61,378Zm-5.48,5a2.24,2.24,0,0,1-1.95,1.49,2,2,0,0,1-.91-.1,2.25,2.25,0,0,1,1.47-4.25l.22.1A2.25,2.25,0,0,1,508.13,383Z"/><path class="cls-53" d="M470.82,361.52c.61.24.57.42.85,1.63a5.2,5.2,0,0,0,1.92,3l-3,8.69a5.19,5.19,0,0,0-3.36,1.15c-1,.77-1.05.95-1.67.75Z"/><rect class="cls-54" x="417.94" y="346.16" width="45.2" height="26.72" transform="translate(-43.58 657.78) rotate(-70.85)"/><path class="cls-52" d="M444.75,384.91,459.37,390a1.88,1.88,0,0,0,2.39-1.15l13.59-39.16a1.87,1.87,0,0,0-1.15-2.38l-14.63-5.08Z"/><rect class="cls-55" x="432.95" y="361.14" width="45.2" height="7.18" transform="translate(-38.42 675.47) rotate(-70.85)"/><polygon class="cls-56" points="454.44 356.97 460.62 361.07 455.19 376.72 449.01 372.62 454.44 356.97"/><polygon class="cls-57" points="442.9 384.19 445.04 385.01 459.87 342.31 457.73 341.49 442.9 384.19"/><path class="cls-53" d="M507.81,373.67c-.18,1.68-.45,4-.85,6.56l-.22-.1a2.25,2.25,0,0,0-1.47,4.25,2,2,0,0,0,.91.1,52.58,52.58,0,0,1-1.62,6.15,18.22,18.22,0,0,1-2.95-.67,59.39,59.39,0,0,1-9.88-4.61c.86-3.65,2.23-10.22,3.14-14.67a69.44,69.44,0,0,1,12.46,2.8Z"/><path class="cls-32" d="M490.57,361.11c-.5-1.75-2.5-4.25-5,3.25s-4.62,13.29-5.25,15c-1.17,3.16-2.67,3.5-2.46,6.92.1,1.75,1.74,3.43,6.13,5.08,10,3.75,14.57,2.18,17.58-6.5,2.25-6.5,3-9.75,4.5-14S490.57,361.11,490.57,361.11Z"/><rect class="cls-58" x="408.45" y="352.92" width="45.2" height="6.62" transform="translate(-46.84 646.61) rotate(-70.86)"/><polygon class="cls-59" points="152.76 367.71 146.91 398.31 154.43 399.75 154.8 397.81 152.25 397.32 157.73 368.66 152.76 367.71"/><path class="cls-60" d="M159.74,355.41l-3.05,16-16-3.06a16.29,16.29,0,1,1,19.05-12.94Z"/><path class="cls-61" d="M163.28,356.08l-3.06,16-16-3.05a16.29,16.29,0,1,1,19.06-12.95Z"/><path class="cls-62" d="M147.29,365a12.26,12.26,0,0,1-2.26-.21A12,12,0,0,1,147.27,341a12.28,12.28,0,0,1,2.26.22,12,12,0,0,1,9.55,14A12,12,0,0,1,147.29,365Z"/><path class="cls-63" d="M147.27,341.6a11.27,11.27,0,0,1,2.15.21,11.42,11.42,0,0,1-2.13,22.64,11.25,11.25,0,0,1-2.15-.2,11.43,11.43,0,0,1,2.13-22.65m0-1.17a12.56,12.56,0,1,0,2.37.22,12.6,12.6,0,0,0-2.37-.22Z"/><path class="cls-64" d="M176.65,61.49c-6.92,8.57-11,16.6-9.66,21.8,1.7,6.69,11.54,5.11,51.39,3.94C257.75,86.08,274.64,74.4,267,53.87,262.42,41.58,176.65,61.49,176.65,61.49Z"/><path class="cls-65" d="M268.84,640.22c-.25,3.08-.54,6.37-.84,9.38,0,.16,0,.32-.05.47-.59,5.62-1.22,10.2-1.71,10.61-.74.63-11.3,1.62-20.5.18-.67-.11-1.34-.23-2-.36-5.85-1.19-10.76-3.51-11.64-7.74-.11-.54-1.41-1.77-1-4.11a6,6,0,0,1,.18-.73c.07-.23.18-.59.3-1.07,1.35-5,5.48-22.5,5.64-25.27q0-.32,0-.36c-.44-.33,0-.1,1,.36,2,1,5.93,3,7.87,3.16,2.19.21,14.4,1.13,20.24,2.2,1.81.34,3,.68,3.11,1A118.38,118.38,0,0,1,268.84,640.22Z"/><path class="cls-19" d="M230.83,652.55s-1.17,6.25,10,5.93c10.71-.3,16.56-12.82,16.56-12.82l17.33-1s1.21,7.88,2.58,9.76c3.75,5.15,13.43,15.13,13.43,15.13l19.94.35s1.57,16-4.55,16.16-18.23.42-23.33.57-32-6-32-6-22.94.93-22.94.64C227.85,659.55,230.83,652.55,230.83,652.55Z"/><polygon class="cls-19" points="227.5 685.45 262.28 685.49 262.45 680.23 247.01 676.82 227.08 677.01 227.5 685.45"/><path class="cls-65" d="M313,673.05v0a18.44,18.44,0,0,1-.31,2.66c-.11.44-.22.83-.33,1.23a1.15,1.15,0,0,0-.06.17l-.15.4c0,.08-.06.17-.06.21a2.4,2.4,0,0,0-.2.39c0,.09-.05.14-.05.18a5.07,5.07,0,0,1-.34.65l-.15.26-.15.26a1.5,1.5,0,0,1-.24.3l-.14.21a3.66,3.66,0,0,1-.38.43l-.14.12a1.64,1.64,0,0,1-.28.3l-.19.12a1.83,1.83,0,0,1-.37.25s0,0-.09,0a1,1,0,0,1-.5.24s-.09,0-.14.09l-.4.11c-.05,0-.09,0-.18,0a2,2,0,0,1-.54.06l-10.47.3c-3.83.12-7.76.22-10.56.3l-1.78,0a2,2,0,0,1-.54,0l-.62,0a1.4,1.4,0,0,1-.4-.07l-.84,0a.69.69,0,0,0-.31-.06c-.22,0-.4-.07-.62-.08l-.31,0c-.22,0-.44-.06-.71-.12h-.22a5.07,5.07,0,0,0-.84-.14.28.28,0,0,1-.17,0,9.45,9.45,0,0,1-1-.14c-5.08-.8-11.86-2.13-17.37-3.26s-9.77-2.06-9.77-2.06-23.85.85-23.88.58c0-3,.08-5.78.21-8.27l0-1a83.73,83.73,0,0,1,1.8-13.65,23.9,23.9,0,0,1,1.83-5.7s.68,5.18,7.06,6.54a18.38,18.38,0,0,0,6.25.12,13.16,13.16,0,0,0,9-5.43,21.22,21.22,0,0,0,3.42-7.28,9,9,0,0,0,.33-1.36l4.15-.14,3.17-.09,6.81-.19,3.7-.12s.17,1.12.44,2.6v.05c0,.22.12.4.15.63a.34.34,0,0,0,0,.18,4,4,0,0,0,.15.67.15.15,0,0,0,0,.14,4,4,0,0,0,.15.67.51.51,0,0,0,0,.09,4.29,4.29,0,0,1,.18.77.14.14,0,0,1,0,.13,7.11,7.11,0,0,1,.19.72.05.05,0,0,1,0,0,6.45,6.45,0,0,0,.72,2.46,13.26,13.26,0,0,0,1.6,2.47c3.88,4.85,10.88,11.86,12.12,13.09l.19.19a72.13,72.13,0,0,0,11.22.71c5.39-.12,10.58,1.84,10.7,6.48A1.9,1.9,0,0,0,313,673.05Z"/><path class="cls-65" d="M276.48,648.1s-2.69.57-6.6,1.5l-1.93.47c-3.87.95-8.57,2.17-12.94,3.51-3.92,1.2-7,4.15-9.27,7.28-.67.92-1.27,1.85-1.81,2.76a39.08,39.08,0,0,0-3.32,7.24l-13.16-3.14c.88-14.46,3.63-19.35,3.63-19.35s0,.1.07.28c.36,1.16,2.35,5.48,12.19,4.48l.95-.11a11.78,11.78,0,0,0,7.06-3.42c2.93-2.94,4-7,4.54-9.06l12.95-.32,6.33-.16Z"/><path class="cls-66" d="M270.42,645.71h-14.9c-13,0-8.66-18.11-8.66-18.11s-20.4,2-21.67-23c-3.37-66.15-9.95-191.31-13-246-.31-5.31-5-10.25-3.44-8.92l2.9-20,52.84,4.09S266.24,350.59,267,376C269.56,461.47,271.69,645.71,270.42,645.71Z"/><path class="cls-65" d="M164.86,650.6c-.86,2.83,1.85,1.57,2,2.16,2.32,11.19,32.85,9,34.13,7.91s3.62-31.24,3.2-32.7-20.48-3-23.36-3.23-10.19-4.53-8.84-3.52C172.52,621.64,167.23,642.72,164.86,650.6Z"/><path class="cls-21" d="M165.56,652.55s-1.18,6.25,10,5.93c10.71-.3,16.57-12.82,16.57-12.82l17.33-1s1.2,7.88,2.57,9.76c3.75,5.15,13.43,15.13,13.43,15.13l19.95.35s1.56,16-4.56,16.16-18.23.42-23.33.57-32-6-32-6-22.94.93-22.94.64C162.57,659.55,165.56,652.55,165.56,652.55Z"/><polygon class="cls-21" points="162.22 685.45 197 685.49 197.17 680.23 181.73 676.82 161.81 677.01 162.22 685.45"/><path class="cls-65" d="M247.69,673.05v0a18.44,18.44,0,0,1-.31,2.66c-.11.44-.22.83-.33,1.23a1.15,1.15,0,0,1-.06.17l-.15.4a.76.76,0,0,1-.06.21,1.75,1.75,0,0,0-.19.39c0,.09-.06.14-.06.18a5.07,5.07,0,0,1-.34.65l-.15.26-.15.26a2,2,0,0,1-.23.3l-.15.21a3.66,3.66,0,0,1-.38.43l-.14.12a1.64,1.64,0,0,1-.28.3s-.14.08-.18.12a2.65,2.65,0,0,1-.37.25c-.05,0-.05,0-.09,0a1,1,0,0,1-.51.24s-.09,0-.13.09l-.41.11s-.09,0-.18,0a2,2,0,0,1-.54.06l-10.47.3c-3.83.12-7.75.22-10.56.3l-1.78,0a2,2,0,0,1-.54,0l-.62,0a1.4,1.4,0,0,1-.4-.07l-.84,0a.69.69,0,0,0-.31-.06c-.22,0-.4-.07-.62-.08l-.31,0c-.22,0-.44-.06-.7-.12h-.23a5,5,0,0,0-.83-.14.3.3,0,0,1-.18,0,9.45,9.45,0,0,1-1-.14c-5.08-.8-11.86-2.13-17.36-3.26s-9.78-2.06-9.78-2.06-9.52.34-16.54.52c-4.09.11-7.33.16-7.34.06,0-3,.08-5.78.21-8.27l0-1a96.22,96.22,0,0,1,1.27-11.05c1.09-6,2.36-8.3,2.36-8.3s1.09,8.25,13.32,6.66a13.14,13.14,0,0,0,9-5.43,21.22,21.22,0,0,0,3.42-7.28,10.1,10.1,0,0,0,.34-1.36l4.14-.14,1.93-.05,8.05-.23,3.7-.12.05.3c.07.44.21,1.28.4,2.3v.05c0,.22.12.4.15.63a.29.29,0,0,0,0,.18,3.2,3.2,0,0,0,.14.67.16.16,0,0,0,0,.14,3.2,3.2,0,0,0,.14.67.41.41,0,0,1,0,.09,4.33,4.33,0,0,1,.19.77.13.13,0,0,1,0,.13,5.18,5.18,0,0,1,.19.72.05.05,0,0,1,0,0c.1,2.32,2.33,4.93,2.33,4.93,4.26,5.34,12.3,13.28,12.3,13.28A72.13,72.13,0,0,0,237,666c5.39-.12,10.58,1.84,10.7,6.48A1.9,1.9,0,0,0,247.69,673.05Z"/><path class="cls-27" d="M212.44,619.69c7.15-2.77,9.86-285.26,9.86-285.26l-52.07-4.81-4,20c-1.47-1.33-4.74,8.92-4.74,8.92l5.66,259.37C207.11,623.93,202.1,623.69,212.44,619.69Z"/><path class="cls-67" d="M273.07,210.77l32.14,68.7a10.76,10.76,0,0,1-1.76,11l-38.13,40.59"/><path class="cls-6" d="M294.47,250.53l-23.72,4.57-10.48,2-3.85-17.62c-3.72-17.09-8.66-35.91-11.76-46.83l-4.92-17.4s-3.08-3-4.09-5.9,0-5.9,8.29-5.9h.43a32.74,32.74,0,0,1,18.44,5.7l.06,0c.42.27.83.58,1.25.87l.08.06c8,6.07,13.56,15.62,16.73,26,5.27,17.34,7.91,28.55,9.7,36.73Z"/><polygon class="cls-10" points="279.56 253.45 266.14 196.75 245.62 259.54 279.56 253.45"/><path class="cls-27" d="M267.31,329.16l-101.3,47-3.67,43.19c.52,11.92,9.52,4.1,21.32,2.33L246,402.55c11.8-1.77,22.76-3.46,22.74-15.39Z"/><path class="cls-6" d="M264.46,352.33s.24-.41.5-1A1.15,1.15,0,0,1,264.46,352.33Z"/><path class="cls-6" d="M269.14,194.91s-.58,28-1.27,60.19c-.88,40.59-1.89,87.84-2.11,93.9a7.41,7.41,0,0,1-.8,2.36c-.18-1.49-4.69-4.1-34.71-3.88-49,.39-68.53,37.14-68.53,37.14V194c0-17,15.5-30.8,31.41-30.67h49.11q1.08,0,2.13.12a24.28,24.28,0,0,1,11.28,3.93C264,172.87,269.14,183.31,269.14,194.91Z"/><path class="cls-10" d="M187.32,204.44h-1.54l-1.21-.05-26.45,53.33,11.14,35.46L169,326l27.37-2.59-6.27-3.63V209.44C190.05,204.77,187.32,204.44,187.32,204.44Z"/><path class="cls-27" d="M268.77,353.5s-3.48,1.9-9.17,4.87c-25.71,13.37-96.65,48.52-97.88,29.35-.1-1.29-.14-2.76-.23-4.45,0-.8,0-1.6,0-2.36-.51-15.93-.38-48.44-.1-78.43.31-33.83.81-64.45.81-64.45l9.94-2.8-.67,74.37c1.11,0,12.92-1.13,18.69-1.63,1.64-.14,2.8-.23,3.08-.23,6.21,0,7.81-58.61,8.2-77.2.18-8.84.09-4.95.09-9.1h60.43c0,61.72-.35,87.41,5.41,87.41a6.51,6.51,0,0,1,1.09,3.9C268.68,323.1,269.26,314.78,268.77,353.5Z"/><path class="cls-68" d="M172.53,90.15c.47,23.5,10,28.59,19.39,28.59,7.73,0,14.13-10.67,13.86-13.16s-3.05-17.18-5.27-18S172.53,90.15,172.53,90.15Z"/><path class="cls-68" d="M196.87,113.61c-1.53-3.08-2.47,6.69-2.5,5.52C194,98.62,173.92,114,172.53,91.24c-1.18-19.38,1.15-19.61.62-29C172.11,43.52,183,23.68,223,24c22.25.17,28,8.81,33,20.14,9.35,21.11,1.8,48.22,1.8,48.22Z"/><path class="cls-32" d="M232.84,164.79s.31,7.9-12.56,7.9a31.68,31.68,0,0,1-20.87-7.9V125.62l33.43-1.85Z"/><path class="cls-69" d="M232.84,156.41c-8.76,1.07-33.19-2.07-33.19-7.82s-.24-31.29-.24-31.29l33.43.23Z"/><path class="cls-69" d="M261.72,104.76c0,7.7-6.7,25.45-10.87,30.75-1.78,2.27-4.23,7.41-9.87,9.12-5.12,1.56-8.16,2.65-8.16,5.42,0,3-6.31-2.82-8.47-2.82-25.62,0-38.29-27.6-38.29-46.4L194,76.16c0-20.59,13.66-35.39,33.55-35.23S263.4,54.64,263.4,75.22Z"/><path class="cls-32" d="M263.92,74.42l-.26,8.18-.16,4.65L263,104.78c-.76,21.6-5.61,41.54-31.83,41.33s-33.19-31.86-32.48-52.4l1.25-17.87c0-.74,0-1.5,0-2.21C200.47,46.83,211.35,37,230.59,37c24,0,32.58,14.09,33.32,32.25C264,71,264,72.67,263.92,74.42Z"/><path class="cls-69" d="M240.6,109.74c3.73,0,6.91-2.1,6.74-4.25-.06-.79-.84-1.73-2.3-1a12.8,12.8,0,0,1-4.42.67,12.09,12.09,0,0,1-4.06-.73c-2.37-.71-3.12.23-3.18,1C233.21,107.55,236.87,109.7,240.6,109.74Z"/><path class="cls-69" d="M199,91.83c.55,7.67-3.35,14.26-8.71,14.72s-10.14-5.39-10.68-13.06,2.44-13.65,7.74-14.6S198.49,84.16,199,91.83Z"/><path class="cls-38" d="M221.7,90.13A3.34,3.34,0,0,0,225,93.46a3.28,3.28,0,0,0,3.33-3.27A3.34,3.34,0,0,0,225,86.86,3.28,3.28,0,0,0,221.7,90.13Z"/><path class="cls-38" d="M251.08,90.64A3.34,3.34,0,0,0,254.41,94a3.28,3.28,0,0,0,3.33-3.27,3.34,3.34,0,0,0-3.33-3.33A3.28,3.28,0,0,0,251.08,90.64Z"/><line class="cls-70" x1="215.92" y1="76.59" x2="230.89" y2="76.29"/><line class="cls-70" x1="261.5" y1="77.52" x2="246.52" y2="77.22"/><path class="cls-68" d="M191,73.05a37.6,37.6,0,0,1,13.36-28.89C200.41,39.29,199,32,199.82,31.33c1.38-1.11,19.34-14.46,40.54-2.2,14.51,8.4,21.16,14,18.67,20,0,.07.07.13.1.2l-.13-.13c-2.25,5.3-7.23,8.74-11.67,8.74-18.56,0-18.16-10.9-32-9.84-5.4.42-12.84,1.79-12.84,15.29a192.77,192.77,0,0,1-3.26,32c-4.34.29-4.4-2.53-4.4-2.53,0-7.76-1.16-12.1-6.09-14.41Z"/><path class="cls-71" d="M245.76,122.5c-2.16,1.53-5.45,1.77-8.31,1.77s-7.47-.25-9.64-1.78"/><path class="cls-25" d="M245.2,409.5a1,1,0,0,0,0-.17A1,1,0,0,1,245.2,409.5Z"/><path class="cls-25" d="M245.16,407.81v0Z"/><path class="cls-25" d="M245.18,406.22v0Z"/><path class="cls-25" d="M245.8,414.74l-.06-.34Z"/><path class="cls-25" d="M245.5,412.85a.78.78,0,0,1,0-.16A.78.78,0,0,0,245.5,412.85Z"/><path class="cls-25" d="M245.32,411.26c0-.09,0-.17,0-.25C245.31,411.09,245.31,411.17,245.32,411.26Z"/><path class="cls-27" d="M214.38,222.61l-6,.32-6.88-.32c.21-16.63-3.33-51.34-18.47-56.82a2.41,2.41,0,0,0-2.29-1.21c-.75.13-1.47.28-2.17.47a5.37,5.37,0,0,0-.57,0s4.34-.83,7.38-1.25a68.82,68.82,0,0,1,7.75-.44C210.56,163.37,214.62,204.28,214.38,222.61Z"/><path class="cls-27" d="M240.91,163.36a41.72,41.72,0,0,0-7.74,0l-.33,0v1.4a5.05,5.05,0,0,1-.16,1.25c13.56,5,16.81,41.84,16.61,57.76l7.47-.58,5.17.58C262.16,205.46,258.34,163.36,240.91,163.36Z"/><path class="cls-10" d="M262.86,169.24a16.56,16.56,0,0,0-7.21-1.83c-6-.42-13.76.71-20.19,2-2.39.47-4.58,1-6.43,1.4a7.11,7.11,0,0,0,3.81-6v-1.43h9.4q1.08,0,2.13.12A32.6,32.6,0,0,1,262.86,169.24Z"/><path class="cls-72" d="M193.42,637.27c-5.54,4-15.89,3.66-15.89,3.66l-1.89-3.66-6.87-17.42c-2-.84-5.57-4.86-6.58-13.09-4.21-34.22-.87-122.49-1-208.78,0-20-.08-39.46-.1-57.44-.12-58.56-.21-101.88-.21-101.88l11.25-3.43-.68,74.37c1.11,0,12.92-1.13,18.69-1.63v54.59l-.17,3.37-.88,16.91-.8,15.14-1.21,23.25s-11.31,119.34-2,175.73c1.72,10.41,4.14,18.58,7.47,23.31C198.88,629.3,197.37,634.4,193.42,637.27Z"/><path class="cls-27" d="M283.23,610.69q-.39,1.95-.87,3.66c-1.68,6-4.06,6.6-5.83,7.58l-4.73,5.35-16.28,18.43-8.76-.45-1.52-21.32-.4-5.68-15.16-210,38.62-32C270.42,447.58,291.75,568.65,283.23,610.69Z"/><polygon class="cls-66" points="227.04 425.13 238.87 403.83 221.33 410.13 227.04 425.13"/><path class="cls-10" d="M264,71.93v-.25C263.89,52.37,255.68,37,230.59,37c-19.24,0-27.49,13.37-29,41.16.33-3.94,7.21-5.36,16.27-6.8,4,4.56,24.75,16.07,45.63,11.14l.16.09.15-4.73.11-3.44C264,73.59,264,72.75,264,71.93Z"/><path class="cls-66" d="M190.12,308v32h-29c.08-53.26.13-101.9.13-101.9l10.21-2.8V309.6C172.54,309.6,184.35,308.47,190.12,308Z"/><path class="cls-66" d="M202.19,345.21v48.1a4.68,4.68,0,0,1-4.67,4.67H161.17c0-20-.08-39.46-.11-57.44h38.32c1.3,0,.62.54,1.46,1.41A4.59,4.59,0,0,1,202.19,345.21Z"/><rect class="cls-73" x="200.12" y="206.99" width="15.38" height="11.93" rx="2.37"/><rect class="cls-73" x="248.04" y="206.99" width="15.38" height="11.93" rx="2.37"/><rect class="cls-27" x="204.86" y="210.22" width="9.46" height="4.28" rx="1.6"/><rect class="cls-27" x="252.63" y="210.22" width="9.46" height="4.28" rx="1.6"/><rect class="cls-66" x="161.03" y="341.71" width="106.49" height="20.89" rx="2.8"/><rect class="cls-48" x="158.52" y="336.11" width="111.2" height="20.89" rx="4.67"/><path class="cls-48" d="M204,354.21a2.47,2.47,0,0,1-2.5,2.79H185.61a2.59,2.59,0,0,1-2.8-2.28v-2.27s0-1.26,0-2.81v-7.78a2.81,2.81,0,0,1,2.8-2.8h.15c1.54,0,2.69-.66,2.56-1.47s1-1.48,2.55-1.48h8.33a3.21,3.21,0,0,1,3.11,2.79Z"/><path class="cls-27" d="M183,165.79a11.78,11.78,0,0,0-4.46-.74c.7-.19,1.42-.34,2.17-.47A2.41,2.41,0,0,1,183,165.79Z"/><path class="cls-27" d="M217.19,556.26c-1.75,23.25,7.83,56.75-5.72,64.54-.4.23-1.22.44-1.71.75-5.54,3.53-14.23,15.72-14.23,15.72H175.64l-7.78-16c-5.34-2.33-7-10-6.67-29.66-.17,14,2.75,19.33,13.49,19,6.22-.18,11.9-5.74,10.38-13.67-.2-1,0-2.18-.2-3.36C182.19,575.27,218.17,543.28,217.19,556.26Z"/><path class="cls-66" d="M283.23,610.69q-.39,1.95-.87,3.66c-1.68,6-4.06,6.6-5.83,7.58l-4.73,5.35a245.29,245.29,0,0,1-26.56-3.34A91.78,91.78,0,0,1,233,621.27a6.09,6.09,0,0,1-3.49-3.75,125.5,125.5,0,0,0,15.3.74C259,618.19,279.31,615.77,283.23,610.69Z"/><path class="cls-66" d="M202.29,416.75a5.92,5.92,0,0,1-4.77-5.84l1.58-51.38c.09-2.74,1.54-5.13,3.24-5.29s4.3,1.6,5.8,3.91l1.43,2.22a18.94,18.94,0,0,1,2.56,9.19l-1.4,43.62a4.24,4.24,0,0,1-5.08,4.15Z"/><path class="cls-74" d="M189.17,25.15c1.16-4.77,5-11.7,16.88-12.25s12,8.86,10.89,10.55-4.41,5.39-4.41,5.39L201.36,31Z"/><path class="cls-75" d="M172.17,83.56c0,1.71-2.64-1.37-3.06-2.73-.59-1.91-1.45-3.71,0-5.12.76-.76,19.15-18.41,67.33-17,20.84.59,27,2.69,28.83,9.14s-2.18,11.71-2,10.67c.33-1.78.7-5.79-.89-7.92,0,0-2-4.07-26.09-4.72-45.08-1.23-61.8,14.84-62,15C173.57,81.56,172.06,82.64,172.17,83.56Z"/><path class="cls-76" d="M265.53,61.56c-1.68-1.34-3.4-1.64-6.93-1.69-1.29,0-2.83,0-4.69,0-2.5,0-5.6,0-9.49-.1-16.7-.47-33.9,1.48-47.85,5.27-14.17,3.82-25,10.65-28.79,16.76-1.12.77-2.2-7-2.68-15.12-.15-2.67-.24-5.37-.24-7.81,0-.54,0-1.06,0-1.58a44.59,44.59,0,0,1,1.71-11.35c3.94-13.49,14.65-25,33.09-30,2.09-.57,4.27-1.06,6.54-1.45q1.91-.33,3.9-.57c.1,0,.2-.05.26-.05,2.61-.3,5.34-.49,8.22-.6l.49,0c1.08,0,2.12,0,3.17,0,6.44.14,9.51.56,14.37,2.35,3.28,1.21,5.19,3.9,5.52,4.07,12.41,5,17.85,11.62,21.58,20.56C268.34,51.25,267.76,61.45,265.53,61.56Z"/><path class="cls-77" d="M258.6,59.87c-.3.92-.71,1.44-1.21,1.47a6.77,6.77,0,0,0-3.48-1.47c-3-.48-7.73,0-17.68-.33L226.55,59c2.41-.12,3-11.05-2-22.88-3.25-7.8-11.88-20.36-19.93-21.44,1.27-.22,4.1-.63,5.43-.79.1,0,.2-.05.26-.05,2.61-.3,5.34-.49,8.22-.6a48.34,48.34,0,0,1,12.35,2.84c.35.13.7.25,1,.41A42.78,42.78,0,0,1,255.57,40C259.19,48.56,259.63,56.65,258.6,59.87Z"/><path class="cls-76" d="M258.94,40.07c-3.73-9-12.85-20-24.39-25.42-.32-.16-.67-.29-1-.42-4.86-1.83-11.2-1.74-17.66-1.89-1,0-2.09,0-3.17,0-2.27.07-4.56.37-6.66.57a19.8,19.8,0,0,1,5.1,1.54c7.7,3.47,13.9,13.73,17,21.16,5,11.81,4.21,23.36,1.81,23.49l9.67.54c14.7.41,18-.71,21.14,1.81C263,61.32,263.58,51.11,258.94,40.07Z"/><path class="cls-78" d="M167,83.09c3.28-6.82,15.39-14.22,29.57-18,14-3.78,31.14-5.74,47.85-5.27,14.68.41,18-.71,21.11,1.8,2.23-.12,2.81-10.32-1.83-21.35-3.73-8.95-8.85-15.59-21.27-20.56C252.92,26.55,254.86,44.5,255,50c.06,2.18-12.11-.06-48.58,7.71C177.06,63.92,161,74.27,167,83.09Z"/><path class="cls-6" d="M282.59,57.62s-11.9,2.83-17.83,4.22c0,0-1.36-1.08-5.62-2.16a86,86,0,0,0-18.2-2.09c-5.14-.14-13,1-20.2,2.27-9.53,1.7-18,3.76-18,3.76l-.62-4.83s5.41-3.48,18.8-6.24c9-1.85,21.56-3.38,38.45-3.28,2.21,0,4.49,0,6.85.12,15.47.46,15.21,2.51,16.34,4C283,54.1,282.59,57.62,282.59,57.62Z"/><path class="cls-79" d="M259.34,49.27l-.2,10.41a86,86,0,0,0-18.2-2.09c-5.14-.14-13,1-20.2,2.27l.15-7.31C229.88,50.7,242.45,49.17,259.34,49.27Z"/><path class="cls-64" d="M266.12,53C218.79,51.57,202.2,63.7,202.2,63.7a242.31,242.31,0,0,1,38.67-2.53c19.13.54,23.83,4.24,23.83,4.24C269.79,64.21,301.23,54.22,266.12,53Z"/><path class="cls-17" d="M197.75,336.1v48.1a4.68,4.68,0,0,1-4.67,4.67H152.92a4.68,4.68,0,0,1-4.67-4.67V336.1a4.68,4.68,0,0,1,4.67-4.67h40.16a4.65,4.65,0,0,1,3.33,1.41A4.58,4.58,0,0,1,197.75,336.1Z"/><path class="cls-48" d="M196.27,332c.08-.34,0-.55-2.19-.6h-1.93a4.53,4.53,0,0,0-.53.05c-3.55.29-4,1.58-4,1.58-1.32,1.78-1.32,4.11-1.32,6.07v18.44a6.08,6.08,0,0,1-6.07,6.07H154.32a6.08,6.08,0,0,1-6.07-6.07v6.48a8.84,8.84,0,0,0,6.07,2.4h25.92a8.86,8.86,0,0,0,7.24-3.76v21.5a4.68,4.68,0,0,0,4.67,4.67H194a4.68,4.68,0,0,0,4.67-4.67V336.11A4.67,4.67,0,0,0,196.27,332Z"/><rect class="cls-65" x="167.96" y="621.58" width="41.82" height="28.02"/><rect class="cls-65" x="231.63" y="621.58" width="45.49" height="28.02"/><path class="cls-28" d="M277.12,621.58v.76a23.82,23.82,0,0,1-10.79,4.6c-7.8,1.49-16,.46-19.47.66-4.19.24-4.73,2.23-3.71,22,.06,1.12.12,2.29.19,3.53.12,2.25.26,4.7.41,7.37,0,.27,0,.55.05.83,5.63.77,11.41,2.5,15,7a15.6,15.6,0,0,1,2,3.2l.27.33a1.7,1.7,0,0,1,.37,1.26,20.21,20.21,0,0,1,.33,10.28c-.48,2.53-4.34,1.46-3.86-1.06.05-.26.09-.52.13-.77a2,2,0,0,1-1.87-.88c-.19.14-.37.28-.57.41a2,2,0,0,1-2.94-2.26c0-.12,0-.22.06-.33a5.4,5.4,0,0,1-2.57,2c-2.06.74-3-.52-3.59-2.38a1.75,1.75,0,0,1,.19-.39.76.76,0,0,0,.06-.21l.15-.4A1.15,1.15,0,0,0,247,677c.11-.4.22-.79.33-1.23a18.44,18.44,0,0,0,.31-2.66v0a1.9,1.9,0,0,1,0-.53c-.12-4.64-5.31-6.6-10.7-6.48a64.49,64.49,0,0,1-7.32-.26l-.45,0-.17,0-.54-.06-.53,0-.36,0c1-12.8,4-19.47,4-25.85V621.58Z"/><path class="cls-29" d="M234.86,662.85c0,1-.11,2-.17,3.2-2.91,0-5.69-.32-7.36-.51a87.11,87.11,0,0,1,1.11-8.87C231.91,657.06,235.05,658.57,234.86,662.85Z"/><path class="cls-30" d="M225.75,665.33c-26.78,0-26.56-6.73-27.22-13.4-.07-.69-.12-1.48-.16-2.33-.13-2.57-.18-5.73-.39-8.83-.39-5.72-1.35-11.2-4.45-12.17-4.69-1.47-19.89-3.44-25.57-4.8v-2.22h41.82v19.14c.07.44.21,1.28.4,2.3v.05c0,.22.12.4.15.63a.29.29,0,0,0,0,.18,3.2,3.2,0,0,0,.14.67.16.16,0,0,0,0,.14,3.2,3.2,0,0,0,.14.67.41.41,0,0,1,0,.09,4.33,4.33,0,0,1,.19.77.13.13,0,0,1,0,.13,5.18,5.18,0,0,1,.19.72.05.05,0,0,1,0,0c.1,2.32,2.33,4.93,2.33,4.93C217.71,657.39,225.75,665.33,225.75,665.33Z"/><path class="cls-66" d="M213.42,617.11c-5.72,2.43-36.85,2-49,.4a6.07,6.07,0,0,0,3.49,3.75c4.5,1.84,36.59,2.31,41.92.32a10.2,10.2,0,0,0,6.73-6.72A6.17,6.17,0,0,1,213.42,617.11Z"/><path class="cls-66" d="M269.27,616.1c-12.25,2-24.5,3.58-25.08-5.59-.53-8.32-12.09,5.34-17.33,3.09.83,2.66,2.66,7.16,4.83,8.16,4.41,2,41.63,4.15,45.34-.17,4.66-5.42-4.42-2.19-3.17-5.49C273.09,617.24,270.72,615.86,269.27,616.1Z"/><path class="cls-30" d="M290.84,665.14l-.73,0c-20.61-1.57-24.11-7.3-25-15.5-.25-2.24-.31-4.67-.47-7.25,0-.56-.07-1.1-.11-1.62-.83-10.52-2.79-11.92-5.89-12.63-13.06-3-24-5.25-27-6.52h45.49v28a13.26,13.26,0,0,0,1.6,2.47C282.6,656.9,289.6,663.91,290.84,665.14Z"/><path class="cls-66" d="M229.54,617.52c1.48,1.58,0,2.54,2.09,4.06s41.75,3.81,45.49,0c0,0,1.4-.77,2.2-5.11a26.78,26.78,0,0,1-6.92,2.21,38.06,38.06,0,0,1-9.63.17c-1.79-.09-17.33-1.92-19.58-1.71s-10.46-.46-10.46-.46-3.62.79-3.46.79"/><path class="cls-29" d="M169.25,676.9c-4.09.11-7.33.16-7.34.06,0-3,.08-5.78.21-8.27l0-1a96.22,96.22,0,0,1,1.27-11.05c3.47.39,6.61,1.9,6.42,6.18C169.69,666.8,169.16,672.75,169.25,676.9Z"/><path class="cls-80" d="M210.36,321.15a12.48,12.48,0,0,1-4.15,22.64l-1.82-8.74,4-3.2Z"/><path class="cls-81" d="M206.32,333.51l2-1.58-.31,1.9,7.45,1.44a12.55,12.55,0,0,1-1.73,3.52c-3.13-.53-7.64-1.41-7.89-1.44a5.19,5.19,0,0,1-1.21-1.05l-.26-1.25Z"/><path class="cls-82" d="M200,318.65l-2.1,11.44,2.42,3.35,17.21,3.16c-.11.25-.23.5-.37.75l0,0,0,.05A12.58,12.58,0,0,1,215.3,340c-1.57,1.82-3.47,3.52-4.7,4.71-3.4,3.32-4.08,5.9-4.74,14.9l-4,43.83-9.17,1L196,350.15c0-.14,0-.29,0-.45.56-9.41-4.7-11.53-5.53-16.53a10,10,0,0,1-.22-2.4,12.79,12.79,0,0,1,.21-2.2A12.47,12.47,0,0,1,200,318.65Z"/><path class="cls-83" d="M197.7,339.59a1.89,1.89,0,0,0,1.51,2l6,1.11a1.86,1.86,0,0,0,2.12-1.35l.67-2.57a1.57,1.57,0,0,0-1.25-2l-6.94-1.27A1.57,1.57,0,0,0,198,337Z"/><path class="cls-84" d="M196.52,411.5a5.7,5.7,0,0,1-4.61-5.83l2.83-44.48c.18-2.75,1.67-4,3.31-2.84a7.35,7.35,0,0,0,5.75,1.21c1.52-.52,2.69,1.31,2.6,4.06L205,407.93a4.24,4.24,0,0,1-5.08,4.15Z"/><path class="cls-85" d="M194.58,409.73l3-46.71c.19-2.88,1.75-4.22,3.48-3a8.24,8.24,0,0,0,5.13,1.44c-.4-1.47-1.29-2.29-2.36-1.92a7.35,7.35,0,0,1-5.75-1.21c-1.64-1.18-3.13.09-3.3,2.84l-2.84,44.48a5.72,5.72,0,0,0,2.71,5.1A5.15,5.15,0,0,1,194.58,409.73Z"/><polygon class="cls-86" points="206.52 362.06 194.9 359.01 194.41 365.41 206.27 367.26 206.52 362.06"/><path class="cls-87" d="M197.67,339.88a.24.24,0,0,0,.19.25l9.2,1.69a.22.22,0,0,0,.26-.16l.73-2.85a.2.2,0,0,0-.16-.25l-9.68-1.75a.18.18,0,0,0-.23.17Z"/><path class="cls-88" d="M193.28,358.31a1.77,1.77,0,0,0,1.39,2.09l11.94,2.53a1.77,1.77,0,0,0,2.08-1.39h0a1.78,1.78,0,0,0-1.4-2.09l-11.93-2.53a1.77,1.77,0,0,0-2.08,1.39Z"/><line class="cls-89" x1="190.36" y1="344.6" x2="207.36" y2="353.1"/><rect class="cls-82" x="162.02" y="362.93" width="7.67" height="6.83" rx="2"/><path class="cls-31" d="M194.52,633.6a2,2,0,0,0-2,2v1.67a2,2,0,0,0,4,0V635.6A2,2,0,0,0,194.52,633.6Z"/><path class="cls-31" d="M196.94,643.85a2,2,0,0,0-2.83,0,3.08,3.08,0,0,0,0,4.16,2,2,0,0,0,2.83,0,5.25,5.25,0,0,0,0-4.16Z"/><path class="cls-31" d="M198.79,655.07a2,2,0,0,0-3.91.84,2.24,2.24,0,0,0,.25,1,2.7,2.7,0,0,0,.86.95,2,2,0,0,0,2.73-.72A2.42,2.42,0,0,0,198.79,655.07Z"/><path class="cls-31" d="M264.86,633.27a2,2,0,0,0-2,2v2a2,2,0,0,0,4,0v-2A2,2,0,0,0,264.86,633.27Z"/><path class="cls-31" d="M265.52,643.6a2,2,0,0,0-2,2v.46a2,2,0,0,0,4,0v-.46A2,2,0,0,0,265.52,643.6Z"/><path class="cls-31" d="M265.19,652.27a2,2,0,0,0-2,2v1.66a2,2,0,0,0,4,0v-1.66A2,2,0,0,0,265.19,652.27Z"/><path class="cls-90" d="M156.66,208.61l-25.27,91.14a28.79,28.79,0,0,1-9.83,13.8l-47,32.34"/><path class="cls-6" d="M188.49,201.11,169.67,265l-38-11.86s12.57-41.86,18.67-60.63c4.4-13.51,12.66-25.87,28.63-27.79a11.85,11.85,0,0,1,4.35,1.25C188.13,174.07,188.49,201.11,188.49,201.11Z"/><path class="cls-2" d="M81.66,327.11l7.66,22s-10,10-18.33,10.66-1-29.33-1-29.33Z"/><line class="cls-91" x1="70.58" y1="683.38" x2="70.58" y2="186.9"/><path class="cls-32" d="M75.34,356.58a12.31,12.31,0,0,1-11.68,9.86H61.32a10,10,0,0,1-10-10v-21a10,10,0,0,1,10-10h9.34A8.16,8.16,0,0,1,79,335.3Z"/><path class="cls-2" d="M275,175.11c-6.63-1.25-12.25-3.25-12.5,1s6.25,7.37,14.87,9.37,12,1.25,12.13.63S283.32,176,282.7,176s-6.75-3.87-6.75-3.87Z"/></g></g></svg>