<svg id="Layer_1" data-name="Layer 1" xmlns="http://www.w3.org/2000/svg" viewBox="0 0 134.81 185.36"><defs><style>.cls-1{fill:#568c3c;}.cls-2{fill:#ffd372;}.cls-3{fill:#d69c1c;}.cls-4{fill:#b38112;}.cls-5{fill:#c92b25;}.cls-6{fill:#ffb9a1;}.cls-7{fill:#457030;}.cls-8{fill:#64a346;}.cls-9{fill:#e87f7f;}.cls-10{fill:#006180;}</style></defs><path class="cls-1" d="M48.25,154c-31.82,7.54-39.64,20-23.18,22.34s26.75-2.71,32.53,0,35.63,5.35,50.08,3.47,22.36-12.05,22-16.76S82.46,145.86,48.25,154Z"/><path class="cls-2" d="M68.14,125.78c-5.28,2.86-14.21,14-13.08,25.5s9.79,22.22,15.82,22.22,38.8.44,41.35-.67c5-2.16,9.68-18.77,8-27.31S114,127,111,125.58,72.18,123.58,68.14,125.78Z"/><path class="cls-3" d="M69.43,128.21c-11.57.73-17.07,37.16,1,38.91S97.05,126.45,69.43,128.21Z"/><path class="cls-2" d="M76,134.76c-7.08-.27-12,7.7-13,13.85a18.21,18.21,0,0,0,1,10.27c1.43,3.21,4.85,5.72,8.46,4.49,3.23-1.1,5.75-4.17,7.24-7.12s2.61-7,2-10.45-3.62-6-7.23-5.13A9.71,9.71,0,0,0,67.58,148a6.47,6.47,0,0,0,1.21,5.48,5,5,0,0,0,4.78,1.61c3.3-.78,4.19-6.17.53-7.09a1.3,1.3,0,0,0-1,2.37,1.1,1.1,0,0,1,.39,1.48c-.43.68-1.48.45-2,.07-1.9-1.31-.91-4.38.16-5.87,1.21-1.69,4-3.84,6.08-2.35s1.85,4.69,1.41,6.95a16.7,16.7,0,0,1-2.77,6.62c-1.32,1.84-3.69,4.3-6.18,4-2.84-.35-4.21-3.34-4.75-5.8a17.44,17.44,0,0,1,0-7.23,18.86,18.86,0,0,1,3.29-7.35c1.74-2.35,4.16-4.67,7.25-4.74a.69.69,0,0,0,0-1.37Z"/><path class="cls-3" d="M103.11,128.09a10.52,10.52,0,0,1,2.26-3.91c1-1.05,2.13-1.89,3.15-2.88.42-.41,0-1-.51-.88-3.41.46-5.61,4.21-6.19,7.32a.67.67,0,0,0,1.29.35Z"/><path class="cls-3" d="M106.12,128.65a7.92,7.92,0,0,1,2.48-2.27,23.14,23.14,0,0,0,2.76-1.28.8.8,0,0,0-.35-1.32c-1.18-.34-2.68.47-3.64,1.12a8.75,8.75,0,0,0-2.65,2.93.81.81,0,0,0,1.4.82Z"/><path class="cls-3" d="M98.54,155.24c.37,2.88,1.92,7.33,5.31,7.78.53.07.78-.61.57-1-.63-1.2-1.82-2-2.61-3.13A10.71,10.71,0,0,1,100,155c-.18-.78-1.53-.63-1.43.2Z"/><path class="cls-3" d="M103.31,154.85c.18,2.39,1.52,5.73,4.28,5.89a.61.61,0,0,0,.52-.91,21.6,21.6,0,0,0-1.78-2.17,6.08,6.08,0,0,1-1.24-3c-.14-1-1.86-.77-1.78.24Z"/><path class="cls-3" d="M70.46,127c-.73-1.23-1.47-2.45-2.23-3.66-.66-1.05-1.22-2.36-2.35-3a.57.57,0,0,0-.84.49c0,1.36.94,2.54,1.67,3.62a27.14,27.14,0,0,0,2.68,3.37c.53.58,1.46-.16,1.07-.83Z"/><path class="cls-3" d="M72.39,125.26c-.19-.77-.38-1.53-.56-2.3a3.14,3.14,0,0,0-.82-1.84.51.51,0,0,0-.83.22,3.14,3.14,0,0,0,.18,2l.63,2.29a.73.73,0,0,0,1.4-.39Z"/><path class="cls-3" d="M117.34,148.27a11.4,11.4,0,0,1,2.71-1.34,9.67,9.67,0,0,0,2.43-1,.4.4,0,0,0-.09-.72c-2-.67-4.23.71-5.75,1.84-.71.52-.06,1.7.7,1.2Z"/><path class="cls-3" d="M117.33,151.73l2.08-.49a4,4,0,0,0,1.78-.69.59.59,0,0,0-.26-1,3.83,3.83,0,0,0-1.87.38l-2,.73a.54.54,0,0,0,.29,1Z"/><path class="cls-3" d="M88.56,170.33a11.54,11.54,0,0,0-.46,1.93,7.65,7.65,0,0,0-.23,1.71c0,.72.57,1.62,1.42,1.31a.51.51,0,0,0,.3-.75,2.26,2.26,0,0,1-.12-1.58,13.73,13.73,0,0,0,.21-2.47.57.57,0,0,0-1.12-.15Z"/><path class="cls-3" d="M91,171.8c0,.62-.08,1.23-.1,1.85a2.11,2.11,0,0,0,.41,1.64.69.69,0,0,0,1,0,2.11,2.11,0,0,0,.4-1.64c0-.62,0-1.23-.09-1.85a.79.79,0,0,0-1.58,0Z"/><path class="cls-3" d="M83.14,140.58a9.46,9.46,0,0,1,3.29-1.77c1.06-.32,2.15-.35,3.17-.75a.31.31,0,0,0,0-.6c-2.37-.94-5.42.88-7.15,2.43-.47.42.21,1.07.69.69Z"/><path class="cls-3" d="M84.27,142.75l0-.07c0,.2,0,.4-.08.6.17-.17,1.18-.1,1.43-.11a10.65,10.65,0,0,1,1.13,0,10.52,10.52,0,0,0,2.44.06c.66-.11.62-1,.17-1.29-1.17-.82-3-.7-4.35-.44-.72.15-2.23.66-1.6,1.68a.51.51,0,0,0,.56.23l.09,0a.43.43,0,0,0,.25-.63Z"/><path class="cls-3" d="M62.75,139.82c-2.36-2.22-6.67-4.1-9.84-2.56-.46.23-.25.82.13,1a32.8,32.8,0,0,0,4.39,1.11A25.72,25.72,0,0,1,61.84,141c.72.34,1.56-.55.91-1.17Z"/><path class="cls-3" d="M62.55,136.56c-.72-2.6-2.19-5.21-4.77-6.29a.56.56,0,0,0-.69.69c.95,2.35,2.79,4.27,4.35,6.25.43.54,1.27-.05,1.11-.65Z"/><path class="cls-3" d="M66.87,170.89c-.74-.7-1.8.37-2.21,1a2.19,2.19,0,0,0-.16,2.57.49.49,0,0,0,.7,0,1.22,1.22,0,0,0,.28-.51c.11-.38-.1.13.14-.26s.3-.71.51-1,1.31-1.17.74-1.71Z"/><path class="cls-3" d="M68.91,172.07a2.42,2.42,0,0,0-1.38,1.72,2.63,2.63,0,0,0,.25,2.25.58.58,0,0,0,1-.14,6.82,6.82,0,0,1,.23-.77,8.85,8.85,0,0,0,.16-.87,8.22,8.22,0,0,0,.46-1.61.61.61,0,0,0-.76-.58Z"/><path class="cls-4" d="M80.61,125.06c-1.78.45-1.92,1.42,0,1.87s10.06,0,11.17-1S83.76,124.26,80.61,125.06Z"/><path d="M87.6,110.05C90.48,99.51,93,85,85.87,79.78c-8.1-6-22.83.74-22.32-3a75.36,75.36,0,0,0,0-9.78C54.36,74.06,42.71,79.14,31,77.07c.64,6.9,1.21,13.31,1.43,17.27.83,15,5.57,38.37,8.63,52.57a23.07,23.07,0,0,0,9.59-.54c0-2.63.06-5,.11-6.59.19-6.8,2.76-33.64,6.53-36.65,2.46-2,19.67-10.46,19.83-7.4.15,2.82.53,8.41,1,14A23,23,0,0,0,87.6,110.05Z"/><path class="cls-5" d="M39.7,145.05c1.53,7.1,4,13.77,4,14.11,0,1-8.32,3.42-7.56,4.93s11.58.06,13.08-1.7c1.08-1.26,2.49-10.75,2.6-17.34C48.6,146,42.89,145.47,39.7,145.05Z"/><path class="cls-5" d="M84.08,122c-.11-.57,3-7.13,4.7-13.54a34.42,34.42,0,0,1-11.72,0c.61,7.43,2.34,16,2.74,16.46,1.09,1.26,10,1.51,10.21,0S84.37,123.49,84.08,122Z"/><path class="cls-6" d="M83.53,77c-1.84-.51,3.1-13.06,4.89-23.78s-20.87-16.4-34-18.54c0,0,3.78,2.32,5.78,8.26a49.47,49.47,0,0,1,2.06,9.27C65,51,78.09,55.93,77.84,58.64s.64,19.87,1.87,21c1.5,1.42,3.41,5.64,3.82,4.89s-1.78-3.73-1.06-4.26,4.88,4,5.25,3.29-3.54-3-3.4-3.19,3.91,2.89,4.24,2.3c.25-.44-4-3-3.89-3.15s3.63,2.34,4.21,2.3c1.52-.11-3.63-2.78-3.71-3s4,2.32,4.39,1.91S85.07,77.44,83.53,77Z"/><path class="cls-7" d="M86.13,46c-.72.72-7.56,11.37-8.33,11.92s-1.19,1-1.59,1c-.62,0-.36-1-.63-1.24a19.61,19.61,0,0,0-9-3.87,48,48,0,0,0-8.84-.48L51.8,34.12s13.32-.69,20.42,2.62c5.53,2.58,10.76,5.36,12.91,7.2.45.38.92-.47,1.51.19C87.09,44.64,86.59,45.48,86.13,46Z"/><path class="cls-1" d="M65.6,74.24c-.4-8.15-3.64-26.43-5.95-32.85-4.23-11.78-19-9.18-22.23-8-4.11,1.49-8.28,7.29-8.78,12.31C28.31,49,29.76,71.92,31,85.06,42.71,87.13,56.45,81.32,65.6,74.24Z"/><path class="cls-8" d="M65.24,69.92c-.07-.58-.14-1.17-.21-1.79q-1.71.57-3.42,1.11c-.26-2.14-.53-4.29-.82-6.43-.25-1.84-.51-3.69-.8-5.53,1-.4,2.1-.81,3.14-1.23q-.16-.9-.33-1.77c-1,.42-2.06.84-3.1,1.24-.49-3-1.05-5.92-1.71-8.85,1-.27,2-.56,3-.85-.15-.57-.29-1.12-.43-1.63L57.61,45c-.68-2.84-1.45-5.65-2.35-8.42l1.29-.2a12.32,12.32,0,0,0-1.8-1.47h0l0-.06a14.43,14.43,0,0,0-1.8-1c.14.43.29.87.42,1.3-1.17.21-2.34.44-3.5.69-.83.18-1.66.36-2.49.56a2.76,2.76,0,0,1-.08-.27c-.41-1.29-.83-2.57-1.26-3.85-.44,0-.88,0-1.31,0,.45,1.48.88,3,1.3,4.47q-2.91.72-5.78,1.6c-.27-.91-.54-1.81-.82-2.71s-.56-1.74-.86-2.6c-.43.12-.8.23-1.08.33l-.1,0c.54,1.77,1,3.56,1.53,5.35q-3,1-5.91,2.07c-.3-1-.61-2.05-.93-3.08a19,19,0,0,0-1.23,1.84l.51,1.88c-.59.23-1.19.48-1.78.73A13.87,13.87,0,0,0,29,44c.9-.37,1.81-.72,2.72-1.06.72,2.66,1.43,5.33,2.1,8l-.46.1-4.6,1c0,.35,0,.72,0,1.1q2.67-.42,5.33-.89c.8,3.24,1.49,6.51,2.11,9.79-1.82.3-3.63.57-5.46.79l-1.44.17c0,.51.07,1,.1,1.54,2.37-.22,4.74-.53,7.09-.92q.94,5.27,1.66,10.58c-.82,0-1.65.07-2.48.08-1.88,0-3.75-.07-5.61-.22l.09,1.19a63.85,63.85,0,0,0,8.18.29c.38,2.84.72,5.69,1,8.54l.15,1.3c.71-.07,1.43-.17,2.14-.28-.33-3.23-.69-6.45-1.11-9.67,1.71-.11,3.43-.29,5.14-.53.38,2.45.76,4.91,1.15,7.35.09.54.17,1.07.26,1.61.64-.19,1.28-.39,1.91-.61-.46-2.89-.93-5.77-1.4-8.66l1.26-.23q2.67-.52,5.34-1.18c.45,2.46.9,4.92,1.33,7.37.59-.29,1.18-.58,1.76-.89q-.63-3.46-1.29-6.93c1.43-.37,2.85-.76,4.27-1.18l.66,5.21.09.75,1.43-.93q-.32-2.74-.64-5.49C63,70.66,64.1,70.29,65.24,69.92ZM58.11,56.11c-.9.33-1.81.66-2.72,1s-1.61.54-2.42.8c-.7-3.1-1.43-6.2-2.22-9.28,1.89-.47,3.78-1,5.66-1.48C57.05,50.09,57.61,53.1,58.11,56.11Zm-6.83,2.28q-3,.91-6.08,1.68c-.59-3.26-1.23-6.5-2-9.73q3-.65,5.89-1.35C49.89,52.11,50.6,55.25,51.28,58.39Zm2.53-21.54c.84,2.85,1.58,5.73,2.24,8.63q-2.85.8-5.7,1.53c-.79-3-1.63-6-2.54-9Q50.79,37.38,53.81,36.85Zm-7.4,1.53q1.25,4.5,2.35,9-2.91.73-5.84,1.43-1-4.5-2.29-8.93C42.55,39.36,44.47,38.85,46.41,38.38Zm-13,3.89c1.53-.55,3.06-1.06,4.61-1.55l1.28-.39c.75,3,1.42,5.92,2,8.9-1.87.44-3.76.86-5.64,1.27Q34.57,46.38,33.36,42.27Zm4.89,19.31q-1-4.92-2.26-9.77,2.81-.53,5.61-1.11,1,4.88,1.81,9.8Q40.83,61.1,38.25,61.58ZM40.36,74c-.21-1.53-.43-3-.68-4.57q-.49-3.12-1.11-6.2c1.15-.21,2.3-.43,3.45-.67l1.67-.36c.61,3.72,1.19,7.44,1.77,11.14C43.76,73.57,42.07,73.79,40.36,74Zm7-1c-.31-1.89-.62-3.79-.92-5.68s-.61-3.7-.94-5.55q3.09-.73,6.14-1.64,1.2,5.69,2.26,11.39C51.74,72.05,49.55,72.55,47.36,73Zm8.33-2c-.27-1.4-.55-2.81-.83-4.21-.49-2.41-1-4.81-1.52-7.22q2.55-.8,5-1.7c.63,3.94,1.17,7.9,1.67,11.85C58.61,70.17,57.16,70.6,55.69,71Z"/><path class="cls-9" d="M49.07,34.7c.78-5-1.93-12.51-4.44-11.78-3.43,1-4.6,7.19-4.78,11,0,.51,0,1.84,0,2-.09,3.18,4.23,12.37,8.54,11.76,2.4-.33,3.44-4.23,3.42-7.32,0-2.13-2.89-4-2.73-5.67Z"/><path class="cls-6" d="M49.18,13.13c-5.94-1.85-13.36.78-11.31,14.68a7.86,7.86,0,0,0,12,5.7C54.38,30.8,55.76,15.17,49.18,13.13Z"/><path d="M51.14,18.92a5.3,5.3,0,0,1-4.2,2.26c-2.68-.15-6-2.82-6.78-2.07s0,5.33-.75,5.52-1.85-3.24-1.87-2.1.18,4.14.18,4.14S35,25,34.78,22.67s.3-7.56,1.72-9.53,6.28-2.75,7.74-3.42,6-1.06,8.11.23,2.5,2.93,3.43,4.5,1.12,5.25-.09,8.2a23.87,23.87,0,0,1-2.46,4.53,17.19,17.19,0,0,0,0-7.36C52.73,17.49,52.24,17.63,51.14,18.92Z"/><path class="cls-3" d="M26,18c-2.76,3.68,8.84,1.31,21.11.16,9.53-.89,19.64.34,19.63-2.78C66.73,10.14,34.31,6.9,26,18Z"/><path class="cls-9" d="M52.94,26.47a2.19,2.19,0,0,0-.83,4.21,17.17,17.17,0,0,0,1.25-4.17A3,3,0,0,0,52.94,26.47Z"/><path class="cls-2" d="M36.66,14.49c.42,1.66,6.8,2,9.82,1.33s9.42.44,9.3-1.37S54.38,4.28,45.67,5C37.15,5.69,36.12,12.36,36.66,14.49Z"/><path class="cls-9" d="M39.7,28.66a2.19,2.19,0,1,0,2.18-2.19A2.18,2.18,0,0,0,39.7,28.66Z"/><path d="M46.32,27.92c-1.54.59-1.8,2.15-2.72,3s3.13.38,4-.95c1.11.91,2.49,1.57,3.52,1.17S49.37,28,48.23,27.86A5.6,5.6,0,0,0,46.32,27.92Z"/><path class="cls-6" d="M20.23,72.25c.12-2,9.26-11.58,11.27-14.17s9.23-12.65,4.66-20.18c-4.89-8-27.62,22.19-29.75,34.29s26,13.69,25.47,16.2c-.4,2-.86,6.64-.47,6.75.63.16.46-3.25.94-3,.25.13-.43,4.49.09,4.49.86,0,.68-4.44,1-4.49.15,0,0,5.3.5,5.24.73-.08.76-5.52,1-5.72s.63,4.61,1.22,4.36c1-.42-.75-6.83-.11-7.12.34-.16,2.7,2.26,3.2,1.42.27-.44-.46-2.13-3.87-4.17C32.19,84.21,20.11,74.25,20.23,72.25Z"/><path class="cls-10" d="M41.71,119.53a1.18,1.18,0,0,0-1.9.3.77.77,0,0,0-.36.39,6.22,6.22,0,0,0-.32,4.45c.37,1.25,1.39,3.3,3,3s1.6-2.45,1.48-3.68A8.18,8.18,0,0,0,41.71,119.53Z"/><path class="cls-10" d="M88,85C87.5,84,86.18,83,85.12,84c-.87.88-.51,2.21-.11,3.21s1.12,2.83,2.45,2.35a1,1,0,0,0,.67-.82.61.61,0,0,0,.07-.14A4.34,4.34,0,0,0,88,85Z"/><path class="cls-7" d="M35.71,36.56c-1.48-1.14-9.29-.29-15.88,10.23-5,8-11.06,16.78-13.62,21.26-.31.53-1.34.51-1.74,1.24s.23,1.63.79,2c1.51,1,16,2.5,17,1.51.57-.57.48-1.38.79-1.79,3.1-4.11,11.77-14.17,12.66-16.32C36.77,52.11,42.18,41.54,35.71,36.56Z"/></svg>