<svg id="Layer_1" data-name="Layer 1" xmlns="http://www.w3.org/2000/svg" viewBox="0 0 294.89 185.36"><defs><style>.cls-1{fill:#568c3c;}.cls-2{fill:#85422d;}.cls-3{fill:#c28e61;}.cls-4{fill:#ffb9a1;}.cls-5{fill:#e87f7f;}.cls-6{fill:#457030;}.cls-7{fill:#64a346;}</style></defs><path class="cls-1" d="M266.16,176.16c18.21,0,23.18-13.15,18.76-19.76s-56.75-13.06-83.5-13.26-108,10.16-130.91,8.69S1.23,155.76,5.65,166.58s68.83,6.18,90.44,5.19S250.44,176.16,266.16,176.16Z"/><path class="cls-2" d="M129.34,105.4c.18,3.63,2.76,51.28,2.14,50.92s-8.88,1.28-9.8,0-9.19-55.21-8-57S129.26,103.83,129.34,105.4Z"/><path class="cls-2" d="M174.08,101.59c-.62,4-.92,53.73,1.22,53.67s10.73,2.81,10.73,0,2.75-56.74,2.45-58.88S174.08,101.59,174.08,101.59Z"/><path d="M101.23,39.43c-2,6.74-6.91,11.35-5.79,16.91s3,6.89,2.14,10.82-2,2.36-2.14,7.23.91,9.55,2.75,11.19,2.25,4.5,5.92,4.91,8.58-.36,11.65-3.75,14.5-38.12,14.5-38.12l-10-16.34Z"/><path class="cls-3" d="M88.89,23.67C81.77,26,71.43,32.16,72,38.91s18.08,6.84,22.37,5.15,9.8-2.63,11-1.25-4.6,36.93-4,55.62,6.43,59.26,8.88,59.51,8,1.29,8,0,.61-45.41,2.14-46.94,32.7,7,48.11,3.06c14.51-3.7,19.92-4.6,20.84-4.29s-1.84,48.27,0,48.8,8.27,1,9.19,0,6.74-51.86,8.58-60.44,1.53-31.35-13.48-35.9-69.87,10-71.4,6.86-3.06-41.74-6.13-45.42S97,21,88.89,23.67Z"/><path d="M205.16,57.92c0-2.39-.31-10.29,10.7-13.31s28.93,9,25.6,20.8S225.08,85.94,226.87,93c.61,2.38,1.8,3.2,3.12,3.26a1.23,1.23,0,0,1,.72,2.19c-3.8,2.91-9.27,5.13-14.34,0-9-9.15-5.63-24.87-2.81-27.77s-.51-11.51-5.12-9.89S205.16,57.92,205.16,57.92Z"/><path class="cls-4" d="M84.51,25.44c-6.33,3-13,8-12.47,13.47.52,5.76,13.31,6.67,19.72,5.76.11-1.84.62-3.88.44-5.85C91.65,33.09,89.11,30,84.51,25.44Z"/><path d="M199.67,68.35c1.91.57,10.13-6.59,12.18-8.3,2.35-2-3.92-6.59-5.57-4.2C205,57.7,197.13,64.76,197.13,66S197.75,67.79,199.67,68.35Z"/><path d="M98.34,17.88c-2.71,1.22-6.27-7.36-11.79-4.29s-9.12,7-11.76,4.29a17.12,17.12,0,0,1-3.58-5.27s-3.39,6.8,0,10.78S86.85,28.29,89,26.76s9.49-5.23,12.71-5.36,12.88,3.32,14.56,6.06,3.77,38.61,6,41.63,20.2-2.15,20.35-2.17-.39-8.59-2.66-10,1-7.84,0-10.59-6.41-7.8-6.79-9.56,2.53-10.65,0-12.8-12.62-7.35-14.77-9.49S106.46,14.2,98.34,17.88Z"/><path class="cls-3" d="M96,25.3c2.67.29,11,.66,11.07-1S105,11.13,102.18,11.13,93.7,25.05,96,25.3Z"/><path class="cls-2" d="M186.44,66.11c-3.2.72-5.93,9.73.41,9.19S193.18,64.6,186.44,66.11Z"/><path class="cls-2" d="M199.72,71.73c-4.54-3.5-8.2,4.53-5.92,6S203.06,74.3,199.72,71.73Z"/><path class="cls-2" d="M189.71,76.87c-1.58-1.31-4.65,5.38-2.43,5.72S193,79.58,189.71,76.87Z"/><path class="cls-5" d="M79.36,35.34c-1.91.34-1.5,7,.74,6.12S81.27,35,79.36,35.34Z"/><path d="M188.78,153.25c.06,3.18.25,5.21.62,5.32,1.84.53,8.27,1,9.19,0a18.23,18.23,0,0,0,.72-3.56A90.4,90.4,0,0,0,188.78,153.25Z"/><path d="M118.31,157.94c0-.26,0-2.22.07-5.2-3.47.44-6.77.93-9.66,1.44.62,2.33,1.18,3.71,1.62,3.76C112.79,158.18,118.31,159.23,118.31,157.94Z"/><path d="M174.46,151.91c.23,2.09.5,3.33.84,3.32,2.15,0,10.73,2.81,10.73,0,0-.28,0-1.08.07-2.28C182.35,152.55,178.35,152.2,174.46,151.91Z"/><path d="M121.68,156.29c.92,1.27,9.19-.36,9.8,0,.13.07.12-1.84,0-4.95-3.52.31-7.17.69-10.7,1.11A24.69,24.69,0,0,0,121.68,156.29Z"/><path d="M96.44,33.5c.69,1,5.88,3.12,7.93,1.49s3.46-3.34,3.31-3.54c-.65-.88-3.28,2.91-5.52,2.38S95.77,32.57,96.44,33.5Z"/><path class="cls-2" d="M27.48,126s-1.2,9.64,0,10,111.39-.9,112.16-1.75,0-8.27,0-8.27Z"/><path class="cls-2" d="M26.72,138.69c.16-2.51-1.52,12.23.23,12s109.94-1.14,111.7-2.34,3-8.89,1-9.69S26.57,141.21,26.72,138.69Z"/><path class="cls-2" d="M139.64,153s-.77,8.51,0,9.34-113.55,2.17-113.8.56-2.25-6.85.31-7.95S139.64,153,139.64,153Z"/><path class="cls-2" d="M255.79,162.45s1.19-9.64,0-10-111.39.91-112.16,1.75,0,8.27,0,8.27Z"/><path class="cls-2" d="M256.54,149.72c-.16,2.52,1.53-12.23-.22-12s-109.95,1.14-111.7,2.34-3,8.89-1,9.69S256.7,147.21,256.54,149.72Z"/><path class="cls-2" d="M143.63,135.37s.77-8.51,0-9.34,113.54-2.16,113.8-.56,2.24,6.85-.31,7.95S143.63,135.37,143.63,135.37Z"/><path class="cls-3" d="M20.21,124.38c-.1-2.16,8.33-2.4,8.26,0s.55,37,0,40.54-7,3.28-7.71,1.14S20.21,124.38,20.21,124.38Z"/><path class="cls-3" d="M137.65,124.38c-.1-2.16,8.33-2.4,8.26,0s.55,37,0,40.54-7,3.28-7.71,1.14S137.65,124.38,137.65,124.38Z"/><path class="cls-3" d="M255.09,124.38c-.1-2.16,8.33-2.4,8.26,0s.55,37,0,40.54-7,3.28-7.7,1.14S255.09,124.38,255.09,124.38Z"/><path class="cls-6" d="M95.59,119.6c3.94-2,5.63-15.2,2.81-16.6s-10.9-2-14.17-5.06-7.77-7.6-12-6.2-5.83,4.22-12.9,3.1-13.78-2.82-16.9.28-8.88,9.56-6.84,13.22a90.62,90.62,0,0,1,4.56,11.26Z"/><path class="cls-3" d="M35.65,117.63c-.48,1.56,3.7,17.91,5.11,19s53.42.8,54.27-.26,5.9-18.78,4.5-18.78S36.37,115.32,35.65,117.63Z"/><path class="cls-6" d="M36.51,94.35a.75.75,0,0,0-.54.71,12.7,12.7,0,0,0,.5,2.72,16.8,16.8,0,0,0-2.27-1.39c-.62-.33-1.44.35-1,1a24.35,24.35,0,0,0,5.29,5.89c.74.59,1.8-.45,1.06-1.05L39.2,102l.15-.06c.46.23,1.13,0,1.07-.62C40.26,99.75,39.16,93.35,36.51,94.35Z"/><path class="cls-6" d="M94.78,97.14a4.93,4.93,0,0,0-3.47,2.25c-.21-.72-.43-1.45-.69-2.14s-.82-1.5-1.74-1.44a.75.75,0,0,0-.74.74A6.93,6.93,0,0,0,90,101.83c-.5.82.79,1.57,1.29.75l0,0,.13,0a1,1,0,0,0,.21-.1.72.72,0,0,0,.35-.08,7.6,7.6,0,0,0,3.72-4.27C95.91,97.46,95.28,97.07,94.78,97.14Z"/><path class="cls-7" d="M60.53,104.51c-.83-.22-1.33.31-1.62,1.1a3.43,3.43,0,0,0-1.69-1.83.76.76,0,0,0-.9.12c-1.81,2,1.22,4.45,2.45,5.8a.67.67,0,0,0,.71.19.58.58,0,0,0,.59-.54C60.8,108.19,62.48,105,60.53,104.51Z"/><path class="cls-7" d="M98.94,109a7.49,7.49,0,0,0-1.37.4,3.38,3.38,0,0,0-.41-4.08.75.75,0,0,0-1.17.15c-.69,1.35-1.49,3.81-.67,5.31-.58.61.42,1.56,1.12,1l.22-.16a1.53,1.53,0,0,0,.37,0c.92-.13,1.44-.95,2.3-1.15S99.87,108.8,98.94,109Z"/><path class="cls-7" d="M74.63,89.1a5,5,0,0,0-2.17,3.3,18,18,0,0,0-1.83-3.26.75.75,0,0,0-1.39.37,5.76,5.76,0,0,0,2.38,4.78,1.8,1.8,0,0,1,.08.21.78.78,0,0,0,1.32.26.87.87,0,0,0,.76-.34c1.21-.84,1.68-3.31,1.94-4.48C75.85,89.35,75.2,88.71,74.63,89.1Z"/><path class="cls-7" d="M39.56,108.69a.77.77,0,0,0-1.1.45,4.7,4.7,0,0,0-.2,1.38,3.49,3.49,0,0,0-3.14.76.75.75,0,0,0,.15,1.17,4,4,0,0,0,3.94.78.76.76,0,0,0,1.07-.88A2.58,2.58,0,0,0,39.56,108.69Z"/><path class="cls-2" d="M44.23,123.91l7.46-.34c.94,0,.94-1.51,0-1.46l-7.46.34c-.93,0-.94,1.5,0,1.46Z"/><path class="cls-2" d="M52.79,128.21H69.9a.73.73,0,0,0,0-1.46H52.79a.73.73,0,0,0,0,1.46Z"/><path class="cls-2" d="M66,123.11l13.25.72c.94,0,.94-1.41,0-1.46L66,121.65c-.94-.05-.93,1.41,0,1.46Z"/><path class="cls-2" d="M80.39,129.86H84.8a.73.73,0,0,0,0-1.46H80.39a.73.73,0,0,0,0,1.46Z"/><path class="cls-2" d="M67.7,133.43A122.57,122.57,0,0,0,81.78,133c.93-.08.94-1.54,0-1.46A122.57,122.57,0,0,1,67.7,132c-.94,0-.94,1.43,0,1.46Z"/><path class="cls-2" d="M88.4,123.18l3.58.34c.93.09.93-1.37,0-1.46l-3.58-.34c-.94-.09-.93,1.37,0,1.46Z"/><path class="cls-2" d="M45.34,132.35H50a.73.73,0,0,0,0-1.46H45.34a.73.73,0,0,0,0,1.46Z"/></svg>