<svg xmlns="http://www.w3.org/2000/svg" viewBox="0 0 193 400"><defs><style>.cls-1{isolation:isolate;}.cls-2{opacity:0.35;}.cls-3{fill:#efdab6;}.cls-4{opacity:0.04;mix-blend-mode:darken;}.cls-11,.cls-5{stroke:#000;}.cls-11,.cls-16,.cls-5{stroke-miterlimit:10;}.cls-5{stroke-width:0.46px;}.cls-6{fill:#fe9572;}.cls-7{fill:#562513;}.cls-8{fill:#251b2d;}.cls-15,.cls-9{fill:#0f0f0f;mix-blend-mode:soft-light;}.cls-9{opacity:0.46;}.cls-10{fill:#fff;}.cls-11,.cls-16{fill:none;stroke-linecap:round;}.cls-11{stroke-width:1.1px;}.cls-12{fill:#30657a;}.cls-13{fill:#5b7d87;}.cls-14{fill:#f5b060;}.cls-15{opacity:0.34;}.cls-16{stroke:#30657a;stroke-width:1.22px;}.cls-17{fill:#421e05;}.cls-18{fill:#7ba7ac;}</style></defs><g class="cls-1"><g id="Layer_1" data-name="Layer 1"><g class="cls-2"><path class="cls-3" d="M180.58,83.3c0,1.17-.17,4.08-.46,8.72a79.94,79.94,0,0,1-3,16.1,99.81,99.81,0,0,1-8,19.4,67,67,0,0,1-15.1,19,79.23,79.23,0,0,1-24.66,14.37q-14.91,5.65-36.29,5.64a110.66,110.66,0,0,1-31.18-4.12,65.93,65.93,0,0,1-24-12.63A57.5,57.5,0,0,1,22.38,128Q16.8,114.69,16.8,96a97.66,97.66,0,0,1,4.9-30.73A75.75,75.75,0,0,1,36.81,38.47c6.81-7.86,15.65-14.07,26.52-18.71s23.73-7,38.62-7q38.64,0,58.62,18.28T180.58,83.3Z"/></g><g class="cls-4"><path d="M154.12,394.88a458.11,458.11,0,0,1-96.68,3.89c0,.08,0,.16-.08.24a716.1,716.1,0,0,0,109.44,4.05c3.85-.16,8.49-1,10-5.45C170.17,392.58,161.82,393.74,154.12,394.88Z"/></g><path class="cls-5" d="M112.59,60.14s8.5-2.58,3.09-24.61l-8.24,1Z"/><path class="cls-6" d="M80.86,42.2c1.38-8.76,10.1-23.4,25.59-14.39,4.87,2.84,7,8,7.94,13.38.69,3.74-.64,38.43-.64,38.43C112.67,93.25,91.4,95.3,90,79.53l.42-9.81C79.23,66.12,79.3,52,80.86,42.2Z"/><path class="cls-7" d="M90.45,69.72s6.34,2.12,18.29-5.31A39.15,39.15,0,0,1,90.08,78.1Z"/><path class="cls-6" d="M122.41,46.82a6.2,6.2,0,0,0-6.85-5.38,6.07,6.07,0,0,0-5.44,6.72A6.2,6.2,0,0,0,117,53.54,6.07,6.07,0,0,0,122.41,46.82Z"/><path class="cls-8" d="M117.37,44.84a6,6,0,0,0-2.27,1.36,5.85,5.85,0,0,0-.82,1,6.24,6.24,0,0,0-.64,1.24,2.1,2.1,0,0,1-.09-1.56,3.1,3.1,0,0,1,2.26-2.15A2.21,2.21,0,0,1,117.37,44.84Z"/><path class="cls-9" d="M109.36,54.29a6.46,6.46,0,1,1-6.45-6.45A6.46,6.46,0,0,1,109.36,54.29Z"/><path class="cls-9" d="M80.35,46.15A38,38,0,0,0,81,59a6.45,6.45,0,0,0-.69-12.86Z"/><path class="cls-5" d="M98.77,39.69c0,.54-.86.93-1.83.86s-1.73-.58-1.69-1.13.86-.93,1.83-.86S98.81,39.14,98.77,39.69Z"/><path class="cls-5" d="M87.4,38.43c.23.5-.31,1.22-1.19,1.61s-1.8.31-2-.19.31-1.23,1.19-1.62S87.17,37.93,87.4,38.43Z"/><path class="cls-10" d="M94.4,53.14c-.93,2.7-4,3.78-5.82.12Z"/><path class="cls-5" d="M85.41,44.6c0,.67.23,1.24.62,1.26s.74-.49.78-1.16-.23-1.24-.62-1.26S85.45,43.93,85.41,44.6Z"/><path class="cls-5" d="M95.35,45c0,.67.24,1.23.63,1.26s.73-.5.78-1.17-.24-1.23-.62-1.26S95.4,44.28,95.35,45Z"/><path class="cls-8" d="M90.51,44a11.39,11.39,0,0,1-.27,2.76c-.09.45-.21.89-.32,1.33s-.27.87-.43,1.3l-.34-.56a11.62,11.62,0,0,1,2.27.92,11.11,11.11,0,0,1-2.45,0l-.43-.05.09-.51c.08-.45.19-.89.3-1.33s.25-.88.4-1.31A11.93,11.93,0,0,1,90.51,44Z"/><path d="M82.58,36.31s8,2.44,17-7.09c0,0,2.45,18.94,11.46,15.84a5.51,5.51,0,0,1,4.52-3.62s4.66-15.84-14.33-19a11.58,11.58,0,0,0-2.94-.1C93.84,22.82,81.41,25.07,82.58,36.31Z"/><path class="cls-6" d="M69.84,146.67c10.38-17.46,19.31-55.19,19.31-55.19L74.53,85.16,44,126.69l-7.57-17.53c-4.73,2-12.5,5.1-15,6,3.05,17.58,4.69,42,9.67,47.14C42,173.75,59.45,164.13,69.84,146.67Z"/><line class="cls-11" x1="43.88" y1="126.03" x2="48.82" y2="141.4"/><polygon class="cls-9" points="65.67 97.44 71.79 146.57 64.07 154.94 50.41 117.96 65.67 97.44"/><path class="cls-6" d="M34,93.89c-2-3-3.65,5.93-3.26,7.42,0,0-3.76-15.85-6.46-15.65-1.54.12,1.8,12.1,1.8,12.1s-5.26-12.93-6.54-12.47,3.06,13,3.06,13S17.8,87.53,16.39,88.15c-1.2.53,2.52,11.95,2.52,11.95s-4.56-7.39-5.73-6.79,2.45,7.36,3.05,9.73a41.74,41.74,0,0,0,7.54,15.87l13-6.08S36.61,97.77,34,93.89Z"/><path class="cls-8" d="M30.76,101.31a8.52,8.52,0,0,0-2.25,4.86,12.29,12.29,0,0,0,0,2.71l.19,1.38c.1.46.2.93.26,1.42-.27-.4-.51-.83-.75-1.26a13.53,13.53,0,0,1-.5-1.39,8,8,0,0,1-.26-3,6.55,6.55,0,0,1,1-2.84A5.05,5.05,0,0,1,30.76,101.31Z"/><path class="cls-12" d="M116.31,81.75S106.67,94,105,107.59L101.63,112l-2.54-4.6C98.66,108.77,102.46,81.81,116.31,81.75Z"/><path class="cls-12" d="M87.91,81.43s-14.35,19.11-12,28.78l-3.65,5.87-2-8.49S71,91.5,83.55,81.35A11.82,11.82,0,0,1,87.91,81.43Z"/><path class="cls-13" d="M137.39,234.65c1.38-34.84-5.85-60.88-5.85-60.88L104,171.89l1-64.3H70.32L63.18,176C38.64,253.76,50.67,369.53,50.67,369.53c11.55-.18,25.85,0,25.85,0C75.89,278,98,229.62,98,229.62c-4.72,73.07,21.64,138.24,21.64,138.24,13.32.27,27.29.47,27.29.47C136.46,309.93,135.71,276.61,137.39,234.65Z"/><path class="cls-12" d="M74.67,129.92l20.85-1.52c2.72,2,4.26,22.68,4.73,34.12,0,0-27.9.09-29.16-.07S73.67,133.46,74.67,129.92Z"/><path class="cls-14" d="M85.79,80.61,90,79.53l23.72.09,6.06,3.1a9.24,9.24,0,0,1,2.41,1.75c37,37.88,10.62,94.13,10.62,94.13l-51.67,1.26L65.39,176C49.15,177.92,64.24,78.92,85.79,80.61Z"/><path class="cls-15" d="M79.77,183.19c12.07,1.36,23.18,8.68,35.39,8.68a46.86,46.86,0,0,1,20.09,1.89l-2.41-15.16c-37.46,3.87-56.15,1.28-64.3-.79C71.17,180.94,75.68,182.19,79.77,183.19Z"/><path class="cls-16" d="M63.18,176s14.45,8.34,69.66,2.63"/><path class="cls-16" d="M86.15,180.68s-4.38,33,11.33,49.21"/><path class="cls-16" d="M71.11,178.54s-3.55,21-13.56,20.17"/><path class="cls-16" d="M121.71,179.65s.26,18.66,14.16,20.61"/><path class="cls-17" d="M122.52,370.24l3,15.72s-12.45-1.83-17.94,13.53l43.15.36-5.49-31.44h-23"/><path class="cls-11" d="M125.47,386a23.08,23.08,0,0,1,8.4,6.21"/><path class="cls-18" d="M146.6,363.38s-28.5-1-29.11.43.46,8.25,1.57,8.61,28.71.07,29-.29S146.6,363.38,146.6,363.38Z"/><path class="cls-17" d="M52.7,370.24,52,386s-8.77-1.83-14.25,13.53l38,.36-.37-31.44h-23"/><path class="cls-11" d="M52,386a17.73,17.73,0,0,1,9.15,5.48"/><path class="cls-18" d="M77.33,362.67s-27.17-.94-27.79.49-1.11,7.86,0,8.22,27.36.36,27.62,0S77.33,362.67,77.33,362.67Z"/><path class="cls-6" d="M151,140.63c-4.23-19.87-25.68-52.8-25.68-52.8l-12.63,4.45,5.77,51.22-18.18-4.95c-2.08,4.71-2,3.23-4.29,7.84-1.22,2.42-2.47,4.82-3.72,7.23,14.17,10.83,33.69,24.4,40.87,24.83C148.93,179.39,155.2,160.5,151,140.63Z"/><line class="cls-11" x1="117.9" y1="143.09" x2="131.96" y2="151.03"/><polygon class="cls-9" points="114.68 110.5 136.35 103.54 147.68 130.08 118.47 143.53 114.68 110.5"/><path class="cls-14" d="M30.76,124.05l25.57,29.14,39.55-42.52-8-30.6S63.86,80.07,30.76,124.05Z"/><path class="cls-6" d="M118.54,143.5l-18.29-4.95c-.26-.73-3.79-10.35-5.78-11.44-3.19-1.76-3,8.14-1.76,9,0,0-11.42-11-13.32-9-1.08,1.09,5.55,7.76,5.55,7.76s-11.09-6.43-11.75-5.25,9.49,8,9.49,8-9-3.84-9.65-2.45c-.56,1.19,8,6.23,8,6.23s-6.55-.92-7,.31,4.94,2.28,7,3.66a48.55,48.55,0,0,0,4.82,3c13.41,11,38.46,29.73,47,30.33,11.27.78,17.79-8.55,19.15-21.2C148.43,154.55,118.54,143.5,118.54,143.5Z"/><line class="cls-11" x1="119.68" y1="143.88" x2="135.61" y2="150.11"/><polygon class="cls-14" points="146.94 126.03 137.09 104.88 124.56 86.99 112.66 92.28 117.3 135.35 146.94 126.03"/></g></g></svg>