<?xml version="1.0" encoding="utf-8"?>
<!-- Generator: Adobe Illustrator 25.0.1, SVG Export Plug-In . SVG Version: 6.00 Build 0)  -->
<svg version="1.1" id="Layer_1" xmlns="http://www.w3.org/2000/svg" xmlns:xlink="http://www.w3.org/1999/xlink" x="0px" y="0px"
	 viewBox="0 0 170 388" style="enable-background:new 0 0 170 388;" xml:space="preserve">
<style type="text/css">
	.st0{opacity:0.35;}
	.st1{fill:#EFDAB6;}
	.st2{opacity:4.000000e-02;}
	.st3{fill:#0F0F0F;}
	.st4{fill:#F9C3B1;}
	.st5{fill:#562513;}
	.st6{fill:#251B2D;}
	.st7{fill:#381C07;}
	.st8{opacity:0.46;fill:#0F0F0F;enable-background:new    ;}
	.st9{stroke:#000000;stroke-width:0.49;stroke-miterlimit:10;}
	.st10{fill:#B8D1C7;}
	.st11{fill:#3E599A;}
	.st12{fill:#425AA2;}
	.st13{fill:none;stroke:#6491BA;stroke-width:1.2;stroke-linecap:round;stroke-miterlimit:10;}
	.st14{fill:#7F92A0;}
	.st15{fill:none;stroke:#000000;stroke-width:1.04;stroke-linecap:round;stroke-miterlimit:10;}
	.st16{fill:#2C438C;}
	.st17{fill:#401F1E;}
	.st18{fill:#688931;}
	.st19{opacity:0.34;}
	.st20{fill:#3F1F1F;}
	.st21{fill:#43690A;}
	.st22{fill:#86AA47;}
	.st23{fill:#F88020;}
	.st24{opacity:0.36;}
	.st25{fill:#59302E;}
	.st26{fill:none;stroke:#000000;stroke-width:1.1;stroke-linecap:round;stroke-miterlimit:10;}
	.st27{fill:#FD9B00;}
	.st28{fill:#FDB96A;}
</style>
<g class="st0">
	<path class="st1" d="M26.7,18.6C40,6.5,59.5,0.4,85.3,0.3c14.9,0,27.8,2.3,38.6,7s19.7,10.9,26.6,18.7c6.8,7.8,11.9,16.9,15.1,26.8
		c3.3,9.9,4.9,20.3,4.9,30.8c0,12.4-1.9,23.1-5.6,32c-3.4,8.4-8.7,15.8-15.6,21.8c-7,5.8-15.2,10.1-24,12.6
		c-10.1,2.9-20.6,4.2-31.2,4.1c-14.2,0-26.3-1.9-36.3-5.6c-9-3.3-17.4-8.1-24.7-14.4c-6.1-5.4-11.3-11.8-15.1-19
		c-3.3-6.2-6-12.7-8-19.4c-1.5-5.3-2.5-10.6-3-16.1C6.8,75,6.7,72,6.7,70.9C6.7,48.2,13.3,30.8,26.7,18.6z"/>
</g>
<g class="st2">
	<path d="M0.2,381.1c18.8,1.5,37.6,2.2,56.4,2.1c11.9,0,23.9-0.4,35.8-1.3c5.8-0.4,11.9-0.8,17.2,1.7c0.5,1.4,1,2.8,1.5,4.2
		c-0.4,0.1-0.8,0.2-1.1,0.1c-6-0.5-12.1-0.4-18.2,0.2c-5.6,0.8-11,2.5-16.6,3.7c-22.7,4.9-45.9,0.3-68.6-4.3
		C3.5,387.1-0.4,385,0.2,381.1z"/>
</g>
<path class="st3" d="M55.2,34.7c1.4-2.4,4.8-3,6.3-5.3c1.8-2.6,0.8-6.6,2.8-9.1c1.2-1.4,3.2-1.9,5.1-2.1c1.9,0,3.8-0.2,5.6-0.6
	c3.2-1,5.6-4.1,8.9-4.9c4-0.7,7.9,1.9,8.6,5.9c0.1,0.4,0.1,0.9,0.1,1.3c1.7,0,3.4,0.7,4.5,2c1.2,1.3,1.7,3.2,3,4.5s3.2,2.1,4.2,3.7
	c0.5,0.9,0.9,1.9,1,2.9c0.6,3.3,0.2,7-1.9,9.7s-6.3,3.8-9,1.8c0,0-19,9-22.9,11.4c-4,2.4-9.1,2.1-12.7-0.8c-0.8-0.5-1.3-1.4-1.5-2.3
	c0.1-0.9,0.4-1.9,0.8-2.7c0.9-2.6-0.6-5.3-1.9-7.7S53.9,37.1,55.2,34.7z"/>
<path class="st4" d="M100.8,36.6C99.4,27.4,90.2,12.1,74,21.5c-5.1,3-7.3,8.4-8.3,14c-0.7,3.9,0.7,40.3,0.7,40.3
	c1.1,14.3,23.4,16.5,24.9-0.1l-0.5-10.3C102.6,61.7,102.5,46.9,100.8,36.6z"/>
<path class="st5" d="M90.8,65.5c0,0-6.7,2.2-19.2-5.6c4.9,6.7,11.8,11.7,19.6,14.4L90.8,65.5z"/>
<path class="st4" d="M57.2,41.5c0.4-3.5,3.6-6.1,7.2-5.7c3.5,0.3,6.1,3.5,5.7,7c0,0,0,0,0,0c-0.4,3.5-3.7,6.1-7.2,5.7
	C59.4,48.1,56.9,45,57.2,41.5C57.2,41.5,57.2,41.5,57.2,41.5z"/>
<path class="st6" d="M62.5,39.4c0.5-0.2,1.1-0.3,1.6-0.2c0.6,0.1,1.1,0.4,1.5,0.8c0.4,0.4,0.7,0.9,0.9,1.4c0.2,0.5,0.1,1.1-0.1,1.7
	c-0.2-0.5-0.4-0.9-0.7-1.3c-0.2-0.4-0.5-0.7-0.9-1c-0.3-0.3-0.7-0.6-1.1-0.8C63.4,39.8,63,39.6,62.5,39.4z"/>
<path class="st7" d="M82,34c0,0.6,0.9,1,1.9,0.9s1.8-0.6,1.8-1.2s-0.9-1-1.9-0.9S82,33.4,82,34z"/>
<path class="st7" d="M93.8,33.6c0.1,0.6,0.9,1,1.9,0.9s1.8-0.7,1.7-1.2s-0.9-1-1.9-0.9S93.8,33,93.8,33.6z"/>
<circle class="st8" cx="77.7" cy="49.3" r="6.8"/>
<path class="st9" d="M96.1,39.1c0,0.7-0.2,1.3-0.7,1.3s-0.8-0.5-0.8-1.2s0.2-1.3,0.7-1.3S96,38.4,96.1,39.1z"/>
<path class="st9" d="M85.6,39.5c0,0.7-0.2,1.3-0.7,1.3s-0.8-0.5-0.8-1.2s0.2-1.3,0.7-1.3S85.6,38.8,85.6,39.5z"/>
<path class="st8" d="M101.4,40.8c0.5,4.5,0.3,9.1-0.7,13.5c-3.7-0.5-6.4-3.8-5.9-7.5C95.1,43.4,98,40.8,101.4,40.8z"/>
<path d="M87,48.7c0.6,0.3,1.1,0.6,1.6,0.8c0.4,0.2,0.9,0.3,1.4,0.3c0.5,0,0.9-0.1,1.4-0.3c0.5-0.3,1-0.6,1.5-0.9
	c-0.1,0.7-0.4,1.3-0.9,1.7c-0.5,0.5-1.3,0.8-2,0.8c-0.7,0-1.5-0.3-2-0.8C87.5,49.9,87.2,49.3,87,48.7z"/>
<path class="st6" d="M90.9,35.8c0.5,1.4,0.9,2.9,1.1,4.4c0.1,0.7,0.3,1.5,0.3,2.2s0.2,1.5,0.2,2.2v0.5h-0.4
	c-1.1,0.2-2.3,0.3-3.4,0.3c1.1-0.4,2.1-0.8,3.2-1.1l-0.3,0.5c-0.2-0.7-0.3-1.5-0.4-2.2s-0.2-1.5-0.3-2.2
	C90.8,38.8,90.8,37.3,90.9,35.8z"/>
<path d="M87,48.7c0.6,0.3,1.1,0.6,1.6,0.8c0.4,0.2,0.9,0.3,1.4,0.3c0.5,0,0.9-0.1,1.4-0.3c0.5-0.3,1-0.6,1.5-0.9
	c-0.1,0.7-0.4,1.3-0.9,1.7c-0.5,0.5-1.3,0.8-2,0.8c-0.7,0-1.5-0.3-2-0.8C87.5,49.9,87.2,49.3,87,48.7z"/>
<path class="st3" d="M64.2,30.4c0.9-2.2,2.1-4.2,3.8-6c1.3-1.2,2.7-2.2,4.2-3c1.1-0.7,2.2-1.3,3.3-1.8c1.3-0.5,2.6-1,4-1.2
	c2.2-0.6,4.4-0.8,6.6-0.5c2,0.2,3.8,1.1,5.2,2.5c2.1,1.5,3.9,3.4,5.3,5.7c0.9,1.3,1.8,2.5,2.7,3.8c-0.6-0.1-1.1-0.3-1.6-0.6
	c-0.8-0.5-1.5-1-2.2-1.6c-1.8-1.5-3.2-3.3-4.1-5.5c-0.5,1.5-1.6,2.7-3,3.5c-1.8,0.9-3.8,1.3-5.8,1.1c-1.7-0.1-3.4-0.4-4.9,0.2
	c-1.5,0.7-2.7,2-3.3,3.6c-0.6,1.6-1,3.3-1.1,4.9c0,0.7-0.3,1.4-0.8,2c-0.3,0.3-0.8,0.5-1.2,0.6c-2,0.3-3.8-0.8-5.4-2.1
	c-1.1-0.7-1.8-1.9-2.1-3.2C63.6,32,63.8,31.2,64.2,30.4z"/>
<path class="st4" d="M140.7,119.2C129,102.6,98.8,78.3,98.8,78.3l-7.7,6.4l22.3,47.2c0,0,14.8,28.3,25.1,29
	C154.3,162.1,155.9,140.8,140.7,119.2z"/>
<polygon class="st8" points="99.2,101.4 113.1,90.4 133.6,110.7 114.3,132.7 "/>
<path class="st10" d="M108.7,122.3l24.2-19.4c0,0-28.1-33.7-47-26.5l7.2,13.2L108.7,122.3z"/>
<path class="st11" d="M69.9,155.3c4.1-11.3,33.8-4.2,33.8-4.2s14,50.4,17.6,102.5c4.1,60.5-12,128.2-12,128.2
	c-9.6,2-27.1,1.2-27.1,1.2v-95.2c0.1-0.2-3.1-61.4-7.6-79.5C68.4,183.8,69.9,155.3,69.9,155.3z"/>
<path class="st12" d="M44.1,156c4.1-11.3,37.3-4.4,37.3-4.4s4.7,15,5.5,43.5c0.3,10.3-3.5,50.1-3.1,56.7
	c4.1,60.5-11.1,129.9-11.1,129.9c-9.6,2-27.1,1.2-27.1,1.2v-95.2c0.1-0.2-3.1-61.4-7.6-79.5C31.9,183.6,44.1,156,44.1,156z"/>
<path class="st8" d="M56.7,175.3c11.9-1.1,24,0.4,35.6,2.8c4.6,1,9.2,2.2,13.8,3.5c-0.6,1.8-1.6,3.4-3,4.7c-5,4.6-12.8,2.9-19.6,3.3
	c-15.2,0.8-28.2,12.9-43.4,12.6c-1.1,0-2.2-0.1-3.3-0.3c-0.9-7.4-0.6-14.9,0.7-22.3C43.7,177.5,50.2,176.1,56.7,175.3z"/>
<path class="st13" d="M55,188.2c0,0,7,31.2-5.3,33.2"/>
<path class="st13" d="M46.9,187.9c2.6,34.7,2.5,34.2,4.7,51.6c2,16.1,4.4,74.7-0.7,121.9"/>
<path class="st13" d="M106.6,184.2c0,0,0.3,31.5,10.6,33.3"/>
<path class="st13" d="M86.5,181.2c0,0,3.3,113.4-4.7,141.9"/>
<path class="st13" d="M79.3,182.5c0,0-2.2,38.8,6.9,35"/>
<path class="st14" d="M81.9,361.7l32.1,0.9l-1.8,13.8c0,0,10,6.7,9.8,12.1l-39.9-0.5L81.9,361.7z"/>
<path class="st15" d="M91.4,385.9c0,0,3.8-10.4,20.8-9.5"/>
<path class="st14" d="M45.4,361.5l32.1,0.9l-1.8,13.8c0,0,10,6.7,9.8,12.1l-39.9-0.5L45.4,361.5z"/>
<path class="st15" d="M54.9,385.7c0,0,3.8-10.4,20.8-9.5"/>
<path class="st10" d="M66.8,73.9L66.8,73.9l24.3,1l5,0.4c7.7,3.7,8.8,9.9,11.4,17.8c6.4,19,5.2,45.3,3.3,62.9c0,0,6.5,21.8,2.2,26.3
	c-5.3,5.5-21.9-2.6-29.5-1.1c-7.4,1.4-18.1,5.9-31.2,6.3c-33.2,0.9-14.5-17.1-14.3-24.1c-6.6-12.2-3.2-42.8,5.8-66.8
	C47,87.9,51.9,79.4,60,75C61.7,74,65.4,73.9,66.8,73.9z"/>
<path class="st16" d="M95.9,75.3c0,0,11.2,78.9,8.1,109c-0.2,1.5-5.8-1.2-5.8-1.2C99.8,159.1,91.8,75,91.8,75L95.9,75.3z"/>
<path class="st16" d="M61,74.3c0,0-9,83.3-5.9,113.4c0.2,1.5,5.8-1.2,5.8-1.2C59.3,162.4,65.1,74,65.1,74L61,74.3z"/>
<path class="st4" d="M26.4,134.6C31,114.8,49.8,81,49.8,81l9.5,3l-2.9,52.1c0,0-3.1,31.8-12.3,36.4
	C29.9,179.4,20.4,160.2,26.4,134.6z"/>
<polygon class="st8" points="58.1,102.5 41.1,97.5 29.7,124 55.8,137.1 "/>
<path class="st10" d="M57.2,125.4l-29.7-8.9c0,0,13.4-41.8,33.6-42.2l-1.7,15L57.2,125.4z"/>
<path class="st17" d="M118.7,126.1c0.2-0.5,6.5-9.2,6.5-9.2s-0.4-7.2-7.6-7.3s-69.5-1.6-53.5,14.7S118.7,126.1,118.7,126.1z"/>
<path class="st18" d="M65.5,120.3c0.2-4-1.1-8-2.6-11.8C57.5,95,49.5,82.1,37.5,73.8c13.9,12.5,22.4,30,23.7,48.7"/>
<path class="st18" d="M63.5,120.8c-5.5-16.2-16.3-30-30.7-39.2c2.1,2.3,4.2,4.6,6.2,6.8c7.7,8.5,15.9,18,16.3,29.5"/>
<g class="st19">
	<path class="st20" d="M97.7,138.7c0.3,0.1,1.7-1.6,2.9-5.1c1.6-4.6,2-9.4,1.3-14.2c-0.4-2.6-1.1-5.2-2.2-7.6
		c-0.5-1.1-1.1-2.2-1.9-3.1c-0.7-0.8-1.5-1.5-2.4-2c-1.3-0.8-2.6-1.3-4.1-1.7c-1-0.2-1.6-0.2-1.6-0.1s0.4,0.5,1.3,1
		c1.2,0.7,2.3,1.4,3.3,2.2c1.5,1.2,2.6,2.8,3.2,4.6c0.8,2.3,1.4,4.7,1.8,7.1c0.6,4.4,0.4,8.9-0.5,13.3
		C98.1,136.4,97.3,138.5,97.7,138.7z"/>
	<path class="st20" d="M78.1,137c0.3,0.1,1.1-1.8,1.5-4.9c0.2-1.6,0.3-3.4,0.4-5.5s0.2-4.3,0.5-6.5c0.2-2.1,0.8-4.2,1.5-6.1
		c0.6-1.6,1.5-3.1,2.6-4.4c0.9-1.2,1.7-2.2,2.2-3s0.6-1.3,0.5-1.4s-0.6,0.2-1.3,0.7s-1.7,1.3-2.8,2.4c-1.4,1.3-2.6,2.9-3.4,4.7
		c-1,2.1-1.6,4.4-1.9,6.8c-0.3,2.3-0.4,4.5-0.3,6.8c0,2,0.1,3.9,0.1,5.4C77.9,135,77.8,136.9,78.1,137z"/>
	<path class="st20" d="M62,139.5c0.4,0,0.9-2.8,1.5-7.4c0.3-2.3,0.6-5.1,0.9-8.1c0.2-3.2,0.7-6.4,1.6-9.5c0.5-1.5,1.2-2.8,2.2-4
		c1-1.1,2.1-2,3.4-2.6c2.3-1.1,4.8-1.7,7.4-1.8c2.2-0.1,4.1,0,5.4-0.1s2-0.1,2-0.3s-0.7-0.4-1.9-0.7c-1.8-0.4-3.7-0.7-5.5-0.8
		c-2.9-0.2-5.8,0.3-8.4,1.4c-1.6,0.7-3.1,1.8-4.3,3.1c-1.3,1.4-2.2,3.1-2.8,4.9c-0.9,3.3-1.4,6.7-1.5,10.1c-0.2,3.1-0.3,5.8-0.3,8.1
		C61.5,136.6,61.7,139.4,62,139.5z"/>
	<path class="st20" d="M90.1,104.4c0,0.4,2.5,0.2,6.2,1.1c2.2,0.5,4.2,1.3,6.2,2.3c2.3,1.1,4.3,2.9,5.7,5.1c1.3,2.3,1.7,5.1,2,7.7
		s0.6,4.9,0.8,6.8c0.4,3.9,0.8,6.4,1.2,6.3s0.6-2.5,0.6-6.4c0-2,0-4.4-0.3-7c-0.1-3-0.8-6-2.2-8.7c-0.8-1.4-1.9-2.6-3.2-3.7
		c-1.1-0.9-2.4-1.7-3.7-2.3c-2.2-1.1-4.6-1.7-7-2C92.5,103.2,90.1,104.1,90.1,104.4z"/>
</g>
<g>
	<path class="st21" d="M78.2,95.8C78.8,86.6,73.8,78,65.5,74c2,8.6,6.1,16.6,12,23.3"/>
	<path class="st18" d="M80.8,97.4c5.2-9.2,4.9-20.5-0.7-29.4c-2.2,9.1-2.8,18.6-1.7,27.9"/>
	<path class="st21" d="M81.2,95.3c5-2.9,7.7-8.5,7.1-14.2C82.8,84.6,78.8,90,77,96.2"/>
	<path class="st22" d="M79.4,97.4c2.1-7.2,0.6-15.1-4.1-21c-2,6.4-1.4,13.3,1.6,19.3"/>
	<path class="st23" d="M78.5,95.7c1.7-2.1,5.4-1,6.8,1.3c1.4,2.3,1.3,5.2,1,7.8c-1.1,12.1-3,24-4.9,36c-1.3,0.2-2-1.4-2.3-2.7
		c-3.1-12.3-5.1-24.9-5.9-37.6c-0.2-1.2-0.1-2.5,0.4-3.6c0.5-1.2,1.9-1.6,3.1-1.1"/>
	<g class="st24">
		<g>
			<path class="st20" d="M80.9,102.7c0,0.7,1.2,1.3,2.8,1.1c1.5-0.1,2.6-0.9,2.5-1.7c-0.1-0.7-1.4-1.1-2.8-0.9
				C82,101.4,80.9,102,80.9,102.7z"/>
		</g>
		<g>
			<path class="st20" d="M78.7,109.1c-0.3-0.7-1.4-0.9-2.5-0.7c-1.1,0.2-2,0.8-2.1,1.5c0,0.7,1.1,1.3,2.5,1.1S79,109.7,78.7,109.1z"
				/>
		</g>
		<g>
			<path class="st20" d="M80.4,117.3c0,0.7,0.9,1.3,1.9,1.2c1-0.1,1.9-0.6,1.9-1.4s-0.9-1.3-1.9-1.2S80.3,116.6,80.4,117.3z"/>
		</g>
		<g>
			<path class="st20" d="M74.9,95.9c0.3,0.7,1.9,0.4,3.5,0.2c1.6-0.3,3.1-0.6,3.3-1.3c0.1-0.4-0.3-0.8-1-1c-1.8-0.6-3.8-0.3-5.2,0.9
				C74.9,95.1,74.7,95.6,74.9,95.9z"/>
		</g>
	</g>
</g>
<path class="st20" d="M74.9,95.9c0.3,0.7,1.9,0.4,3.5,0.2c1.6-0.3,3.1-0.6,3.3-1.3c0.1-0.4-0.3-0.8-1-1c-1.8-0.6-3.8-0.3-5.2,0.9
	C74.9,95.1,74.7,95.6,74.9,95.9z"/>
<g>
	<path class="st21" d="M69,100.7c-1.6-9.1-8.5-16.2-17.5-18.2c4,7.9,10,14.7,17.3,19.7"/>
	<path class="st18" d="M71.9,101.6c2.8-10.2-0.2-21.1-7.8-28.4c0,9.4,1.8,18.7,5,27.5"/>
	<path class="st21" d="M71.8,99.5c4.1-4,5.5-10.1,3.4-15.5c-4.4,4.7-7,10.9-7.3,17.4"/>
	<path class="st22" d="M70.6,102c0.3-7.5-3-14.8-9-19.4c-0.4,6.7,1.8,13.3,6.2,18.4"/>
	<path class="st23" d="M69.3,100.5c1.2-2.4,5-2.2,6.9-0.4c1.9,1.9,2.5,4.7,2.9,7.3c1.9,12,2.9,24,3.9,36.1c-1.2,0.5-2.3-0.9-2.9-2
		c-6-11.2-10.9-23-14.8-35.1c-0.5-1.1-0.7-2.4-0.5-3.6c0.3-1.2,1.5-2.1,2.7-1.8"/>
	<g class="st24">
		<g>
			<path class="st20" d="M73.3,106.7c0.2,0.7,1.5,0.9,3,0.4c1.4-0.5,2.3-1.6,2-2.2c-0.3-0.7-1.6-0.7-2.9-0.2
				C74.1,105.2,73.1,106,73.3,106.7z"/>
		</g>
		<g>
			<path class="st20" d="M72.7,113.4c-0.4-0.6-1.5-0.5-2.5-0.1c-1,0.5-1.8,1.2-1.6,2c0.2,0.7,1.4,1,2.7,0.4
				C72.6,115.2,73.2,114,72.7,113.4z"/>
		</g>
		<g>
			<path class="st20" d="M76.3,121c0.2,0.7,1.2,1,2.2,0.7c1-0.3,1.7-1.1,1.5-1.8c-0.2-0.7-1.2-1-2.2-0.7
				C76.8,119.5,76.1,120.3,76.3,121z"/>
		</g>
		<g>
			<path class="st20" d="M65.9,101.6c0.5,0.6,1.9,0,3.4-0.7c1.5-0.6,2.8-1.3,2.8-2.1c0-0.4-0.5-0.7-1.2-0.8
				c-1.9-0.2-3.7,0.6-4.9,2.1C65.7,100.8,65.6,101.3,65.9,101.6z"/>
		</g>
	</g>
</g>
<g>
	<path class="st21" d="M105.8,98.1c5.2-7.6,5.3-17.5,0.3-25.2c-2.7,8.4-3.2,17.4-1.5,26.1"/>
	<path class="st18" d="M107.2,100.8c9.2-5.3,14.7-15.1,14.4-25.7c-6.6,6.7-11.9,14.5-15.7,23.1"/>
	<path class="st21" d="M108.6,99.2c5.8,0,11-3.4,13.4-8.6c-6.5,0.3-12.6,2.9-17.4,7.3"/>
	<path class="st22" d="M106,100.1c5.5-5.1,8.2-12.6,7.2-20.1c-5,4.5-8,10.7-8.5,17.4"/>
	<path class="st23" d="M106.2,98.2c2.6-0.9,5.1,1.9,5.2,4.6s-1.5,5.1-3.1,7.3c-7.1,9.8-14.8,19.2-22.6,28.5c-1.2-0.5-1-2.2-0.7-3.5
		c3.7-12.2,8.4-24,14.1-35.4c0.4-1.2,1.2-2.2,2.2-2.9c1.1-0.7,2.5-0.4,3.2,0.6"/>
	<g class="st24">
		<g>
			<path class="st20" d="M104.6,105.4c-0.4,0.6,0.4,1.7,1.8,2.4c1.4,0.6,2.7,0.5,3-0.2c0.3-0.7-0.6-1.6-1.9-2.2
				C106.3,104.9,105,104.8,104.6,105.4z"/>
		</g>
		<g>
			<path class="st20" d="M99.5,109.8c0.1-0.7-0.7-1.4-1.8-1.8c-1.1-0.4-2.1-0.4-2.5,0.2s0.3,1.7,1.6,2.2
				C98.2,110.9,99.4,110.5,99.5,109.8z"/>
		</g>
		<g>
			<path class="st20" d="M96.7,117.7c-0.4,0.6,0.1,1.6,1,2.1c0.9,0.5,2,0.4,2.3-0.2c0.4-0.6-0.1-1.6-1-2.1
				C98.1,117,97,117,96.7,117.7z"/>
		</g>
		<g>
			<path class="st20" d="M102.9,96.5c0,0.7,1.4,1.3,2.9,1.9s3,1.1,3.5,0.5c0.2-0.3,0.1-0.8-0.3-1.4c-1.2-1.4-3.1-2.2-5-1.9
				C103.4,95.9,102.9,96.2,102.9,96.5z"/>
		</g>
	</g>
</g>
<g>
	<path class="st21" d="M95.4,97.7c3.2-8.6,0.9-18.3-5.8-24.6c-0.6,8.8,1.1,17.7,4.8,25.7"/>
	<path class="st18" d="M97.5,99.9c7.6-7.3,10.6-18.2,7.8-28.4c-4.8,8.1-8,17-9.7,26.2"/>
	<path class="st21" d="M98.4,98c5.6-1.4,9.9-5.9,10.9-11.6c-6.2,1.8-11.6,5.8-15.1,11.2"/>
	<path class="st22" d="M96.1,99.6c4.1-6.3,4.9-14.2,2.1-21.2c-3.7,5.6-5.2,12.3-4.1,18.9"/>
	<path class="st23" d="M95.8,97.6c2.3-1.5,5.4,0.6,6.1,3.2s-0.3,5.3-1.3,7.8c-4.5,11.3-9.8,22.2-15,33.1c-1.3-0.2-1.6-1.9-1.5-3.2
		c0.6-12.7,2.3-25.3,5.1-37.7c0.2-1.2,0.7-2.4,1.4-3.3c0.9-0.9,2.3-1,3.3-0.2"/>
	<g class="st24">
		<g>
			<path class="st20" d="M96.1,105c-0.2,0.7,0.8,1.6,2.3,1.9c1.5,0.3,2.8-0.2,2.9-0.9c0.1-0.7-1-1.4-2.4-1.7
				C97.5,104.1,96.3,104.3,96.1,105z"/>
		</g>
		<g>
			<path class="st20" d="M92.1,110.5c-0.1-0.7-1-1.2-2.2-1.3c-1.1-0.1-2.2,0.2-2.4,0.9c-0.2,0.7,0.7,1.6,2.1,1.8
				C91.1,111.9,92.2,111.2,92.1,110.5z"/>
		</g>
		<g>
			<path class="st20" d="M91.3,118.8c-0.2,0.7,0.5,1.5,1.5,1.7c1,0.2,2,0,2.2-0.7c0.2-0.7-0.5-1.5-1.5-1.7
				C92.5,117.8,91.5,118.1,91.3,118.8z"/>
		</g>
		<g>
			<path class="st20" d="M92.3,96.8c0.1,0.7,1.7,0.9,3.3,1.2c1.6,0.2,3.1,0.3,3.5-0.3c0.2-0.3-0.1-0.8-0.6-1.3
				c-1.5-1.1-3.5-1.3-5.3-0.6C92.5,96,92.2,96.5,92.3,96.8z"/>
		</g>
	</g>
</g>
<path class="st20" d="M92.2,96.5c0.1,0.7,1.6,1,3.2,1.3c1.6,0.3,3.1,0.4,3.5-0.2c0.2-0.3,0-0.8-0.6-1.3c-1.5-1.2-3.5-1.5-5.3-0.8
	C92.5,95.7,92.2,96.1,92.2,96.5z"/>
<g>
	<path class="st21" d="M88.4,91.5c1.6-9-2.3-18.2-10.1-23.1c1,8.8,4.2,17.2,9.3,24.5"/>
	<path class="st18" d="M90.9,93.3C97,84.8,98,73.5,93.5,64c-3.2,8.8-4.9,18.1-4.8,27.5"/>
	<path class="st21" d="M91.5,91.3c5.3-2.4,8.6-7.6,8.6-13.4c-5.8,2.9-10.3,7.8-12.8,13.8"/>
	<path class="st22" d="M89.4,93.2c2.9-7,2.3-14.9-1.7-21.3C85,78.1,84.8,85,87.1,91.3"/>
	<path class="st23" d="M88.8,91.4c2-1.9,5.5-0.4,6.6,2.1c1.1,2.4,0.7,5.3,0.2,7.9c-2.4,11.9-5.6,23.6-8.9,35.2c-1.3,0-1.9-1.6-2-2.9
		c-1.7-12.6-2.2-25.3-1.7-38c-0.1-1.2,0.2-2.5,0.8-3.5c0.7-1.1,2.1-1.4,3.2-0.7"/>
	<g class="st24">
		<g>
			<path class="st20" d="M90.4,98.6c-0.1,0.7,1.1,1.4,2.6,1.4c1.5,0,2.7-0.6,2.7-1.4c0-0.7-1.2-1.2-2.6-1.2S90.5,97.9,90.4,98.6z"/>
		</g>
		<g>
			<path class="st20" d="M87.5,104.7c-0.2-0.7-1.2-1-2.4-0.9c-1.1,0.1-2.1,0.5-2.2,1.3s1,1.4,2.4,1.3
				C86.8,106.3,87.7,105.4,87.5,104.7z"/>
		</g>
		<g>
			<path class="st20" d="M88.2,113.1c-0.1,0.7,0.7,1.4,1.8,1.4s2-0.4,2-1.1c0.1-0.7-0.7-1.4-1.8-1.4
				C89.2,111.9,88.2,112.3,88.2,113.1z"/>
		</g>
		<g>
			<path class="st20" d="M85.2,91.2c0.3,0.7,1.8,0.6,3.4,0.6c1.6-0.1,3.1-0.2,3.4-1c0.1-0.3-0.2-0.8-0.8-1.1
				c-1.7-0.8-3.7-0.7-5.3,0.3C85.3,90.4,85,90.9,85.2,91.2z"/>
		</g>
	</g>
</g>
<path class="st20" d="M85.2,91.2c0.3,0.7,1.8,0.6,3.4,0.6c1.6-0.1,3.1-0.2,3.4-1c0.1-0.3-0.2-0.8-0.8-1.1c-1.7-0.8-3.7-0.7-5.3,0.3
	C85.3,90.4,85,90.9,85.2,91.2z"/>
<path class="st20" d="M65.9,101.6c0.5,0.6,1.9,0,3.4-0.7c1.5-0.6,2.8-1.3,2.8-2.1c0-0.4-0.5-0.7-1.2-0.8c-1.9-0.2-3.7,0.6-4.9,2.1
	C65.7,100.8,65.6,101.3,65.9,101.6z"/>
<g>
	<path class="st21" d="M59.9,99c-3.2-8.6-11.3-14.4-20.5-14.7c5.4,7,12.4,12.6,20.5,16.3"/>
	<path class="st18" d="M62.9,99.3c1-10.5-3.9-20.7-12.7-26.5c1.7,9.2,5.1,18.1,9.9,26.1"/>
	<path class="st21" d="M62.4,97.3c3.3-4.7,3.6-10.9,0.6-15.9c-3.5,5.5-4.9,12-4,18.4"/>
	<path class="st22" d="M61.6,100c-1-7.5-5.6-14-12.3-17.4c0.8,6.6,4.2,12.7,9.4,17"/>
	<path class="st23" d="M60.1,98.7c0.7-2.6,4.5-3.1,6.7-1.6c2.2,1.5,3.3,4.2,4.2,6.7c4,11.4,7.2,23.1,10.3,34.8
		c-1.1,0.7-2.4-0.4-3.2-1.5c-7.9-10-14.9-20.6-20.9-31.8c-0.7-1-1.1-2.2-1.1-3.5c0-1.3,1.1-2.3,2.4-2.3"/>
	<g class="st24">
		<g>
			<path class="st20" d="M65.2,104.1c0.3,0.7,1.7,0.7,3-0.1s2-1.9,1.6-2.6c-0.4-0.6-1.7-0.4-2.9,0.3S64.9,103.5,65.2,104.1z"/>
		</g>
		<g>
			<path class="st20" d="M65.8,110.8c-0.5-0.5-1.6-0.2-2.5,0.4c-0.9,0.6-1.5,1.5-1.3,2.2c0.3,0.7,1.6,0.7,2.7-0.1
				S66.3,111.3,65.8,110.8z"/>
		</g>
		<g>
			<path class="st20" d="M70.7,117.6c0.3,0.6,1.3,0.8,2.3,0.3c0.9-0.5,1.5-1.4,1.2-2c-0.3-0.7-1.3-0.8-2.3-0.3
				C70.9,116.1,70.3,117,70.7,117.6z"/>
		</g>
		<g>
			<path class="st20" d="M56.9,100.4c0.6,0.5,1.9-0.4,3.2-1.3c1.4-0.9,2.6-1.8,2.4-2.6C62.5,96.2,62,96,61.3,96
				c-1.9,0.2-3.5,1.3-4.4,3C56.6,99.7,56.6,100.2,56.9,100.4z"/>
		</g>
	</g>
</g>
<g>
	<path class="st21" d="M103.4,100.3c2.6-8.8-0.4-18.3-7.6-24.1c0.1,8.9,2.4,17.6,6.7,25.3"/>
	<path class="st18" d="M105.6,102.4c7-7.9,9.2-18.9,5.7-28.9c-4.1,8.4-6.7,17.5-7.7,26.9"/>
	<path class="st21" d="M106.4,100.4c5.5-1.8,9.4-6.6,10-12.4c-6.1,2.3-11.1,6.7-14.2,12.3"/>
	<path class="st22" d="M104.2,102.1c3.6-6.6,3.8-14.6,0.5-21.3c-3.3,5.8-4.2,12.7-2.6,19.2"/>
	<path class="st23" d="M103.7,100.2c2.2-1.6,5.5,0.2,6.4,2.7s0.1,5.3-0.7,7.9c-3.6,11.6-8.1,22.8-12.5,34.1
		c-1.3-0.1-1.7-1.8-1.7-3.1c-0.3-12.7,0.4-25.4,2.3-38c0.1-1.2,0.5-2.4,1.2-3.4c0.8-1,2.2-1.2,3.2-0.4"/>
	<g class="st24">
		<g>
			<path class="st20" d="M104.6,107.6c-0.1,0.7,0.9,1.5,2.5,1.7c1.5,0.2,2.8-0.4,2.8-1.1s-1.1-1.3-2.5-1.5S104.7,106.9,104.6,107.6z
				"/>
		</g>
		<g>
			<path class="st20" d="M101,113.3c-0.1-0.7-1.1-1.1-2.3-1.2c-1.1,0-2.2,0.3-2.3,1s0.8,1.5,2.2,1.6
				C100.1,114.8,101.2,114,101,113.3z"/>
		</g>
		<g>
			<path class="st20" d="M100.9,121.7c-0.1,0.7,0.6,1.5,1.6,1.6c1,0.2,2-0.2,2.2-0.9c0.1-0.7-0.6-1.4-1.6-1.6
				C102,120.6,101,121,100.9,121.7z"/>
		</g>
		<g>
			<path class="st20" d="M100.1,99.7c0.2,0.7,1.7,0.8,3.4,0.9s3.1,0.1,3.5-0.6c0.1-0.3-0.1-0.8-0.7-1.2c-1.6-1-3.6-1.1-5.3-0.2
				C100.3,98.9,100,99.3,100.1,99.7z"/>
		</g>
	</g>
</g>
<path class="st20" d="M56.9,100.4c0.6,0.5,1.9-0.4,3.2-1.3c1.4-0.9,2.6-1.8,2.4-2.6C62.5,96.2,62,96,61.3,96c-1.9,0.2-3.5,1.3-4.4,3
	C56.6,99.7,56.6,100.2,56.9,100.4z"/>
<g>
	<path class="st21" d="M111.7,95.4c3.1-8.7,0.6-18.3-6.3-24.4c-0.4,8.9,1.4,17.7,5.3,25.6"/>
	<path class="st18" d="M113.8,97.6c7.5-7.5,10.3-18.4,7.3-28.5c-4.6,8.2-7.7,17.1-9.2,26.4"/>
	<path class="st21" d="M114.7,95.8c5.6-1.5,9.7-6.1,10.6-11.8c-6.2,2-11.5,6-14.9,11.5"/>
	<path class="st22" d="M112.4,97.3c4-6.4,4.6-14.3,1.7-21.3c-3.6,5.6-4.9,12.4-3.7,19"/>
	<path class="st23" d="M112.1,95.4c2.2-1.5,5.4,0.5,6.2,3.1c0.7,2.6-0.2,5.3-1.1,7.8c-4.3,11.3-9.3,22.4-14.4,33.4
		c-1.3-0.2-1.6-1.9-1.5-3.2c0.4-12.7,1.8-25.4,4.4-37.8c0.1-1.2,0.6-2.4,1.4-3.4c0.8-1,2.3-1.1,3.3-0.2"/>
	<g class="st24">
		<g>
			<path class="st20" d="M112.5,102.8c-0.2,0.7,0.9,1.6,2.4,1.8s2.8-0.2,2.9-0.9c0.1-0.7-1-1.4-2.4-1.6S112.7,102.1,112.5,102.8z"/>
		</g>
		<g>
			<path class="st20" d="M108.7,108.3c-0.1-0.7-1.1-1.2-2.2-1.3c-1.1-0.1-2.2,0.2-2.4,0.9s0.7,1.6,2.2,1.7
				C107.7,109.8,108.8,109.1,108.7,108.3z"/>
		</g>
		<g>
			<path class="st20" d="M108,116.7c-0.2,0.7,0.5,1.5,1.5,1.7c1,0.2,2-0.1,2.2-0.8s-0.5-1.5-1.5-1.7
				C109.2,115.6,108.2,116,108,116.7z"/>
		</g>
		<g>
			<path class="st20" d="M108.5,94.6c0.2,0.7,1.7,0.9,3.3,1.1c1.6,0.2,3.1,0.3,3.5-0.4c0.2-0.3-0.1-0.8-0.7-1.2
				c-1.6-1.1-3.6-1.3-5.3-0.5C108.8,93.9,108.4,94.3,108.5,94.6z"/>
		</g>
	</g>
</g>
<g>
	<path class="st21" d="M123.2,96.1c4.8-7.9,4.3-17.8-1.2-25.2c-2.2,8.6-2.2,17.6,0,26.2"/>
	<path class="st18" d="M124.8,98.7c8.8-5.8,13.8-16,12.9-26.5c-6.2,7.1-11,15.2-14.3,24"/>
	<path class="st21" d="M126.1,97c5.8-0.3,10.8-4,12.8-9.4c-6.4,0.7-12.4,3.6-16.9,8.3"/>
	<path class="st22" d="M123.5,98.1c5.2-5.5,7.4-13.1,6-20.5c-4.7,4.8-7.4,11.2-7.5,17.9"/>
	<path class="st23" d="M123.6,96.1c2.5-1,5.2,1.6,5.4,4.3c0.2,2.7-1.2,5.2-2.7,7.4c-6.5,10.2-13.6,20-20.8,29.8
		c-1.2-0.4-1.2-2.2-0.9-3.4c2.9-12.4,6.9-24.5,11.9-36.1c0.4-1.2,1.1-2.2,2-3c1-0.8,2.5-0.6,3.2,0.4"/>
	<g class="st24">
		<g>
			<path class="st20" d="M122.5,103.4c-0.3,0.6,0.5,1.7,1.9,2.3c1.4,0.6,2.8,0.4,3-0.3c0.2-0.7-0.7-1.6-2-2.1
				C124.1,102.8,122.8,102.8,122.5,103.4z"/>
		</g>
		<g>
			<path class="st20" d="M117.6,108.1c0.1-0.7-0.8-1.4-1.9-1.7s-2.2-0.2-2.5,0.4c-0.4,0.6,0.4,1.7,1.8,2.1
				C116.4,109.3,117.6,108.8,117.6,108.1z"/>
		</g>
		<g>
			<path class="st20" d="M115.3,116.1c-0.3,0.6,0.2,1.6,1.2,2c1,0.4,2,0.3,2.3-0.3c0.3-0.7-0.2-1.5-1.2-2
				C116.7,115.4,115.6,115.5,115.3,116.1z"/>
		</g>
		<g>
			<path class="st20" d="M120.2,94.7c0,0.7,1.5,1.2,3,1.7c1.5,0.5,3,0.9,3.5,0.3c0.2-0.3,0.1-0.8-0.4-1.4c-1.3-1.4-3.2-2-5.1-1.6
				C120.6,94,120.2,94.3,120.2,94.7z"/>
		</g>
	</g>
</g>
<path class="st20" d="M120.2,94.7c0,0.7,1.5,1.2,3,1.7c1.5,0.5,3,0.9,3.5,0.3c0.2-0.3,0.1-0.8-0.4-1.4c-1.3-1.4-3.2-2-5.1-1.6
	C120.6,94,120.2,94.3,120.2,94.7z"/>
<path class="st20" d="M108.5,94.6c0.2,0.7,1.7,0.9,3.3,1.1c1.6,0.2,3.1,0.3,3.5-0.4c0.2-0.3-0.1-0.8-0.7-1.2
	c-1.6-1.1-3.6-1.3-5.3-0.5C108.8,93.9,108.4,94.3,108.5,94.6z"/>
<path class="st25" d="M118.1,146c-13.5,4.1-27.6,5.8-41.6,4.9c-7.4-0.5-15.7-2.2-19.6-8.6c-2.2-3.6-2.6-8.1-3-12.4l-0.7-9
	c-0.1-1.2,0-2.8,1.1-3.2c0.8-0.1,1.6,0,2.2,0.5c11.9,6.4,26.1,5.7,39.5,4.8c10-0.7,19.7-2.3,29.1-6
	C125.2,116.9,127.8,142.9,118.1,146z"/>
<path class="st21" d="M73.5,126.4c-1.4-4.5-3.2-9-6.3-12.5s-7.8-5.9-12.5-5.3c-5,0.6-8.9,4.4-11.9,8.4c-4.9,6.7-8.1,14.5-9.1,22.8
	c-0.3,1.6-0.2,3.3,0.2,4.8c0.4,1.6,1.7,2.8,3.4,3.2c2.5,0.4,4.5-2.1,5.8-4.3c2.4-3.8,4.8-7.6,7.2-11.4c1.5-2.7,3.4-5.2,5.7-7.4
	c2.2-2.2,5.3-3.4,8.5-3.3c3.1,0.2,6.1,2.6,6.5,5.7"/>
<g>
	<path class="st20" d="M38.4,136.1c0.1,0.1,1.7-2.1,4.1-5.8c1.2-1.9,2.6-4,4.2-6.5c1.6-2.7,3.6-5,6.1-6.8c2.4-1.8,5.5-2.5,8.4-1.7
		c2.3,0.8,4.5,2.2,6.1,4.1c3,3.1,4.3,5.5,4.5,5.4c-0.1-0.6-0.4-1.2-0.7-1.8c-0.9-1.5-1.9-2.9-3.1-4.2c-1.7-2-3.9-3.6-6.4-4.5
		c-1.5-0.5-3.2-0.6-4.8-0.2c-1.7,0.3-3.3,1-4.7,2c-2.6,2-4.7,4.4-6.3,7.2c-1.5,2.5-2.8,4.7-4,6.6C39.6,133.7,38.3,136,38.4,136.1z"
		/>
	<path class="st20" d="M51.8,126.6c0.2-0.1-0.1-0.8-0.2-1.9c-0.1-1.5,0.1-2.9,0.6-4.3c0.6-1.4,1.2-2.7,2-4c0.6-1,0.9-1.7,0.8-1.8
		s-0.7,0.4-1.5,1.3c-1,1.2-1.9,2.6-2.4,4.1c-0.6,1.6-0.7,3.3-0.3,4.9C51.1,126.1,51.7,126.7,51.8,126.6z"/>
	<path class="st20" d="M46,133.3c0.3,0,0.4-2.3,0.4-5.1s0-5-0.4-5.1s-0.8,2.2-0.8,5.1S45.7,133.3,46,133.3z"/>
	<path class="st20" d="M46.1,114.9c0,0.3,1.8,0.6,4.1,0.6s4.1,0,4.1-0.3s-1.8-0.8-4.1-0.8S46.1,114.6,46.1,114.9z"/>
	<path class="st20" d="M40.7,123.6c0,0.3,1.3,0.6,2.9,0.1s2.5-1.4,2.4-1.7s-1.3,0.2-2.7,0.6S40.7,123.2,40.7,123.6z"/>
</g>
<path class="st25" d="M74.9,123.2c-3.4-0.4-6.8-1-10.1-1.7l0.5,7.5l10.4,0.5L74.9,123.2z"/>
<path class="st4" d="M32.6,149.8c2.9-1.8,31.4-8,45.6-11c2.1,6,4.4,11.9,6.7,17.8c-16,8.2-36.5,16.6-45.8,16.8
	C27.8,173.7,24.9,154.4,32.6,149.8z"/>
<line class="st26" x1="55.9" y1="143.8" x2="42.9" y2="146.3"/>
<path class="st27" d="M71.9,139.1c7.7-1.7,14.6-3,14.6-3c0.3-0.7,4.7-8.8,6.8-9.7c3.3-1.3,1.9,6.8,0.6,8c1.4-1,13-7.7,14.6-6.5
	c1.2,0.9-6.6,7.3-6.6,7.3s11.8-5.1,12.3-3.9s-10.4,6.8-10.4,6.8s9.4-2.8,9.9-1.3c0.4,1.2-8.7,5.2-8.7,5.2s6.6-0.1,6.9,1.1
	s-9.6,3.7-11.5,4.5c-5.3,3.4-13.6,10.3-21.9,14.3C78.4,161.6,73.6,145.4,71.9,139.1z"/>
<path class="st28" d="M71.9,139.1c0,0-1.2-0.3-1.3,0.2s6,23.2,7.1,23l1.1-0.2L71.9,139.1z"/>
<path class="st20" d="M100.2,99.2c0.1,0.7,1.6,1,3.3,1.3c1.6,0.3,3.1,0.4,3.5-0.2c0.2-0.3,0-0.8-0.6-1.3c-1.5-1.2-3.5-1.5-5.3-0.8
	C100.5,98.4,100.1,98.8,100.2,99.2z"/>
</svg>
