<svg id="Layer_1" data-name="Layer 1" xmlns="http://www.w3.org/2000/svg" viewBox="0 0 50 86"><defs><style>.cls-1{fill:#f9c3b1;}.cls-2{fill:#fd9b00;}.cls-3{fill:#fdb96a;}</style></defs><path class="cls-1" d="M21.42,29.67l2.26,1.11Q31.24,34.46,38.86,38C35,55.14,28.77,75.1,23.19,82.19c-7,8.89-23.7-1-22.37-9.93C1.26,68.84,14.79,42.44,21.42,29.67Z"/><path class="cls-2" d="M17.32,35.4a87.12,87.12,0,0,0,7.19-13c-.23-.74-1.44-8.84-.51-10.91,1.43-3.21,6.94,4.14,6.86,5.95C31.14,15.75,33.49,2,36,2.36c1.52.23.25,9.54.25,9.54S41.23.08,42.47.63,39.7,12.71,39.7,12.71s4.87-8.49,6.23-7.77c1.16.61-2.65,9.8-2.65,9.8s4.67-4.67,5.79-4S45.41,19,44.64,21.27c-.52,1.56-3.5,17.52-6.74,26.08C37.58,47.17,22.89,38.81,17.32,35.4Z"/><path class="cls-3" d="M17.32,35.4s-1.11.61-.81,1.09S36.92,49.07,37.57,48.14l.65-.94Z"/></svg>